<svg width="113" height="80" viewBox="0 0 113 80" fill="none" xmlns="http://www.w3.org/2000/svg">
<path d="M80.891 40.0121H34.7659C26.4463 40.0121 19.7041 33.2699 19.7041 24.9504V15.0699C19.7041 6.75042 26.4463 0 34.7659 0H83.3018C88.8182 0 93.2886 4.47029 93.2886 9.98667H34.7577C31.9546 9.98667 29.6826 12.2586 29.6826 15.0618V24.9422C29.6826 27.7454 31.9546 30.0173 34.7577 30.0173H80.8828V40.004L80.891 40.0121Z" fill="#969696"/>
<path d="M78.3576 54.7882H29.601C24.0846 54.7882 19.6143 50.3179 19.6143 44.8015H78.3576C81.1607 44.8015 83.4327 42.5296 83.4327 39.7264V29.846C83.4327 27.0428 81.1607 24.7709 78.3576 24.7709H32.2243V14.7842H78.3576C86.6771 14.7842 93.4193 21.5264 93.4193 29.8541V39.7346C93.4193 48.0541 86.6771 54.8045 78.3576 54.8045V54.7882Z" fill="#969696"/>
<g style="mix-blend-mode:multiply" opacity="0.4">
<path d="M34.758 9.99517H93.2889L84.1113 6.29309C81.9865 5.43498 79.7145 4.99365 77.4181 4.99365H34.7989C29.2335 4.99365 24.7305 9.50483 24.7305 15.0621V24.9425C24.7305 30.508 29.2416 35.0109 34.7989 35.0109H80.8913V30.0176H34.7662C31.9631 30.0176 29.6911 27.7457 29.6911 24.9425V15.0621C29.6911 12.2589 31.9631 9.98699 34.7662 9.98699L34.758 9.99517Z" fill="#969696"/>
</g>
<g style="mix-blend-mode:multiply" opacity="0.4">
<path d="M36.7933 49.8113H78.3991C83.9645 49.8113 88.4675 45.3001 88.4675 39.7428V29.8624C88.4675 24.297 83.9563 19.7939 78.3991 19.7939H32.2331V24.7873H78.3664C81.1695 24.7873 83.4415 27.0592 83.4415 29.8624V39.7428C83.4415 42.546 81.1695 44.8179 78.3664 44.8179H19.623L29.6506 48.5282C31.9389 49.3781 34.3579 49.8113 36.8015 49.8113H36.7933Z" fill="#969696"/>
</g>
<path d="M6.79946 72.2037C7.51046 72.7676 7.95993 73.5358 8.17242 74.5083H6.00673C5.84328 74.116 5.59812 73.8055 5.27122 73.5848C4.93615 73.3642 4.54387 73.2498 4.09439 73.2498C3.4978 73.2498 3.01561 73.4704 2.64786 73.9117C2.2801 74.353 2.10032 74.9414 2.10032 75.6769C2.10032 76.4125 2.2801 77.0009 2.64786 77.434C3.01561 77.8672 3.4978 78.0878 4.09439 78.0878C4.55204 78.0878 4.94432 77.9734 5.27122 77.7528C5.60629 77.5321 5.85146 77.2215 6.00673 76.8456H8.17242C7.96811 77.8018 7.51046 78.57 6.79946 79.142C6.08846 79.7141 5.19766 80.0002 4.11891 80.0002C3.29349 80.0002 2.57432 79.8204 1.95322 79.4526C1.33212 79.093 0.849927 78.5782 0.506686 77.9244C0.163444 77.2706 0 76.5187 0 75.6851C0 74.8515 0.171617 74.0997 0.506686 73.4459C0.849927 72.7921 1.32394 72.2772 1.95322 71.9177C2.57432 71.5581 3.30166 71.3701 4.11891 71.3701C5.19766 71.3701 6.08846 71.6561 6.79946 72.22V72.2037Z" fill="#969696"/>
<path d="M16.729 71.8687C17.3828 72.2365 17.8977 72.7595 18.2655 73.4133C18.6414 74.0753 18.8294 74.819 18.8294 75.6525C18.8294 76.4861 18.6414 77.2298 18.2573 77.8918C17.8813 78.5537 17.3583 79.0686 16.7127 79.4445C16.0589 79.8123 15.3397 80.0003 14.547 80.0003C13.7543 80.0003 13.0351 79.8123 12.3813 79.4445C11.7275 79.0767 11.2127 78.5537 10.8367 77.8918C10.4608 77.2298 10.2646 76.478 10.2646 75.6525C10.2646 74.8271 10.4526 74.0753 10.8367 73.4133C11.2127 72.7513 11.7275 72.2365 12.3813 71.8687C13.0351 71.5009 13.7543 71.313 14.547 71.313C15.3397 71.313 16.0671 71.5009 16.7209 71.8687H16.729ZM12.9534 73.871C12.5611 74.3041 12.3568 74.9007 12.3568 75.6525C12.3568 76.4044 12.5529 76.9846 12.9534 77.4259C13.3457 77.8673 13.885 78.0879 14.5552 78.0879C15.2253 78.0879 15.7484 77.8673 16.1488 77.4259C16.5492 76.9846 16.7454 76.3962 16.7454 75.6525C16.7454 74.9088 16.5492 74.3204 16.1488 73.8791C15.7565 73.4378 15.2172 73.2171 14.547 73.2171C13.8769 73.2171 13.3456 73.4378 12.9452 73.871H12.9534Z" fill="#969696"/>
<path d="M30.7117 71.501V79.9186H28.6604V74.6555L26.8379 79.9186H25.0645L23.2339 74.6473V79.9186H21.1826V71.501H23.6915L25.9798 77.3606L28.2191 71.501H30.7117Z" fill="#969696"/>
<path d="M35.3706 76.9439V79.9186H33.3193V71.4438H36.6373C37.6425 71.4438 38.4107 71.6972 38.9419 72.1957C39.4731 72.6942 39.7347 73.3726 39.7347 74.2143C39.7347 74.7455 39.6203 75.2113 39.3833 75.6199C39.1463 76.0286 38.7948 76.3555 38.3372 76.5925C37.8714 76.8295 37.3075 76.9439 36.6455 76.9439H35.3788H35.3706ZM37.6507 74.2143C37.6507 73.4706 37.2421 73.1029 36.4167 73.1029H35.3706V75.3094H36.4167C37.2421 75.3094 37.6507 74.9498 37.6507 74.2225V74.2143Z" fill="#969696"/>
<path d="M47.1959 78.3662H44.0169L43.4856 79.9107H41.3281L44.4336 71.4932H46.7955L49.901 79.9107H47.719L47.1877 78.3662H47.1959ZM46.6647 76.8052L45.6105 73.6915L44.5399 76.8052H46.6647Z" fill="#969696"/>
<path d="M59.4213 79.9103H57.3701L53.9458 74.7045V79.9103H51.8945V71.4355H53.9458L57.3701 76.6823V71.4355H59.4213V79.9103Z" fill="#969696"/>
<path d="M69.3589 71.4355L66.425 77.0909V79.9103H64.3655V77.0909L61.4316 71.4355H63.7771L65.4034 74.8843L67.0298 71.4355H69.3589Z" fill="#969696"/>
<path d="M82.4682 79.9103H80.4169L76.9927 74.7045V79.9103H74.9414V71.4355H76.9927L80.4169 76.6823V71.4355H82.4682V79.9103Z" fill="#969696"/>
<path d="M90.3298 78.3662H87.1507L86.6194 79.9107H84.4619L87.5675 71.4932H89.9293L93.0348 79.9107H90.8528L90.3216 78.3662H90.3298ZM89.7985 76.8052L88.7443 73.6915L87.6737 76.8052H89.7985Z" fill="#969696"/>
<path d="M104.558 71.501V79.9186H102.507V74.6555L100.685 79.9186H98.9112L97.0805 74.6473V79.9186H95.0293V71.501H97.5382L99.8265 77.3606L102.066 71.501H104.558Z" fill="#969696"/>
<path d="M109.225 73.07V74.8435H112.093V76.388H109.225V78.2677H112.453V79.9103H107.182V71.4355H112.453V73.0618H109.225V73.07Z" fill="#969696"/>
</svg>
