<svg width="105" height="80" viewBox="0 0 105 80" fill="none" xmlns="http://www.w3.org/2000/svg">
<path d="M24.8231 30.7729C25.7159 29.5044 26.7919 28.3352 28.0281 27.296L31.8893 24.0483L44.1902 13.7168C44.7243 14.4657 45.3653 15.1611 46.0979 15.78L52.607 21.2514L41.7483 30.3755L34.934 36.0991C34.293 36.634 33.7741 37.2683 33.3773 37.956C31.8435 40.6153 32.1716 44.1152 34.5295 46.4459C37.063 48.9523 41.1226 49.0211 43.9078 46.8127L52.5993 54.1181L51.0884 55.3866C43.5034 61.7673 32.1792 60.8503 25.7083 53.3845C20.0996 46.9196 20.0615 37.4975 24.8231 30.7729Z" fill="#969696"/>
<path d="M52.6064 6.6331L60.4891 0.0078125C63.839 4.00438 63.923 9.65154 61.0232 13.7092L52.6064 6.6331Z" fill="#969696"/>
<path d="M52.6063 39.5074L63.4726 30.3757L68.0968 26.4938C69.6535 25.187 71.462 24.3694 73.324 24.0484C77.1317 23.3683 81.1761 24.698 83.8316 27.8692L80.3748 30.7731L71.8283 37.9562L61.2978 46.8052C61.2444 46.7593 61.1909 46.7211 61.1375 46.6753L52.5986 39.4998L52.6063 39.5074Z" fill="#969696"/>
<path d="M44.7162 0.0078125L52.6065 6.6331L61.0233 13.7092L73.3242 24.0484C71.4546 24.3693 69.6538 25.187 68.0971 26.4937L63.4728 30.3756L52.6065 21.2515L46.0974 15.7801C45.3572 15.1612 44.7239 14.4658 44.1897 13.7169C41.29 9.66683 41.3739 4.01202 44.7239 0.0154558L44.7162 0.0078125Z" fill="#969696"/>
<path d="M33.377 37.9565C33.7738 37.2687 34.2927 36.6345 34.9336 36.0996L41.748 30.376L52.6066 39.5077L61.1455 46.6832C61.1989 46.729 61.2524 46.7673 61.3058 46.8131C64.091 49.0215 68.1506 48.9604 70.6841 46.4463C73.042 44.1156 73.3625 40.6081 71.8363 37.9565L80.3828 30.7733C85.1521 37.4903 85.1063 46.9201 79.4977 53.3849C73.0267 60.8508 61.7102 61.7678 54.1175 55.387L52.6066 54.1185L43.9151 46.8131L33.3846 37.9641L33.377 37.9565Z" fill="#969696"/>
<path d="M21.3738 27.8692C24.037 24.698 28.0813 23.3683 31.8891 24.0484L28.0279 27.2961C26.7917 28.3354 25.7234 29.5046 24.823 30.7731L21.3662 27.8692H21.3738Z" fill="#969696"/>
<g opacity="0.3">
<g style="mix-blend-mode:multiply" opacity="0.3">
<path d="M25.7159 53.3843C32.1869 60.8502 43.5034 61.7671 51.0961 55.3864L52.607 54.1179L48.265 50.4652L47.5019 51.0994C45.1516 53.071 42.2748 54.0415 39.4285 54.0415C35.842 54.0415 32.2784 52.5131 29.7908 49.5406C26.0822 45.1084 25.9372 38.8652 29.0582 34.3184C29.6916 33.4014 30.447 32.5532 31.3399 31.8043L32.8736 30.5129L37.3911 26.7227L48.2574 17.5909L46.0979 15.7722C45.3577 15.1532 44.7243 14.4579 44.1902 13.709L31.8893 24.0405L28.0281 27.2881C27.5321 27.7084 27.059 28.1517 26.6164 28.6101C25.9525 29.2903 25.3573 30.0162 24.8231 30.7727C20.0615 37.4974 20.0996 46.9195 25.7083 53.3843H25.7159Z" fill="#969696"/>
</g>
<path style="mix-blend-mode:multiply" opacity="0.3" d="M56.5674 9.9645L61.0238 13.7089C63.8167 9.80403 63.8396 4.41669 60.8483 0.450684L57.4449 8.32155C57.1931 8.89467 56.9031 9.44487 56.5674 9.9645Z" fill="url(#paint0_linear_254_1787)"/>
<g style="mix-blend-mode:multiply" opacity="0.3">
<path d="M57.4446 8.31409L60.8479 0.443216C60.7335 0.290383 60.619 0.145191 60.4969 0L52.6143 6.62529L56.567 9.95703C56.9028 9.4374 57.1927 8.88721 57.4446 8.31409Z" fill="#969696"/>
</g>
<g style="mix-blend-mode:multiply" opacity="0.3">
<path d="M44.366 0.45054C44.4805 0.297707 44.5949 0.152515 44.717 0.00732422L52.6073 6.63261L56.5601 9.96436L61.0165 13.7088L73.3174 24.0479C71.4478 24.3688 69.647 25.1865 68.0903 26.4932L67.8079 26.7301L56.9493 17.5983L52.5997 13.9456L50.8675 12.4937C50.0052 11.7678 49.2498 10.9119 48.6469 9.96436C48.3035 9.44473 48.0136 8.89453 47.7617 8.32141L44.3584 0.45054H44.366Z" fill="#969696"/>
</g>
<path style="mix-blend-mode:multiply" opacity="0.3" d="M44.3655 0.450684L47.7688 8.32155C48.013 8.89467 48.3106 9.43723 48.654 9.9645C49.2645 10.9121 50.0123 11.7679 50.8746 12.4939L52.6068 13.9458L56.9563 17.5985L67.815 26.7302L63.4654 30.3753L52.6068 21.2512L48.2572 17.5985L46.0977 15.7798C45.3575 15.1608 44.7241 14.4654 44.19 13.7165C41.3971 9.81167 41.3666 4.41668 44.3655 0.458321V0.450684Z" fill="url(#paint1_linear_254_1787)"/>
<g style="mix-blend-mode:multiply" opacity="0.3">
<path d="M33.377 37.9557C33.7738 37.268 34.2927 36.6337 34.9336 36.0988L37.3908 34.0279L48.2571 43.1597L52.6066 46.8124L56.9486 50.4574L57.7117 51.0917C60.062 53.0632 62.9388 54.0337 65.7851 54.0337C69.3716 54.0337 72.9352 52.5054 75.4228 49.5328C79.139 45.1007 79.2764 38.8498 76.1554 34.3107L80.3828 30.7573C85.1521 37.4743 85.1063 46.9041 79.4977 53.3689C73.0267 60.8347 61.7102 61.7518 54.1175 55.371L52.6066 54.1025L48.2647 50.4498L43.9151 46.7971L33.3846 37.9481L33.377 37.9557Z" fill="#969696"/>
</g>
<path style="mix-blend-mode:multiply" opacity="0.3" d="M29.0579 34.3261C29.6913 33.4092 30.4467 32.5609 31.3396 31.8121L32.8733 30.5206L37.3908 26.7304L48.2571 17.5986L52.6067 21.2513L41.748 30.3754L37.3984 34.0281L34.9413 36.099C34.3003 36.6339 33.7814 37.2682 33.3846 37.9559C31.8508 40.6152 32.1789 44.1151 34.5369 46.4458C37.0703 48.9522 41.1299 49.021 43.9152 46.8126L48.2647 50.4653L47.5016 51.0995C45.1513 53.071 42.2745 54.0415 39.4282 54.0415C35.8417 54.0415 32.2781 52.5132 29.7905 49.5406C26.0819 45.1085 25.9369 38.8653 29.0579 34.3185V34.3261Z" fill="url(#paint2_linear_254_1787)"/>
<path style="mix-blend-mode:multiply" opacity="0.3" d="M28.0282 27.2884L31.8894 24.0408C28.2571 23.3989 24.4036 24.5757 21.748 27.4413L26.6241 28.6028C27.0591 28.1443 27.5322 27.7011 28.0358 27.2808L28.0282 27.2884Z" fill="url(#paint3_linear_254_1787)"/>
<g style="mix-blend-mode:multiply" opacity="0.3">
<path d="M24.8308 30.7728C25.3649 30.0163 25.9602 29.2904 26.624 28.6103L21.7479 27.4487C21.6182 27.5863 21.4961 27.7238 21.374 27.869L24.8308 30.7728Z" fill="#969696"/>
</g>
<path style="mix-blend-mode:multiply" opacity="0.3" d="M52.6064 39.5071L63.4651 30.3753L67.8147 26.7303L68.097 26.4934C69.6537 25.1867 71.4622 24.369 73.3241 24.0481C76.9564 23.4062 80.8023 24.583 83.4579 27.4486L78.5894 28.6101L75.1326 29.4354C74.1559 29.6723 73.2097 30.0315 72.3321 30.5282C71.6759 30.8797 71.0654 31.3 70.4931 31.7814L67.8147 34.028L56.956 43.1598L52.6064 39.5071Z" fill="url(#paint4_linear_254_1787)"/>
<g style="mix-blend-mode:multiply" opacity="0.3">
<path d="M56.9568 43.1599L67.8155 34.0282L70.4939 31.7815C71.0662 31.3001 71.6767 30.8798 72.333 30.5283C73.2105 30.0392 74.1567 29.6724 75.1335 29.4356L78.5902 28.6103L83.4587 27.4487C83.5884 27.5863 83.7105 27.7238 83.8326 27.869L80.3758 30.7728L76.1484 34.3262L71.8293 37.956L61.2988 46.805C61.2454 46.7591 61.192 46.7209 61.1385 46.6751L56.9492 43.1523L56.9568 43.1599Z" fill="#969696"/>
</g>
<path style="mix-blend-mode:multiply" opacity="0.3" d="M37.3914 34.0282L41.741 30.3755L52.5997 39.5072L56.9492 43.1599L61.1386 46.6827C61.192 46.7286 61.2454 46.7668 61.2988 46.8126C64.0841 49.021 68.1437 48.9599 70.6771 46.4458C73.035 44.1151 73.3555 40.6076 71.8293 37.956L76.1484 34.3262C79.2694 38.8653 79.132 45.1162 75.4158 49.5483C72.9282 52.5209 69.3646 54.0492 65.7781 54.0492C62.9318 54.0492 60.055 53.0788 57.7047 51.1072L56.9416 50.473L52.5997 46.8279L48.2501 43.1752L37.3838 34.0435L37.3914 34.0282Z" fill="url(#paint5_linear_254_1787)"/>
</g>
<path style="mix-blend-mode:multiply" opacity="0.3" d="M57.4138 35.457L52.4385 39.637L60.9774 46.8125C61.0308 46.8583 61.0842 46.8965 61.13 46.9424L65.9374 42.9C63.4345 42.3268 59.352 40.6075 57.4061 35.457H57.4138Z" fill="url(#paint6_radial_254_1787)"/>
<path style="mix-blend-mode:multiply" opacity="0.3" d="M60.8553 13.831C62.3051 11.806 63.0072 9.38356 62.9309 6.96881C61.3131 5.83021 59.6496 4.1949 58.3218 1.81836L52.4385 6.76248L60.8553 13.8386V13.831Z" fill="url(#paint7_radial_254_1787)"/>
<path style="mix-blend-mode:multiply" opacity="0.3" d="M40.4652 59.719C44.1814 59.4745 47.8595 58.0913 50.9271 55.5085L52.438 54.24L43.7465 46.9346C42.5026 47.9203 40.9994 48.4553 39.4961 48.5164C40.8696 51.6112 40.7399 56.563 40.4728 59.719H40.4652Z" fill="url(#paint8_radial_254_1787)"/>
<path style="mix-blend-mode:multiply" opacity="0.3" d="M45.9833 26.7986L52.439 21.373L45.9299 15.9016C45.1897 15.2826 44.5564 14.5873 44.0222 13.8384L37.6123 19.2257C42.1679 21.3348 44.709 24.6054 45.9833 26.7986Z" fill="url(#paint9_radial_254_1787)"/>
<path style="mix-blend-mode:multiply" opacity="0.3" d="M34.7657 36.2283C34.1247 36.7632 33.6058 37.3975 33.209 38.0852L38.5429 42.5632C39.6647 40.4312 42.1447 37.5579 47.6007 35.5635L41.58 30.4971L34.7657 36.2206V36.2283Z" fill="url(#paint10_radial_254_1787)"/>
<path style="mix-blend-mode:multiply" opacity="0.3" d="M24.6624 30.9023C25.5552 29.6338 26.6311 28.4646 27.8673 27.4254L31.7285 24.1777C29.714 23.8185 27.6308 24.0249 25.7154 24.7737L22.2129 28.8391L24.67 30.9023H24.6624Z" fill="url(#paint11_radial_254_1787)"/>
<path style="mix-blend-mode:multiply" opacity="0.3" d="M57.7039 25.7977L63.3049 30.505L67.9292 26.623C69.4859 25.3163 71.2944 24.4987 73.1563 24.1777L65.4645 17.7129C63.1676 22.0304 60.1687 24.4528 57.6963 25.7977H57.7039Z" fill="url(#paint12_radial_254_1787)"/>
<path style="mix-blend-mode:multiply" opacity="0.15" d="M83.6636 42.3342C83.7857 38.3224 82.6106 34.2723 80.2145 30.9023L71.668 38.0855C72.3853 39.331 72.6905 40.7677 72.576 42.1814C76.2541 40.6072 80.886 41.5089 83.6636 42.3266V42.3342Z" fill="url(#paint13_radial_254_1787)"/>
<path d="M6.34885 72.7101C7.01273 73.2374 7.44005 73.9557 7.63083 74.865H5.60866C5.45604 74.4982 5.22712 74.2079 4.92188 74.0015C4.60902 73.7952 4.24274 73.6882 3.82304 73.6882C3.26599 73.6882 2.81577 73.8946 2.47239 74.3072C2.129 74.7199 1.96112 75.27 1.96112 75.9578C1.96112 76.6455 2.129 77.1957 2.47239 77.6007C2.81577 78.0058 3.26599 78.2121 3.82304 78.2121C4.25037 78.2121 4.61665 78.1051 4.92188 77.8988C5.23475 77.6924 5.46367 77.4021 5.60866 77.0505H7.63083C7.44005 77.9446 7.01273 78.6629 6.34885 79.1978C5.68496 79.7328 4.85321 80.0002 3.84594 80.0002C3.07522 80.0002 2.40371 79.8321 1.82377 79.4882C1.24382 79.152 0.793605 78.6706 0.47311 78.0592C0.152616 77.4479 0 76.7449 0 75.9654C0 75.186 0.160247 74.483 0.47311 73.8716C0.793605 73.2603 1.23619 72.7865 1.82377 72.4427C2.40371 72.1064 3.08285 71.9307 3.84594 71.9307C4.85321 71.9307 5.68496 72.1981 6.34885 72.7254V72.7101Z" fill="#969696"/>
<path d="M15.6209 72.3893C16.2314 72.7331 16.7045 73.2222 17.0555 73.8335C17.4066 74.4525 17.5821 75.1479 17.5821 75.9273C17.5821 76.7068 17.4066 77.4022 17.0479 78.0211C16.6969 78.6401 16.2085 79.1215 15.6057 79.473C14.9952 79.8169 14.3237 79.9927 13.5835 79.9927C12.8433 79.9927 12.1718 79.8169 11.5613 79.473C10.9509 79.1292 10.4701 78.6401 10.1191 78.0211C9.7681 77.4022 9.58496 76.6991 9.58496 75.9273C9.58496 75.1555 9.76047 74.4525 10.1191 73.8335C10.4701 73.2145 10.9509 72.7331 11.5613 72.3893C12.1718 72.0454 12.8433 71.8696 13.5835 71.8696C14.3237 71.8696 15.0028 72.0454 15.6133 72.3893H15.6209ZM12.0955 74.2614C11.7292 74.6665 11.5385 75.2243 11.5385 75.9273C11.5385 76.6304 11.7216 77.1729 12.0955 77.5856C12.4618 77.9982 12.9654 78.2045 13.5911 78.2045C14.2169 78.2045 14.7052 77.9982 15.0792 77.5856C15.4531 77.1729 15.6362 76.6227 15.6362 75.9273C15.6362 75.2319 15.4531 74.6817 15.0792 74.2691C14.7129 73.8565 14.2092 73.6501 13.5835 73.6501C12.9578 73.6501 12.4618 73.8564 12.0879 74.2614H12.0955Z" fill="#969696"/>
<path d="M28.669 72.0454V79.9163H26.7537V74.9951L25.052 79.9163H23.3961L21.6868 74.9874V79.9163H19.7715V72.0454H22.1141L24.2508 77.5245L26.3416 72.0454H28.669Z" fill="#969696"/>
<path d="M33.0267 77.135V79.9165H31.1113V71.9922H34.2094C35.148 71.9922 35.8653 72.2291 36.3613 72.6952C36.8573 73.1614 37.1015 73.788 37.1015 74.5827C37.1015 75.0794 36.9947 75.515 36.7734 75.8971C36.5521 76.2791 36.224 76.5848 35.7967 76.8064C35.3617 77.028 34.8352 77.135 34.2171 77.135H33.0343H33.0267ZM35.1557 74.5827C35.1557 73.8873 34.7741 73.5434 34.0034 73.5434H33.0267V75.6067H34.0034C34.7741 75.6067 35.1557 75.2704 35.1557 74.5903V74.5827Z" fill="#969696"/>
<path d="M44.061 78.472H41.0926L40.5966 79.9163H38.582L41.4817 72.0454H43.6871L46.5868 79.9163H44.5493L44.0533 78.472H44.061ZM43.565 77.0125L42.5806 74.101L41.5809 77.0125H43.565Z" fill="#969696"/>
<path d="M55.4761 79.9165H53.5607L50.3558 75.0488V79.9165H48.4404V71.9922H50.3558L53.5607 76.8981V71.9922H55.4761V79.9165Z" fill="#969696"/>
<path d="M64.7554 71.9922L62.016 77.2802V79.9165H60.093V77.2802L57.3535 71.9922H59.5436L61.0621 75.2169L62.5806 71.9922H64.7554Z" fill="#969696"/>
<path d="M77.0024 79.9165H75.0871L71.8821 75.0488V79.9165H69.9668V71.9922H71.8821L75.0871 76.8981V71.9922H77.0024V79.9165Z" fill="#969696"/>
<path d="M84.3432 78.472H81.3748L80.8788 79.9163H78.8643L81.764 72.0454H83.9693L86.869 79.9163H84.8316L84.3356 78.472H84.3432ZM83.8472 77.0125L82.8628 74.101L81.8632 77.0125H83.8472Z" fill="#969696"/>
<path d="M97.628 72.0454V79.9163H95.7127V74.9951L94.011 79.9163H92.3551L90.6458 74.9874V79.9163H88.7305V72.0454H91.0731L93.2098 77.5245L95.3006 72.0454H97.628Z" fill="#969696"/>
<path d="M101.986 73.5127V75.1709H104.664V76.6152H101.986V78.3728H105V79.9087H100.078V71.9844H105V73.5051H101.986V73.5127Z" fill="#969696"/>
<defs>
<linearGradient id="paint0_linear_254_1787" x1="63.5267" y1="4.01168" x2="56.6705" y2="12.1175" gradientUnits="userSpaceOnUse">
<stop stop-color="white"/>
<stop offset="0.11" stop-color="#FAFAFA"/>
<stop offset="0.23" stop-color="#ECECEC"/>
<stop offset="0.36" stop-color="#D5D5D5"/>
<stop offset="0.5" stop-color="#B5B5B5"/>
<stop offset="0.64" stop-color="#8B8B8B"/>
<stop offset="0.79" stop-color="#595959"/>
<stop offset="0.93" stop-color="#1E1E1E"/>
<stop offset="1"/>
</linearGradient>
<linearGradient id="paint1_linear_254_1787" x1="45.8611" y1="8.66543" x2="78.6757" y2="37.3367" gradientUnits="userSpaceOnUse">
<stop stop-color="white"/>
<stop offset="1"/>
</linearGradient>
<linearGradient id="paint2_linear_254_1787" x1="68.1812" y1="14.8706" x2="31.3985" y2="48.8087" gradientUnits="userSpaceOnUse">
<stop stop-color="white"/>
<stop offset="0.11" stop-color="#FAFAFA"/>
<stop offset="0.23" stop-color="#ECECEC"/>
<stop offset="0.36" stop-color="#D5D5D5"/>
<stop offset="0.5" stop-color="#B5B5B5"/>
<stop offset="0.64" stop-color="#8B8B8B"/>
<stop offset="0.79" stop-color="#595959"/>
<stop offset="0.93" stop-color="#1E1E1E"/>
<stop offset="1"/>
</linearGradient>
<linearGradient id="paint3_linear_254_1787" x1="31.8894" y1="26.2415" x2="21.748" y2="26.2415" gradientUnits="userSpaceOnUse">
<stop stop-color="white"/>
<stop offset="1"/>
</linearGradient>
<linearGradient id="paint4_linear_254_1787" x1="83.4655" y1="33.516" x2="52.6064" y2="33.516" gradientUnits="userSpaceOnUse">
<stop stop-color="white"/>
<stop offset="0.11" stop-color="#FAFAFA"/>
<stop offset="0.23" stop-color="#ECECEC"/>
<stop offset="0.36" stop-color="#D5D5D5"/>
<stop offset="0.5" stop-color="#B5B5B5"/>
<stop offset="0.64" stop-color="#8B8B8B"/>
<stop offset="0.79" stop-color="#595959"/>
<stop offset="0.93" stop-color="#1E1E1E"/>
<stop offset="1"/>
</linearGradient>
<linearGradient id="paint5_linear_254_1787" x1="27.83" y1="8.83376" x2="96.0796" y2="68.4192" gradientUnits="userSpaceOnUse">
<stop stop-color="white"/>
<stop offset="1"/>
</linearGradient>
<radialGradient id="paint6_radial_254_1787" cx="0" cy="0" r="1" gradientUnits="userSpaceOnUse" gradientTransform="translate(62.5417 37.2375) rotate(180) scale(8.09631 8.10777)">
<stop offset="0.71" stop-color="white"/>
<stop offset="0.76" stop-color="#FCFCFC"/>
<stop offset="0.8" stop-color="#F2F2F2"/>
<stop offset="0.83" stop-color="#E2E2E2"/>
<stop offset="0.87" stop-color="#CCCCCC"/>
<stop offset="0.89" stop-color="#AFAFAF"/>
<stop offset="0.92" stop-color="#8C8C8C"/>
<stop offset="0.95" stop-color="#626262"/>
<stop offset="0.98" stop-color="#323232"/>
<stop offset="1"/>
</radialGradient>
<radialGradient id="paint7_radial_254_1787" cx="0" cy="0" r="1" gradientUnits="userSpaceOnUse" gradientTransform="translate(62.1449 4.43179) rotate(180) scale(9.51564 9.5291)">
<stop offset="0.57" stop-color="white"/>
<stop offset="0.61" stop-color="#FEFEFE"/>
<stop offset="0.65" stop-color="#F4F4F4"/>
<stop offset="0.7" stop-color="#DADADA"/>
<stop offset="0.77" stop-color="#B0B0B0"/>
<stop offset="0.86" stop-color="#767676"/>
<stop offset="0.95" stop-color="#2D2D2D"/>
<stop offset="1"/>
</radialGradient>
<radialGradient id="paint8_radial_254_1787" cx="0" cy="0" r="1" gradientUnits="userSpaceOnUse" gradientTransform="translate(38.3744 60.8576) rotate(180) scale(17.6425 17.6674)">
<stop offset="0.58" stop-color="white"/>
<stop offset="0.62" stop-color="#FCFCFC"/>
<stop offset="0.66" stop-color="#F2F2F2"/>
<stop offset="0.69" stop-color="#E2E2E2"/>
<stop offset="0.71" stop-color="#CCCCCC"/>
<stop offset="0.74" stop-color="#AFAFAF"/>
<stop offset="0.76" stop-color="#8C8C8C"/>
<stop offset="0.79" stop-color="#626262"/>
<stop offset="0.81" stop-color="#323232"/>
<stop offset="0.83"/>
</radialGradient>
<radialGradient id="paint9_radial_254_1787" cx="0" cy="0" r="1" gradientUnits="userSpaceOnUse" gradientTransform="translate(37.7649 27.0507) rotate(-180) scale(14.3688 14.3892)">
<stop offset="0.57" stop-color="white"/>
<stop offset="0.65" stop-color="#FCFCFC"/>
<stop offset="0.7" stop-color="#F2F2F2"/>
<stop offset="0.75" stop-color="#E2E2E2"/>
<stop offset="0.8" stop-color="#CCCCCC"/>
<stop offset="0.85" stop-color="#AFAFAF"/>
<stop offset="0.89" stop-color="#8C8C8C"/>
<stop offset="0.93" stop-color="#626262"/>
<stop offset="0.97" stop-color="#323232"/>
<stop offset="1"/>
</radialGradient>
<radialGradient id="paint10_radial_254_1787" cx="0" cy="0" r="1" gradientUnits="userSpaceOnUse" gradientTransform="translate(56.9027 51.9242) rotate(180) scale(26.1051 26.142)">
<stop offset="0.75" stop-color="white"/>
<stop offset="0.8" stop-color="#FCFCFC"/>
<stop offset="0.83" stop-color="#F2F2F2"/>
<stop offset="0.86" stop-color="#E2E2E2"/>
<stop offset="0.89" stop-color="#CCCCCC"/>
<stop offset="0.91" stop-color="#AFAFAF"/>
<stop offset="0.94" stop-color="#8C8C8C"/>
<stop offset="0.96" stop-color="#626262"/>
<stop offset="0.98" stop-color="#323232"/>
<stop offset="1"/>
</radialGradient>
<radialGradient id="paint11_radial_254_1787" cx="0" cy="0" r="1" gradientUnits="userSpaceOnUse" gradientTransform="translate(18.0007 20.9453) rotate(-180) scale(13.7126 13.732)">
<stop offset="0.57" stop-color="white"/>
<stop offset="0.65" stop-color="#FCFCFC"/>
<stop offset="0.7" stop-color="#F2F2F2"/>
<stop offset="0.75" stop-color="#E2E2E2"/>
<stop offset="0.8" stop-color="#CCCCCC"/>
<stop offset="0.85" stop-color="#AFAFAF"/>
<stop offset="0.89" stop-color="#8C8C8C"/>
<stop offset="0.93" stop-color="#626262"/>
<stop offset="0.97" stop-color="#323232"/>
<stop offset="1"/>
</radialGradient>
<radialGradient id="paint12_radial_254_1787" cx="0" cy="0" r="1" gradientUnits="userSpaceOnUse" gradientTransform="translate(57.3224 21.3656) rotate(180) scale(10.7289 10.7441)">
<stop offset="0.71" stop-color="white"/>
<stop offset="0.76" stop-color="#FCFCFC"/>
<stop offset="0.8" stop-color="#F2F2F2"/>
<stop offset="0.83" stop-color="#E2E2E2"/>
<stop offset="0.87" stop-color="#CCCCCC"/>
<stop offset="0.89" stop-color="#AFAFAF"/>
<stop offset="0.92" stop-color="#8C8C8C"/>
<stop offset="0.95" stop-color="#626262"/>
<stop offset="0.98" stop-color="#323232"/>
<stop offset="1"/>
</radialGradient>
<radialGradient id="paint13_radial_254_1787" cx="0" cy="0" r="1" gradientUnits="userSpaceOnUse" gradientTransform="translate(78.5586 42.9073) rotate(-180) scale(11.8888 11.9057)">
<stop offset="0.49" stop-color="white"/>
<stop offset="0.52" stop-color="#F7F7F7"/>
<stop offset="0.56" stop-color="#E3E3E3"/>
<stop offset="0.61" stop-color="#C2C2C2"/>
<stop offset="0.67" stop-color="#949494"/>
<stop offset="0.73" stop-color="#595959"/>
<stop offset="0.8" stop-color="#131313"/>
<stop offset="0.82"/>
</radialGradient>
</defs>
</svg>
