<svg width="129" height="80" viewBox="0 0 129 80" fill="none" xmlns="http://www.w3.org/2000/svg">
<path d="M73.7601 30.8279C73.7601 31.6523 73.4449 32.4687 72.8225 33.0992L58.0956 47.826C47.1757 58.7459 29.4016 58.7459 18.4736 47.826C13.1794 42.5318 10.2695 35.4997 10.2695 28.015C10.2695 20.5303 13.1874 13.4983 18.4736 8.20408C23.7679 2.90984 30.7999 0 38.2846 0C45.7693 0 52.8013 2.91792 58.0956 8.20408C59.3484 9.45692 59.3484 11.4938 58.0956 12.7466C56.8427 13.9995 54.8059 13.9995 53.553 12.7466C49.4793 8.67288 44.0557 6.42585 38.2846 6.42585C32.5135 6.42585 27.098 8.67288 23.0161 12.7466C18.9424 16.8204 16.6954 22.2439 16.6954 28.015C16.6954 33.7862 18.9424 39.2017 23.0161 43.2835C31.4304 51.6977 45.1307 51.6977 53.545 43.2835L68.2719 28.5566C69.5247 27.3038 71.5616 27.3038 72.8144 28.5566C73.4449 29.1871 73.752 30.0034 73.752 30.8279H73.7601Z" fill="#969696"/>
<path d="M51.055 18.4534C51.055 19.2779 50.7398 20.0942 50.1174 20.7247C48.8646 21.9775 46.8277 21.9775 45.5749 20.7247C41.5577 16.7075 35.0106 16.7075 30.9935 20.7247C29.0455 22.6727 27.9705 25.2591 27.9705 28.0154C27.9705 30.7716 29.0455 33.3581 30.9935 35.3061C32.9414 37.2541 35.5279 38.3291 38.2842 38.3291C41.0404 38.3291 43.6269 37.2541 45.5749 35.3061C46.8277 34.0533 48.8646 34.0533 50.1174 35.3061C51.3703 36.5589 51.3703 38.5958 50.1174 39.8486C46.957 43.009 42.754 44.7468 38.2842 44.7468C33.8144 44.7468 29.6113 43.009 26.4509 39.8486C23.2905 36.6883 21.5527 32.4852 21.5527 28.0154C21.5527 23.5456 23.2905 19.3425 26.4509 16.1822C32.9738 9.65933 43.5946 9.65933 50.1174 16.1822C50.7479 16.8126 51.055 17.629 51.055 18.4534Z" fill="#969696"/>
<path d="M117.262 28.0155C117.262 35.5002 114.344 42.5323 109.058 47.8265C98.1382 58.7464 80.364 58.7464 69.4442 47.8265C68.1913 46.5737 68.1913 44.5368 69.4442 43.284C70.697 42.0311 72.7339 42.0311 73.9867 43.284C82.4009 51.6982 96.1013 51.6982 104.515 43.284C108.589 39.2102 110.836 33.7867 110.836 28.0155C110.836 22.2444 108.589 16.8289 104.515 12.7471C100.442 8.67337 95.0182 6.42634 89.2471 6.42634C83.4759 6.42634 78.0604 8.67337 73.9786 12.7471L59.2517 27.474C57.9989 28.7268 55.962 28.7268 54.7092 27.474C53.4563 26.2211 53.4563 24.1843 54.7092 22.9314L69.4361 8.20457C80.356 -2.71532 98.1301 -2.71532 109.058 8.20457C114.352 13.4988 117.262 20.5308 117.262 28.0155Z" fill="#969696"/>
<path d="M105.986 28.0154C105.986 32.4852 104.248 36.6883 101.088 39.8486C97.9272 43.009 93.7241 44.7468 89.2543 44.7468C84.7845 44.7468 80.5815 43.009 77.4211 39.8486C76.1682 38.5958 76.1682 36.5589 77.4211 35.3061C78.6739 34.0533 80.7108 34.0533 81.9636 35.3061C83.9116 37.2541 86.4981 38.3291 89.2543 38.3291C92.0106 38.3291 94.5971 37.2541 96.545 35.3061C98.493 33.3581 99.568 30.7716 99.568 28.0154C99.568 25.2591 98.493 22.6727 96.545 20.7247C92.5279 16.7075 85.9808 16.7075 81.9636 20.7247C80.7108 21.9775 78.6739 21.9775 77.4211 20.7247C76.1682 19.4719 76.1682 17.435 77.4211 16.1822C83.9439 9.65933 94.5647 9.65933 101.088 16.1822C104.248 19.3425 105.986 23.5456 105.986 28.0154Z" fill="#969696"/>
<path d="M7.76755 71.0934C8.57978 71.7376 9.1026 72.6151 9.336 73.7261H6.86196C6.67524 73.278 6.39516 72.9232 6.02172 72.6712C5.63894 72.4191 5.19081 72.2884 4.67733 72.2884C3.99581 72.2884 3.44498 72.5405 3.02486 73.0446C2.60474 73.5488 2.39935 74.2209 2.39935 75.0612C2.39935 75.9014 2.60474 76.5736 3.02486 77.0684C3.44498 77.5632 3.99581 77.8153 4.67733 77.8153C5.20015 77.8153 5.64828 77.6846 6.02172 77.4325C6.4045 77.1805 6.68457 76.8257 6.86196 76.3962H9.336C9.1026 77.4885 8.57978 78.3661 7.76755 79.0196C6.95532 79.6732 5.9377 79.9999 4.70534 79.9999C3.76241 79.9999 2.94084 79.7945 2.2313 79.3744C1.52177 78.9636 0.970943 78.3755 0.578831 77.6286C0.186719 76.8817 0 76.0228 0 75.0705C0 74.1182 0.196055 73.2593 0.578831 72.5125C0.970943 71.7656 1.51243 71.1867 2.2313 70.7666C2.94084 70.3558 3.77174 70.1411 4.70534 70.1411C5.9377 70.1411 6.95532 70.4679 7.76755 71.1121V71.0934Z" fill="#969696"/>
<path d="M19.1104 70.7012C19.8572 71.1214 20.4361 71.7189 20.8655 72.4658C21.295 73.222 21.5097 74.0715 21.5097 75.0238C21.5097 75.9761 21.295 76.8257 20.8562 77.5819C20.4267 78.3381 19.8292 78.9263 19.0917 79.3557C18.3448 79.7758 17.5232 79.9906 16.6177 79.9906C15.7121 79.9906 14.8905 79.7758 14.1436 79.3557C13.3967 78.9356 12.8086 78.3381 12.3791 77.5819C11.9497 76.8257 11.7256 75.9668 11.7256 75.0238C11.7256 74.0809 11.9403 73.222 12.3791 72.4658C12.8086 71.7095 13.3967 71.1214 14.1436 70.7012C14.8905 70.2811 15.7121 70.0664 16.6177 70.0664C17.5232 70.0664 18.3541 70.2811 19.101 70.7012H19.1104ZM14.7971 72.9886C14.349 73.4834 14.1156 74.1649 14.1156 75.0238C14.1156 75.8827 14.3397 76.5456 14.7971 77.0497C15.2453 77.5539 15.8614 77.8059 16.627 77.8059C17.3925 77.8059 17.99 77.5539 18.4475 77.0497C18.905 76.5456 19.129 75.8734 19.129 75.0238C19.129 74.1742 18.905 73.5021 18.4475 72.9979C17.9994 72.4938 17.3832 72.2417 16.6177 72.2417C15.8521 72.2417 15.2453 72.4938 14.7878 72.9886H14.7971Z" fill="#969696"/>
<path d="M35.0752 70.2812V79.8973H32.7319V73.8849L30.65 79.8973H28.6241L26.5328 73.8756V79.8973H24.1895V70.2812H27.0556L29.6697 76.9752L32.2277 70.2812H35.0752Z" fill="#969696"/>
<path d="M40.4058 76.4989V79.8972H38.0625V70.2158H41.8529C43.0012 70.2158 43.8788 70.5052 44.4857 71.0747C45.0925 71.6442 45.3913 72.4098 45.3913 73.3807C45.3913 73.9876 45.2606 74.5197 44.9898 74.9865C44.7191 75.4533 44.3176 75.8267 43.7948 76.0975C43.2627 76.3682 42.6185 76.4989 41.8623 76.4989H40.4152H40.4058ZM43.0106 73.3807C43.0106 72.5311 42.5438 72.111 41.6008 72.111H40.4058V74.6317H41.6008C42.5438 74.6317 43.0106 74.221 43.0106 73.3901V73.3807Z" fill="#969696"/>
<path d="M53.9064 78.1328H50.2747L49.6678 79.8973H47.2031L50.7508 70.2812H53.4489L56.9966 79.8973H54.5039L53.897 78.1328H53.9064ZM53.2995 76.3496L52.0952 72.7926L50.8722 76.3496H53.2995Z" fill="#969696"/>
<path d="M67.8724 79.8972H65.5291L61.608 73.9502V79.8972H59.2646V70.2158H61.608L65.5291 76.2095V70.2158H67.8724V79.8972Z" fill="#969696"/>
<path d="M79.2258 70.2158L75.8742 76.6763V79.8972H73.5215V76.6763L70.1699 70.2158H72.8494L74.7072 74.1556L76.5651 70.2158H79.2258Z" fill="#969696"/>
<path d="M94.2093 79.8972H91.866L87.9449 73.9502V79.8972H85.6016V70.2158H87.9449L91.866 76.2095V70.2158H94.2093V79.8972Z" fill="#969696"/>
<path d="M103.191 78.1328H99.5588L98.952 79.8973H96.4873L100.035 70.2812H102.733L106.281 79.8973H103.788L103.181 78.1328H103.191ZM102.584 76.3496L101.379 72.7926L100.156 76.3496H102.584Z" fill="#969696"/>
<path d="M119.444 70.2812V79.8973H117.101V73.8849L115.019 79.8973H112.993L110.902 73.8756V79.8973H108.559V70.2812H111.425L114.039 76.9752L116.597 70.2812H119.444Z" fill="#969696"/>
<path d="M124.775 72.0737V74.0997H128.052V75.8642H124.775V78.0114H128.463V79.888H122.441V70.2065H128.463V72.0644H124.775V72.0737Z" fill="#969696"/>
</svg>
