<svg width="105" height="80" viewBox="0 0 105 80" fill="none" xmlns="http://www.w3.org/2000/svg">
<path d="M67.9945 31.2634L57.6443 41.6136L52.5109 36.4803L57.7278 31.2634L52.5109 26.0541L47.3775 20.9131L37.0273 10.5704L16.3343 31.2634L37.0273 51.9639L47.3775 41.6136L52.5109 46.747L37.0273 62.223L6.0752 31.2634L37.0273 0.303711L52.5109 15.7873L57.6443 20.9207L67.9945 31.2634Z" fill="#969696"/>
<path d="M98.9543 30.9597L67.9946 61.9193L52.511 46.4433L47.3776 41.3099L37.0273 30.9597L47.3776 20.6094L52.511 25.7428L47.2941 30.9597L52.511 36.1766L67.9946 51.6526L88.6875 30.9597L67.9946 10.2667L57.6443 20.617L52.511 15.4836L67.9946 0L98.9543 30.9597Z" fill="#969696"/>
<g style="mix-blend-mode:multiply" opacity="0.3">
<g style="mix-blend-mode:multiply" opacity="0.3">
<path d="M49.9818 39.1606L52.5409 41.7273L55.1076 44.294L68.0245 57.211L93.8508 31.3771L68.0245 5.55078L55.1076 18.4677L57.6819 21.0344L68.0245 10.6841L88.7175 31.3771L68.0245 52.07L57.6819 41.7273L55.1152 39.1606L52.5409 36.594L47.3316 31.3771L52.5409 26.1678L49.9818 23.6011L42.1982 31.3771L49.9818 39.1606Z" fill="#969696"/>
</g>
<g style="mix-blend-mode:multiply" opacity="0.3">
<path d="M57.6821 21.0345L55.1079 18.4678L52.5412 15.9011L37.0651 0.41748L6.10547 31.3771L37.0651 62.3368L52.5412 46.8608L49.9821 44.2941L37.0651 57.211L11.2388 31.3771L37.0651 5.55085L49.9821 18.4678L52.5412 21.0269L55.1154 23.6012L62.8914 31.3771L55.1154 39.1607L57.6821 41.7274L68.0248 31.3771L57.6821 21.0345Z" fill="#969696"/>
</g>
<g style="mix-blend-mode:multiply" opacity="0.3">
<path d="M55.1149 23.6011L52.5406 21.0268L49.9739 18.4677L37.0646 5.55078L11.2383 31.3771L37.0646 57.211L49.9739 44.294L47.4149 41.7273L37.0646 52.07L16.3641 31.3771L37.0646 10.6841L47.4149 21.0268L49.9739 23.6011L52.5406 26.1678L57.7575 31.3771L52.5406 36.594L55.1149 39.1606L62.8909 31.3771L55.1149 23.6011Z" fill="#969696"/>
</g>
<g style="mix-blend-mode:multiply" opacity="0.3">
<path d="M68.0251 0.41748L52.5415 15.9011L55.1082 18.4678L68.0251 5.55085L93.8514 31.3771L68.0251 57.211L55.1082 44.2941L52.5415 41.7274L49.9824 39.1607L42.1988 31.3771L49.9824 23.6012L47.4157 21.0269L37.0654 31.3771L47.4157 41.7274L52.5415 46.8608L68.0251 62.3368L98.9847 31.3771L68.0251 0.41748Z" fill="#969696"/>
</g>
</g>
<g style="mix-blend-mode:multiply" opacity="0.3">
<path d="M52.549 26.0541L47.4157 20.9131L41.0977 27.2311L47.6359 30.9596L52.549 26.0541Z" fill="#969696"/>
</g>
<g style="mix-blend-mode:multiply" opacity="0.3">
<path d="M52.5488 15.7872L57.6822 20.9206L65.8075 12.7953C64.4254 11.4664 62.3372 9.49201 60.545 7.79102L52.5488 15.7872Z" fill="#969696"/>
</g>
<g style="mix-blend-mode:multiply" opacity="0.3">
<path d="M47.4009 41.6186L40.4473 48.5723L45.5806 53.7056L52.5342 46.752L47.4009 41.6186Z" fill="#969696"/>
</g>
<g style="mix-blend-mode:multiply" opacity="0.3">
<path d="M57.6676 41.6135L62.6035 36.6776L56.8171 32.1973L52.5342 36.4801L57.6676 41.6135Z" fill="#969696"/>
</g>
<path d="M6.318 72.7555C6.97865 73.2795 7.3963 73.9933 7.59374 74.897H5.5814C5.42953 74.5325 5.20172 74.2439 4.89797 74.0389C4.58663 73.8338 4.22213 73.7275 3.80447 73.7275C3.25013 73.7275 2.80208 73.9326 2.46036 74.3426C2.11865 74.7527 1.9516 75.2994 1.9516 75.9829C1.9516 76.6663 2.11865 77.2131 2.46036 77.6155C2.80208 78.018 3.25013 78.223 3.80447 78.223C4.22972 78.223 4.59422 78.1167 4.89797 77.9117C5.20931 77.7067 5.43712 77.4181 5.5814 77.0688H7.59374C7.40389 77.9572 6.97865 78.671 6.318 79.2026C5.65734 79.7342 4.82962 80 3.82725 80C3.06028 80 2.39204 79.8329 1.81491 79.4912C1.23779 79.157 0.789745 78.6786 0.470808 78.0711C0.151871 77.4637 0 76.765 0 75.9904C0 75.2159 0.159465 74.5173 0.470808 73.9098C0.789745 73.3023 1.2302 72.8315 1.81491 72.4897C2.39204 72.1556 3.06788 71.981 3.82725 71.981C4.82962 71.981 5.65734 72.2467 6.318 72.7707V72.7555Z" fill="#969696"/>
<path d="M15.5447 72.4363C16.1522 72.778 16.6306 73.264 16.9724 73.8715C17.3217 74.4866 17.4963 75.1776 17.4963 75.9522C17.4963 76.7268 17.3217 77.4178 16.9648 78.0329C16.6154 78.648 16.1295 79.1264 15.5296 79.4757C14.9221 79.8174 14.2538 79.9921 13.5172 79.9921C12.7806 79.9921 12.1124 79.8174 11.5049 79.4757C10.8974 79.134 10.419 78.648 10.0697 78.0329C9.72034 77.4178 9.53809 76.7192 9.53809 75.9522C9.53809 75.1852 9.71275 74.4866 10.0697 73.8715C10.419 73.2564 10.8974 72.778 11.5049 72.4363C12.1124 72.0946 12.7806 71.9199 13.5172 71.9199C14.2538 71.9199 14.9296 72.0946 15.5371 72.4363H15.5447ZM12.0364 74.2968C11.6719 74.6992 11.4821 75.2536 11.4821 75.9522C11.4821 76.6508 11.6643 77.19 12.0364 77.6C12.4009 78.0101 12.9021 78.2151 13.5248 78.2151C14.1475 78.2151 14.6335 78.0101 15.0056 77.6C15.3777 77.19 15.5599 76.6432 15.5599 75.9522C15.5599 75.2612 15.3777 74.7144 15.0056 74.3044C14.6411 73.8943 14.1399 73.6893 13.5172 73.6893C12.8945 73.6893 12.4009 73.8943 12.0288 74.2968H12.0364Z" fill="#969696"/>
<path d="M28.5369 72.1025V79.9241H26.6309V75.0337L24.9375 79.9241H23.2896L21.5886 75.0261V79.9241H19.6826V72.1025H22.0139L24.1401 77.5473L26.2208 72.1025H28.5369Z" fill="#969696"/>
<path d="M32.866 77.1594V79.9235H30.96V72.0488H34.043C34.977 72.0488 35.6908 72.2842 36.1844 72.7474C36.678 73.2107 36.921 73.8409 36.921 74.6231C36.921 75.1167 36.8147 75.5495 36.5945 75.9292C36.3743 76.3089 36.0478 76.6127 35.6225 76.8329C35.1897 77.0531 34.6657 77.1594 34.0506 77.1594H32.8736H32.866ZM34.9846 74.6231C34.9846 73.9321 34.6049 73.5904 33.838 73.5904H32.866V75.6407H33.838C34.6049 75.6407 34.9846 75.3065 34.9846 74.6307V74.6231Z" fill="#969696"/>
<path d="M43.8537 78.4811H40.8997L40.4061 79.9163H38.4014L41.287 72.0947H43.4816L46.3672 79.9163H44.3397L43.8461 78.4811H43.8537ZM43.3601 77.0307L42.3805 74.1374L41.3857 77.0307H43.3601Z" fill="#969696"/>
<path d="M55.2145 79.9162H53.3085L50.1267 75.079V79.9162H48.2207V72.0415H50.1267L53.3085 76.9167V72.0415H55.2145V79.9162Z" fill="#969696"/>
<path d="M64.4479 72.0415L61.7218 77.2964V79.9162H59.8082V77.2964L57.082 72.0415H59.2614L60.7726 75.2461L62.2837 72.0415H64.4479Z" fill="#969696"/>
<path d="M76.6286 79.9162H74.7226L71.5408 75.079V79.9162H69.6348V72.0415H71.5408L74.7226 76.9167V72.0415H76.6286V79.9162Z" fill="#969696"/>
<path d="M83.9338 78.4811H80.9798L80.4862 79.9163H78.4814L81.3671 72.0947H83.5617L86.4473 79.9163H84.4198L83.9262 78.4811H83.9338ZM83.4402 77.0307L82.4606 74.1374L81.4658 77.0307H83.4402Z" fill="#969696"/>
<path d="M97.1541 72.1025V79.9241H95.248V75.0337L93.5547 79.9241H91.9068L90.2058 75.0261V79.9241H88.2998V72.1025H90.631L92.7573 77.5473L94.838 72.1025H97.1541Z" fill="#969696"/>
<path d="M101.49 73.5603V75.2081H104.156V76.6433H101.49V78.3899H104.49V79.9162H99.5918V72.0415H104.49V73.5527H101.49V73.5603Z" fill="#969696"/>
</svg>
