<svg width="115" height="81" viewBox="0 0 115 81" fill="none" xmlns="http://www.w3.org/2000/svg">
<path d="M100.118 22.2191V36.2417C100.118 47.9368 90.5433 57.453 78.7676 57.453H41.904C38.549 57.3952 35.8418 54.6798 35.8418 51.3289C35.8418 47.9781 38.549 45.2544 41.904 45.2049H78.7676C83.742 45.2049 87.7862 41.1855 87.7862 36.2499V22.2274C87.7862 17.2919 83.742 13.2724 78.7676 13.2724H71.5261C74.931 13.2724 77.688 10.524 77.688 7.14015C77.688 3.75625 74.9808 1.07389 71.6258 1.01611H78.7593C90.5267 1.01611 100.11 10.5323 100.11 22.2274L100.118 22.2191Z" fill="#969696"/>
<path d="M77.6963 7.13229C77.6963 10.5162 74.9392 13.2646 71.5344 13.2646H34.1477C29.1733 13.2646 25.129 17.284 25.129 22.2195V36.2421C25.129 41.1776 29.1733 45.197 34.1477 45.197H41.9207C38.5656 45.2548 35.8584 47.9702 35.8584 51.3211C35.8584 54.672 38.5656 57.3956 41.9207 57.4451H34.1477C22.3802 57.4451 12.7969 47.9289 12.7969 36.2338V22.2113C12.7969 10.5162 22.3719 1 34.1477 1H71.6423C74.9973 1.05777 77.7046 3.77315 77.7046 7.12403L77.6963 7.13229Z" fill="#969696"/>
<path d="M71.6352 1.0083H71.4268C71.4268 1.0083 71.5017 1.0083 71.5351 1.0083C71.5685 1.0083 71.6101 1.0083 71.6435 1.0083H71.6352Z" stroke="#969696" stroke-width="0.37" stroke-miterlimit="10"/>
<path d="M42.1205 45.2056H41.9121C41.9121 45.2056 41.9872 45.2056 42.0205 45.2056C42.0539 45.2056 42.0955 45.2056 42.1289 45.2056H42.1205Z" stroke="#969696" stroke-width="0.37" stroke-miterlimit="10"/>
<path style="mix-blend-mode:multiply" opacity="0.3" d="M78.7674 1.0083H71.6339C74.9889 1.06607 77.6961 3.78145 77.6961 7.13234C77.6961 10.4832 74.939 13.2646 71.5342 13.2646H78.7757C83.7501 13.2646 87.7943 17.284 87.7943 22.2196V22.9294L98.8642 15.0474C95.8995 6.86823 88.0103 1.0083 78.7757 1.0083H78.7674Z" fill="url(#paint0_linear_254_2093)"/>
<g opacity="0.3">
<path style="mix-blend-mode:multiply" opacity="0.3" d="M12.7891 27.9893V30.4488C12.7891 46.5843 26.2174 45.1729 26.2174 45.1729H33.3842C28.7669 44.785 25.1295 40.9307 25.1295 36.251V22.2284C25.1295 17.2929 29.1738 13.2735 34.1482 13.2735H26.2257C26.2257 13.2735 12.7974 11.8621 12.7974 27.9976L12.7891 27.9893Z" fill="url(#paint1_linear_254_2093)"/>
<path style="mix-blend-mode:multiply" opacity="0.3" d="M100.119 27.9893V30.4488C100.119 46.5843 86.6905 45.1729 86.6905 45.1729H79.5238C84.1411 44.785 87.7785 40.9307 87.7785 36.251V22.2284C87.7785 17.2929 83.7341 13.2735 78.7598 13.2735H86.6823C86.6823 13.2735 100.111 11.8621 100.111 27.9976L100.119 27.9893Z" fill="url(#paint2_linear_254_2093)"/>
<path style="mix-blend-mode:multiply" opacity="0.3" d="M34.1401 57.4619H41.9048C38.5498 57.4041 35.8425 54.6888 35.8425 51.3379C35.8425 47.987 38.5498 45.2634 41.9048 45.2139H34.1401C29.9131 45.2139 26.3588 42.3087 25.3872 38.4048L16.6758 48.4327C20.5457 53.8964 26.9318 57.4702 34.1401 57.4702V57.4619Z" fill="url(#paint3_linear_254_2093)"/>
</g>
<path d="M6.90932 73.1265C7.63181 73.696 8.09686 74.4718 8.30447 75.454H6.10376C5.93767 75.0578 5.68857 74.7442 5.35639 74.5213C5.01591 74.2985 4.61729 74.1829 4.16055 74.1829C3.55432 74.1829 3.06434 74.4058 2.69064 74.8515C2.31694 75.2972 2.13425 75.8914 2.13425 76.6342C2.13425 77.377 2.31694 77.9713 2.69064 78.4087C3.06434 78.8461 3.55432 79.069 4.16055 79.069C4.6256 79.069 5.02421 78.9534 5.35639 78.7306C5.69688 78.5077 5.94598 78.1941 6.10376 77.8145H8.30447C8.09686 78.7801 7.63181 79.5559 6.90932 80.1337C6.18683 80.7114 5.28162 81.0003 4.18543 81.0003C3.34668 81.0003 2.61587 80.8187 1.98473 80.4473C1.35359 80.0841 0.863661 79.5642 0.514873 78.9039C0.166085 78.2436 0 77.4843 0 76.6425C0 75.8006 0.17439 75.0413 0.514873 74.381C0.863661 73.7208 1.34529 73.209 1.98473 72.8376C2.61587 72.4745 3.35499 72.2847 4.18543 72.2847C5.28162 72.2847 6.18683 72.5735 6.90932 73.143V73.1265Z" fill="#969696"/>
<path d="M16.9995 72.78C17.6638 73.1514 18.1787 73.6796 18.5607 74.3399C18.9427 75.0084 19.1337 75.7595 19.1337 76.6013C19.1337 77.4432 18.9427 78.1942 18.5524 78.8628C18.1704 79.5313 17.639 80.0512 16.9829 80.4309C16.3185 80.8023 15.5877 80.9921 14.7822 80.9921C13.9767 80.9921 13.2459 80.8023 12.5815 80.4309C11.9171 80.0595 11.394 79.5313 11.012 78.8628C10.63 78.1942 10.4307 77.4349 10.4307 76.6013C10.4307 75.7677 10.6217 75.0084 11.012 74.3399C11.394 73.6713 11.9171 73.1514 12.5815 72.78C13.2459 72.4086 13.9767 72.2188 14.7822 72.2188C15.5877 72.2188 16.3351 72.4086 16.9912 72.78H16.9995ZM13.1628 74.8021C12.7642 75.2395 12.5566 75.842 12.5566 76.6013C12.5566 77.3606 12.7559 77.9466 13.1628 78.3923C13.5614 78.838 14.1095 79.0608 14.7905 79.0608C15.4715 79.0608 16.003 78.838 16.4099 78.3923C16.8168 77.9466 17.0161 77.3524 17.0161 76.6013C17.0161 75.8503 16.8168 75.256 16.4099 74.8103C16.0113 74.3646 15.4632 74.1418 14.7822 74.1418C14.1012 74.1418 13.5614 74.3646 13.1545 74.8021H13.1628Z" fill="#969696"/>
<path d="M31.2006 72.4087V80.9097H29.1162V75.5945L27.2643 80.9097H25.4622L23.602 75.5863V80.9097H21.5176V72.4087H24.0671L26.3923 78.3264L28.6677 72.4087H31.2006Z" fill="#969696"/>
<path d="M35.9419 77.9056V80.9099H33.8574V72.3511H37.229C38.2505 72.3511 39.0311 72.6069 39.5709 73.1104C40.1107 73.6138 40.3765 74.2906 40.3765 75.149C40.3765 75.6855 40.2602 76.1559 40.0194 76.5686C39.7785 76.9812 39.4214 77.3114 38.9564 77.5507C38.483 77.7901 37.91 77.9056 37.2373 77.9056H35.9502H35.9419ZM38.2588 75.149C38.2588 74.3979 37.8436 74.0265 37.0048 74.0265H35.9419V76.2549H37.0048C37.8436 76.2549 38.2588 75.8918 38.2588 75.1572V75.149Z" fill="#969696"/>
<path d="M47.9499 79.3498H44.7195L44.1797 80.9097H41.9873L45.143 72.4087H47.543L50.6987 80.9097H48.4814L47.9416 79.3498H47.9499ZM47.4101 77.7734L46.3388 74.6289L45.251 77.7734H47.4101Z" fill="#969696"/>
<path d="M60.374 80.9099H58.2896L54.81 75.6524V80.9099H52.7256V72.3511H54.81L58.2896 77.6498V72.3511H60.374V80.9099Z" fill="#969696"/>
<path d="M70.4714 72.3511L67.49 78.0624V80.9099H65.3973V78.0624L62.416 72.3511H64.7994L66.452 75.834L68.1046 72.3511H70.4714Z" fill="#969696"/>
<path d="M83.8007 80.9099H81.7163L78.2367 75.6524V80.9099H76.1523V72.3511H78.2367L81.7163 77.6498V72.3511H83.8007V80.9099Z" fill="#969696"/>
<path d="M91.7897 79.3498H88.5593L88.0195 80.9097H85.8271L88.9828 72.4087H91.3828L94.5385 80.9097H92.3212L91.7814 79.3498H91.7897ZM91.25 77.7734L90.1787 74.6289L89.0908 77.7734H91.25Z" fill="#969696"/>
<path d="M106.247 72.4087V80.9097H104.162V75.5945L102.31 80.9097H100.508L98.6479 75.5863V80.9097H96.5635V72.4087H99.113L101.438 78.3264L103.714 72.4087H106.247Z" fill="#969696"/>
<path d="M110.989 73.9935V75.7844H113.904V77.3443H110.989V79.2426H114.269V80.9016H108.913V72.3428H114.269V73.9852H110.989V73.9935Z" fill="#969696"/>
<defs>
<linearGradient id="paint0_linear_254_2093" x1="104.179" y1="17.064" x2="77.916" y2="10.1094" gradientUnits="userSpaceOnUse">
<stop offset="0.49" stop-color="white"/>
<stop offset="0.55" stop-color="#FAFAFA"/>
<stop offset="0.61" stop-color="#ECECEC"/>
<stop offset="0.68" stop-color="#D5D5D5"/>
<stop offset="0.75" stop-color="#B5B5B5"/>
<stop offset="0.82" stop-color="#8B8B8B"/>
<stop offset="0.89" stop-color="#595959"/>
<stop offset="0.97" stop-color="#1E1E1E"/>
<stop offset="1"/>
</linearGradient>
<linearGradient id="paint1_linear_254_2093" x1="23.643" y1="59.6742" x2="23.4297" y2="12.1262" gradientUnits="userSpaceOnUse">
<stop offset="0.49" stop-color="white"/>
<stop offset="0.55" stop-color="#FAFAFA"/>
<stop offset="0.61" stop-color="#ECECEC"/>
<stop offset="0.68" stop-color="#D5D5D5"/>
<stop offset="0.75" stop-color="#B5B5B5"/>
<stop offset="0.82" stop-color="#8B8B8B"/>
<stop offset="0.89" stop-color="#595959"/>
<stop offset="0.97" stop-color="#1E1E1E"/>
<stop offset="1"/>
</linearGradient>
<linearGradient id="paint2_linear_254_2093" x1="90.0622" y1="-2.91147" x2="88.9958" y2="40.9888" gradientUnits="userSpaceOnUse">
<stop offset="0.49" stop-color="white"/>
<stop offset="0.55" stop-color="#FAFAFA"/>
<stop offset="0.61" stop-color="#ECECEC"/>
<stop offset="0.68" stop-color="#D5D5D5"/>
<stop offset="0.75" stop-color="#B5B5B5"/>
<stop offset="0.82" stop-color="#8B8B8B"/>
<stop offset="0.89" stop-color="#595959"/>
<stop offset="0.97" stop-color="#1E1E1E"/>
<stop offset="1"/>
</linearGradient>
<linearGradient id="paint3_linear_254_2093" x1="12.7502" y1="43.2214" x2="38.3723" y2="51.1538" gradientUnits="userSpaceOnUse">
<stop offset="0.49" stop-color="white"/>
<stop offset="0.55" stop-color="#FAFAFA"/>
<stop offset="0.61" stop-color="#ECECEC"/>
<stop offset="0.68" stop-color="#D5D5D5"/>
<stop offset="0.75" stop-color="#B5B5B5"/>
<stop offset="0.82" stop-color="#8B8B8B"/>
<stop offset="0.89" stop-color="#595959"/>
<stop offset="0.97" stop-color="#1E1E1E"/>
<stop offset="1"/>
</linearGradient>
</defs>
</svg>
