<svg width="1420" height="750" viewBox="0 0 1420 750" fill="none" xmlns="http://www.w3.org/2000/svg">
<mask id="mask0_308_2041" style="mask-type:alpha" maskUnits="userSpaceOnUse" x="0" y="0" width="1420" height="750">
<rect width="1420" height="750" rx="10" fill="#161616"/>
</mask>
<g mask="url(#mask0_308_2041)">
<g opacity="0.9">
<path opacity="0.9" d="M-603.715 -311.183C-403.944 -985.385 267.941 -1410.42 894.134 -1258.69C1520.33 -1106.96 1867.19 -435.08 1667.42 239.122C1467.64 913.324 795.759 1338.36 169.567 1186.63C-456.625 1034.9 -803.487 363.019 -603.715 -311.183ZM1662.15 237.847C1860.98 -433.18 1515.7 -1102 892.454 -1253.02C269.208 -1404.03 -399.622 -980.935 -598.453 -309.908C-797.284 361.119 -451.999 1029.94 171.247 1180.96C794.493 1331.97 1463.32 908.874 1662.15 237.847Z" fill="#1B1B1B"/>
<path opacity="0.9" d="M-574.038 -259.542C-570.947 -269.974 -567.856 -280.405 -564.349 -291.1C-542.823 -358.8 -516.498 -425.944 -485.879 -490.832C-468.217 -528.358 -449.284 -564.846 -429.66 -599.101C-330.539 -771.833 -200.445 -917.009 -53.3466 -1018.69C-6.69507 -1050.89 43.7204 -1081.33 96.4062 -1109.16C159.623 -1142.45 223.08 -1170.46 284.966 -1192.4C348.489 -1214.93 414.175 -1232.19 480.07 -1243.69C536.228 -1253.53 592.304 -1258.54 646.936 -1258.67C730.036 -1258.95 813.763 -1248.02 895.873 -1226.3C957.628 -1210.12 1020.09 -1187.58 1081.43 -1159.34C1249.81 -1081.97 1387.18 -973.821 1489.95 -837.967C1562.44 -741.897 1618.03 -631.45 1655.12 -509.566C1691.33 -390.811 1708.86 -264.188 1707.44 -133.405C1705.99 -8.2206 1687.59 118.205 1652.69 242.089C1596.43 442.221 1492.39 629.68 1351.78 784.46C1213.27 936.711 1042.53 1053.45 857.819 1122.19C649.743 1199.74 423.275 1214.5 202.847 1165.1C141.295 1151.28 87.3767 1135.3 38.2124 1116.22C-89.8137 1066.36 -207.698 987.605 -302.536 888.551C-360.92 827.495 -414.053 758.233 -465.059 676.847C-514.676 597.621 -552.104 516.852 -579.326 429.806C-612.73 323.276 -629.336 211.824 -628.759 98.3377C-628.414 20.2802 -620.188 -59.6347 -604.225 -139.012C-596.376 -178.064 -586.435 -217.703 -574.072 -259.429L-574.038 -259.542ZM1642.32 258.414C1644.04 252.631 1645.78 246.735 1647.39 240.927C1682.06 117.471 1700.46 -8.22285 1701.88 -132.928C1703.38 -263.207 1685.86 -389.098 1649.83 -507.323C1612.89 -628.564 1557.58 -738.456 1485.42 -834.083C1383.14 -969.331 1246.37 -1076.84 1078.81 -1153.9C1017.64 -1181.97 955.494 -1204.44 893.949 -1220.57C812.365 -1242.16 728.954 -1253.02 646.308 -1252.75C592.026 -1252.65 536.265 -1247.57 480.386 -1237.9C414.839 -1226.44 349.503 -1209.21 286.224 -1186.75C224.582 -1164.87 161.508 -1137.01 98.4636 -1103.92C45.9502 -1076.29 -4.18753 -1046.03 -50.7003 -1013.92C-196.999 -912.649 -326.509 -768.304 -425.045 -596.402C-444.497 -562.349 -463.363 -526.088 -480.99 -488.676C-511.404 -424.102 -537.662 -357.184 -559.087 -289.825C-575.963 -236.676 -588.932 -187.198 -598.728 -138.53C-614.59 -59.4936 -622.787 19.9423 -623.136 97.6341C-623.723 210.389 -607.193 321.337 -573.969 427.337C-546.824 513.878 -509.61 594.231 -460.242 673.153C-409.484 754.236 -356.495 823.22 -298.393 884.086C-203.981 982.673 -86.7657 1061.02 40.5572 1110.59C89.5111 1129.62 143.219 1145.55 204.56 1159.32C423.903 1208.58 649.323 1193.93 856.494 1116.77C1040.2 1048.38 1210.24 932.088 1348.06 780.642C1483.7 631.22 1585.28 450.941 1642.32 258.414Z" fill="#1B1B1B"/>
<path opacity="0.9" d="M-547.534 -200.304C-540.949 -222.527 -533.469 -245.87 -524.925 -270.899C-502.808 -336.024 -476.289 -401.54 -446.326 -465.735C-428.258 -504.255 -410.6 -539.107 -392.22 -572.204C-291.651 -752.116 -169.177 -890.993 -28.0405 -985.123C16.6461 -1014.88 64.8818 -1043.3 119.342 -1071.79C184.994 -1106.07 245.099 -1133.43 302.927 -1155.39C363.923 -1178.52 427.321 -1196.82 491.308 -1209.88C546.537 -1221.16 601.308 -1227.09 653.905 -1227.59C733.919 -1228.5 815.691 -1217.07 897.118 -1193.82C956.187 -1176.95 1015.29 -1154.49 1077.97 -1125.45C1253.42 -1043.81 1385.98 -943.025 1483.24 -817.501C1554.7 -724.841 1608.74 -615.988 1644.15 -494.148C1677.52 -378.757 1693.2 -254.285 1690.48 -124.063C1687.92 -1.21592 1670.19 122.939 1637.75 244.987C1585.65 441.382 1489.39 619.301 1351.75 773.582C1217.8 923.409 1052.14 1037.48 872.959 1103.56C675.461 1176.25 461.257 1189.61 236.218 1143.22C187.444 1133.11 129.926 1120.14 73.4089 1100.37C-55.1544 1055 -172.374 978.962 -265.526 880.317C-332.78 808.85 -387.612 732.007 -427.888 673.031C-480.343 596.156 -519.3 519.028 -546.913 437.115C-582.361 332.157 -599.232 221.98 -596.923 109.887C-595.508 33.5486 -585.657 -44.9988 -567.829 -123.437C-562.185 -148.196 -555.463 -173.546 -547.433 -200.644L-547.534 -200.304ZM1622.47 279.807C1625.96 268.015 1629.28 256.059 1632.49 244.077C1664.8 122.483 1682.39 -1.21826 1685.03 -123.561C1687.65 -253.077 1672.15 -377.019 1638.96 -491.88C1603.84 -613.164 1550.06 -721.348 1479.02 -813.541C1382.26 -938.458 1250.34 -1038.72 1075.59 -1120.07C1013.12 -1149.06 954.297 -1171.34 895.472 -1188.26C814.466 -1211.41 733.114 -1222.74 653.694 -1221.93C601.341 -1221.5 547.025 -1215.58 492.04 -1204.35C428.297 -1191.36 365.248 -1173.1 304.53 -1150.14C246.946 -1128.24 187.119 -1101.06 121.606 -1066.86C67.284 -1038.46 19.3261 -1010.22 -25.2217 -980.552C-165.525 -886.948 -287.448 -748.789 -387.4 -569.821C-405.745 -536.837 -423.337 -502.212 -441.266 -463.78C-471.128 -399.925 -497.474 -334.61 -519.663 -269.624C-538.608 -214.061 -552.134 -167.27 -562.5 -122.388C-580.299 -44.4296 -590.016 33.6642 -591.435 109.637C-593.68 221.137 -576.925 330.558 -541.729 434.847C-514.192 516.256 -475.45 592.967 -423.315 669.399C-383.217 728.211 -328.561 804.889 -261.45 876.079C-168.796 974.117 -52.2789 1049.87 75.5814 1094.94C131.782 1114.64 189.09 1127.55 237.759 1137.64C461.851 1183.8 675.007 1170.55 871.634 1098.13C1049.94 1032.33 1214.73 918.9 1348.03 769.764C1476.56 625.671 1568.82 460.879 1622.54 279.58L1622.47 279.807Z" fill="#1B1B1B"/>
<path opacity="0.9" d="M-521.557 -143.431C-510.068 -182.207 -497.154 -218.936 -485.547 -250.878C-462.941 -313.088 -436.438 -377.026 -406.75 -440.678C-387.699 -481.754 -371.071 -515.031 -354.652 -545.321C-255.455 -728.599 -137.015 -865.289 -2.46926 -951.655C39.558 -978.535 85.6134 -1004.93 142.542 -1034.51C212.261 -1070.72 269.014 -1097.44 321.184 -1118.58C380.557 -1142.72 439.926 -1161.51 502.84 -1176.28C557.002 -1188.91 610.36 -1195.79 661.239 -1196.59C738.48 -1198.05 818.436 -1186.21 898.797 -1161.27C954.056 -1144.11 1009.97 -1121.93 1074.8 -1091.4C1260.67 -1003.83 1384.68 -913.022 1476.78 -796.769C1546.2 -708.618 1600.31 -598.532 1633.29 -478.379C1663.96 -366.44 1677.51 -243.944 1673.64 -114.372C1669.89 5.99727 1652.91 128.02 1622.93 248.23C1575.61 438.367 1484.51 611.454 1351.95 763.071C1222.45 910.448 1062.11 1021.8 888.221 1085.26C704.753 1152.12 496.627 1164.39 269.649 1121.91C216.436 1111.93 161.506 1101.66 108.667 1085.09C-20.3607 1044.35 -136.881 970.911 -228.556 872.626C-285.684 811.148 -334.434 745.38 -381.723 681.911L-390.755 669.758C-447.003 594.275 -486.309 522.897 -514.571 445.082C-552.096 341.811 -569.159 233.048 -565.263 122.072C-562.85 47.3146 -551.512 -29.7768 -531.643 -107.11C-528.469 -119.344 -525.118 -131.413 -521.591 -143.318L-521.557 -143.431ZM1603.47 299.05C1608.54 281.93 1613.23 264.594 1617.63 247.069C1647.51 127.199 1664.46 5.65479 1668.08 -114.261C1672 -243.215 1658.48 -365.093 1627.99 -476.502C1595.17 -596.012 1541.41 -705.403 1472.39 -792.973C1380.85 -908.48 1257.41 -998.908 1072.24 -1086.19C1007.59 -1116.56 951.884 -1138.68 896.835 -1155.79C817.001 -1180.6 737.57 -1192.31 660.889 -1190.84C610.326 -1189.97 557.351 -1183.24 503.538 -1170.64C440.868 -1155.93 381.744 -1137.2 322.648 -1113.24C270.722 -1092.16 214.108 -1065.54 144.528 -1029.41C87.7379 -999.914 41.855 -973.725 -0.033483 -946.933C-133.713 -861.207 -251.463 -725.322 -350.042 -542.989C-366.428 -512.812 -382.916 -479.623 -401.934 -438.661C-431.483 -375.096 -457.918 -311.384 -480.491 -249.289C-495.653 -207.636 -512.956 -157.995 -526.524 -106.113C-546.259 -29.2331 -557.568 47.3792 -559.952 121.658C-563.856 231.902 -546.908 339.909 -509.636 442.51C-481.555 519.796 -442.359 590.783 -386.464 665.937L-377.433 678.09C-330.249 741.533 -281.465 807.187 -224.62 868.476C-133.546 966.129 -17.6958 1039.16 110.524 1079.59C163.047 1096.08 217.872 1106.33 270.98 1116.28C496.977 1158.65 704.193 1146.39 886.757 1079.93C1059.74 1016.85 1219.24 906.027 1348.06 759.455C1467.79 622.592 1553.52 468.012 1603.51 299.303L1603.47 299.05Z" fill="#1B1B1B"/>
<path opacity="0.9" d="M-493.824 -96.7332C-480.655 -141.177 -464.388 -183.897 -446.073 -230.861C-423.318 -289.387 -396.761 -351.609 -367.149 -415.764C-351.987 -448.666 -335.348 -483.885 -317.131 -518.72C-218.042 -707.729 -106.773 -838.496 23.0214 -918.355C71.1691 -948.004 119.993 -973.844 165.661 -997.411C224.397 -1027.78 281.888 -1056.98 339.327 -1081.83C396.384 -1106.52 453.603 -1126.44 514.364 -1142.71C567.387 -1156.83 619.299 -1164.55 668.598 -1165.73C743.417 -1167.77 821.523 -1155.41 900.397 -1128.88C965.223 -1107.1 1025.93 -1079.39 1071.69 -1057.6C1328.14 -935.315 1412.01 -848.401 1470.42 -776.406C1538.92 -691.273 1591.62 -582.871 1622.52 -462.979C1650.53 -354.606 1662.1 -234.174 1656.92 -105.163C1652.09 12.3884 1635.75 132.254 1608.2 251.106C1565.6 434.845 1479.55 603.44 1352.13 752.167C1227.22 897.006 1072.07 1005.72 903.469 1066.57C732.149 1128.23 535.801 1139.22 303.066 1100.21C293.394 1098.59 283.827 1097 274.26 1095.41C228.983 1087.97 186.16 1080.99 143.911 1069.42C16.5617 1034.07 -102.639 961.316 -191.496 864.567C-232.294 819.927 -268.564 773.711 -303.697 728.987C-320.002 708.266 -336.771 686.826 -353.564 666.231C-413.673 592.366 -453.365 526.486 -482.243 452.655C-521.373 352.522 -539.117 242.26 -533.511 133.889C-529.97 59.8927 -517.112 -15.8561 -495.331 -91.2656C-494.794 -93.0796 -494.256 -94.8936 -493.719 -96.7077L-493.824 -96.7332ZM1585.05 317.434C1591.63 295.212 1597.59 272.838 1602.73 250.145C1630.14 131.747 1646.49 12.2473 1651.22 -104.964C1656.34 -233.382 1644.84 -353.31 1617.02 -461.153C1586.26 -580.402 1533.89 -687.996 1465.89 -772.523C1355.14 -908.843 1202.91 -988.503 1068.89 -1052.33C1023.33 -1074.06 962.735 -1101.75 898.191 -1123.34C819.705 -1149.65 742.368 -1161.95 668.109 -1159.89C619.16 -1158.75 567.702 -1151.05 515.062 -1137.07C454.579 -1120.98 397.604 -1101.13 340.897 -1076.47C283.701 -1051.68 226.315 -1022.45 167.613 -992.199C122.083 -968.72 73.3987 -942.968 25.3899 -913.407C-103.433 -834.163 -213.907 -704.175 -312.449 -516.249C-330.599 -481.64 -347.099 -446.51 -362.262 -413.607C-391.84 -349.566 -418.33 -287.571 -440.98 -229.02C-459.937 -180.267 -476.746 -136.098 -490.07 -89.9907C-511.787 -15.1735 -524.511 60.1217 -528.023 133.639C-533.533 241.304 -515.869 350.696 -477.097 450.135C-448.506 523.41 -408.995 588.76 -349.24 662.297C-332.447 682.892 -315.573 704.357 -299.302 725.191C-264.274 769.89 -228.108 816.081 -187.349 860.468C-99.0611 956.472 19.2602 1028.77 145.768 1063.92C187.807 1075.44 230.419 1082.36 275.59 1089.78C285.157 1091.37 294.724 1092.96 304.397 1094.58C536.256 1133.5 731.801 1122.56 902.111 1061.26C1069.81 1000.79 1223.99 892.698 1348.21 748.664C1459.25 619.056 1538.8 474.285 1585.23 317.599L1585.05 317.434Z" fill="#1B1B1B"/>
<path opacity="0.9" d="M-466.106 -52.9965C-463.889 -60.4791 -461.672 -67.9618 -459.139 -75.3679C-445.59 -117.288 -428.943 -157.485 -411.169 -199.96L-406.58 -210.878C-384.156 -264.864 -359.006 -321.957 -327.53 -390.883L-326.576 -392.961C-311.552 -425.774 -295.949 -459.784 -279.624 -492.039C-150.185 -747.324 -30.3258 -838.579 48.4971 -884.975C92.6307 -910.978 137.187 -933.841 184.386 -958.008L188.765 -960.227C202.043 -966.974 215.248 -973.86 228.421 -980.632C270.89 -1002.54 314.853 -1025.31 357.455 -1045C412.262 -1070.48 467.404 -1091.38 525.734 -1108.97C577.479 -1124.5 627.978 -1133.16 675.802 -1134.7C748.408 -1137.27 824.455 -1124.44 901.946 -1096.3C960.116 -1075.28 1016.11 -1048.83 1068.43 -1023.64C1217.23 -951.86 1357.7 -883.921 1463.9 -755.875C1531.52 -674.239 1582.61 -567.685 1611.7 -447.386C1637.41 -341.153 1646.61 -226.038 1640.12 -95.6479C1634.35 17.0563 1618.23 138.066 1593.42 254.173C1555.37 432.448 1474.3 596.411 1352.27 741.454C1232.68 883.567 1082.71 989.642 918.667 1048.08C713.566 1120.98 499.732 1102.71 336.433 1078.69C320.456 1076.28 304.8 1074.31 289.282 1072.25C251.171 1067.27 215.127 1062.55 179.072 1054.05C51.646 1023.54 -66.8885 953.504 -154.622 856.786C-185.711 822.398 -213.872 787.262 -241.039 753.339C-266.5 721.652 -290.575 691.759 -316.387 662.781C-361.771 611.928 -413.013 548.112 -449.823 460.331C-490.957 362.024 -508.927 253.29 -501.738 145.67C-497.569 80.2132 -485.581 13.4911 -465.862 -53.0589L-466.106 -52.9965ZM1567.06 335.518C1575.09 308.422 1582.06 281.071 1587.92 253.326C1612.63 137.559 1628.65 16.8895 1634.42 -95.449C1640.99 -225.334 1631.72 -339.857 1606.2 -445.56C1577.29 -564.964 1526.59 -670.936 1459.44 -751.853C1354.02 -879.102 1213.9 -946.713 1065.62 -1018.37C1013.42 -1043.53 957.49 -1069.84 899.635 -1090.79C822.742 -1118.65 747.255 -1131.48 675.419 -1128.83C627.944 -1127.34 577.899 -1118.68 526.642 -1103.28C468.451 -1085.78 413.658 -1064.92 359.129 -1039.61C316.633 -1019.89 272.809 -997.217 230.339 -975.307C217.133 -968.421 203.961 -961.649 190.684 -954.902L186.304 -952.682C139.244 -928.603 94.8266 -905.829 50.6931 -879.826C-112.577 -783.657 -213.365 -610.985 -274.977 -489.455C-291.267 -457.313 -306.156 -424.953 -321.861 -390.603L-322.815 -388.526C-354.362 -319.738 -379.407 -262.62 -401.798 -208.747L-406.387 -197.83C-424.022 -155.442 -440.707 -115.497 -454.117 -73.665C-477.741 -0.40595 -492.09 73.5209 -496.596 145.823C-503.726 252.485 -485.837 360.348 -445.027 457.848C-408.575 544.934 -357.548 608.334 -312.518 658.858C-286.634 687.975 -262.454 717.893 -236.993 749.58C-209.792 783.39 -181.598 818.413 -150.719 852.749C-63.6596 948.697 53.8898 1018.25 180.508 1048.45C216.247 1056.86 252.186 1061.56 290.191 1066.52C305.709 1068.58 321.471 1070.57 337.448 1072.99C500.187 1096.99 713.146 1115.17 917.098 1042.71C1080.17 984.53 1229.23 879.208 1348.13 737.901C1450.48 616.279 1523.86 481.316 1567.03 335.632L1567.06 335.518Z" fill="#1B1B1B"/>
<path opacity="0.9" d="M-438.227 -12.515C-433.592 -28.16 -428.502 -43.8164 -422.885 -59.3452C-410.036 -95.4792 -394.576 -129.765 -378.268 -166.155C-374.624 -174.264 -370.948 -182.486 -367.237 -190.822C-347.937 -234.263 -327.535 -279.138 -307.814 -322.477L-278.012 -388.04C-266.503 -413.562 -254.514 -439.941 -242.196 -465.146C-172.516 -607.439 -80.4956 -764.611 73.9292 -851.496C108.281 -870.755 142.483 -887.984 178.806 -906.28C189.79 -911.759 200.669 -917.264 211.721 -922.971C236.953 -935.812 262.249 -949.245 286.712 -962.152C316.004 -977.655 346.234 -993.659 375.468 -1008.2C428.374 -1034.51 481.228 -1056.46 537.127 -1075.35C587.107 -1092.16 636.194 -1101.77 683.031 -1103.79C753.846 -1106.8 828.043 -1093.44 903.555 -1063.97C954.084 -1044.19 1003.23 -1020.13 1050.83 -996.931L1065.22 -989.92C1081.26 -982.023 1097.16 -974.404 1112.85 -966.835C1241.74 -904.741 1363.49 -845.956 1457.3 -735.496C1524.21 -656.827 1573.75 -551.869 1600.74 -432.083C1623.7 -329.555 1631.06 -216.592 1623.16 -86.4239C1616.41 22.3913 1600.96 141.13 1578.49 256.949C1545.12 429.306 1468.97 588.5 1352.25 730.452C1237.35 870.051 1092.71 973.402 933.678 1029.4C761.759 1089.69 583.896 1084.02 369.647 1056.89C349.753 1054.38 330.111 1052.54 311.135 1050.73C277.559 1047.58 245.978 1044.54 214.113 1038.28C87.002 1013.19 -30.866 945.869 -117.797 848.74C-142.405 821.027 -164.95 793.207 -186.855 766.27C-217.672 728.304 -246.855 692.436 -279.398 659.155C-337.331 600.037 -383.01 544.861 -417.623 467.943C-460.687 371.966 -478.849 264.647 -470.221 157.501C-465.662 101.01 -454.851 43.9685 -438.227 -12.515ZM1549.64 352.393C1558.98 320.876 1566.77 288.863 1573.13 256.38C1595.54 140.787 1610.88 22.3888 1617.68 -86.1741C1625.61 -215.724 1618.33 -328.182 1595.44 -430.207C1568.68 -549.21 1519.46 -653.36 1453.15 -731.397C1360.02 -841.087 1238.73 -899.517 1110.22 -961.396C1094.43 -968.99 1078.53 -976.61 1062.59 -984.481L1048.2 -991.492C1000.74 -1014.78 951.668 -1038.7 901.244 -1058.45C826.33 -1087.66 752.903 -1100.96 682.892 -1097.99C636.509 -1095.99 587.91 -1086.5 538.419 -1069.82C482.797 -1051.09 430.187 -1029.21 377.525 -1002.97C348.325 -988.535 319.521 -973.157 288.908 -957.002C264.411 -943.982 239.116 -930.549 213.883 -917.707C202.865 -912.115 191.847 -906.522 180.863 -901.042C144.679 -882.835 110.372 -865.631 76.2303 -846.321C-76.6676 -760.402 -168.07 -604.175 -237.27 -462.738C-249.555 -437.646 -261.438 -411.242 -273.053 -385.744L-302.889 -320.068C-322.61 -276.729 -342.978 -231.968 -362.278 -188.526C-365.989 -180.191 -369.632 -172.082 -373.309 -163.86C-389.55 -127.697 -404.871 -93.4987 -417.653 -57.5915C-443.05 13.656 -458.851 86.0136 -464.657 157.755C-473.227 263.943 -455.217 370.253 -412.583 465.397C-378.328 541.621 -332.969 596.355 -275.39 655.144C-242.636 688.476 -213.487 724.458 -182.493 762.588C-160.694 789.499 -138.043 817.345 -113.613 844.894C-27.355 941.252 89.5279 1008.09 215.587 1032.93C247.241 1039.14 278.717 1042.15 312.082 1045.25C331.059 1047.05 350.805 1048.92 370.7 1051.43C584.212 1078.38 761.482 1084.15 932.286 1024.2C1090.17 968.655 1234.05 865.97 1348.12 727.264C1442.09 612.973 1509.67 487.302 1549.54 352.733L1549.64 352.393Z" fill="#1B1B1B"/>
<path opacity="0.9" d="M-410.223 24.824C-403.437 1.92396 -395.533 -20.9479 -386.681 -43.5903C-374.094 -75.4126 -359.529 -105.54 -344.11 -137.405C-338.684 -148.484 -333.364 -159.589 -327.943 -171.033L-324.875 -177.581C-299.611 -230.875 -273.493 -285.907 -248.672 -341.132C-243.155 -353.282 -237.881 -365.37 -232.536 -377.319C-223.62 -397.515 -214.363 -418.48 -204.887 -438.662C-133.948 -589.394 -48.0362 -739.658 99.2106 -818.316C126.659 -832.928 155.165 -846.92 182.698 -860.297C199.942 -868.634 217.219 -877.084 234.598 -885.874C268.138 -902.777 301.206 -921.131 333.27 -938.757C354.042 -950.248 373.565 -960.949 393.404 -971.573C444.688 -998.879 495.255 -1021.86 548.34 -1041.93C596.831 -1060.19 644.612 -1070.73 690.08 -1073.07C758.789 -1076.6 831.136 -1062.71 904.846 -1031.73C945.55 -1014.57 985.415 -994.586 1023.98 -975.157C1036.54 -968.833 1049.1 -962.508 1061.8 -956.272C1089.35 -942.671 1116.75 -929.713 1143.41 -917.3C1257.68 -863.731 1365.48 -813.066 1450.77 -715.364C1517.02 -639.409 1565.03 -536.159 1589.91 -416.887C1610.31 -318.263 1615.75 -207.224 1606.35 -77.3033C1598.61 27.6237 1584.32 140.929 1563.7 259.625C1534.81 426.014 1463.74 580.603 1352.37 719.351C1243.89 854.426 1100.58 957.853 948.86 1010.52C767.672 1073.17 573.864 1052.82 402.992 1034.99C380.582 1032.6 358.501 1031.38 337.19 1030.23C306.886 1028.59 278.366 1027.03 249.39 1022.44C124.273 1002.81 3.86696 936.457 -80.8097 840.484C-100.847 817.524 -119.555 794.644 -137.555 772.421C-171.85 730.211 -204.368 690.375 -242.247 655.316C-293.673 607.74 -347.089 554.7 -385.334 475.202C-430.47 381.277 -448.824 275.372 -438.613 168.977C-433.919 120.783 -424.436 72.4125 -410.261 24.5718L-410.223 24.824ZM1532.78 368.536C1543.39 332.712 1551.9 296.379 1558.38 259.308C1578.93 140.839 1593.29 27.6724 1600.97 -77.0278C1610.31 -206.356 1604.94 -316.89 1584.58 -414.897C1559.99 -533.248 1512.31 -635.69 1446.66 -711.013C1362.18 -808.032 1254.63 -858.394 1140.99 -911.81C1114.37 -924.337 1086.93 -937.181 1059.28 -950.807C1046.58 -957.044 1034.02 -963.368 1021.46 -969.693C982.999 -989.096 943.134 -1009.08 902.64 -1026.19C829.528 -1056.9 758.056 -1070.7 690.012 -1067.14C644.999 -1064.8 597.95 -1054.45 549.947 -1036.31C497.139 -1016.42 446.711 -993.528 395.671 -966.285C375.866 -955.774 356.309 -944.96 335.676 -933.556C303.579 -915.817 270.439 -897.602 236.865 -880.586C219.487 -871.796 202.104 -863.371 184.827 -854.921C157.293 -841.544 128.821 -827.665 101.478 -813.027C-44.1702 -735.197 -129.431 -585.991 -199.857 -436.229C-209.299 -416.159 -218.523 -395.308 -227.439 -375.112C-232.818 -363.049 -238.091 -350.961 -243.608 -338.811C-268.535 -283.612 -294.581 -228.441 -319.95 -175.172L-323.018 -168.625C-328.405 -157.294 -333.864 -146.101 -339.185 -134.997C-354.57 -103.245 -369.068 -73.3443 -381.588 -41.7487C-408.963 27.8025 -426.283 98.8178 -433.083 169.345C-443.307 274.643 -424.966 379.451 -380.366 472.518C-342.55 551.182 -289.594 603.868 -238.522 651.116C-200.36 686.365 -167.771 726.339 -133.299 768.714C-115.265 790.823 -96.6626 813.678 -76.6251 836.638C7.27257 931.815 126.622 997.55 250.653 1017.03C279.314 1021.55 307.834 1023.11 337.927 1024.69C359.343 1025.87 381.424 1027.09 404.079 1029.42C574.496 1047.27 767.672 1067.46 947.712 1005.26C1098.32 952.931 1240.73 850.257 1348.38 716.076C1434.33 609.077 1496.03 492.559 1532.78 368.536Z" fill="#1B1B1B"/>
<path opacity="0.9" d="M-381.982 59.1539C-373.316 29.9062 -362.827 0.978512 -350.378 -27.7169C-337.962 -56.2991 -323.883 -83.2632 -308.946 -111.599C-302.18 -124.54 -295.274 -137.568 -288.512 -150.875C-265.974 -195.351 -236.548 -254.318 -209.009 -316.051C-202.064 -331.5 -195.467 -346.911 -188.904 -362.21C-181.9 -378.617 -174.657 -395.452 -167.232 -411.756C-103.384 -553.023 -23.0463 -709.978 124.871 -784.825C147.322 -796.274 170.585 -807.04 193.117 -817.618C214.327 -827.545 236.198 -837.798 258.026 -848.668C297.615 -868.479 336.019 -890.764 373.209 -912.371C386.265 -919.9 399.112 -927.479 411.857 -934.719C461.796 -963.2 510.215 -987.311 560.037 -1008.17C607.806 -1028.18 652.816 -1039.27 697.613 -1042.02C764.354 -1046.14 834.747 -1031.75 906.725 -999.126C940.025 -984.01 972.825 -966.828 1004.57 -950.267C1022.34 -940.979 1040.57 -931.336 1058.83 -922.173C1094.37 -904.328 1129.81 -888.45 1164.06 -873.105C1267.68 -826.612 1365.64 -782.706 1444.41 -694.606C1509.96 -621.251 1556.58 -519.799 1579.15 -401.091C1597.31 -305.199 1600.63 -199.174 1589.64 -67.698C1581.41 28.9676 1568.11 137.041 1549.01 262.784C1524.66 423.344 1458.54 573.416 1352.59 708.733C1248.81 841.296 1110.96 941.911 964.141 992.116C807.881 1045.26 650.601 1031.81 483.975 1017.56C468.152 1016.16 452.295 1014.87 436.333 1013.55C412.005 1011.54 388.293 1011.26 365.279 1010.91C337.438 1010.48 311.243 1010.21 284.419 1007.11C159.44 992.747 39.7004 929.105 -43.964 832.772C-60.7416 813.276 -76.5386 793.896 -91.7335 775.148C-128.335 730.071 -162.844 687.445 -205.166 652.161C-263.563 603.382 -315.041 557.131 -353.042 483.284C-400.216 391.297 -418.795 286.92 -406.897 181.302C-402.287 140.622 -393.935 99.8768 -381.944 59.4061L-381.982 59.1539ZM1516.35 384.029C1528.14 344.238 1537.23 303.671 1543.51 262.303C1562.58 136.673 1575.85 28.7132 1584.12 -67.7003C1595.08 -198.697 1591.8 -304.104 1573.71 -399.492C1551.3 -517.191 1505.21 -617.785 1440.23 -690.394C1362.02 -777.75 1264.66 -821.389 1161.43 -867.666C1127.08 -883.037 1091.64 -898.915 1056.03 -916.899C1037.66 -926.088 1019.33 -935.755 1001.66 -945.018C970.022 -961.554 937.222 -978.736 904.133 -993.801C832.928 -1026 763.411 -1040.29 697.368 -1036.25C653.131 -1033.48 608.748 -1022.61 561.606 -1002.8C512.028 -982.011 463.676 -958.127 413.981 -929.708C401.236 -922.469 388.423 -915.003 375.333 -907.361C338.144 -885.754 299.705 -863.356 259.873 -843.483C238.044 -832.612 216.14 -822.246 194.824 -812.344C172.432 -801.853 149.135 -790.974 126.718 -779.639C-19.3572 -705.682 -99.1148 -549.923 -162.45 -409.626C-169.736 -393.409 -177.013 -376.461 -183.984 -360.167C-190.547 -344.869 -197.177 -329.343 -204.123 -313.895C-231.661 -252.162 -261.121 -193.081 -283.693 -148.492C-290.488 -135.072 -297.394 -122.043 -304.16 -109.103C-319.097 -80.7669 -333.108 -54.0295 -345.457 -25.6741C-374.776 42.067 -393.616 111.74 -401.477 181.278C-413.25 285.712 -394.822 389.08 -348.117 479.982C-310.651 552.97 -259.527 598.893 -201.483 647.343C-158.807 682.956 -124.122 725.746 -87.3431 770.987C-72.1481 789.735 -56.4563 809.09 -39.6787 828.586C43.2402 924.009 161.818 987.006 285.606 1001.21C312.114 1004.23 338.276 1004.61 365.906 1004.99C388.92 1005.34 412.843 1005.67 437.31 1007.59C453.272 1008.91 469.128 1010.2 484.951 1011.6C650.913 1025.81 807.633 1039.24 962.883 986.465C1108.55 936.711 1245.4 836.824 1348.46 705.18C1426.48 605.5 1482.73 497.871 1516.49 383.941L1516.35 384.029Z" fill="#1B1B1B"/>
<path opacity="0.9" d="M-353.52 90.745C-343.242 56.0567 -330.056 21.8301 -314.067 -11.9605C-301.726 -38.0084 -287.86 -62.3504 -273.136 -88.0641C-265.192 -101.934 -256.975 -116.345 -249.007 -131.06C-216.826 -190.573 -190.679 -243.043 -169.41 -291.227C-161.515 -309.119 -153.974 -327.339 -146.634 -344.879C-141.03 -358.465 -135.459 -371.938 -129.711 -385.247C-63.0878 -539.689 8.52002 -683.931 150.367 -751.62C169.279 -760.645 188.756 -769.291 207.606 -777.724C231.639 -788.424 256.471 -799.538 281.046 -811.687C325.189 -833.552 367.012 -859.382 407.446 -884.333C414.908 -888.965 422.37 -893.596 429.798 -898.114C479.292 -928.525 524.28 -952.858 571.36 -974.741C617.642 -996.21 661.207 -1008.13 704.774 -1011.3C769.652 -1015.99 838.197 -1001.09 908.268 -966.976C935.847 -953.49 963.2 -938.478 989.673 -923.923C1011.11 -912.167 1033.33 -899.981 1055.56 -888.639C1096.7 -867.615 1138 -850.196 1177.78 -833.387C1273.5 -792.942 1363.83 -754.895 1437.85 -674.385C1520.07 -584.966 1554.12 -468.095 1568.3 -385.805C1584.15 -292.783 1585.59 -191.833 1572.81 -58.487C1562.83 43.7054 1549.02 150.804 1535.6 254.348L1534.19 265.551C1514.12 420.458 1453.12 565.814 1352.69 697.726C1253.7 827.802 1121.07 925.668 979.295 973.327C841.974 1019.27 705.088 1008.94 560.257 998.027C530.683 995.843 500.127 993.542 469.754 991.771C444.139 990.302 419.355 990.979 395.235 991.696C369.298 992.458 344.83 993.212 319.771 991.392C196.502 982.299 74.3348 920.013 -6.93641 824.748C-21.7303 807.312 -35.6824 790.081 -49.1375 773.455C-86.7365 726.801 -122.276 682.712 -168.081 648.528C-225.779 605.387 -280.125 564.638 -320.713 490.773C-369.958 400.838 -388.836 297.849 -375.25 193.007C-370.875 158.832 -363.597 124.753 -353.587 90.9718L-353.52 90.745ZM1500.43 398.916C1513.36 355.272 1522.75 310.648 1528.63 265.296L1530.03 254.094C1543.46 150.549 1557.23 43.5642 1567.18 -58.5147C1579.9 -191.268 1578.57 -291.827 1562.76 -384.232C1548.72 -465.879 1515 -581.576 1433.64 -670.06C1360.36 -749.66 1270.45 -787.606 1175.34 -827.784C1135.34 -844.645 1094.04 -862.063 1052.69 -883.138C1030.24 -894.531 1008.03 -906.718 986.626 -918.587C960.258 -933.116 933.01 -948.102 905.398 -961.475C836.134 -995.269 768.537 -1009.95 704.496 -1005.42C661.627 -1002.32 618.55 -990.522 573.035 -969.354C526.232 -947.647 481.488 -923.376 432.132 -893.053C424.704 -888.535 417.242 -883.904 409.781 -879.272C369.207 -854.233 327.246 -828.315 282.825 -806.274C258.112 -794.038 233.175 -782.949 209.142 -772.249C190.325 -763.929 170.954 -755.258 152.041 -746.233C12.1419 -679.409 -58.7809 -536.337 -124.93 -383.116C-130.677 -369.808 -136.215 -356.448 -141.819 -342.862C-149.053 -325.296 -156.595 -307.076 -164.628 -289.097C-186.07 -240.711 -212.145 -188.102 -244.498 -128.388C-252.467 -113.674 -260.717 -99.1487 -268.661 -85.2787C-283.246 -59.6528 -297.078 -35.4242 -309.353 -9.60312C-340.65 56.4419 -360.942 124.546 -369.864 193.097C-383.324 296.755 -364.671 398.596 -315.998 487.42C-275.912 560.313 -221.919 600.734 -164.713 643.633C-118.45 678.172 -82.7671 722.539 -44.9197 769.496C-31.4644 786.121 -17.6175 803.327 -2.79006 820.65C77.6306 914.98 198.497 976.708 320.469 985.608C345.318 987.377 369.648 986.711 395.48 985.923C419.705 985.232 444.628 984.467 470.453 985.987C500.932 987.783 531.487 990.084 561.061 992.269C705.438 1003.2 841.798 1013.4 977.97 967.903C1118.63 920.582 1250.12 823.532 1348.35 694.487C1418.56 602.151 1469.53 503.208 1500.4 399.029L1500.43 398.916Z" fill="#1B1B1B"/>
<path opacity="0.9" d="M-324.824 119.945C-313.169 80.6098 -297.487 41.764 -277.806 3.88716C-265.404 -20.0803 -251.584 -42.3673 -237.044 -65.9382C-227.99 -80.511 -218.663 -95.625 -209.656 -111.181C-177.086 -167.44 -150.989 -218.22 -129.931 -266.455C-121.255 -286.222 -113.248 -306.395 -105.476 -325.773C-101.065 -336.854 -96.7213 -347.709 -92.2388 -358.651C-38.477 -489.477 28.4974 -652.336 175.85 -718.445C191.987 -725.713 208.582 -732.626 224.551 -739.327C250.574 -750.274 277.5 -761.61 304.022 -774.623C351.677 -798.067 395.837 -827.218 438.574 -855.377L447.836 -861.516C496.747 -893.768 539.588 -919.229 582.645 -941.235C627.334 -964.183 669.593 -977.028 711.896 -980.506C775.019 -985.744 841.505 -970.363 909.636 -934.657C932.758 -922.494 955.754 -909.146 978.009 -896.342C1002.06 -882.373 1026.89 -867.974 1052.23 -854.909C1097.51 -831.543 1142.98 -813.722 1187.04 -796.485C1276.56 -761.428 1361.13 -728.3 1431.3 -654.193C1512.88 -567.966 1544.92 -452.313 1557.35 -370.571C1574.53 -257.668 1566.25 -144.858 1555.87 -49.3241C1550.74 -3.06325 1544.96 45.3514 1539.45 92.1281C1532.46 150.334 1525.33 210.569 1519.28 268.273C1503.58 417.555 1447.56 558.283 1352.68 686.679C1258.53 814.157 1131.21 909.3 994.341 954.5C872.058 994.609 751.351 986.015 623.363 976.872C584.165 974.056 543.532 971.136 502.884 969.791C476.437 968.85 450.724 970.76 425.92 972.647C401.465 974.497 378.407 976.2 354.725 975.443C231.698 971.632 110.161 912.173 29.7242 816.381C16.737 800.842 4.55799 785.619 -7.30111 770.839C-45.7208 722.772 -81.9762 677.294 -131.154 644.602L-138.31 639.831C-195.031 602.151 -248.511 566.473 -288.649 497.942C-339.217 411.332 -358.843 307.07 -343.834 204.275C-339.704 175.873 -333.474 147.616 -325.211 119.73L-324.824 119.945ZM1484.96 413.408C1499 366.024 1508.59 317.683 1513.86 268.296C1519.91 210.592 1527.15 150.383 1534.06 92.0378C1539.68 45.2868 1545.42 -3.01457 1550.45 -49.3009C1560.8 -144.356 1569.09 -256.8 1552.02 -368.946C1539.71 -449.932 1508 -564.412 1427.37 -649.678C1357.98 -722.989 1273.9 -755.876 1184.9 -790.806C1140.74 -808.069 1095.06 -825.94 1049.6 -849.471C1024.16 -862.561 999.259 -877.099 975.206 -891.067C953.09 -903.959 930.094 -917.308 907.043 -929.332C839.792 -964.582 774.181 -979.872 712.073 -974.632C670.434 -971.114 628.802 -958.482 584.912 -935.948C542.065 -913.89 499.398 -888.63 450.625 -856.466L441.363 -850.327C398.487 -822.08 354.189 -792.841 306.151 -769.247C279.49 -756.146 252.458 -744.836 226.297 -733.802C210.328 -727.101 193.733 -720.187 177.596 -712.919C32.4683 -647.85 -31.0736 -493.15 -87.2133 -356.582C-91.6623 -345.754 -96.0396 -334.786 -100.417 -323.818C-108.117 -304.301 -116.229 -284.154 -124.939 -264.273C-146.169 -215.837 -172.334 -164.83 -205.076 -108.37C-214.117 -92.7009 -223.549 -77.6124 -232.637 -62.9263C-247.143 -39.4687 -260.896 -17.4084 -273.125 6.35782C-306.334 70.4807 -328.284 137.331 -338.162 204.921C-353.012 306.418 -333.647 409.28 -283.652 494.779C-244.121 562.312 -191.1 597.637 -134.838 634.962L-127.681 639.733C-77.9731 672.919 -41.4358 718.586 -2.80116 767.07C8.95271 781.824 21.237 797.072 34.1526 812.473C113.773 907.216 233.798 966.066 355.495 969.798C378.967 970.504 401.92 968.775 426.131 966.988C451.04 965.126 476.892 963.128 503.654 964.146C544.303 965.491 584.936 968.411 624.239 971.252C751.561 980.356 871.92 988.987 993.122 949.102C1128.88 904.239 1255.05 809.912 1348.45 683.466C1411.16 598.548 1456.81 508.037 1484.86 413.383L1484.96 413.408Z" fill="#1B1B1B"/>
<path opacity="0.9" d="M-295.902 147.015C-283.004 103.486 -264.851 60.8659 -241.504 19.7475C-228.941 -2.47956 -215.204 -22.9638 -200.537 -44.6809C-190.474 -59.6163 -180.032 -75.0673 -170.087 -91.1249C-136.994 -144.583 -110.913 -193.786 -90.1623 -241.366C-80.9444 -262.581 -72.7787 -284.051 -64.8862 -304.979C-61.4291 -313.983 -58.1108 -322.898 -54.6873 -331.788L-51.7385 -339.457C0.408333 -473.588 59.6798 -625.674 201.379 -684.89C215.4 -690.726 229.946 -696.435 243.866 -701.931C271.184 -712.686 299.512 -723.803 327.287 -737.241C377.76 -761.824 424.701 -795.038 466.128 -824.486C515.562 -859.647 555.044 -885.193 594.321 -907.386C637.384 -931.699 678.233 -945.492 719.445 -949.478C780.811 -955.262 845.449 -939.357 911.535 -902.082C931.146 -891.012 950.699 -878.984 969.583 -867.362C995.231 -851.549 1021.76 -835.28 1049.28 -820.836C1097.39 -795.571 1146.31 -778.006 1193.51 -761.102C1278.15 -730.873 1358.05 -702.158 1425.07 -633.43C1488.28 -568.545 1531.58 -469.603 1546.83 -354.741C1560.96 -247.924 1551.61 -140.237 1539.37 -39.5671L1534.69 -2.06659C1523.41 88.5094 1511.79 182.16 1504.69 271.563C1493.22 415.307 1442.29 551.432 1353.1 676.224C1263.75 801.216 1141.89 893.549 1009.82 936.265C899.858 971.705 792.101 963.94 677.972 955.603C632.055 952.252 584.459 948.86 536.654 948.453C509.552 948.204 483.331 951.449 458.087 954.444C434.938 957.218 413.046 959.932 390.321 960.135C269.424 961.701 145.636 903.761 67.099 808.796C55.4595 794.798 44.5566 780.979 33.9737 767.601C-6.44187 716.378 -41.3868 672.191 -93.6168 641.432L-107.739 633.151C-163.383 600.593 -215.996 569.984 -255.902 506.006C-308.681 421.535 -328.395 318.711 -311.664 216.578C-307.821 193.332 -302.543 170.19 -295.792 147.406L-295.902 147.015ZM1470.12 427.447C1485.2 376.55 1494.88 324.466 1499.13 271.308C1506.22 181.906 1517.88 88.1415 1529.19 -2.54786L1533.87 -40.0483C1546.08 -140.24 1555.41 -247.447 1541.32 -353.647C1526.16 -467.273 1483.43 -565.104 1421.03 -629.307C1354.82 -697.351 1275.38 -725.713 1191.37 -755.788C1143.96 -772.744 1094.93 -790.334 1046.51 -815.675C1018.88 -830.145 992.285 -846.553 966.531 -862.391C947.648 -874.014 928.2 -886.016 908.555 -896.972C843.348 -933.791 779.658 -949.467 719.444 -943.768C679.069 -939.944 638.848 -926.363 596.584 -902.464C557.551 -880.333 518.208 -854.875 468.946 -819.915C427.38 -790.38 380.161 -756.989 329.272 -732.143C301.22 -718.529 272.892 -707.412 245.435 -696.57C231.515 -691.074 217.107 -685.453 203.087 -679.616C63.7178 -621.415 5.0934 -470.751 -46.6125 -337.729L-49.5612 -330.06C-52.9846 -321.17 -56.4081 -312.28 -59.7264 -303.365C-67.6189 -282.436 -75.8519 -260.739 -85.2086 -239.436C-106.06 -191.517 -132.347 -141.999 -165.507 -88.3142C-175.485 -72.1433 -185.961 -56.5789 -196.024 -41.6436C-210.519 -20.1276 -224.222 0.243318 -236.751 22.3569C-272.009 84.6453 -295.34 150.067 -306.312 216.782C-322.85 317.503 -303.259 418.839 -251.297 502.262C-211.964 565.129 -159.982 595.585 -104.903 627.763L-90.7802 636.045C-37.7756 667.234 -2.61573 711.838 38.1534 763.39C48.7363 776.767 59.534 790.561 71.1736 804.559C148.788 898.45 271.171 955.806 390.493 954.224C412.904 953.944 434.656 951.318 457.7 948.518C483.189 945.461 509.514 942.242 536.966 942.454C584.981 942.911 632.577 946.304 678.633 949.567C792.235 957.776 899.433 965.527 1008.38 930.45C1139.24 888.046 1259.95 796.529 1348.52 672.682C1404.01 595.006 1444.65 513.005 1470.01 427.421L1470.12 427.447Z" fill="#1B1B1B"/>
<path opacity="0.9" d="M-267.01 173.34C-252.937 125.845 -231.967 79.0486 -205.222 35.5956C-192.432 14.8822 -178.572 -4.11413 -163.921 -24.2553C-152.915 -39.3264 -141.531 -54.9133 -130.716 -71.2455C-96.9996 -122.243 -70.8632 -169.731 -50.6636 -216.592C-41.0048 -238.915 -32.8906 -261.734 -24.9064 -283.733C-22.3359 -290.886 -19.7656 -298.038 -17.1952 -305.191L-10.2902 -323.929C36.6416 -452.638 89.9033 -598.524 226.988 -651.688C239.448 -656.444 251.979 -661.062 264.511 -665.679C292.708 -675.977 321.881 -686.525 350.421 -700.263C398.567 -723.465 442.89 -756.22 484.29 -787.86C527.455 -820.895 564.642 -848.211 605.763 -873.965C647.129 -899.782 686.776 -914.474 726.725 -918.766C786.369 -925.21 849.124 -908.667 913.166 -869.823C930.003 -859.668 946.71 -848.694 962.854 -838.101C989.5 -820.71 1017.17 -802.585 1046.1 -787.192C1096.25 -760.46 1147.61 -743.885 1197.35 -727.944C1277.95 -701.975 1354.12 -677.443 1418.54 -613.236C1481.4 -550.621 1523.08 -453.413 1535.93 -339.618C1547.78 -233.843 1535.15 -124.642 1522.52 -30.63C1508.87 69.0893 1495.05 174.72 1489.86 274.058C1482.56 412.492 1436.61 543.99 1353.18 664.95C1268.76 787.369 1152.12 876.954 1024.95 917.212C925.221 948.569 828.276 941.237 725.658 933.259C675.155 929.404 622.902 925.369 569.941 926.386C542.393 926.879 515.804 931.37 490.157 935.726C469.045 939.236 447.062 943.021 425.398 944.211C304.954 951.109 181.658 896.084 103.884 800.455C93.3772 787.582 83.3968 774.837 73.8415 762.559C33.3844 710.719 -1.49736 665.94 -56.565 637.532C-63.2153 634.098 -69.8991 630.777 -76.5496 627.343C-131.68 599.527 -183.679 573.32 -223.607 513.225C-278.458 430.805 -298.502 329.482 -280.051 228.011C-276.811 209.843 -272.383 191.477 -267.01 173.34ZM1455.74 440.983C1471.83 386.686 1481.43 331.061 1484.41 274.195C1489.63 174.743 1503.42 68.8603 1517.1 -30.9722C1529.73 -124.618 1542.33 -233.341 1530.52 -338.498C1517.79 -451.171 1476.69 -547.268 1414.68 -608.948C1351.04 -672.358 1275.35 -696.65 1195.39 -722.467C1145.47 -738.571 1093.87 -755.084 1043.33 -782.031C1014.22 -797.589 986.52 -815.6 959.697 -833.155C943.553 -843.749 926.812 -854.609 910.114 -864.852C847.024 -903.101 785.321 -919.389 726.83 -913.03C687.685 -908.787 648.941 -894.484 608.27 -869.106C567.321 -843.552 530.273 -816.324 487.246 -783.377C445.675 -751.536 401.074 -718.605 352.407 -695.165C323.589 -681.251 294.277 -670.616 265.974 -660.343C253.443 -655.726 240.945 -651.222 228.485 -646.465C93.9746 -594.378 41.3603 -449.915 -5.16848 -322.566L-12.107 -303.715C-14.6439 -296.676 -17.2144 -289.523 -19.7848 -282.37C-27.6975 -260.232 -35.9505 -237.326 -45.6428 -214.89C-65.9433 -167.688 -92.3189 -119.772 -126.207 -68.5736C-137.057 -52.1281 -148.58 -36.4533 -159.619 -21.2688C-174.202 -1.35437 -187.924 17.5539 -200.68 38.154C-237.37 97.6642 -262.935 163.393 -274.732 228.328C-292.852 328.3 -273.141 428.084 -219.074 509.342C-179.824 568.301 -128.317 594.267 -73.8898 621.792C-67.2058 625.112 -60.5555 628.546 -53.9052 631.98C2.04217 660.845 37.2438 706.066 78.1262 758.373C87.6815 770.651 97.5568 783.371 108.063 796.243C184.949 890.685 306.523 945.05 425.466 938.274C446.92 937.033 467.682 933.56 489.665 929.775C515.522 925.47 542.251 920.891 570.147 920.361C623.319 919.395 675.678 923.456 726.286 927.336C828.377 935.187 924.868 942.531 1023.58 911.536C1149.54 871.59 1264.89 782.909 1348.63 661.66C1397.08 591.392 1432.82 517.56 1455.56 440.818L1455.74 440.983Z" fill="#1B1B1B"/>
<path opacity="0.9" d="M-237.799 197.081C-222.82 146.524 -199.403 96.7974 -168.906 51.3374C-155.82 31.9104 -141.185 13.3446 -126.996 -4.47855C-115.115 -19.4592 -102.855 -34.9556 -91.2362 -51.3361C-57.3074 -99.245 -30.3628 -146.416 -11.0877 -191.68C-1.19378 -214.796 6.76839 -238.623 14.567 -261.518C16.4568 -267.135 18.3802 -272.865 20.3752 -278.456C23.5166 -287.536 26.5864 -296.755 29.7614 -305.948C71.7482 -430.146 119.409 -570.829 252.543 -618.269C263.754 -622.235 275.036 -626.062 286.39 -629.75C315.051 -639.328 344.722 -649.269 373.611 -663.044C422.594 -686.408 465.781 -720.653 502.405 -751.021C543.669 -785.246 578.359 -813.653 617.267 -840.309C657.042 -867.605 695.246 -883.132 734.071 -887.818C792.065 -894.783 852.903 -877.855 914.867 -837.327C929.318 -827.872 943.812 -817.799 957.742 -808.106C984.932 -789.125 1013.07 -769.549 1042.99 -753.309C1094.49 -725.401 1147.86 -710.283 1199.43 -695.598C1276.73 -673.709 1349.75 -652.979 1412.2 -592.772C1474.72 -532.427 1514.9 -437.037 1525.26 -323.967C1534.27 -224.59 1521.26 -123.986 1505.87 -21.0439C1492.05 70.4947 1477.51 177.41 1475.27 277.097C1472.12 412.165 1432.29 535.549 1353.49 654.228C1275.09 772.278 1160.93 861.492 1040.26 898.831C949.306 926.847 861.52 919.425 768.693 911.512C715.21 907.057 659.8 902.256 603.537 904.903C575.649 906.164 549.005 911.979 523.199 917.632C502.832 922.052 481.873 926.571 460.92 928.784C342.637 940.944 217.158 887.577 141.071 792.72C131.343 780.644 122.246 768.72 113.47 757.238C73.252 704.97 38.6098 659.763 -19.082 634.121C-27.4493 630.392 -35.745 626.803 -44.1795 623.301C-96.6221 600.874 -150.858 577.648 -191.058 521.132C-248.015 440.873 -268.286 341.075 -248.152 240.011C-245.283 225.762 -241.749 211.553 -237.551 197.384L-237.799 197.081ZM1442.11 454.828C1459.04 397.697 1468.18 338.679 1469.57 277.296C1471.95 177.155 1486.35 69.9626 1500.3 -21.664C1515.7 -124.24 1528.68 -224.365 1519.71 -323.125C1509.51 -434.821 1469.86 -528.987 1408.23 -588.51C1346.66 -647.894 1274.28 -668.472 1197.51 -690.233C1145.72 -704.969 1092.03 -720.164 1040.05 -748.313C1009.81 -764.63 981.598 -784.344 954.303 -803.351C940.373 -813.044 925.985 -823.091 911.533 -832.546C850.592 -872.34 790.841 -889.127 734.104 -882.221C696.221 -877.672 658.783 -862.445 619.841 -835.676C581.211 -809.196 546.659 -780.877 505.429 -746.765C468.527 -716.221 425.029 -681.687 375.386 -657.997C346.113 -644.072 316.304 -634.043 287.538 -624.49C276.256 -620.663 265.007 -616.95 253.796 -612.984C123.447 -566.57 76.3616 -427.449 34.8829 -304.585C31.7795 -295.253 28.6046 -286.06 25.4631 -276.981C23.5734 -271.364 21.6838 -265.747 19.6551 -260.042C11.7893 -236.921 3.72197 -213.119 -6.13387 -189.75C-25.5434 -144.034 -52.7275 -96.4342 -86.8959 -48.0976C-98.5488 -31.6037 -110.947 -16.0194 -122.862 -0.925408C-137.635 17.7282 -151.513 35.2623 -164.427 54.4881C-203.028 112.078 -230.079 176.354 -242.9 240.555C-262.741 339.867 -242.698 438.152 -186.629 517.224C-147.247 572.691 -95.9994 594.586 -41.8688 617.786C-33.4679 621.401 -25.0334 624.903 -16.7714 628.606C41.977 654.869 77.0782 700.43 117.582 753.254C126.359 764.735 135.489 776.546 145.112 788.597C220.099 882.215 343.857 934.922 460.533 922.858C481.242 920.708 501.12 916.413 522.219 911.806C548.236 906.204 575.123 900.326 603.499 898.941C660.217 896.282 715.766 900.995 769.354 905.475C861.76 913.287 948.986 920.694 1038.93 893.042C1158.24 856.102 1271.23 767.818 1348.8 651.027C1391.1 587.409 1421.99 522.362 1442.01 454.802L1442.11 454.828Z" fill="#1B1B1B"/>
<path opacity="0.9" d="M-208.495 219.367C-192.743 166.204 -166.804 114.051 -132.618 67.1772C-119.275 48.7846 -104.345 31.5055 -90.0369 14.8045C-77.3142 0.0278971 -64.2131 -15.2645 -51.8574 -31.4664C-17.1321 -77.1165 9.79657 -122.712 28.4201 -166.918C38.4102 -190.74 46.2246 -215.21 53.7322 -239.026L57.7716 -251.898C61.3407 -263.182 64.9769 -274.693 68.5416 -286.343C105.785 -406.709 148.112 -543.095 277.955 -585.136C288.194 -588.486 298.471 -591.585 308.854 -594.657C337.733 -603.454 367.695 -612.474 396.655 -626.11C443.695 -648.244 485.614 -683.16 520.48 -714.44L531.203 -723.991C563.646 -753.185 594.289 -780.872 628.695 -806.795C666.739 -835.483 703.532 -851.96 741.373 -857.127C797.751 -864.727 856.602 -847.186 916.522 -805.088C929.008 -796.231 941.603 -786.983 953.673 -777.862C980.914 -757.532 1009.18 -736.469 1039.8 -719.571C1092.15 -690.729 1147.03 -677.308 1200.17 -664.434C1274.76 -646.359 1345.08 -629.077 1405.77 -572.456C1489.77 -494.028 1509.87 -373.495 1514.47 -308.719C1521.46 -208.616 1505.01 -108.602 1489.09 -11.8632C1475.31 70.8138 1459.66 178.797 1460.51 279.841C1461.6 409.738 1426.61 528.585 1353.63 643.207C1280.04 758.773 1171.36 845.065 1055.46 880.034C972.052 905.019 892.341 897.368 807.766 889.388C752.49 884.134 695.359 878.674 636.741 883.18C608.723 885.26 581.887 892.486 556.061 899.349C536.473 904.565 516.259 909.994 495.841 913.065C377.975 930.672 253.092 880.243 177.8 784.608C168.779 773.189 160.285 761.897 152.006 751.022C112.31 698.516 77.9451 653.133 17.8068 630.421C8.07615 626.727 -1.82674 623.234 -11.7296 619.741C-64.1947 601.196 -118.52 582.079 -159.033 528.525C-218.097 450.429 -238.666 352.017 -216.81 251.614C-214.528 240.868 -211.686 230.136 -208.563 219.594L-208.495 219.367ZM1429.01 467.205C1446.81 407.127 1455.36 345.171 1454.85 280.292C1454.03 178.769 1469.78 70.4459 1483.53 -12.4832C1499.31 -108.768 1515.76 -208.417 1508.92 -307.876C1504.43 -371.897 1484.56 -490.916 1401.87 -568.055C1342.17 -623.829 1272.34 -640.869 1198.41 -658.905C1144.97 -671.855 1089.87 -685.327 1036.86 -714.575C1005.92 -731.549 977.58 -752.751 950.129 -773.132C938.026 -782.139 925.569 -791.475 913.05 -800.219C854.258 -841.558 796.53 -858.705 741.477 -851.391C704.718 -846.448 668.724 -830.385 631.513 -802.225C597.385 -776.477 566.88 -748.878 534.471 -719.797L523.714 -710.133C488.571 -678.678 446.202 -643.384 398.363 -620.837C368.986 -606.937 338.886 -597.829 309.796 -589.083C299.518 -585.985 289.241 -582.887 279.002 -579.536C152.155 -538.47 110.436 -403.76 73.6296 -284.867C70.0649 -273.217 66.4287 -261.706 62.8261 -250.308L58.7868 -237.437C51.2454 -213.508 43.5026 -188.898 33.3065 -164.762C14.5486 -120.103 -12.7583 -73.9913 -47.7232 -27.9134C-60.2512 -11.5101 -73.3522 3.78226 -86.1085 18.6722C-101.072 36.0647 -115.174 52.4511 -128.345 70.6425C-168.857 126.311 -197.533 189.221 -211.31 252.461C-232.767 351.138 -212.603 447.873 -154.5 524.642C-114.875 577.009 -61.2866 595.948 -9.52438 614.2C0.378512 617.693 10.2815 621.187 20.1173 624.906C81.5563 648.177 116.241 694.001 156.434 747.113C164.608 757.963 173.136 769.142 182.156 780.561C256.488 874.87 379.439 924.587 495.56 907.165C515.628 904.131 534.833 899.065 555.186 893.548C581.256 886.623 608.231 879.309 636.808 877.243C695.847 872.839 753.223 878.237 808.709 883.542C892.619 891.482 971.909 899.032 1054.3 874.409C1168.85 839.839 1276.35 754.478 1349.02 640.144C1384.87 583.834 1411.48 526.376 1429.05 467.092L1429.01 467.205Z" fill="#1B1B1B"/>
<path opacity="0.9" d="M-178.997 240.513C-162.54 184.969 -134.244 130.956 -96.3637 83.0314C-82.6577 65.6983 -67.47 49.4531 -52.9046 33.7862C-39.5123 19.4144 -25.4977 4.46455 -12.4052 -11.5593C23.0125 -54.9774 50.1027 -98.8338 67.9698 -142.009C78.1282 -166.398 85.4796 -191.589 92.5957 -215.986L95.3162 -225.168C99.1452 -238.091 102.793 -251.543 106.579 -265.084C139.352 -382.162 176.445 -514.959 303.415 -551.866C312.927 -554.664 322.477 -557.21 332.166 -559.843C361.094 -567.656 390.858 -575.631 419.786 -589.154C466.865 -611.036 506.298 -646.313 538.644 -677.84C545.347 -684.477 552.016 -691.002 558.58 -697.551C585.669 -724.277 611.168 -749.444 640.039 -773.43C676.386 -803.622 711.876 -821.023 748.56 -826.47C802.591 -834.518 861.175 -816.07 917.996 -773.022C928.971 -764.773 939.883 -755.933 950.58 -747.509C977.663 -725.881 1005.66 -703.545 1036.61 -686.205C1089.42 -656.642 1145.47 -645.247 1199.73 -634.286C1271.98 -619.696 1340.16 -605.848 1399.31 -552.394C1460.44 -497.245 1498.44 -402.868 1503.72 -293.578C1508.07 -200.918 1491.62 -110.015 1474.26 -13.7453L1472.29 -2.92271C1458.85 70.971 1441.48 180.968 1445.62 282.326C1450.78 407.258 1420.73 521.595 1353.75 631.963C1285.09 744.961 1181.87 828.445 1070.61 861.02C993.886 883.25 921.095 875.453 843.995 866.977C787.939 860.927 729.956 854.531 670.101 860.924C641.919 863.937 615.273 872.424 589.497 880.636C570.549 886.737 550.903 892.911 531.125 896.866C415.59 919.534 288.454 870.989 214.743 776.1C206.253 765.174 198.184 754.349 190.435 743.967C149.697 689.264 117.526 645.991 55.0105 626.348C43.988 622.827 32.6207 619.708 21.6027 616.552C-31.0631 601.725 -85.6227 586.439 -126.594 535.567C-186.949 460.681 -208.229 361.244 -185.055 262.859C-183.259 255.275 -181.219 247.629 -179.002 240.148L-178.997 240.513ZM93.6578 -200.542C87.7127 -180.478 81.3177 -160.037 73.0289 -140.054C54.8886 -96.3377 27.4917 -51.8266 -8.3044 -7.89281C-21.5692 8.33228 -35.4787 23.3077 -49.0098 37.7673C-63.5417 53.3209 -78.5907 69.4782 -92.1243 86.6101C-134.516 140.245 -164.818 201.79 -179.617 264.298C-202.499 360.931 -181.556 458.464 -122.194 532.138C-82.1838 581.684 -28.4658 596.766 23.4634 611.414C34.4814 614.57 45.9538 617.714 56.9763 621.236C121.036 641.375 155.2 687.438 194.906 740.676C202.655 751.059 210.652 761.744 219.109 772.784C291.649 866.296 416.853 914.13 530.608 891.759C550.109 887.98 569.544 881.755 588.353 875.742C614.407 867.354 641.402 858.83 670.038 855.807C730.348 849.402 788.714 855.647 845.085 861.774C921.66 870.123 993.891 877.906 1069.64 855.925C1179.54 823.749 1281.33 741.257 1349.28 629.543C1415.58 520.346 1445.39 407.168 1440.21 283.446C1436 181.584 1453.4 71.1076 1466.94 -3.12624L1468.9 -13.9489C1486.16 -109.879 1502.51 -200.442 1498.18 -292.371C1493.05 -400.286 1455.66 -493.3 1395.49 -547.488C1337.29 -599.982 1269.74 -613.677 1198.16 -628.227C1143.59 -639.265 1087.11 -650.762 1033.6 -680.616C1002.27 -698.172 974.057 -720.559 946.902 -742.326C936.31 -750.724 925.397 -759.564 914.422 -767.813C858.625 -810.128 801.303 -828.27 748.669 -820.369C713.033 -815.032 678.481 -798.133 643.033 -768.695C614.335 -744.91 588.941 -719.718 562.025 -693.193C555.46 -686.643 548.791 -680.119 541.983 -673.507C509.188 -641.603 469.305 -605.949 421.427 -583.654C392.116 -569.98 362.107 -561.943 332.936 -554.068C323.386 -551.522 313.802 -548.863 304.324 -546.178C180.559 -510.196 144.004 -379.212 111.735 -263.835C107.915 -250.181 104.195 -236.867 100.333 -223.831L97.6121 -214.649C96.2351 -210.001 94.8244 -205.241 93.4137 -200.48L93.6578 -200.542Z" fill="#1B1B1B"/>
<path opacity="0.9" d="M-149.313 260.462C-132.217 202.763 -101.528 147.142 -60.0159 98.7611C-45.9137 82.3743 -30.4685 67.1634 -15.5068 52.4428C-1.33989 38.5016 13.3443 23.9567 27.1062 8.33793C63.3209 -32.822 90.3956 -75.1032 107.612 -117.222C117.799 -142.09 124.653 -167.887 131.273 -192.891L132.742 -198.61C136.519 -212.882 140.221 -227.658 143.918 -242.8C172.25 -357.067 204.346 -486.702 328.964 -518.712C337.888 -521.045 346.849 -523.126 355.81 -525.207C384.541 -531.974 414.247 -538.991 442.726 -552.137C489.738 -573.793 528.307 -611.102 556.614 -641.178C565.176 -650.281 573.493 -659.322 581.671 -668.275C604.688 -693.436 626.465 -717.076 651.364 -739.837C685.982 -771.421 720.167 -789.745 755.727 -795.587C808.143 -804.269 864.88 -785.297 919.624 -740.564C929.231 -732.647 938.666 -724.529 948.207 -716.386C974.815 -693.536 1002.24 -670.004 1033.4 -652.247C1086.39 -622.154 1143.22 -613.001 1198.33 -604.142C1268.54 -592.961 1334.86 -582.358 1392.86 -531.856C1453.72 -478.838 1490.23 -386.279 1492.88 -277.992C1494.87 -191.854 1478.26 -108.035 1460.64 -19.2398L1455.57 6.62543C1441.34 78.6269 1423.2 185.888 1430.95 285.327C1440.24 405.431 1415.14 515.257 1353.98 621.204C1290.25 731.632 1192.49 812.308 1085.86 842.601C1015.11 862.516 948.469 854.143 877.975 845.445C821.871 838.411 763.807 831.146 703.557 839.631C675.456 843.513 648.827 853.463 623.136 862.91C604.757 869.756 585.645 876.789 566.297 881.577C451.526 909.655 325.056 864.188 251.613 768.391C243.653 757.957 236.291 747.79 229.073 737.901C188.89 682.846 157.206 639.448 92.1761 622.962C80.0051 619.891 67.4892 617.223 55.2892 614.631C2.24654 603.358 -52.7237 591.739 -94.2233 543.412C-156.791 470.661 -178.298 372.748 -153.263 274.935C-152.063 270.123 -150.723 265.223 -149.313 260.462ZM126.786 -156.436C122.688 -142.606 118.136 -128.765 112.565 -115.292C95.0428 -72.519 67.5896 -29.7222 30.9629 12.0669C17.0286 27.8869 2.34448 42.4317 -11.9612 56.4608C-26.7841 71.0935 -42.1958 86.1912 -56.054 102.516C-100.429 154.091 -132.184 214.07 -147.935 275.983C-172.433 371.982 -151.263 467.991 -89.9719 539.339C-49.5376 586.315 4.5572 597.843 56.8633 608.938C69.0635 611.53 81.7896 614.249 93.9606 617.319C160.674 634.214 192.821 678.331 233.573 734.131C240.686 743.995 248.187 754.075 256.041 764.483C328.242 858.763 452.57 903.469 565.527 875.802C584.493 871.164 603.394 864.08 621.634 857.322C647.603 847.699 674.476 837.687 703.17 833.705C764.085 825.26 822.499 832.489 878.951 839.485C948.886 848.17 1015 856.415 1084.74 836.863C1189.87 807.057 1286.32 727.399 1349.19 618.342C1409.67 513.566 1434.54 404.899 1425.29 286.144C1417.54 185.973 1435.74 78.1202 1450.07 5.77872L1455.14 -20.0865C1472.66 -108.542 1489.31 -192.108 1487.32 -277.515C1484.69 -384.34 1448.86 -475.397 1389.1 -527.542C1332.16 -577.058 1266.51 -587.622 1197.07 -598.738C1141.61 -607.56 1084.22 -616.727 1030.49 -647.364C998.936 -665.336 971.233 -689.058 944.519 -711.933C935.084 -720.051 925.649 -728.17 916.008 -735.973C862.431 -779.694 807.2 -798.423 756.215 -790.001C721.702 -784.271 688.594 -766.536 654.876 -735.705C630.254 -713.12 608.511 -689.594 585.633 -664.52C577.316 -655.479 568.999 -646.438 560.543 -637.31C531.891 -606.832 492.838 -569.032 444.783 -546.901C415.783 -533.516 385.727 -526.463 356.752 -519.633C347.791 -517.552 338.796 -515.358 329.906 -513.138C208.843 -482.089 177.212 -354.406 149.418 -241.953C145.721 -226.811 141.986 -211.922 138.208 -197.65L136.739 -191.931C133.629 -180.292 130.485 -168.54 126.992 -156.75L126.786 -156.436Z" fill="#1B1B1B"/>
<path opacity="0.9" d="M-119.653 279.594C-101.985 219.966 -68.8973 163.102 -23.748 114.628C-9.21543 99.0735 6.55501 84.6697 21.9136 70.895C36.7168 57.4718 52.1424 43.4705 66.469 28.2308C103.411 -10.8109 130.542 -51.3792 147.074 -92.329C157.224 -117.45 163.548 -143.742 169.637 -169.24L170.409 -171.847C173.896 -187.04 177.307 -202.738 180.881 -219.368C204.907 -331.281 232.108 -458.098 354.656 -485.388C363.096 -487.231 371.608 -488.935 380.119 -490.639C408.549 -496.386 438.026 -502.244 466.056 -515.014C513.213 -536.393 550.739 -576.265 574.841 -604.324C584.184 -615.303 593.283 -626.221 602.243 -637.05C622.265 -661.237 641.114 -684.129 662.982 -706.168C695.799 -739.284 728.646 -758.419 763.224 -764.742C814.163 -774.148 868.918 -754.562 921.376 -708.195C929.86 -700.672 938.277 -692.922 946.799 -685.146C972.652 -661.264 999.388 -636.561 1030.48 -618.577C1083.24 -588.054 1140.78 -581.281 1196.49 -574.828C1262.01 -567.215 1329.7 -559.317 1386.61 -511.628C1447.41 -460.687 1482.19 -369.882 1482.31 -262.568C1482.28 -182.143 1465.25 -104.499 1447.26 -22.105C1444.51 -9.40573 1441.66 3.26801 1439.02 15.9929C1414.89 127.88 1407.76 214.363 1416.31 288.243C1429.82 403.661 1409.56 508.954 1354.35 610.396C1296.48 716.658 1201.85 796.64 1101.26 824.026C1035.8 841.7 971.98 832.553 910.222 823.663C854.629 815.66 797.181 807.45 737.161 817.814C709.105 822.68 682.665 833.891 657.235 844.74C639.285 852.419 620.707 860.31 601.821 865.819C489.275 898.934 360.482 855.576 288.897 760.347C281.219 750.103 274.139 740.126 267.168 730.539C227.825 675.686 196.805 632.326 129.611 619.325C116.502 616.756 102.77 614.765 89.5641 612.902C35.9324 605.131 -19.5215 597.04 -61.6232 551.117C-126.3 480.527 -148.068 384.247 -121.348 286.838C-120.643 284.458 -119.938 282.077 -119.232 279.696L-119.653 279.594ZM162.94 -121.897C159.816 -111.355 156.237 -100.801 152.028 -90.3995C135.261 -48.6562 107.717 -7.4588 70.1536 32.1612C55.5494 47.5766 40.1236 61.578 25.1815 75.089C9.92832 88.8892 -5.66969 103.092 -20.0634 118.558C-66.3187 168.101 -99.7337 226.83 -116.475 287.898C-142.695 383.241 -121.299 477.729 -57.8978 546.917C-16.8952 591.601 37.6118 599.463 90.4733 607.169C103.784 609.058 117.622 611.074 130.731 613.643C199.818 627.103 231.336 671.069 271.319 726.806C278.184 736.367 285.37 746.371 292.976 756.476C363.492 849.987 489.898 892.645 600.458 860.142C618.995 854.671 637.434 846.867 655.245 839.276C681.058 828.277 707.742 817.004 736.425 811.925C797.316 801.286 855.151 809.711 911.093 817.678C975.128 826.876 1035.7 835.598 1099.96 818.123C1198.98 791.085 1292.23 712.348 1349.25 607.457C1403.84 507.325 1423.9 403.078 1410.55 289.035C1401.85 214.511 1409.08 127.323 1433.3 14.7294C1436.05 2.03021 1438.8 -10.6691 1441.55 -23.3685C1459.5 -105.283 1476.5 -182.814 1476.54 -262.508C1476.48 -368.107 1442.28 -457.436 1382.64 -507.365C1326.82 -554.182 1262.85 -561.666 1195.12 -569.449C1138.99 -576.004 1080.75 -582.704 1027.15 -613.795C995.667 -631.995 968.648 -656.888 942.619 -680.935C934.202 -688.685 925.785 -696.435 917.301 -703.958C866.01 -749.314 812.694 -768.429 763.324 -759.372C729.933 -753.247 698.268 -734.676 666.279 -702.453C644.584 -680.615 625.907 -657.925 605.99 -633.712C596.996 -622.769 588.003 -611.826 578.554 -600.872C553.969 -572.323 515.787 -531.759 467.587 -509.904C438.93 -496.922 409.175 -490.888 380.396 -485.104C371.885 -483.4 363.478 -481.67 355.038 -479.827C236.361 -453.423 209.659 -328.671 185.994 -218.736C182.42 -202.106 179.009 -186.409 175.384 -171.127L174.611 -168.52C171.091 -153.214 167.364 -137.592 162.762 -122.062L162.94 -121.897Z" fill="#1B1B1B"/>
<path opacity="0.9" d="M-89.7137 297.922C-71.5412 236.591 -36.1216 178.71 12.6694 130.509C27.6659 115.674 43.972 102.128 59.5839 89.0221C75.0236 76.117 91.0184 62.8605 105.981 48.1388C143.649 11.2157 170.838 -27.6392 186.579 -67.4452C196.725 -92.9329 202.347 -119.517 207.699 -145.194C211.039 -161.031 214.02 -177.562 217.198 -195.14C237.018 -305.038 259.352 -429.515 380.04 -452.033C388.169 -453.587 396.336 -454.888 404.503 -456.19C432.598 -460.804 461.53 -465.579 489.076 -477.859C524.553 -493.685 557.602 -522.25 592.895 -567.525C602.536 -579.891 611.824 -592.586 620.838 -604.739C637.593 -627.411 654.826 -650.938 674.321 -672.581C705.409 -707.089 736.847 -727.174 770.302 -733.891C819.838 -743.881 872.537 -723.821 922.814 -675.795C930.384 -668.614 937.855 -661.093 945.358 -653.685C970.455 -628.771 996.298 -602.947 1027.12 -584.786C1079.42 -553.886 1137.52 -549.771 1193.63 -545.776C1257.68 -541.191 1323.94 -536.436 1380.02 -491.256C1439.81 -442.989 1473.9 -351.742 1471.43 -247.117C1469.51 -171.761 1452 -99.3351 1433.59 -22.7513C1429.77 -6.78946 1425.94 9.17235 1422.18 25.273C1396.59 134.866 1390.06 219.31 1401.53 290.982C1419.21 401.826 1403.86 502.723 1354.47 599.381C1301.5 703.19 1212.49 780.163 1116.39 805.356C1055.8 821.052 997.316 811.377 940.656 802.022C886.167 792.95 829.823 783.671 770.525 796.155C742.621 802.03 716.442 814.642 691.096 826.726C673.608 835.125 655.46 843.85 637.003 850.192C524.869 888.755 396.949 848.524 325.735 752.412C318.339 742.357 311.435 732.543 304.851 723.172C266.349 668.521 235.959 625.313 166.741 615.71C152.765 613.781 138.027 612.519 123.815 611.384C69.5234 606.977 13.4806 602.388 -29.3659 558.592C-96.2907 490.25 -118.358 395.354 -89.743 298.401L-89.575 297.834L-89.7137 297.922ZM200.287 -90.4903C197.801 -82.1012 195 -73.7886 191.778 -65.578C175.662 -24.8906 148.028 14.7068 109.599 52.296C94.4972 67.1055 78.3298 80.5633 62.7514 93.5561C47.173 106.549 31.0059 120.007 16.1819 134.641C-31.8144 182.062 -66.7213 238.974 -84.5915 299.284L-84.7594 299.851C-112.736 394.65 -91.1839 487.478 -25.6402 554.392C15.9303 596.785 71.0641 601.396 124.376 605.687C138.692 606.848 153.43 608.11 167.617 610.09C238.901 619.951 269.86 663.904 309.074 719.578C315.763 728.975 322.561 738.763 329.957 748.818C399.858 843.275 525.53 882.718 635.506 844.969C653.719 838.69 671.623 830.027 689.077 821.741C714.701 809.481 741.157 796.694 769.76 790.745C830.139 778.037 886.904 787.417 941.814 796.591C1000.51 806.318 1055.87 815.48 1115.34 800.122C1209.85 775.391 1297.36 699.636 1349.52 597.452C1398.22 501.964 1413.41 402.365 1395.89 292.896C1384.34 220.354 1390.86 135.178 1416.69 24.7917C1420.44 8.69109 1424.27 -7.27071 1428.1 -23.2325C1446.54 -99.5642 1463.95 -171.65 1465.77 -246.3C1468.3 -349.21 1434.83 -438.729 1376.34 -486.072C1321.46 -530.354 1258.95 -534.809 1192.8 -539.538C1136.03 -543.573 1077.4 -547.815 1024.11 -579.197C992.829 -597.712 966.705 -623.726 941.431 -648.805C933.927 -656.212 926.529 -663.594 918.992 -670.888C869.953 -717.764 818.693 -737.354 770.971 -727.775C738.703 -721.257 708.375 -701.874 678.254 -668.347C658.966 -647.019 642.522 -624.637 625.15 -601.022C616.102 -588.755 606.814 -576.06 597.068 -563.719C561.052 -517.526 527.309 -488.522 490.894 -472.194C462.687 -459.588 433.406 -454.776 404.962 -450.125C396.794 -448.823 388.627 -447.522 380.603 -445.942C264.069 -424.12 242.09 -301.986 222.665 -194.179C219.487 -176.602 216.472 -159.958 213.238 -144.095C209.538 -126.28 205.632 -108.15 200.325 -90.238L200.287 -90.4903Z" fill="#1B1B1B"/>
<path opacity="0.9" d="M-59.7492 315.328C-59.2453 313.628 -58.7414 311.927 -58.2375 310.227C-39.2175 249.461 -2.10278 192.716 48.9865 146.283C64.5527 132.193 81.2179 119.341 97.3661 107.092C113.409 94.8183 130.007 82.193 145.468 68.0769C183.969 33.2968 211.144 -3.9847 226.201 -42.6226C236.243 -68.1375 241.254 -96.0864 245.212 -118.579C248.126 -134.885 250.61 -152.024 253.22 -170.348C267.987 -273.093 286.365 -400.967 405.578 -418.864C413.468 -419.99 421.325 -421.002 429.286 -421.989C456.837 -425.521 485.401 -429.049 512.256 -440.891C546.764 -456.103 579.069 -485.579 611.112 -530.916C620.635 -544.405 629.699 -558.249 638.419 -571.69C653.112 -594.255 668.357 -617.536 685.791 -639.073C714.667 -674.484 745.53 -696.047 777.653 -703.21C825.714 -713.922 876.536 -693.224 924.633 -643.536C931.468 -636.533 938.131 -629.329 944.898 -622.1C968.925 -596.228 993.801 -569.422 1024.14 -551.135C1075.82 -520.021 1134.24 -518.502 1190.67 -517.102C1253.46 -515.495 1318.5 -513.833 1373.82 -471.021C1433.52 -424.719 1466.02 -335.31 1460.84 -231.82C1457.3 -160.865 1438.36 -90.1146 1420.21 -21.6064C1415.26 -2.999 1410.27 15.7216 1405.61 34.5187C1378.52 141.934 1372.59 224.343 1386.87 293.783C1409.16 401.621 1398.87 495.364 1354.82 588.462C1306.88 689.731 1223.43 763.926 1131.73 786.788C1075.63 800.656 1021.92 790.438 970.045 780.541C917.113 770.388 862.358 759.916 803.993 774.572C776.1 781.544 750.214 795.443 725.023 808.902C707.998 818.022 690.311 827.467 672.178 834.617C562.261 877.853 432.052 839.984 362.555 744.525C355.335 734.635 348.641 724.871 342.268 715.55C304.71 661.125 275.02 618.207 203.848 612.14C189.109 610.878 174.068 610.635 158.151 610.303C103.23 609.146 46.3864 608.01 2.82689 566.226C-64.2261 502.103 -87.3962 408.634 -59.7492 315.328ZM238.083 -60.6439C236.101 -53.9549 233.908 -47.3169 231.295 -40.7809C215.83 -1.14819 188.104 36.8506 148.842 72.2967C133.103 86.5885 116.366 99.3017 100.323 111.576C84.2805 123.85 67.6488 136.588 52.3603 150.503C17.3207 182.355 -29.3786 236.049 -52.9762 311.502C-53.48 313.202 -53.9839 314.903 -54.4542 316.49C-81.4629 407.642 -58.7741 498.928 6.79233 561.597C48.9705 601.953 104.8 603.086 158.812 604.265C174.064 604.559 189.875 604.866 204.719 606.154C278.236 612.303 308.46 656.08 346.802 711.667C353.175 720.988 359.903 730.638 367.122 740.529C435.234 834.193 562.917 871.451 670.676 829.028C688.46 821.915 706.008 812.558 722.894 803.526C748.363 789.891 774.631 775.842 803.151 768.657C862.598 753.777 917.879 764.377 971.476 774.569C1025.18 784.786 1075.97 794.542 1130.89 780.873C1220.88 758.448 1302.81 685.585 1349.89 586.053C1393.36 494.152 1403.47 401.819 1381.47 295.268C1367.01 224.933 1372.95 141.679 1400.21 33.3317C1404.87 14.5346 1409.86 -4.18606 1414.81 -22.7933C1432.97 -90.936 1451.73 -161.485 1455.28 -231.709C1460.37 -333.397 1428.6 -421.051 1370.28 -466.291C1316.26 -508.178 1254.93 -509.793 1190.11 -511.405C1133.02 -512.844 1074.03 -514.377 1021.19 -546.138C990.257 -564.691 965.132 -591.801 940.857 -617.975C934.194 -625.179 927.532 -632.383 920.697 -639.386C888.076 -673.172 836.911 -710.602 778.489 -697.66C747.692 -690.784 717.94 -669.924 690.065 -635.607C672.732 -614.411 657.626 -591.217 643.071 -568.74C634.352 -555.299 625.254 -541.342 615.592 -527.765C582.931 -481.484 549.725 -451.254 514.103 -435.704C486.482 -423.562 457.535 -419.883 429.635 -416.315C421.779 -415.303 413.922 -414.29 406.138 -413.138C291.499 -395.835 274.214 -275.837 258.96 -169.929C256.351 -151.605 253.833 -134.353 250.919 -118.047C247.908 -101.036 244.273 -80.7733 238.327 -60.7063L238.083 -60.6439Z" fill="#1B1B1B"/>
<path opacity="0.9" d="M-29.6656 331.924C-28.6913 328.636 -27.717 325.348 -26.4987 321.997C-1.08504 246.127 48.3214 193.205 85.3682 162.2C101.399 148.828 118.601 136.834 135.143 125.165C151.79 113.522 168.92 101.389 185.056 88.0427C224.286 55.3797 251.52 19.8098 265.893 -17.6607C274.944 -41.3523 279.153 -66.2169 282.899 -91.8014C285.287 -108.236 287.275 -125.983 289.215 -144.713C300.083 -246.104 313.553 -372.263 431.295 -385.537C438.979 -386.349 446.63 -387.047 454.387 -387.72C481.36 -390.055 509.381 -392.501 535.51 -403.791C569.432 -418.539 600.167 -448.035 629.371 -494.064C638.499 -508.501 646.957 -523.344 655.281 -537.732C668.192 -560.367 681.582 -583.858 697.443 -605.413C724.486 -642.244 753.942 -664.759 785.082 -672.403C831.043 -683.627 881.219 -661.869 926.43 -611.176C932.529 -604.351 938.455 -597.325 944.52 -590.387C967.476 -563.558 991.283 -535.794 1021.13 -517.381C1072.09 -486.077 1130.66 -487.318 1187.16 -488.452C1248.92 -489.774 1312.69 -491.09 1367.47 -450.596C1427.16 -406.118 1458.06 -318.547 1450.21 -216.303C1445.04 -149.38 1425.56 -82.8869 1406.76 -18.6612C1400.71 1.74772 1394.53 22.9758 1388.91 43.8524C1360.26 149.318 1354.97 229.58 1372.23 296.588C1398.84 400.135 1393.46 489.487 1355.08 577.527C1312.82 674.837 1233.09 747.875 1147.02 768.094C1095.02 780.285 1045.88 769.473 998.363 758.931C947.336 747.661 894.487 736.07 837.573 752.661C810.04 760.694 784.342 775.855 759.583 790.515C742.775 800.417 725.517 810.697 707.568 818.743C599.937 866.793 467.508 831.423 399.687 736.364C392.677 726.524 386.16 716.924 379.891 707.627C341.747 651.355 314.216 610.658 241.124 608.381C225.588 607.898 209.751 608.435 192.971 609.108C137.281 611.291 79.701 613.38 35.2885 573.696C-32.7118 512.742 -56.5379 422.996 -29.5266 331.836L-29.6656 331.924ZM276.351 -32.0185C274.739 -26.5761 272.949 -21.2981 270.916 -15.9577C256.134 22.5078 228.283 59.0217 188.153 92.4386C171.81 106.1 154.469 118.182 137.789 129.938C121.281 141.493 104.323 153.425 88.4646 166.596C52.1455 197.048 3.56766 249.077 -21.4091 323.473C-52.3636 415.379 -29.9415 507.58 38.8715 569.217C81.7637 607.561 138.329 605.469 193.076 603.422C209.158 602.823 225.833 602.124 241.579 602.658C317.226 605.068 346.821 648.696 384.22 704.058C390.522 713.242 396.934 722.816 403.944 732.656C470.413 825.808 600.072 860.628 705.51 813.505C723.077 805.609 740.301 795.443 756.865 785.603C782.007 770.793 807.911 755.317 836.176 747.097C894.344 730.081 947.825 741.825 999.589 753.273C1046.62 763.575 1095.19 774.372 1146 762.38C1230.26 742.572 1308.33 670.954 1349.84 575.408C1387.64 488.564 1392.94 400.649 1366.58 298.502C1349.07 230.459 1354.41 149.239 1383.3 42.6143C1388.96 21.6243 1395.24 0.421733 1401.18 -20.0127C1419.92 -84.0116 1439.26 -150.051 1444.36 -216.382C1452.1 -316.709 1421.88 -402.413 1363.71 -445.916C1310.32 -485.347 1247.34 -484.079 1186.5 -482.78C1129.19 -481.598 1069.95 -480.396 1017.73 -512.372C987.178 -531.077 963.123 -559.144 939.952 -586.39C934.026 -593.416 927.96 -600.354 921.967 -607.153C878.032 -656.444 829.612 -677.655 785.603 -666.93C755.822 -659.685 727.511 -637.987 701.397 -602.389C685.708 -581.035 672.386 -557.771 659.648 -535.338C651.395 -520.81 642.798 -505.88 633.67 -491.443C603.675 -444.268 572.146 -413.993 536.936 -398.706C510.007 -387.002 481.532 -384.545 454.104 -382.198C446.453 -381.5 438.697 -380.827 431.117 -379.99C318.16 -367.258 305.574 -249.027 294.426 -144.788C292.452 -125.944 290.498 -108.31 288.042 -91.6488C285.071 -71.345 281.814 -51.5968 276.069 -32.2084L276.351 -32.0185Z" fill="#1B1B1B"/>
<path opacity="0.9" d="M0.544388 348.281C1.95554 343.519 3.50552 338.669 5.26595 333.869C26.1679 275.129 67.5034 219.761 121.703 178.083C138.476 165.254 156.177 153.865 173.322 142.828C190.328 131.879 207.995 120.603 224.491 107.95C264.45 77.4054 291.635 43.5225 305.325 7.22012C314.237 -16.3853 317.605 -41.4556 320.325 -65.1029C322.154 -81.5528 323.439 -99.593 324.781 -118.591C331.711 -218.878 340.233 -343.571 456.85 -352.26C464.363 -352.87 471.914 -353.228 479.432 -353.472C505.86 -354.725 533.165 -355.887 558.602 -366.738C591.521 -380.759 621.407 -411.193 647.499 -457.372C656.025 -472.442 663.844 -488.17 671.423 -503.47C682.722 -526.375 694.467 -550.023 708.962 -571.911C734.17 -610.162 762.323 -633.602 792.447 -641.616C836.968 -653.677 885.161 -631.305 928.158 -578.836C933.731 -572.138 939.132 -565.239 944.499 -558.227C966.312 -530.579 988.732 -501.934 1018.06 -483.648C1068.11 -452.318 1126.72 -456.347 1183.23 -460.154C1244.04 -464.378 1306.92 -468.71 1361.18 -430.283C1431.43 -380.326 1447.78 -279.019 1439.53 -200.928C1432.92 -137.509 1412.8 -74.9342 1393.28 -14.4003C1386.17 7.69686 1378.93 30.6132 1372.21 53.2914C1353.13 118.429 1330.87 214.879 1357.47 299.469C1388.95 399.947 1388.34 482.32 1355.33 566.687C1317.84 661.633 1243.84 731.691 1162.17 749.578C1114.03 760.153 1069.01 748.759 1025.57 737.748C976.664 725.411 926.103 712.552 870.958 731.154C843.752 740.361 818.487 756.722 794.021 772.67C777.536 783.381 760.358 794.531 742.731 803.386C635.58 857.026 503.984 824.897 436.494 728.698C429.589 718.882 423.282 709.332 417.118 700.061C379.884 644.128 353.087 603.605 278.11 605.005C261.884 605.327 245.288 606.896 227.645 608.576C171.115 613.959 112.628 619.476 67.4637 581.552C-1.4827 523.769 -26.0032 437.494 0.405464 348.369L0.544388 348.281ZM314.948 -3.93822C313.672 0.370639 312.256 4.76737 310.558 8.97421C296.427 46.3851 268.485 81.2999 227.52 112.574C210.747 125.402 193.046 136.791 175.935 147.715C158.823 158.639 141.262 169.939 124.766 182.592C71.5719 223.542 30.9219 277.74 10.4611 335.371C-22.3187 426.963 0.432422 517.305 71.3583 576.784C115.036 613.254 172.369 607.822 227.817 602.663C245.567 601.009 262.267 599.465 278.633 599.055C356.337 597.587 385.27 641.179 421.863 696.228C427.955 705.36 434.263 714.91 441.168 724.726C507.2 818.992 635.954 850.433 740.846 797.946C758.195 789.268 775.13 778.179 791.58 767.582C816.324 751.458 841.901 734.808 869.839 725.413C926.587 706.35 977.885 719.387 1027.53 731.903C1070.44 742.787 1114.83 754.027 1161.75 743.764C1241.39 726.237 1313.73 657.599 1350.52 564.669C1382.98 481.751 1383.57 400.588 1352.46 301.536C1325.42 215.381 1347.91 117.772 1367.22 51.8406C1373.94 29.1624 1381.18 6.24599 1388.33 -15.9645C1407.64 -76.1838 1427.66 -138.419 1434.28 -201.106C1442.3 -277.671 1426.44 -376.796 1358.06 -425.449C1305.28 -462.788 1243.34 -458.592 1183.34 -454.416C1125.88 -450.473 1066.57 -446.371 1015.11 -478.65C985.149 -497.455 962.375 -526.429 940.313 -554.38C934.913 -561.279 929.512 -568.178 924.044 -574.85C882.395 -625.777 836.029 -647.463 793.6 -635.99C764.94 -628.35 738.037 -605.701 713.686 -568.822C699.537 -547.336 687.825 -523.801 676.593 -501.123C669.014 -485.823 661.162 -469.982 652.568 -454.686C625.791 -407.335 594.832 -375.946 560.626 -361.386C534.284 -350.147 506.491 -348.86 479.503 -347.621C471.952 -347.263 464.506 -346.88 457.027 -346.383C345.615 -338.134 337.661 -221.446 330.657 -118.626C329.386 -99.4886 328.135 -81.562 326.239 -64.8853C323.996 -45.133 321.312 -24.2721 315.298 -3.97513L314.948 -3.93822Z" fill="#1B1B1B"/>
<path opacity="0.9" d="M30.9412 363.518C32.6885 357.621 34.68 351.662 36.9156 345.64C58.9445 287.287 101.983 233.418 158.001 193.997C175.412 181.685 193.928 170.978 211.711 160.459C229.044 150.316 247.072 139.734 264 127.913C304.689 99.4851 331.968 67.2 344.973 32.0643C353.681 8.77097 356.207 -16.5063 357.83 -38.3559C359.065 -54.7084 359.685 -72.7902 360.152 -91.8812C362.261 -162.961 364.603 -243.586 406.153 -287.485C424.874 -307.258 450.457 -317.833 482.244 -318.882C489.657 -319.152 497.108 -319.17 504.56 -319.188C530.306 -319.27 557.067 -319.349 581.569 -329.699C613.87 -343.143 642.114 -373.736 665.472 -420.584C673.292 -436.314 680.299 -452.726 687.032 -468.597C696.859 -491.863 707.06 -516.009 720.188 -538.232C743.53 -577.791 770.275 -602.183 799.451 -610.793C842.71 -623.527 888.851 -600.679 929.531 -546.457C934.545 -539.773 939.421 -533.001 944.367 -526.089C964.9 -497.534 986.073 -468.095 1014.74 -449.846C1063.78 -418.515 1119.64 -425.036 1178.67 -432.002C1238.76 -439.079 1300.8 -446.289 1354.56 -409.927C1424.82 -362.271 1438.87 -262.724 1428.62 -185.475C1420.57 -125.193 1399.81 -66.1685 1379.69 -8.93322C1371.41 14.4622 1362.88 38.6515 1355.44 62.6166C1335.31 126.775 1312.14 221.317 1342.65 302.245C1368.68 371.269 1390.56 455.453 1355.53 555.75C1323.83 646.763 1253.93 715.517 1177.36 730.998C1132.73 739.995 1091.72 727.993 1052.16 716.461C1005.74 702.906 957.682 688.83 904.409 709.468C877.667 719.762 852.799 737.438 828.693 754.448C812.392 766.056 795.431 777.99 777.988 787.742C673.154 846.086 539.405 816.595 473.519 720.654C466.823 710.888 460.515 701.337 454.561 692.116C418.27 636.406 392.068 596.145 315.379 601.387C298.461 602.514 281.106 605.115 262.703 607.827C205.33 616.412 146 625.13 99.9098 589.167C30.8603 535.122 5.19666 450.02 30.8022 363.606L30.9412 363.518ZM353.581 23.5754C352.573 26.9775 351.426 30.4676 350.174 33.9321C336.693 70.2897 308.657 103.607 266.823 132.851C249.723 144.874 231.59 155.43 214.118 165.661C196.369 176.067 178.064 186.825 160.824 198.935C105.812 237.627 63.6698 290.377 42.0822 347.621C8.08907 437.594 31.6514 528.264 103.527 584.574C147.958 619.284 206.135 610.651 262.426 602.291C280.968 599.491 298.428 596.915 315.556 595.839C395.217 590.467 422.132 631.75 459.244 688.875C465.232 697.983 471.435 707.508 478.131 717.274C542.626 811.055 673.394 839.945 775.829 782.843C792.995 773.268 809.817 761.421 825.979 749.901C850.363 732.715 875.508 714.864 903.016 704.269C958.031 683.08 1006.94 697.361 1054.19 711.12C1093.23 722.524 1133.61 734.373 1176.95 725.549C1251.35 710.516 1319.45 643.271 1350.51 554.413C1384.99 455.564 1363.28 373.121 1337.65 305.043C1306.45 222.247 1329.98 126.458 1350.39 61.3924C1357.97 37.3393 1366.49 13.1501 1374.71 -10.3842C1394.69 -67.1659 1415.38 -125.963 1423.34 -185.539C1433.44 -261.125 1419.87 -358.489 1351.54 -404.701C1299.3 -440.088 1238.17 -432.901 1179.13 -425.935C1121.74 -419.179 1062.35 -412.176 1011.83 -444.595C982.422 -463.388 960.929 -493.27 940.147 -522.128C935.272 -528.901 930.397 -535.673 925.383 -542.357C886.089 -594.784 841.776 -616.947 800.748 -604.888C773.07 -596.766 747.608 -573.278 725.052 -535.23C712.13 -513.322 702.03 -489.516 692.237 -466.364C685.47 -450.379 678.396 -433.74 670.542 -417.897C646.431 -369.651 617.115 -338.103 583.387 -324.032C557.77 -313.344 530.554 -313.254 504.248 -313.186C496.797 -313.168 489.451 -313.125 482.038 -312.855C451.371 -311.777 427.874 -302.156 409.983 -283.275C370.123 -241.276 367.801 -161.862 365.713 -91.9924C365.107 -72.8134 364.593 -54.7061 363.29 -38.1268C361.808 -19.0385 359.659 2.68358 353.408 23.7767L353.581 23.5754Z" fill="#1B1B1B"/>
</g>
</g>
</svg>
