<svg width="447" height="242" viewBox="0 0 447 242" fill="none" xmlns="http://www.w3.org/2000/svg">
<mask id="mask0_299_4541" style="mask-type:alpha" maskUnits="userSpaceOnUse" x="0" y="0" width="447" height="242">
<rect width="447" height="242" rx="10" fill="#1B1B1B"/>
</mask>
<g mask="url(#mask0_299_4541)">
<g opacity="0.9">
<path opacity="0.9" d="M676.046 303.024C676.046 578.736 451.754 803.024 176.023 803.024C-99.7079 803.024 -324 578.736 -324 303.024C-324 27.3124 -99.7079 -196.976 176.023 -196.976C451.754 -196.976 676.046 27.3124 676.046 303.024ZM-321.683 303.024C-321.683 577.438 -98.4104 800.706 176.023 800.706C450.456 800.706 673.729 577.438 673.729 303.024C673.729 28.6107 450.456 -194.657 176.023 -194.657C-98.4104 -194.657 -321.683 28.6107 -321.683 303.024Z" fill="#1B1B1B"/>
<path opacity="0.9" d="M657.88 286.192C657.88 290.458 657.88 294.724 657.741 299.129C657.138 326.951 654.497 355.004 649.816 382.594C647.128 398.545 643.792 414.218 639.899 429.102C620.204 504.174 584.429 571.595 536.373 623.992C521.126 640.593 504.119 656.868 485.861 672.356C463.941 690.903 441.28 707.457 418.527 721.553C395.171 736.021 370.285 748.68 344.612 759.159C322.739 768.108 300.31 775.203 277.881 780.303C243.773 788.093 208.044 791.664 171.666 790.968C144.325 790.505 115.918 787.676 87.2787 782.576C8.68381 768.618 -60.9209 740.055 -119.682 697.72C-161.157 667.765 -197.442 630.762 -227.518 587.685C-256.852 545.721 -279.467 499.027 -294.806 448.995C-309.449 401.095 -317.281 351.156 -318.023 300.659C-319.274 219.096 -299.347 137.95 -260.42 65.8916C-222.05 -5.00702 -166.116 -65.3335 -98.5964 -108.642C-22.5503 -157.469 68.6959 -184.039 165.271 -185.569C192.242 -185.986 216.339 -184.874 238.861 -182.138C297.529 -174.95 355.549 -155.8 406.57 -126.773C437.99 -108.874 468.251 -87.3589 499.114 -61.0211C529.143 -35.3789 554.353 -8.02103 576.133 22.6754C602.826 60.2346 623.216 101.225 636.794 144.58C646.155 174.396 652.504 205.649 655.609 237.412C657.138 253.038 657.88 269.082 657.88 286.146V286.192ZM-315.752 293.472C-315.752 295.837 -315.752 298.248 -315.706 300.613C-314.918 350.924 -307.179 400.585 -292.581 448.299C-277.335 498.146 -254.813 544.562 -225.618 586.341C-195.681 629.186 -159.582 666.003 -118.291 695.819C-59.8087 737.968 9.47159 766.346 87.6958 780.257C116.242 785.311 144.51 788.14 171.759 788.604C207.905 789.299 243.495 785.729 277.417 777.985C299.707 772.931 321.998 765.836 343.778 756.98C369.312 746.547 394.058 733.934 417.322 719.513C439.983 705.463 462.505 689.002 484.378 670.547C502.59 655.153 519.504 638.97 534.704 622.416C582.482 570.251 618.119 503.201 637.675 428.5C641.521 413.708 644.858 398.128 647.545 382.223C652.18 354.772 654.821 326.812 655.424 299.129C655.887 277.289 655.192 257.211 653.292 237.736C650.187 206.112 643.885 175.045 634.57 145.369C621.085 102.292 600.787 61.4866 574.233 24.1129C552.546 -6.3981 527.475 -33.6169 497.585 -59.1664C466.861 -85.4114 436.692 -106.834 405.412 -124.686C354.622 -153.574 296.927 -172.632 238.583 -179.773C216.154 -182.509 192.149 -183.622 165.271 -183.204C69.1593 -181.72 -21.6698 -155.29 -97.3915 -106.695C-164.54 -63.6178 -220.242 -3.52319 -258.428 67.0045C-295.964 136.558 -315.752 214.737 -315.752 293.472Z" fill="#1B1B1B"/>
<path opacity="0.9" d="M640.083 266.161C640.083 275.249 639.852 284.847 639.388 295.188C638.23 322.082 635.31 349.533 630.815 376.798C628.081 393.166 625.069 408.097 621.547 422.425C602.13 500.372 568.718 564.686 522.191 613.652C507.455 629.139 491.096 644.441 472.189 660.346C449.389 679.496 428.025 695.494 406.94 709.219C384.696 723.686 360.877 736.531 336.177 747.427C314.86 756.84 293.079 764.167 271.531 769.221C238.767 776.965 203.78 780.164 167.494 778.819C141.173 777.846 114.156 774.739 84.8678 769.453C2.84363 754.522 -63.8879 728.323 -119.127 689.419C-159.768 660.67 -195.219 624.131 -224.6 580.915C-252.358 539.971 -273.953 493.927 -288.69 443.987C-302.592 396.876 -310.424 347.863 -311.953 298.295C-314.456 218.539 -296.568 141.752 -258.8 70.1577C-222.005 0.603745 -167.832 -58.2389 -102.259 -100.018C-29.9661 -146.016 56.4142 -170.916 154.519 -174.023C175.79 -174.672 200.999 -175.043 226.626 -172.725C284.97 -167.299 342.387 -149.123 392.667 -120.096C428.999 -99.0439 460.881 -74.7927 484.608 -56.0132C515.518 -31.5302 540.913 -5.7025 562.23 23.0001C589.571 59.7709 609.915 100.251 622.613 143.236C631.325 172.495 636.84 203.377 639.064 234.954C639.759 244.924 640.083 255.217 640.083 266.3V266.161ZM-309.914 283.595C-309.914 288.418 -309.821 293.287 -309.682 298.155C-308.153 347.539 -300.321 396.366 -286.512 443.291C-271.822 492.953 -250.365 538.812 -222.746 579.571C-193.551 622.601 -158.285 658.908 -117.876 687.518C-62.9148 726.237 3.4924 752.296 85.1922 767.181C114.387 772.467 141.265 775.527 167.494 776.547C203.594 777.892 238.397 774.693 270.928 767.042C292.384 762.034 313.979 754.754 335.204 745.387C359.811 734.537 383.491 721.739 405.643 707.364C426.635 693.685 447.906 677.781 470.659 658.677C489.52 642.818 505.786 627.609 520.476 612.168C566.725 563.48 599.998 499.491 619.276 421.961C622.798 407.68 625.81 392.842 628.498 376.52C632.993 349.393 635.866 322.036 637.071 295.188C638.091 272.235 637.952 253.131 636.747 235.047C634.569 203.655 629.054 172.958 620.388 143.838C607.737 101.086 587.532 60.8838 560.376 24.3448C539.152 -4.1723 513.896 -29.8609 483.172 -54.2048C459.538 -72.938 427.747 -97.1427 391.508 -118.102C341.506 -146.943 284.414 -165.074 226.394 -170.453C200.906 -172.771 175.789 -172.4 154.565 -171.751C56.8776 -168.644 -29.0856 -143.883 -101.054 -98.0701C-166.302 -56.4769 -220.197 2.04117 -256.807 71.2705C-292.073 138.135 -309.914 209.544 -309.914 283.688V283.595Z" fill="#1B1B1B"/>
<path opacity="0.9" d="M622.799 246.964C622.799 262.822 621.965 278.031 621.084 291.293C619.37 317.12 616.265 343.968 611.816 371.001C608.989 388.436 606.209 402.672 603.15 415.748C584.706 494.854 552.684 557.962 507.919 603.358C493.924 617.501 478.214 631.829 458.426 648.383C434.19 668.646 414.124 684.087 395.263 696.977C373.807 711.677 351.702 724.335 327.651 735.789C306.936 745.619 285.851 753.177 265.044 758.185C233.485 765.882 199.193 768.757 163.139 766.671C138.347 765.233 112.673 761.941 82.3198 756.284C-4.7092 740.055 -66.7139 716.87 -118.709 681.027C-157.96 653.808 -193.596 616.805 -221.772 574.006C-248.001 534.129 -268.484 488.64 -282.665 438.84C-295.779 392.563 -303.657 344.432 -305.974 295.79C-309.682 218.864 -293.323 144.395 -257.316 74.2844C-222.05 6.07523 -169.731 -51.2372 -106.011 -91.5321C-38.7701 -134.006 45.2468 -157.933 143.676 -162.709C166.754 -163.822 190.573 -164.981 214.3 -163.544C272.273 -159.927 329.087 -142.677 378.719 -113.65C409.675 -95.4735 437.712 -74.8855 464.868 -55.0395L470.058 -51.2372C502.358 -27.6352 527.197 -4.03326 548.282 23.0464C576.272 58.9826 596.523 98.9065 608.433 141.613C616.543 170.362 621.27 200.826 622.521 232.172C622.706 237.133 622.799 242.049 622.799 246.917V246.964ZM-304.167 274.6C-304.167 281.602 -303.982 288.65 -303.657 295.744C-301.34 344.246 -293.508 392.192 -280.394 438.283C-266.306 487.852 -245.916 533.108 -219.826 572.801C-191.789 615.368 -156.384 652.138 -117.365 679.172C-65.6944 714.783 -3.96774 737.875 82.7369 754.058C112.998 759.669 138.578 762.961 163.278 764.398C199.1 766.485 233.161 763.61 264.488 755.959C285.156 750.951 306.102 743.486 326.678 733.702C350.636 722.295 372.648 709.683 394.012 695.076C412.78 682.232 432.799 666.837 456.99 646.62C476.731 630.113 492.394 615.878 506.343 601.781C550.831 556.71 582.667 493.973 600.972 415.284C604.031 402.254 606.765 388.065 609.592 370.677C613.994 343.69 617.099 316.935 618.814 291.154C619.972 273.858 621.038 253.316 620.297 232.265C619.045 201.104 614.365 170.825 606.301 142.262C594.484 99.834 574.372 60.1882 546.567 24.4838C525.621 -2.41035 500.875 -25.8732 468.76 -49.3824L463.57 -53.1847C436.46 -73.0308 408.424 -93.5724 377.607 -111.703C328.3 -140.544 271.81 -157.701 214.207 -161.272C190.62 -162.709 166.846 -161.55 143.815 -160.437C45.8029 -155.707 -37.8433 -131.873 -104.76 -89.631C-168.155 -49.5679 -220.196 7.46631 -255.277 75.3046C-287.808 138.599 -304.213 205.51 -304.213 274.507L-304.167 274.6Z" fill="#1B1B1B"/>
<path opacity="0.9" d="M606.023 231.801C606.023 249.978 604.54 267.784 602.733 287.398C600.509 311.834 597.172 338.033 592.816 365.252C590.592 379.209 588.043 394.186 584.799 409.163C567.096 490.449 537.299 550.636 493.692 593.11C477.519 608.876 460.604 623.25 444.709 636.466C424.273 653.483 404.207 669.944 383.631 684.736C363.195 699.435 342.109 712.326 319.124 724.15C299.058 734.444 278.668 742.188 258.556 747.195C228.063 754.893 194.466 757.397 158.829 754.568C129.542 752.25 101.227 747.288 79.7709 743.208C-40.4848 720.255 -85.5286 694.845 -118.292 672.773C-156.802 646.621 -191.65 610.128 -218.945 567.236C-243.645 528.472 -263.062 483.586 -276.64 433.878C-288.967 388.576 -296.845 341.325 -299.996 293.426C-304.862 219.374 -290.033 147.084 -255.787 78.5504C-222.097 11.7323 -171.584 -44.0963 -109.719 -82.9074C-46.8336 -122.275 32.5028 -144.625 132.878 -151.256C137.049 -151.534 141.173 -151.812 145.298 -152.09C164.807 -153.435 183.251 -154.733 202.019 -154.223C258.649 -152.508 316.483 -135.768 364.77 -107.066C386.968 -93.8042 407.497 -79.5224 427.377 -65.7044C436.599 -59.3054 446.099 -52.6746 455.507 -46.3684C489.197 -23.7402 513.526 -2.27121 534.38 23.2319C562.648 57.8234 583.362 98.2574 594.253 140.129C601.806 168.692 605.745 198.786 605.977 229.575C605.977 230.317 605.977 231.059 605.977 231.801H606.023ZM-298.56 265.975C-298.56 275.063 -298.282 284.152 -297.633 293.287C-294.482 341.001 -286.65 388.112 -274.323 433.276C-260.792 482.752 -241.467 527.451 -216.906 566.031C-189.75 608.69 -155.133 644.905 -116.902 670.872C-54.8043 712.65 17.4419 728.972 80.2807 740.936C101.644 745.016 129.912 749.978 159.061 752.25C194.512 755.032 227.785 752.574 258.046 744.923C278.019 739.962 298.224 732.265 318.151 722.063C341.044 710.332 362.036 697.488 382.334 682.835C402.816 668.09 422.836 651.628 443.272 634.657C459.121 621.488 475.989 607.16 492.116 591.441C535.399 549.291 564.965 489.475 582.575 408.653C585.818 393.769 588.321 378.838 590.545 364.881C594.901 337.708 598.238 311.603 600.416 287.166C602.27 266.81 603.799 248.401 603.66 229.575C603.474 199.018 599.535 169.11 592.028 140.732C581.184 99.1384 560.609 59.029 532.572 24.6693C511.904 -0.648285 487.714 -21.9318 454.209 -44.4673C444.802 -50.7735 435.255 -57.4043 426.034 -63.8496C406.199 -77.6677 385.716 -91.9494 363.565 -105.118C315.602 -133.589 258.185 -150.236 201.927 -151.951C183.251 -152.461 164.9 -151.163 145.437 -149.818C141.312 -149.54 137.188 -149.262 133.017 -148.984C33.0126 -142.399 -45.9994 -120.142 -108.514 -81.0063C-170.055 -42.427 -220.243 13.077 -253.748 79.5242C-283.591 139.248 -298.652 201.846 -298.652 265.929L-298.56 265.975Z" fill="#1B1B1B"/>
<path opacity="0.9" d="M589.62 217.751C589.62 220.811 589.62 223.872 589.481 226.932C589.017 244.181 587.071 261.06 584.939 278.912L584.383 283.503C581.742 306.177 578.359 330.289 573.818 359.502L573.678 360.383C571.5 374.294 569.23 388.714 566.449 402.533C544.344 511.918 506.205 557.823 479.466 582.816C464.498 596.82 448.974 609.664 432.523 623.25L430.993 624.502C426.359 628.305 421.772 632.153 417.184 635.956C402.401 648.243 387.108 660.995 372.001 672.448C352.584 687.24 332.472 700.316 310.645 712.419C291.274 723.13 271.579 731.105 252.116 736.113C222.596 743.811 189.787 745.944 154.521 742.373C128.06 739.73 101.831 734.815 77.27 730.039C7.38724 716.406 -58.6028 703.469 -117.827 664.426C-155.549 639.526 -189.517 603.59 -216.117 560.374C-239.612 522.212 -257.407 479.135 -270.614 428.778C-281.968 385.237 -290.078 337.569 -294.017 290.968C-300.088 219.42 -286.741 149.356 -254.256 82.7236C-222.419 17.4357 -173.715 -36.9091 -113.425 -74.3755C-38.0273 -121.162 52.0603 -133.96 122.082 -139.895C128.941 -140.452 135.614 -141.147 142.241 -141.796C158.506 -143.419 173.892 -144.95 189.74 -145.042C245.813 -145.181 303.045 -129.416 350.869 -100.621C367.83 -90.3729 383.679 -79.5689 398.972 -69.1358C413.291 -59.3982 426.823 -50.2171 440.957 -41.5461C465.796 -26.3369 494.62 -6.72272 520.432 23.371C549.303 57.0814 569.925 96.9126 580.074 138.645C586.33 164.009 589.527 190.579 589.527 217.797L589.62 217.751ZM-293.09 257.489C-293.09 268.572 -292.627 279.654 -291.653 290.783C-287.714 337.245 -279.605 384.773 -268.297 428.175C-255.183 478.346 -237.434 521.192 -214.078 559.168C-187.663 602.06 -153.927 637.81 -116.483 662.479C-57.676 701.29 8.12872 714.134 77.7798 727.767C102.294 732.543 128.477 737.412 154.799 740.055C189.787 743.579 222.365 741.492 251.56 733.841C270.884 728.88 290.394 720.951 309.579 710.332C331.36 698.276 351.333 685.246 370.657 670.547C385.718 659.094 400.964 646.389 415.747 634.101C420.335 630.252 424.923 626.45 429.557 622.648L431.086 621.396C447.491 607.856 462.969 595.058 477.937 581.054C533.315 529.26 553.705 454.049 564.225 401.976C567.005 388.204 569.183 374.479 571.454 359.919L571.593 359.038C576.181 329.872 579.517 305.76 582.159 283.132L582.715 278.541C584.8 260.735 586.793 243.95 587.21 226.747C587.998 196.607 584.893 167.069 577.942 139.062C567.886 97.7009 547.403 58.1943 518.764 24.762C493.184 -5.09979 464.498 -24.5749 439.845 -39.6913C425.664 -48.4087 412.086 -57.5898 397.767 -67.3274C382.474 -77.7141 366.625 -88.4718 349.757 -98.7194C302.304 -127.283 245.535 -142.956 189.833 -142.77C174.123 -142.677 158.784 -141.147 142.565 -139.524C135.938 -138.875 129.219 -138.18 122.36 -137.623C52.5701 -131.734 -37.1468 -118.983 -112.127 -72.4744C-172.046 -35.1935 -220.473 18.7804 -252.124 83.6974C-279.373 139.572 -293.09 197.859 -293.09 257.443V257.489Z" fill="#1B1B1B"/>
<path opacity="0.9" d="M573.538 204.953C573.538 211.352 573.353 217.797 572.936 224.243C572.055 239.22 569.877 253.734 567.606 269.128C567.097 272.56 566.587 276.037 566.077 279.561C563.436 297.924 560.516 316.935 557.689 335.297L553.426 363.072C551.804 373.876 550.089 385.051 548.097 395.809C536.789 456.553 518.114 525.04 465.238 572.476C453.468 583.002 441.512 592.739 428.814 603.08C424.968 606.186 421.168 609.293 417.321 612.493C408.517 619.726 399.758 627.192 391.278 634.379C381.129 643.004 370.656 651.907 360.414 660.16C341.878 675.091 322.831 688.353 302.163 700.733C283.673 711.769 264.673 719.977 245.673 725.077C216.942 732.775 184.827 734.537 150.21 730.271C127.039 727.396 103.915 722.759 81.5321 718.307L74.7663 716.963C67.2127 715.433 59.7517 713.995 52.3834 712.558C-8.13837 700.78 -65.3236 689.605 -117.319 656.126C-154.392 632.292 -187.526 596.82 -213.199 553.604C-235.118 516.601 -251.894 474.173 -264.499 423.77C-274.972 381.62 -283.082 334.88 -287.947 288.603C-295.223 219.745 -283.313 151.953 -252.635 86.9897C-222.421 23.0928 -175.57 -29.7218 -117.04 -65.7971C-53.7382 -104.701 20.0372 -118.983 111.376 -128.442C119.856 -129.323 128.152 -130.436 136.169 -131.502C150.349 -133.404 163.695 -135.166 177.551 -135.722C232.837 -137.901 289.466 -123.11 337.012 -94.0824C350.497 -85.7823 363.148 -77.2503 375.429 -68.9966C392.714 -57.3579 409.073 -46.3684 426.497 -36.6772C457.499 -19.4742 482.987 -2.64217 506.575 23.5101C535.955 56.1541 556.485 95.4289 565.984 137.115C570.989 159.094 573.492 181.861 573.538 204.953ZM-287.716 249.514C-287.716 262.405 -287.021 275.342 -285.677 288.325C-280.811 334.509 -272.701 381.11 -262.274 423.167C-249.762 473.339 -233.079 515.581 -211.252 552.398C-185.765 595.336 -152.862 630.53 -116.114 654.179C-64.4894 687.425 -7.53595 698.508 52.8005 710.239C60.2151 711.677 67.6761 713.114 75.1833 714.644L81.9492 715.989C104.286 720.487 127.364 725.077 150.488 727.952C184.827 732.172 216.617 730.456 245.024 722.852C263.839 717.797 282.654 709.683 300.958 698.74C321.534 686.452 340.488 673.237 358.931 658.352C369.173 650.145 379.136 641.613 389.748 632.617C398.229 625.383 406.987 617.918 415.792 610.684C419.639 607.531 423.485 604.378 427.331 601.271C439.982 590.977 451.985 581.24 463.663 570.714C516.029 523.788 534.565 455.718 545.78 395.345C547.772 384.634 549.441 373.459 551.109 362.655L555.372 334.833C558.199 316.471 561.119 297.506 563.76 279.144C564.27 275.62 564.78 272.189 565.289 268.711C567.56 253.409 569.692 238.942 570.572 224.057C572.333 194.52 570.016 165.446 563.667 137.532C554.26 96.2171 533.916 57.3133 504.814 24.9476C481.458 -0.97287 456.156 -17.6658 425.339 -34.7761C407.822 -44.4672 391.463 -55.5031 374.085 -67.1882C361.851 -75.4419 349.153 -83.9739 335.761 -92.2276C288.585 -121.023 232.419 -135.722 177.598 -133.543C163.834 -132.986 150.534 -131.224 136.447 -129.323C128.43 -128.257 120.088 -127.144 111.608 -126.263C20.5933 -116.803 -52.9504 -102.614 -115.836 -63.9423C-173.948 -28.1453 -220.567 24.3448 -250.55 87.8243C-275.25 140.129 -287.716 194.335 -287.716 249.375V249.514Z" fill="#1B1B1B"/>
<path opacity="0.9" d="M557.781 193.361C557.781 202.727 557.318 212.187 556.437 221.646C555.14 234.954 552.823 247.798 550.367 261.385C549.486 266.114 548.652 270.844 547.818 275.713L547.355 278.495C543.462 301.169 539.43 324.586 535.955 347.956C535.167 353.103 534.472 358.204 533.73 363.258C532.525 371.79 531.274 380.646 529.838 389.225C519.04 453.307 502.033 518.595 451.104 562.229C441.604 570.343 431.594 578.319 421.909 585.97C415.838 590.746 409.767 595.568 403.696 600.53C391.972 610.082 380.618 620.144 369.589 629.835C362.453 636.141 355.733 642.03 348.875 647.919C331.126 663.082 313.145 676.529 293.775 689.095C276.072 700.548 257.721 708.987 239.324 714.088C211.519 721.785 180.099 723.176 146.039 718.168C127.224 715.386 108.409 711.445 90.1972 707.596C84.2655 706.344 78.3339 705.092 72.3558 703.887C59.3802 701.244 46.5437 698.832 34.0779 696.56C-19.4 686.684 -69.8658 677.317 -116.81 647.919C-153.28 625.059 -185.58 590.096 -210.326 546.88C-230.717 511.13 -246.473 469.258 -258.429 418.808C-268.021 378.05 -275.946 333.489 -281.924 286.285C-290.311 220.116 -279.931 154.55 -251.06 91.302C-222.931 29.7236 -176.636 -22.9983 -120.702 -57.1261C-53.878 -97.792 28.2389 -107.947 100.624 -116.942C110.124 -118.102 119.346 -119.678 128.243 -121.208C140.895 -123.388 152.804 -125.428 165.27 -126.355C219.073 -130.436 276.628 -116.247 323.109 -87.4516C334.138 -80.5426 344.611 -73.5408 354.714 -66.7246C373.945 -53.7875 392.157 -41.5924 411.992 -31.7157C438.916 -18.315 467.323 -3.01315 492.718 23.7883C522.701 55.4585 543.137 94.1769 551.896 135.724C555.835 154.55 557.828 173.886 557.828 193.454L557.781 193.361ZM-282.48 241.863C-282.48 256.516 -281.553 271.168 -279.699 285.914C-273.721 333.025 -265.843 377.54 -256.251 418.206C-244.341 468.423 -228.678 510.109 -208.38 545.628C-183.865 588.52 -151.797 623.204 -115.651 645.879C-69.1243 675.091 -18.7976 684.365 34.4023 694.242C46.8681 696.56 59.7047 698.925 72.7266 701.568C78.7046 702.774 84.6363 704.026 90.568 705.278C108.734 709.126 127.548 713.068 146.27 715.85C180.053 720.811 211.102 719.467 238.629 711.816C256.841 706.762 274.914 698.461 292.431 687.101C311.709 674.628 329.643 661.227 347.299 646.111C354.158 640.268 360.877 634.333 367.967 628.073C378.997 618.335 390.396 608.32 402.121 598.721C408.192 593.76 414.309 588.937 420.379 584.115C430.065 576.464 440.074 568.535 449.528 560.42C499.901 517.25 516.769 452.426 527.474 388.761C528.911 380.229 530.162 371.419 531.367 362.887C532.108 357.786 532.803 352.686 533.591 347.539C537.113 324.169 541.098 300.706 545.037 278.031L545.501 275.249C546.335 270.427 547.216 265.651 548.05 260.921C550.506 247.381 552.823 234.629 554.12 221.414C556.901 192.341 555.372 163.638 549.579 136.095C540.959 94.9652 520.662 56.6641 491.003 25.2721C465.886 -1.25112 437.711 -16.4602 410.972 -29.7682C390.999 -39.6913 372.74 -51.9328 353.416 -64.9162C343.314 -71.6861 332.887 -78.6878 321.858 -85.5969C275.794 -114.16 218.748 -128.21 165.409 -124.176C153.082 -123.249 141.173 -121.208 128.614 -119.029C119.67 -117.499 110.448 -115.922 100.856 -114.717C28.6559 -105.767 -53.1829 -95.6126 -119.59 -55.225C-175.107 -21.329 -221.124 31.0219 -249.021 92.183C-271.312 140.964 -282.48 191.135 -282.48 241.863Z" fill="#1B1B1B"/>
<path opacity="0.9" d="M542.307 182.928C542.307 194.891 541.519 206.901 539.897 219.003C538.275 231.059 535.773 242.651 533.085 254.846C531.88 260.411 530.629 266.021 529.47 271.725C525.624 290.783 520.712 316.008 516.912 342.113C515.939 348.652 515.104 355.143 514.27 361.589C513.39 368.498 512.463 375.592 511.397 382.501C502.361 442.317 488.458 509.646 436.788 551.888C428.956 558.333 420.707 564.593 412.736 570.714C405.229 576.464 397.49 582.399 389.844 588.566C375.988 599.788 362.919 611.844 350.268 623.529C345.82 627.609 341.464 631.69 337.107 635.631C320.054 651.118 303.093 664.797 285.159 677.363C267.966 689.419 250.82 697.812 232.747 703.006C205.822 710.749 175.144 711.769 141.593 705.973C126.069 703.284 110.498 699.76 95.4373 696.375C87.0032 694.474 78.3373 692.48 69.7178 690.671C52.9423 687.147 36.4447 684.365 20.5033 681.676C-27.738 673.515 -73.3379 665.817 -116.435 639.48C-152.304 617.547 -183.816 583.141 -207.542 539.925C-226.681 505.009 -240.955 464.853 -252.447 413.661C-260.835 376.009 -268.528 333.535 -275.989 283.781C-285.535 220.255 -276.637 156.868 -249.574 95.4289C-223.067 35.2415 -178.672 -15.9038 -124.452 -48.6405C-66.7111 -83.3711 -0.442932 -92.7841 69.7642 -102.753C76.4373 -103.681 83.1105 -104.655 89.83 -105.628C100.071 -107.112 109.849 -109.199 119.349 -111.193C130.842 -113.604 141.64 -115.922 153.04 -117.221C206.147 -123.295 263.1 -110.08 309.21 -81.0526C318.478 -75.1637 327.329 -69.2285 335.856 -63.4787C356.385 -49.6606 375.756 -36.5845 397.444 -27.0324C427.38 -13.8172 454.166 -0.926521 478.773 23.7419C509.358 54.4848 529.702 92.6003 537.673 134.008C540.731 149.959 542.26 166.281 542.26 182.835L542.307 182.928ZM-277.332 234.49C-277.332 250.766 -276.128 267.088 -273.672 283.456C-266.211 333.164 -258.518 375.592 -250.176 413.151C-238.73 464.157 -224.55 504.081 -205.503 538.812C-181.962 581.657 -150.774 615.785 -115.23 637.486C-72.4574 663.592 -27.1356 671.243 20.9204 679.357C36.9082 682.047 53.4057 684.829 70.2276 688.399C78.8934 690.208 87.6056 692.202 95.9934 694.103C111.008 697.488 126.579 701.012 142.01 703.701C175.191 709.405 205.498 708.431 232.144 700.78C249.986 695.633 266.9 687.379 283.861 675.462C301.703 662.943 318.664 649.356 335.624 633.915C339.981 629.974 344.337 625.94 348.785 621.813C361.437 610.128 374.505 598.026 388.454 586.758C396.1 580.591 403.839 574.609 411.393 568.859C419.317 562.785 427.566 556.479 435.397 550.08C486.419 508.347 500.229 441.529 509.173 382.13C510.192 375.267 511.119 368.127 512 361.264C512.834 354.819 513.668 348.281 514.641 341.742C518.441 315.637 523.353 290.365 527.2 271.261C528.358 265.511 529.609 259.901 530.814 254.336C533.502 242.141 536.004 230.642 537.626 218.678C541.426 190.115 540.685 161.783 535.448 134.518C527.57 93.5741 507.412 55.8295 477.151 25.4576C452.868 1.06737 426.268 -11.7306 396.517 -24.8531C374.644 -34.4979 355.181 -47.6204 334.559 -61.4848C326.032 -67.2346 317.227 -73.1699 307.959 -79.0588C262.266 -107.808 205.869 -120.884 153.271 -114.856C142.01 -113.558 131.213 -111.285 119.813 -108.874C110.313 -106.88 100.442 -104.794 90.1544 -103.264C83.4349 -102.29 76.7617 -101.316 70.0886 -100.389C0.159485 -90.4656 -65.877 -81.099 -123.248 -46.6003C-177.05 -14.1418 -221.12 36.6326 -247.442 96.4026C-267.369 141.659 -277.379 187.936 -277.379 234.537L-277.332 234.49Z" fill="#1B1B1B"/>
<path opacity="0.9" d="M527.058 173.561C527.058 187.75 525.807 202.032 523.351 216.406C521.451 227.488 518.716 238.061 515.797 249.236C514.221 255.264 512.599 261.524 511.116 267.876C505.138 293.565 500.782 316.007 497.909 336.364C496.843 343.922 495.963 351.573 495.082 358.945C494.434 364.649 493.785 370.306 493.043 375.917C484.47 441.019 472.607 502.69 422.558 541.64C415.885 546.834 408.934 551.934 402.214 556.896C393.641 563.202 384.79 569.74 376.17 576.649C360.692 589.076 346.651 602.801 333.073 616.063C330.571 618.521 328.068 620.978 325.566 623.389C308.929 639.572 293.405 653.019 276.722 665.725C260.317 678.198 243.866 686.776 226.349 692.016C200.259 699.806 170.276 700.455 137.327 693.917C124.352 691.32 111.283 688.121 98.6322 685.014C88.3907 682.51 77.7786 679.914 67.2591 677.641C47.7957 673.422 28.7031 670.593 10.3056 667.858C-33.9504 661.273 -75.7039 655.106 -115.928 631.226C-160.601 604.703 -188.823 563.249 -204.672 533.155C-222.513 499.12 -235.396 460.726 -246.379 408.653C-254.721 368.729 -262.089 326.58 -269.179 285.821L-269.967 281.416C-280.579 220.44 -273.211 159.326 -248.001 99.6948C-223.162 40.8985 -180.574 -8.71664 -128.116 -40.0159C-77.2796 -70.2487 -19.7699 -78.9661 41.0762 -88.1936C53.4957 -90.0947 66.3323 -92.0422 79.0298 -94.1752C89.7346 -95.9836 99.8371 -98.5339 109.661 -101.038C120.227 -103.727 130.191 -106.278 140.71 -107.901C192.473 -115.83 250.261 -103.356 295.259 -74.5146C303.461 -69.2285 311.293 -63.9424 318.846 -58.8418C339.978 -44.5137 359.951 -30.9739 382.936 -22.1637C411.9 -11.0351 439.195 -0.50927 464.868 23.9274C496.055 53.6964 516.353 91.2555 523.536 132.524C525.899 145.971 527.058 159.65 527.058 173.468V173.561ZM-272.33 227.396C-272.33 245.248 -270.755 263.146 -267.65 280.999L-266.862 285.404C-259.772 326.162 -252.403 368.266 -244.062 408.143C-233.125 459.984 -220.335 498.239 -202.587 532.042C-186.877 561.904 -158.933 602.941 -114.723 629.186C-74.9162 652.788 -33.348 658.955 10.6299 665.493C29.1201 668.229 48.2128 671.057 67.7689 675.277C78.381 677.549 88.9932 680.146 99.2346 682.696C111.839 685.803 124.861 689.002 137.837 691.552C170.415 698.044 199.981 697.395 225.746 689.744C242.985 684.597 259.251 676.111 275.378 663.823C291.968 651.211 307.4 637.81 323.99 621.674C326.493 619.263 328.995 616.805 331.497 614.347C345.122 601.039 359.209 587.268 374.78 574.748C383.446 567.793 392.344 561.255 400.917 554.948C407.636 550.033 414.541 544.933 421.214 539.739C470.568 501.299 482.292 440.138 490.819 375.546C491.56 369.935 492.209 364.324 492.858 358.621C493.692 351.248 494.573 343.597 495.685 335.993C498.604 315.544 502.914 293.055 508.938 267.273C510.421 260.921 512.043 254.615 513.619 248.587C516.492 237.458 519.226 226.932 521.126 215.943C525.946 187.843 525.992 159.975 521.312 132.988C514.221 92.183 494.156 55.0411 463.339 25.643C437.99 1.53098 410.88 -8.90211 382.148 -19.9844C358.932 -28.8873 338.866 -42.5198 317.595 -56.9407C310.041 -62.0413 302.256 -67.3274 294.054 -72.5671C249.52 -101.131 192.334 -113.511 141.127 -105.628C130.7 -104.006 120.783 -101.502 110.264 -98.8122C100.393 -96.3082 90.2444 -93.7115 79.4469 -91.9031C66.703 -89.7701 53.8665 -87.8226 41.447 -85.9215C-19.2138 -76.7404 -76.4918 -68.0229 -126.911 -38.0684C-178.952 -7.00096 -221.169 42.1969 -245.823 100.529C-263.433 142.262 -272.33 184.736 -272.33 227.349V227.396Z" fill="#1B1B1B"/>
<path opacity="0.9" d="M511.999 165.122C511.999 181.212 510.284 197.488 506.809 213.763C504.631 224.057 501.665 233.841 498.56 244.182C496.614 250.581 494.621 257.211 492.813 263.981C486.279 288.464 481.738 310.258 478.957 330.614C477.799 338.96 476.965 347.4 476.131 355.514C475.667 360.151 475.204 364.695 474.694 369.286C468.531 424.187 460.838 492.536 408.333 531.393C402.587 535.659 396.609 539.832 390.863 543.866C381.502 550.451 371.816 557.267 362.502 564.686C345.772 578.04 331.175 593.25 317.041 607.949L313.982 611.148C297.809 627.98 283.304 641.659 268.29 654.04C252.719 666.93 236.917 675.741 219.956 680.98C194.653 688.817 165.458 689.095 133.112 681.769C122.129 679.265 111.053 676.297 100.349 673.469C88.7633 670.362 76.8073 667.162 64.8048 664.519C43.3488 659.789 22.4952 657.193 2.29041 654.689C-38.768 649.588 -77.5558 644.766 -115.417 622.972C-159.441 597.608 -186.69 556.432 -201.751 526.385C-222.558 484.885 -232.892 441.066 -240.26 403.646C-243.782 385.515 -247.304 366.504 -250.733 348.142C-254.95 325.281 -259.353 301.633 -263.894 279.051C-275.619 220.626 -269.733 161.737 -246.377 103.961C-223.207 46.6021 -182.473 -1.48286 -131.729 -31.391C-86.3606 -58.007 -35.7095 -65.8898 18.0001 -74.2363C34.4513 -76.7866 51.5049 -79.4296 68.3731 -82.6755C79.356 -84.7621 89.6901 -87.8688 99.6535 -90.8828C109.478 -93.8505 118.746 -96.6326 128.571 -98.5338C179.592 -108.457 236.778 -97.0036 281.497 -67.8837C288.726 -63.154 295.585 -58.4707 302.258 -53.9265C323.899 -39.1347 344.336 -25.1312 368.526 -17.202L372.048 -16.0428C399.945 -6.90805 426.267 1.763 451.106 24.2057C482.433 52.5837 503.194 90.5602 509.543 131.18C511.304 142.401 512.184 153.762 512.184 165.168L511.999 165.122ZM-267.463 220.487C-267.463 239.869 -265.516 259.205 -261.67 278.541C-257.128 301.123 -252.772 324.771 -248.509 347.678C-245.126 366.04 -241.604 385.005 -238.036 403.136C-230.714 440.37 -220.426 484.05 -199.758 525.272C-184.836 555.041 -157.865 595.8 -114.351 620.886C-76.907 642.447 -38.351 647.224 2.47574 652.324C22.7269 654.828 43.6732 657.425 65.2219 662.201C77.2706 664.844 89.2731 668.09 100.858 671.196C111.517 674.071 122.592 677.039 133.529 679.497C165.458 686.73 194.283 686.498 219.168 678.755C235.851 673.561 251.421 664.89 266.714 652.231C281.636 639.851 296.094 626.265 312.221 609.479L315.28 606.279C329.46 591.534 344.104 576.278 360.972 562.831C370.333 555.366 380.065 548.55 389.472 541.919C395.219 537.885 401.197 533.711 406.943 529.445C458.66 491.191 465.936 426.274 472.377 368.961C472.887 364.417 473.35 359.827 473.814 355.236C474.601 347.075 475.482 338.636 476.64 330.243C479.467 309.794 484.009 287.908 490.589 263.332C492.396 256.516 494.435 249.885 496.382 243.44C499.487 233.146 502.453 223.455 504.584 213.253C510.423 185.71 511.304 158.167 507.133 131.458C500.877 91.3485 480.394 53.8821 449.438 25.875C424.97 3.75689 398.88 -4.82143 371.214 -13.8634L367.692 -15.0227C343.224 -23.0909 322.648 -37.1408 300.868 -52.0717C294.241 -56.6159 287.336 -61.2992 280.153 -65.9825C235.897 -94.7779 179.407 -106.138 128.941 -96.308C119.21 -94.4069 109.988 -91.6247 100.256 -88.7035C90.2462 -85.6895 79.8658 -82.5364 68.7438 -80.4497C51.8756 -77.2039 34.822 -74.5608 18.3245 -72.0105C-35.1071 -63.7104 -85.6191 -55.874 -130.57 -29.4435C-180.897 0.232819 -221.26 47.9004 -244.246 104.796C-259.677 143.004 -267.416 181.769 -267.416 220.487H-267.463Z" fill="#1B1B1B"/>
<path opacity="0.9" d="M497.122 157.517C497.122 175.323 494.852 193.268 490.264 211.12C487.808 220.765 484.656 229.853 481.273 239.498C478.956 246.129 476.547 252.992 474.415 260.04C467.325 283.503 462.598 304.693 459.864 324.771C458.659 333.721 457.917 342.67 457.222 351.387C456.898 355.143 456.62 358.853 456.296 362.562L456.017 365.762C450.92 421.776 445.081 485.302 394.059 521.006C389.008 524.53 383.725 528.054 378.674 531.439C368.757 538.07 358.469 544.933 348.691 552.63C330.942 566.68 315.696 583.698 302.257 598.768C286.223 616.759 273.108 630.16 259.669 642.262C244.933 655.524 229.825 664.565 213.374 669.898C188.86 677.781 160.36 677.688 128.662 669.573C119.255 667.162 109.755 664.38 100.579 661.691C88.1135 658.027 75.2307 654.272 62.1624 651.304C39.3161 646.111 17.0723 643.931 -4.38379 641.845C-42.8471 638.135 -79.1787 634.565 -115.093 614.533C-148.969 595.614 -178.813 561.858 -199.064 519.43C-217.878 479.969 -227.147 438.005 -234.376 398.452L-237.017 383.707C-243.412 348.095 -250.039 311.278 -258.01 276.501C-270.8 220.58 -266.444 163.916 -244.988 108.041C-223.486 52.0736 -184.652 5.56521 -135.576 -22.9519C-94.7031 -46.6466 -49.4739 -53.6484 -1.55698 -61.0211C17.721 -63.9887 37.6942 -67.0955 57.3892 -71.3614C68.5575 -73.7726 78.938 -77.4358 88.9477 -80.9135C98.1233 -84.113 106.789 -87.1734 116.104 -89.3527C165.596 -101.131 223.523 -90.4656 267.362 -61.4848C273.85 -57.2188 280.013 -52.9528 285.991 -48.826C308.837 -33.014 328.579 -19.3815 353.788 -12.4724L360.601 -10.6177C387.432 -3.33769 412.781 3.4786 436.971 24.2057C468.947 51.5636 489.569 88.9836 495.13 129.51C496.381 138.738 497.03 148.058 497.03 157.378L497.122 157.517ZM-262.783 213.81C-262.783 234.629 -260.42 255.403 -255.693 276.084C-247.722 310.861 -241.095 347.724 -234.7 383.382L-232.059 398.128C-224.876 437.495 -215.654 479.274 -196.932 518.502C-176.866 560.466 -147.393 593.852 -113.935 612.586C-78.4373 632.432 -42.3374 635.909 -4.1521 639.619C17.3966 641.705 39.6868 643.885 62.6721 649.078C75.7867 652.046 88.716 655.848 101.228 659.511C110.404 662.201 119.857 664.983 129.265 667.348C160.545 675.37 188.628 675.462 212.679 667.719C228.806 662.525 243.681 653.622 258.14 640.593C271.486 628.537 284.555 615.182 300.542 597.284C314.028 582.167 329.367 565.057 347.254 550.868C357.125 543.078 367.413 536.215 377.376 529.538C382.427 526.153 387.664 522.676 392.715 519.151C442.903 484.05 448.649 421.127 453.7 365.576L453.978 362.377C454.303 358.667 454.627 354.958 454.905 351.248C455.6 342.531 456.342 333.489 457.593 324.493C460.327 304.276 465.1 282.946 472.191 259.391C474.322 252.296 476.732 245.387 479.049 238.756C482.386 229.204 485.537 220.162 487.993 210.564C494.898 183.531 496.52 156.404 492.905 129.928C487.437 89.9573 467.047 53.0937 435.535 26.0604C411.715 5.70432 386.644 -1.11197 360.091 -8.29921L353.279 -10.154C327.698 -17.1557 307.818 -30.9274 284.786 -46.8321C278.808 -50.9589 272.691 -55.2249 266.203 -59.4909C222.874 -88.1471 165.596 -98.7193 116.752 -87.0806C107.577 -84.9013 98.9574 -81.8873 89.8282 -78.6878C79.7258 -75.1637 69.299 -71.5005 57.9917 -69.043C38.2039 -64.777 18.2308 -61.6702 -1.09357 -58.6562C-48.7788 -51.2835 -93.7762 -44.3281 -134.279 -20.8653C-182.891 7.41998 -221.354 53.5111 -242.671 108.969C-256.017 143.746 -262.737 178.801 -262.737 213.81H-262.783Z" fill="#1B1B1B"/>
<path opacity="0.9" d="M482.338 150.191C482.338 169.62 479.419 189.419 473.719 208.477C470.985 217.566 467.602 226.098 464.033 235.14C461.346 241.909 458.565 248.911 456.109 256.145C448.463 278.727 443.504 299.268 440.909 319.022C439.658 328.435 439.102 337.894 438.499 347.029C438.314 349.996 438.129 352.964 437.943 355.931L437.387 363.722C433.773 417.185 429.648 477.79 379.785 510.759C375.243 513.726 370.656 516.647 366.068 519.569C355.734 526.107 345.029 532.83 334.973 540.713C318.012 554.021 303.785 570.621 290.624 586.526C276.907 603.126 264.951 616.991 251.188 630.623C237.332 644.302 222.827 653.576 206.932 658.908C183.205 666.884 155.4 666.374 124.351 657.471C116.195 655.153 107.993 652.509 100.069 649.959C87.0003 645.786 73.4223 641.427 59.6589 638.228C35.7931 632.663 12.6688 631.087 -9.71408 629.603C-45.9993 627.145 -80.2919 624.827 -114.585 606.279C-148.043 588.195 -177.006 554.948 -196.145 512.706C-213.894 473.431 -222.004 430.586 -228.26 393.537C-234.794 354.216 -241.977 312.623 -251.94 274.229C-265.796 220.719 -262.923 166.281 -243.367 112.4C-223.579 57.8698 -186.553 12.8916 -139.192 -14.2345C-102.026 -35.4252 -61.292 -41.5923 -18.1482 -48.0377C3.07611 -51.2372 25.0419 -54.5294 46.6833 -59.8155C57.9443 -62.5513 68.3247 -66.7245 78.3345 -70.7586C86.5832 -74.0508 95.1563 -77.5285 103.915 -79.9861C152.573 -93.7578 209.944 -84.1593 253.551 -54.854C259.436 -50.9126 265.09 -46.9712 270.512 -43.1689C293.451 -27.1251 313.239 -13.2607 339.329 -7.51091C342.48 -6.81538 345.631 -6.16621 348.782 -5.47067C374.826 0.0472717 399.387 5.24063 423.114 24.4839C455.692 50.868 476.268 87.6852 481.041 128.119C481.921 135.353 482.338 142.772 482.338 150.191ZM-258.243 207.364C-258.243 229.575 -255.416 251.693 -249.716 273.672C-239.752 312.113 -232.523 353.798 -225.989 393.166C-219.779 430.076 -211.716 472.736 -194.06 511.779C-175.106 553.604 -146.514 586.48 -113.519 604.285C-79.6432 622.601 -45.5823 624.873 -9.57506 627.331C12.9005 628.861 36.1175 630.391 60.1687 636.002C74.0247 639.248 87.6028 643.56 100.764 647.78C108.688 650.33 116.89 652.927 125 655.292C155.585 664.055 182.927 664.565 206.19 656.729C221.761 651.489 235.941 642.447 249.566 629C263.283 615.46 275.192 601.642 288.863 585.089C302.07 569.091 316.39 552.398 333.536 538.951C343.685 530.976 354.436 524.206 364.817 517.668C369.404 514.746 373.992 511.871 378.534 508.904C427.47 476.584 431.502 416.583 435.116 363.675L435.672 355.839C435.858 352.918 436.043 349.95 436.229 346.982C436.785 337.801 437.387 328.295 438.638 318.836C441.233 298.944 446.238 278.217 453.931 255.542C456.387 248.262 459.214 241.214 461.902 234.398C465.47 225.448 468.807 216.963 471.541 207.921C479.372 181.815 481.875 154.364 478.816 128.49C474.089 88.659 453.838 52.3982 421.724 26.385C398.414 7.51273 374.085 2.36575 348.365 -3.10583C345.214 -3.755 342.063 -4.45055 338.912 -5.14609C312.405 -10.9886 292.431 -24.9921 269.261 -41.175C263.839 -44.9773 258.232 -48.9187 252.346 -52.8601C209.249 -81.7945 152.666 -91.3002 104.61 -77.714C95.9442 -75.2564 87.8344 -72.0106 79.2613 -68.5329C69.1589 -64.4988 58.7321 -60.2792 47.3321 -57.497C25.598 -52.2109 3.58588 -48.9187 -17.6848 -45.7192C-60.5969 -39.2739 -101.146 -33.1531 -137.941 -12.1942C-184.838 14.7 -221.448 59.2145 -241.096 113.235C-252.45 144.534 -258.15 176.019 -258.15 207.411L-258.243 207.364Z" fill="#1B1B1B"/>
<path opacity="0.9" d="M467.742 143.885C467.742 164.566 464.174 185.71 457.176 205.881C454.164 214.505 450.411 222.944 446.75 231.059C443.691 237.875 440.54 244.923 437.759 252.25C429.65 273.672 424.32 294.168 421.911 313.225C420.659 322.963 420.289 332.793 419.872 342.253C419.779 344.571 419.686 346.936 419.547 349.254C419.362 353.01 419.223 356.813 419.037 360.615C416.906 411.899 414.45 470 365.513 500.418C361.389 502.969 357.218 505.473 353.001 507.93C342.389 514.236 331.406 520.774 321.211 528.703C303.926 542.151 290.347 559.214 278.994 574.192C266.204 591.07 255.406 605.12 242.662 618.892C229.64 632.988 215.831 642.447 200.445 647.826C177.46 655.848 150.397 655.013 119.997 645.276C112.907 643.004 105.724 640.5 98.8188 638.089C85.3335 633.359 71.3847 628.49 57.1116 625.059C32.5507 619.17 8.77759 618.335 -14.2077 617.501C-48.6393 616.295 -81.1709 615.136 -114.166 597.933C-147.207 580.683 -175.337 547.993 -193.363 505.797C-209.166 468.702 -216.071 429.102 -222.28 388.39C-227.749 352.176 -234.792 310.026 -246.007 271.771C-261.161 219.93 -259.817 169.156 -241.883 116.573C-224.041 64.2688 -187.988 19.6615 -142.944 -5.74883C-108.976 -24.853 -71.9954 -30.1391 -32.8833 -35.7034C-10.3614 -38.9493 12.9946 -42.2415 35.7946 -48.455C47.1019 -51.5153 57.3433 -56.1986 67.2603 -60.7428C75.092 -64.3132 83.1555 -67.9764 91.4969 -70.7586C138.626 -86.3387 196.692 -77.5749 239.511 -48.4086C244.979 -44.699 250.17 -40.9895 255.174 -37.4191C278.067 -21.1898 297.808 -7.13992 324.64 -2.68846C328.533 -2.03929 332.379 -1.43649 336.272 -0.880066C360.555 2.82948 385.672 6.67812 409.074 24.5303C442.254 49.8943 462.737 86.1087 466.769 126.543C467.325 132.246 467.603 137.996 467.603 143.792L467.742 143.885ZM-254.024 200.873C-254.024 224.243 -250.595 247.613 -243.69 271.169C-232.475 309.609 -225.339 351.851 -219.917 388.112C-213.754 428.685 -206.895 468.099 -191.185 504.962C-173.39 546.648 -145.632 578.921 -113.054 595.939C-80.5222 612.91 -48.2686 614.069 -14.0687 615.275C9.00928 616.11 32.9214 616.944 57.7141 622.88C72.1262 626.311 86.1212 631.226 99.6529 635.956C106.558 638.367 113.694 640.871 120.785 643.143C150.675 652.695 177.275 653.576 199.75 645.693C214.765 640.453 228.296 631.18 241.04 617.362C253.692 603.683 264.443 589.679 277.233 572.847C288.679 557.777 302.35 540.574 319.867 526.941C330.201 518.92 341.23 512.335 351.889 506.029C356.06 503.525 360.23 501.067 364.355 498.517C412.272 468.748 414.681 411.296 416.767 360.568C416.906 356.72 417.091 352.918 417.276 349.162C417.369 346.843 417.462 344.525 417.601 342.16C418.018 332.608 418.435 322.778 419.64 312.947C422.05 293.704 427.425 273.023 435.581 251.415C438.362 244.042 441.559 236.948 444.618 230.085C448.418 221.6 451.986 213.624 454.952 205.092C463.803 179.543 467.093 152.51 464.545 126.821C460.606 87.0825 440.401 51.4245 407.73 26.4314C384.791 8.90385 361.064 5.28705 335.994 1.4384C332.101 0.835602 328.208 0.279167 324.362 -0.370003C297.021 -4.96056 277.048 -19.1032 253.97 -35.5179C248.965 -39.0884 243.774 -42.7515 238.353 -46.4611C196.136 -75.2564 138.858 -83.9274 92.3773 -68.5328C84.1286 -65.7971 76.4823 -62.3194 68.3725 -58.6098C58.3628 -54.0656 48.0287 -49.336 36.5361 -46.1829C13.5508 -39.923 -9.85164 -36.5844 -32.4199 -33.3386C-71.3466 -27.7742 -108.095 -22.5345 -141.693 -3.66223C-186.227 21.4699 -221.91 65.6135 -239.566 117.362C-249.205 145.554 -253.978 173.237 -253.978 200.873H-254.024Z" fill="#1B1B1B"/>
<path opacity="0.9" d="M453.284 138.135C453.284 159.882 448.974 182.186 440.633 203.237C437.389 211.491 433.357 219.467 429.511 227.164C426.081 233.98 422.559 241.028 419.455 248.355C410.742 268.989 405.228 288.881 402.957 307.475C401.752 317.491 401.521 327.553 401.335 337.337L401.242 342.623C401.15 347.26 401.057 351.99 401.011 356.766C400.362 406.149 399.574 462.117 351.333 490.17C347.533 492.396 343.687 494.529 339.794 496.662C328.996 502.69 317.782 508.904 307.54 516.786C290.904 529.584 277.928 546.787 267.409 561.95L264.165 566.587C254.387 580.73 245.165 594.13 234.182 607.206C222.04 621.674 208.926 631.365 194.004 636.836C171.76 644.951 145.438 643.699 115.687 633.173C109.477 630.948 103.175 628.583 97.1043 626.218C83.4336 620.978 69.2531 615.553 54.6092 611.936C29.5849 605.769 5.39474 605.723 -18.0076 605.723C-50.8636 605.723 -81.866 605.63 -113.702 589.633C-157.773 567.468 -180.712 523.324 -190.49 499.027C-205.551 461.468 -210.973 421.776 -216.21 383.382C-220.612 350.553 -227.331 307.893 -239.983 269.406C-256.248 219.93 -256.341 171.335 -240.307 120.839C-224.134 69.9257 -189.98 26.9413 -146.605 2.87569C-115.371 -14.3737 -81.6806 -18.8251 -45.9515 -23.6012C-22.5954 -26.7079 1.54842 -29.9074 25.0898 -37.0482C36.3508 -40.4332 46.4995 -45.6729 56.2775 -50.6808C63.6921 -54.4831 71.3385 -58.4245 79.3555 -61.4849C125.651 -79.1052 183.114 -71.4079 225.701 -41.8707C230.799 -38.3466 235.665 -34.8225 240.392 -31.4376C263.099 -15.0692 282.748 -0.926582 310.228 2.18016C314.677 2.69022 319.172 3.10754 323.667 3.52486C347.486 5.7506 372.14 8.02269 395.311 24.7156C429.094 49.0595 449.53 84.7175 452.774 125.059C453.145 129.371 453.284 133.73 453.284 138.042V138.135ZM-249.853 194.984C-249.853 219.559 -245.822 243.996 -237.712 268.711C-225.014 307.383 -218.295 350.182 -213.846 383.104C-208.61 421.312 -203.234 460.865 -188.312 498.192C-178.673 522.212 -156.012 565.799 -112.637 587.592C-81.3099 603.358 -50.5392 603.404 -17.9613 603.451C5.58011 603.451 29.863 603.497 55.2117 609.757C69.9946 613.374 84.2213 618.845 97.9847 624.085C104.055 626.403 110.312 628.815 116.521 630.994C145.716 641.334 171.528 642.54 193.263 634.657C207.767 629.371 220.604 619.912 232.467 605.723C243.358 592.739 252.533 579.385 262.311 565.289L265.555 560.605C276.167 545.35 289.282 527.961 306.196 514.932C316.577 506.91 327.838 500.65 338.728 494.622C342.574 492.489 346.421 490.356 350.221 488.13C397.35 460.726 398.091 405.454 398.74 356.673C398.786 351.897 398.879 347.168 398.972 342.484L399.064 337.198C399.25 327.368 399.435 317.259 400.686 307.104C402.957 288.325 408.564 268.201 417.323 247.381C420.474 239.962 423.996 232.914 427.425 226.051C431.457 218.029 435.257 210.471 438.455 202.31C448.325 177.317 452.45 150.655 450.411 125.244C447.213 85.5985 427.147 50.5433 393.921 26.6168C371.26 10.2948 346.93 8.02269 323.435 5.84333C318.94 5.42601 314.445 5.00868 309.95 4.49862C281.867 1.29914 262.033 -12.9826 239.048 -29.5364C234.367 -32.9214 229.501 -36.3991 224.404 -39.9232C182.372 -69.0431 125.79 -76.6476 80.1897 -59.2591C72.3116 -56.2451 65.036 -52.5356 57.3434 -48.5478C47.4727 -43.4936 37.2776 -38.2075 25.7849 -34.7762C2.05818 -27.6353 -22.1784 -24.3894 -45.6271 -21.2827C-81.0782 -16.553 -114.583 -12.1016 -145.446 4.91594C-188.312 28.7034 -222.095 71.224 -238.036 121.581C-245.914 146.389 -249.853 170.779 -249.853 195.03V194.984Z" fill="#1B1B1B"/>
<path opacity="0.9" d="M438.872 132.849C438.872 155.57 433.82 178.801 424.089 200.594C420.567 208.477 416.304 216.082 412.225 223.408C408.472 230.132 404.533 237.133 401.104 244.46C391.835 264.306 386.043 283.549 383.957 301.679C382.752 311.927 382.799 322.221 382.845 332.19V335.946C382.845 341.232 382.984 346.704 383.077 352.222C383.865 399.936 384.791 454.049 337.106 479.877C333.538 481.824 329.923 483.679 326.262 485.58C315.326 491.237 304.065 497.033 293.823 504.87C277.14 517.575 265.231 534.685 255.777 549.709C253.831 552.862 251.884 555.969 249.984 559.075C242.106 571.781 234.692 583.744 225.748 595.568C214.487 610.453 202.021 620.376 187.609 625.847C166.385 633.915 140.063 632.293 111.47 621.118C105.955 618.985 100.395 616.62 94.9726 614.394C81.2092 608.644 66.9824 602.709 52.1532 598.953C26.8508 592.554 2.42891 593.389 -21.2052 594.223C-52.671 595.336 -82.3757 596.356 -113.193 581.425C-145.029 566.031 -172.139 533.526 -187.617 492.304C-200.685 457.341 -204.995 421.127 -209.583 382.779L-210.092 378.467C-213.568 349.022 -219.824 305.435 -233.866 267.134C-251.197 219.93 -252.773 173.515 -238.685 125.198C-224.227 75.7219 -191.973 34.3141 -150.219 11.5931C-121.395 -3.98693 -90.5318 -7.74284 -57.8148 -11.6379C-34.0417 -14.5128 -9.43448 -17.434 14.385 -25.4095C25.5996 -29.1655 35.5167 -34.8689 45.1093 -40.3868C52.1532 -44.4673 59.4751 -48.6406 67.1214 -51.9791C111.841 -71.3151 169.999 -64.5452 211.845 -35.1471C216.665 -31.7621 221.299 -28.3772 225.748 -25.1313C249.15 -8.02105 267.64 5.51878 295.723 7.23444C300.682 7.55903 305.733 7.69814 310.645 7.88361C334.094 8.67189 358.377 9.46016 381.409 25.0866C415.33 48.0858 436.184 84.0683 438.64 123.76C438.825 126.821 438.918 129.928 438.918 132.988L438.872 132.849ZM380.528 326.394C380.528 318.187 380.667 309.794 381.64 301.401C383.772 283.039 389.611 263.518 398.972 243.44C402.447 236.021 406.34 229.019 410.14 222.249C414.218 214.969 418.435 207.411 421.911 199.621C432.801 175.23 437.76 148.939 436.23 123.714C433.867 84.7175 413.384 49.4305 380.018 26.8023C357.543 11.5931 333.63 10.8049 310.506 10.0166C305.594 9.83112 300.496 9.69201 295.538 9.36742C266.76 7.60539 247.111 -6.81546 224.311 -23.462C219.863 -26.7079 215.275 -30.0465 210.455 -33.4778C169.258 -62.4586 111.98 -69.1358 67.9556 -50.078C60.4019 -46.8322 53.1727 -42.6589 46.1751 -38.6248C36.4898 -33.0141 26.4337 -27.2643 15.0338 -23.462C-8.97102 -15.4402 -33.7173 -12.4262 -57.6295 -9.55125C-90.1147 -5.65623 -120.746 -1.94668 -149.2 13.4479C-190.444 35.8907 -222.234 76.7884 -236.553 125.708C-250.502 173.515 -248.973 219.467 -231.78 266.207C-217.646 304.693 -211.344 348.466 -207.868 378.05L-207.358 382.362C-202.771 420.57 -198.461 456.646 -185.485 491.33C-170.239 532.042 -143.546 564.083 -112.22 579.2C-81.9123 593.852 -52.4856 592.832 -21.2979 591.766C2.47527 590.931 27.0825 590.097 52.7093 596.542C67.7239 600.344 82.0433 606.279 95.8531 612.076C101.229 614.301 106.79 616.666 112.304 618.799C140.387 629.789 166.153 631.412 186.821 623.529C200.816 618.196 212.958 608.551 223.941 594.038C232.838 582.306 240.206 570.343 248.038 557.731C249.938 554.624 251.884 551.517 253.877 548.364C263.47 533.155 275.518 515.859 292.479 502.922C302.86 494.993 314.214 489.151 325.243 483.447C328.857 481.592 332.472 479.691 336.04 477.79C382.521 452.612 381.594 399.24 380.806 352.222C380.713 346.658 380.621 341.232 380.621 335.9V332.144C380.621 330.243 380.621 328.295 380.621 326.348L380.528 326.394Z" fill="#1B1B1B"/>
<path opacity="0.9" d="M424.55 128.026C424.55 151.628 418.711 175.694 407.543 197.998C403.743 205.556 399.248 212.789 394.892 219.791C390.768 226.422 386.504 233.331 382.75 240.565C372.88 259.622 366.902 278.263 364.955 295.93C363.797 306.363 364.121 316.842 364.446 326.997L364.538 329.316C364.724 335.112 365.002 341.093 365.326 347.214C367.597 393.444 370.192 445.888 322.877 469.629C319.495 471.345 316.065 472.968 312.636 474.591C301.653 479.83 290.3 485.255 280.197 492.906C263.514 505.519 252.207 523.325 244.236 537.421C241.826 541.687 239.509 545.906 237.239 550.08C230.844 561.811 224.773 572.847 217.312 583.837C206.931 599.092 195.114 609.247 181.212 614.765C160.729 622.926 135.102 620.932 107.159 608.922C102.246 606.789 97.3805 604.564 92.4683 602.338C78.7513 596.078 64.6172 589.633 49.6489 585.738C24.2075 579.153 -0.260696 580.915 -23.9875 582.631C-54.202 584.857 -82.7483 586.943 -112.731 573.033C-144.197 558.426 -170.472 526.478 -184.746 485.395C-196.053 452.704 -199.436 419.179 -203.004 383.66L-204.07 373.32C-206.989 344.525 -212.597 301.911 -227.889 264.677C-246.333 219.699 -249.392 175.462 -237.158 129.371C-224.414 81.3326 -194.06 41.5014 -153.929 20.0788C-127.282 5.93614 -98.8751 2.9685 -68.8459 -0.230976C-44.9337 -2.73492 -20.1875 -5.3316 3.53931 -14.1418C14.6149 -18.2223 24.3466 -24.4821 33.7538 -30.4638C40.4733 -34.7761 47.4709 -39.2275 54.8391 -42.8443C98.5854 -64.1742 156.095 -58.5172 197.941 -28.7481C202.483 -25.5022 206.746 -22.3028 210.917 -19.196C234.134 -1.90027 252.439 11.7323 281.17 12.0105C286.546 12.0569 292.014 11.9178 297.343 11.7787C320.514 11.1759 344.519 10.5267 367.458 25.133C402.029 47.1121 422.789 82.4918 424.411 122.138C424.504 124.085 424.55 126.079 424.55 128.026ZM361.851 312.669C361.851 307.012 362.036 301.308 362.685 295.651C364.677 277.707 370.748 258.834 380.712 239.498C384.512 232.172 388.775 225.263 392.946 218.586C397.255 211.63 401.75 204.443 405.458 196.931C417.414 173.144 423.16 147.316 422.094 122.23C420.472 83.3264 400.082 48.6423 366.207 27.0805C343.87 12.8915 320.236 13.4943 297.39 14.0971C292.06 14.2362 286.5 14.3753 281.124 14.329C251.651 14.0508 233.068 0.186352 209.527 -17.3412C205.402 -20.448 201.092 -23.6011 196.597 -26.847C155.446 -56.1523 98.9098 -61.7167 55.8587 -40.7114C48.6294 -37.1873 41.7246 -32.7358 35.0514 -28.4699C25.5515 -22.3955 15.7271 -16.0893 4.4198 -11.916C-19.585 -3.05951 -44.4703 -0.416462 -68.5215 2.13385C-98.319 5.28696 -126.495 8.25459 -152.77 22.1654C-192.346 43.2634 -222.282 82.5845 -234.841 130.02C-246.936 175.601 -243.923 219.374 -225.665 263.842C-210.28 301.355 -204.626 344.2 -201.707 373.134L-200.641 383.475C-197.072 418.855 -193.736 452.287 -182.521 484.699C-168.433 525.226 -142.621 556.664 -111.712 571.039C-82.2849 584.671 -54.0166 582.631 -24.1265 580.452C-0.260696 578.69 24.4393 576.881 50.2514 583.605C65.405 587.546 79.6781 594.038 93.4415 600.298C98.3073 602.523 103.173 604.749 108.085 606.836C135.427 618.567 160.405 620.607 180.332 612.678C193.817 607.299 205.263 597.469 215.366 582.585C222.734 571.688 228.805 560.698 235.153 549.013C237.47 544.794 239.787 540.574 242.151 536.308C250.214 522.026 261.661 503.989 278.714 491.098C289.002 483.308 300.495 477.836 311.57 472.55C314.999 470.927 318.429 469.258 321.812 467.589C367.782 444.543 365.234 392.888 362.963 347.4C362.638 341.279 362.36 335.251 362.175 329.455L362.082 327.136C361.943 322.406 361.804 317.63 361.804 312.808L361.851 312.669Z" fill="#1B1B1B"/>
<path opacity="0.9" d="M410.325 123.529C410.325 147.919 403.652 172.68 391.001 195.355C386.923 202.635 382.196 209.59 377.562 216.267C373.113 222.759 368.479 229.529 364.447 236.67C354.02 254.986 347.811 272.977 346.003 290.134C344.891 300.659 345.494 311.278 346.096 321.572V322.638C346.513 328.759 347.023 335.065 347.579 341.743C351.333 386.674 355.596 437.588 308.56 459.335C305.316 460.819 302.026 462.256 298.735 463.694C287.752 468.516 276.352 473.478 266.389 480.943C249.613 493.463 239.048 512.15 232.56 525.087C230.057 530.141 227.648 535.149 225.284 540.11C220.001 551.193 215.043 561.672 208.74 572.105C199.287 587.778 188.118 598.118 174.68 603.729C154.892 612.029 130.006 609.618 102.804 596.774C98.4016 594.687 93.9992 592.508 89.5504 590.328C76.0188 583.605 62.0237 576.649 47.0555 572.662C21.6604 565.892 -2.80783 568.628 -26.4883 571.317C-54.3394 574.47 -83.1173 577.716 -112.312 564.779C-143.5 550.961 -168.849 519.522 -181.963 478.578C-191.741 447.882 -194.198 416.675 -196.839 383.568C-197.256 378.467 -197.627 373.366 -198.09 368.266C-201.797 323.334 -209.397 289.67 -221.91 262.266C-241.512 219.467 -246.007 177.41 -235.673 133.591C-224.829 87.6852 -195.68 48.4104 -157.681 28.6571C-132.934 15.8592 -105.593 13.448 -79.132 11.1295C-55.3125 9.04292 -30.7053 6.86356 -7.30295 -2.64215C3.63361 -7.0936 13.1336 -13.8172 22.2628 -20.3089C28.7043 -24.8994 35.3774 -29.6291 42.4677 -33.4777C84.6846 -56.5233 142.889 -51.8863 183.901 -22.1636C188.304 -18.9641 192.428 -15.811 196.46 -12.797C219.306 4.49873 237.333 18.1777 266.528 16.9257C272.228 16.6938 278.113 16.1838 283.767 15.6737C306.752 13.6798 330.525 11.6396 353.418 25.2722C388.591 46.2311 409.259 80.9617 410.14 120.607C410.14 121.581 410.14 122.555 410.14 123.529H410.325ZM343.084 302.885C343.084 298.573 343.269 294.214 343.733 289.855C345.54 272.374 351.842 254.105 362.455 235.51C366.579 228.277 371.213 221.507 375.708 214.969C380.296 208.292 384.976 201.429 389.008 194.195C401.984 171.011 408.564 145.508 408.008 120.654C407.174 81.8427 386.876 47.7613 352.399 27.2197C330.108 13.958 306.752 15.9983 284.091 17.9458C278.391 18.4559 272.46 18.9659 266.76 19.1978C236.731 20.4498 218.426 6.58534 195.209 -10.9886C191.223 -14.0026 187.053 -17.1557 182.697 -20.3089C142.333 -49.4751 85.1944 -54.0657 43.7189 -31.4375C36.7677 -27.6352 30.1409 -22.9519 23.7458 -18.4077C14.4775 -11.8233 4.88483 -5.05334 -6.28343 -0.462788C-30.0102 9.22839 -54.8028 11.3614 -78.7613 13.4944C-106.195 15.9056 -132.146 18.1777 -156.429 30.7901C-193.827 50.2652 -222.558 88.9372 -233.217 134.24C-243.458 177.503 -239.01 219.142 -219.639 261.431C-206.988 289.067 -199.341 323.009 -195.588 368.219C-195.171 373.32 -194.754 378.421 -194.337 383.521C-191.741 416.443 -189.285 447.604 -179.6 478.022C-166.717 518.317 -141.785 549.245 -111.2 562.785C-82.5612 575.49 -55.3589 572.43 -26.5809 569.138C-2.71513 566.448 22.0311 563.62 47.8433 570.529C62.9969 574.563 77.131 581.565 90.7553 588.334C95.1578 590.514 99.5602 592.693 103.963 594.78C130.563 607.346 154.799 609.711 173.984 601.689C186.96 596.264 197.711 586.248 206.933 570.992C213.189 560.652 218.101 550.265 223.338 539.183C225.701 534.175 228.065 529.167 230.613 524.113C237.24 510.944 247.991 491.933 265.138 479.135C275.333 471.53 286.826 466.476 297.947 461.607C301.238 460.17 304.482 458.732 307.725 457.248C353.279 436.197 349.062 386.118 345.401 341.974C344.845 335.297 344.335 328.991 343.964 322.824V321.757C343.547 315.59 343.177 309.284 343.177 302.931L343.084 302.885Z" fill="#1B1B1B"/>
<path opacity="0.9" d="M396.097 119.355C396.097 144.441 388.59 169.805 374.41 192.712C370.053 199.76 365.002 206.437 360.183 212.882C355.41 219.235 350.451 225.773 346.095 232.775C335.112 250.349 328.671 267.691 327.049 284.337C325.983 295.002 326.91 305.667 327.836 315.961C328.393 322.314 329.18 328.898 330.014 335.9C335.251 379.673 341.229 429.241 294.378 448.995C291.227 450.339 288.029 451.591 284.832 452.843C273.849 457.202 262.541 461.7 252.717 468.933C240.066 478.254 229.964 492.211 220.973 512.752C218.517 518.363 216.246 524.067 214.022 529.538C209.898 539.739 205.681 550.312 200.305 560.374C191.732 576.417 181.259 586.99 168.33 592.647C149.191 601.04 125.093 598.257 98.5858 584.578C94.6005 582.538 90.6151 580.359 86.6298 578.226C73.2834 571.039 59.5201 563.573 44.6445 559.493C19.3885 552.537 -4.98706 556.34 -28.5285 560.003C-55.4064 564.176 -83.2112 568.488 -111.758 556.432C-142.204 543.542 -167.321 511.871 -179.045 471.716C-187.433 442.781 -189.055 413.522 -190.816 382.594C-191.187 376.148 -191.557 369.703 -191.974 363.211C-194.801 319.022 -202.401 286.192 -215.84 259.901C-236.601 219.235 -242.579 179.311 -234.052 137.857C-224.923 93.3422 -197.721 55.7367 -161.296 37.2354C-138.311 25.6431 -113.101 23.9274 -88.6795 22.2581C-65.1844 20.6816 -40.9016 19.0123 -18.0553 8.76467C-7.30414 3.94226 1.91782 -3.29134 10.8617 -10.2467C17.0251 -15.0691 23.4202 -20.077 30.2324 -24.2039C71.6152 -49.2897 129.078 -45.7656 170.044 -15.6719C174.308 -12.5188 178.339 -9.41209 182.186 -6.44445C204.661 10.8513 222.41 24.5302 252.022 21.7944C258 21.238 264.21 20.357 270.188 19.476C293.034 16.1374 316.622 12.7061 339.561 25.4576C375.383 45.35 396.005 79.5242 396.051 119.17V119.402L396.097 119.355ZM324.222 294.399C324.222 290.968 324.361 287.537 324.685 284.105C326.353 267.088 332.888 249.421 344.102 231.523C348.505 224.475 353.51 217.844 358.329 211.445C363.149 205.046 368.153 198.415 372.463 191.46C386.412 168.924 393.826 143.978 393.826 119.309V119.077C393.78 80.3125 373.622 46.8802 338.541 27.4051C316.297 15.0709 293.08 18.4095 270.651 21.7017C264.627 22.5827 258.417 23.4637 252.346 24.0202C221.854 26.8487 203.781 12.9379 180.888 -4.68242C176.995 -7.65005 173.01 -10.7568 168.747 -13.9099C128.522 -43.4935 72.0786 -46.9248 31.4836 -22.3491C24.7641 -18.2686 18.4617 -13.3071 12.2983 -8.53107C3.2617 -1.48294 -6.05289 5.84341 -17.0821 10.7585C-40.3455 21.1916 -64.8137 22.8609 -88.4941 24.4375C-113.797 26.1532 -137.662 27.7761 -160.231 39.1365C-196.052 57.3133 -222.791 94.316 -231.782 138.135C-240.169 179.079 -234.284 218.493 -213.755 258.649C-200.177 285.265 -192.484 318.372 -189.657 362.887C-189.24 369.379 -188.869 375.824 -188.499 382.269C-186.784 413.105 -185.162 442.225 -176.821 470.881C-165.328 510.388 -140.674 541.455 -110.877 554.114C-82.9332 565.938 -56.704 561.858 -28.9455 557.545C-5.12608 553.836 19.4812 550.033 45.2006 557.081C60.3079 561.255 74.2103 568.767 87.6493 576C91.6346 578.133 95.5736 580.266 99.559 582.353C125.417 595.707 148.866 598.443 167.31 590.375C179.776 584.903 189.878 574.702 198.173 559.122C203.503 549.199 207.534 539.137 211.798 528.518C214.022 523 216.293 517.297 218.795 511.686C227.971 490.727 238.305 476.538 251.281 466.94C261.337 459.52 272.783 454.976 283.905 450.571C287.102 449.319 290.3 448.067 293.405 446.723C338.634 427.618 332.795 378.977 327.651 336.039C326.817 329.037 326.029 322.407 325.427 316.054C324.778 308.913 324.175 301.633 324.175 294.307L324.222 294.399Z" fill="#1B1B1B"/>
<path opacity="0.9" d="M381.962 115.553C381.962 116.249 381.962 116.944 381.962 117.64C381.545 142.586 373.204 167.672 357.865 190.115C353.184 196.931 347.901 203.377 342.758 209.544C337.66 215.711 332.377 222.063 327.743 228.88C316.158 245.712 309.531 262.451 308.048 278.588C307.028 289.253 308.372 300.381 309.484 309.33C310.272 315.822 311.338 322.592 312.497 329.826C318.938 370.399 326.955 420.895 280.15 438.747C277.046 439.906 273.941 441.019 270.79 442.132C259.899 446.027 248.592 450.015 238.999 457.017C226.673 466.012 216.987 480.248 209.341 500.511C207.07 506.539 205.031 512.66 203.085 518.595C199.795 528.564 196.365 538.858 191.824 548.689C184.27 564.872 174.214 575.954 161.887 581.657C143.444 590.189 120.041 586.99 94.229 572.476C90.5681 570.436 86.9534 568.303 83.2924 566.17C70.2705 558.519 56.7852 550.59 42.095 546.417C17.0707 539.322 -7.11946 544.144 -30.4755 548.828C-56.473 554.021 -83.3973 559.4 -111.341 548.179C-141.509 536.03 -165.746 504.916 -176.219 464.946C-183.402 437.542 -184.236 408.793 -185.117 380.971C-185.348 373.413 -185.58 365.808 -185.951 358.204C-187.897 314.709 -195.497 282.714 -209.816 257.536C-232.107 218.447 -239.29 181.722 -232.524 142.123C-225.155 99.0457 -199.899 63.0168 -165.004 45.8138C-143.641 35.3343 -120.331 34.2678 -97.8094 33.2477C-74.8241 32.2276 -51.0511 31.1611 -28.8535 20.1716C-18.2414 14.9318 -9.2975 7.23454 -0.585327 -0.230919C5.30002 -5.28517 11.4171 -10.5249 17.9976 -14.93C57.8974 -41.5923 116.009 -39.1811 156.187 -9.18019C160.358 -6.07345 164.297 -2.96671 168.051 0.000923157C190.109 17.2967 207.534 30.9292 237.516 26.6633C243.726 25.7822 249.936 24.4839 256.516 23.1392C279.224 18.5023 302.719 13.6799 325.704 25.5968C361.062 43.8663 381.962 77.3913 381.962 115.553ZM305.36 286.563C305.36 283.827 305.453 281.092 305.731 278.356C307.26 261.802 314.026 244.738 325.843 227.581C330.57 220.672 335.899 214.273 340.997 208.106C346.094 201.939 351.377 195.54 355.965 188.817C366.484 173.422 379.135 148.614 379.645 117.64C379.645 116.944 379.645 116.249 379.645 115.6C379.645 78.3187 359.209 45.5819 324.638 27.7298C302.394 16.2302 279.316 20.9598 256.98 25.504C250.677 26.8024 244.143 28.1471 237.887 29.0281C206.931 33.4796 189.182 19.5688 166.661 1.90207C162.907 -1.06557 158.968 -4.12595 154.797 -7.23269C115.407 -36.6772 58.4072 -39.0884 19.2951 -12.9361C12.8537 -8.5774 6.78296 -3.38402 0.943939 1.62386C-7.8609 9.18205 -16.9438 16.9721 -27.7877 22.3509C-50.4023 33.5259 -74.4071 34.5924 -97.6704 35.6589C-120.98 36.7254 -143.039 37.6992 -163.939 47.9931C-198.185 64.8716 -222.977 100.251 -230.207 142.586C-236.88 181.676 -229.79 217.844 -207.777 256.469C-193.273 281.973 -185.58 314.292 -183.587 358.157C-183.217 365.762 -182.985 373.366 -182.753 380.925C-181.919 408.607 -181.038 437.263 -173.948 464.389C-163.66 503.664 -139.934 534.175 -110.461 546.046C-83.1656 557.035 -57.7705 551.981 -30.9389 546.602C-7.30481 541.872 17.1171 537.004 42.6974 544.237C57.6657 548.457 71.2901 556.479 84.451 564.222C88.0656 566.355 91.6802 568.488 95.3412 570.529C112.858 580.405 138.439 589.957 160.868 579.617C172.685 574.145 182.37 563.434 189.646 547.761C194.187 538.07 197.57 527.823 200.814 517.899C202.76 511.964 204.799 505.797 207.117 499.723C214.902 479.042 224.865 464.436 237.609 455.208C247.48 448.021 258.926 443.94 269.955 439.999C273.06 438.886 276.165 437.773 279.224 436.614C324.221 419.411 316.714 372.022 310.087 330.197C308.928 322.963 307.863 316.147 307.075 309.655C306.241 302.885 305.267 294.817 305.267 286.609L305.36 286.563Z" fill="#1B1B1B"/>
<path opacity="0.9" d="M367.875 112.075C367.875 113.42 367.875 114.765 367.782 116.156C366.577 147.455 352.721 172.216 341.275 187.472C336.316 194.056 330.709 200.223 325.333 206.205C319.911 212.187 314.35 218.4 309.346 224.985C297.204 241.075 290.346 257.165 289.002 272.791C288.168 282.668 289.465 292.545 291.041 302.653C292.06 309.145 293.404 316.1 294.887 323.427C302.765 363.119 312.589 412.502 265.831 428.453C262.773 429.473 259.714 430.447 256.609 431.421C245.812 434.806 234.597 438.33 225.236 445.053C213.095 453.817 204.058 467.913 197.663 488.177C195.67 494.529 194.002 500.975 192.334 507.234C189.785 517.065 187.143 527.266 183.251 536.957C176.624 553.511 167.263 564.825 155.4 570.621C137.883 579.153 114.619 575.49 89.873 560.327C86.5364 558.287 83.2462 556.154 79.9097 554.068C67.2121 545.953 54.0511 537.56 39.5463 533.294C14.8 526.06 -9.11206 531.949 -32.19 537.606C-57.3997 543.82 -83.4436 550.219 -110.878 539.832C-140.814 528.379 -164.17 497.822 -173.392 458.083C-179.416 432.07 -179.509 404.897 -179.602 378.652C-179.602 370.306 -179.648 361.635 -179.88 353.149C-180.946 310.258 -188.546 279.144 -203.792 255.171C-227.333 218.122 -235.999 183.531 -230.948 146.389C-225.433 105.352 -201.568 70.1113 -168.665 54.4384C-148.785 44.9791 -127.282 44.5618 -106.475 44.1908C-84.1387 43.7735 -61.0144 43.3098 -39.651 31.7175C-29.3169 26.1068 -20.6047 17.9458 -12.2169 10.063C-6.51695 4.73056 -0.677933 -0.787384 5.71718 -5.51705C44.0878 -33.8023 102.802 -32.5503 142.239 -2.54942C146.317 0.557323 150.163 3.6177 153.87 6.58533C176.392 24.5303 192.658 37.5136 222.965 31.6247C229.407 30.3728 235.848 28.7035 242.66 26.8951C265.275 20.9134 288.677 14.7927 311.755 25.8286C347.114 42.7997 367.828 74.8409 367.828 112.122L367.875 112.075ZM286.453 279.237C286.453 277.011 286.546 274.832 286.731 272.606C288.121 256.562 295.119 240.055 307.538 223.594C312.589 216.87 318.243 210.657 323.665 204.629C329.041 198.693 334.555 192.573 339.467 186.081C350.682 171.104 364.306 146.76 365.511 116.063C367.041 78.1331 346.604 45.0255 310.829 27.8688C288.538 17.2039 265.553 23.2319 243.309 29.0744C236.775 30.7901 230.009 32.5985 223.475 33.8505C192.102 39.9248 174.631 26.0141 152.527 8.34735C148.819 5.42609 145.019 2.36572 140.941 -0.74102C102.293 -30.1391 44.7829 -31.4375 7.20009 -3.70865C0.944016 0.928278 -4.89499 6.39985 -10.5023 11.686C-19.0291 19.6615 -27.7876 27.9616 -38.3998 33.7114C-60.2265 45.5819 -83.6289 46.0456 -106.29 46.4629C-126.865 46.8802 -148.136 47.2512 -167.553 56.525C-199.76 71.8733 -223.116 106.418 -228.538 146.713C-233.497 183.345 -224.97 217.38 -201.707 253.919C-186.229 278.263 -178.536 309.748 -177.424 353.103C-177.192 361.635 -177.192 370.306 -177.146 378.652C-177.053 404.805 -176.96 431.792 -170.982 457.573C-161.946 496.57 -139.1 526.478 -109.904 537.699C-83.1655 547.808 -57.4461 541.501 -32.6071 535.381C-9.20474 529.631 14.9854 523.696 40.3342 531.068C55.1634 535.381 68.4633 543.866 81.2999 552.12C84.5901 554.253 87.9267 556.34 91.2169 558.38C115.268 573.125 137.744 576.742 154.519 568.581C165.873 563.063 174.863 552.166 181.258 536.169C185.104 526.57 187.746 516.462 190.248 506.724C191.87 500.418 193.585 493.927 195.578 487.574C202.158 466.801 211.426 452.333 224.031 443.245C233.67 436.29 245.07 432.719 256.053 429.288C259.112 428.314 262.216 427.34 265.229 426.32C310.087 411.018 300.865 364.742 292.755 323.937C291.272 316.564 289.929 309.655 288.909 303.071C287.658 295.049 286.592 287.212 286.592 279.283L286.453 279.237Z" fill="#1B1B1B"/>
<path opacity="0.9" d="M353.788 108.691C353.788 110.638 353.742 112.632 353.603 114.626C352.166 138.97 341.924 163.916 324.732 184.829C319.403 191.274 313.517 197.256 307.817 203.052C302.164 208.802 296.278 214.737 291.042 221.09C278.344 236.438 271.3 251.879 270.095 266.995C269.308 276.826 270.976 286.702 272.737 295.976C273.988 302.421 275.656 309.423 277.417 316.796C286.778 355.7 298.456 404.063 251.605 418.159C248.593 419.087 245.534 419.921 242.476 420.71C231.771 423.631 220.696 426.598 211.566 433.09C199.749 441.483 191.176 455.857 186.079 475.889C184.41 482.427 183.113 489.151 181.862 495.689C180.008 505.473 178.061 515.581 174.771 525.272C169.071 542.197 160.359 553.743 148.959 559.586C132.137 568.303 109.615 564.222 85.5642 548.179C82.4593 546.138 79.4008 544.005 76.3423 541.826C64.0155 533.294 51.318 524.438 37.0448 520.172C12.6693 512.845 -10.9185 519.801 -33.6721 526.478C-58.1403 533.711 -83.4427 541.177 -110.413 531.532C-145.355 518.966 -164.401 481.824 -170.518 451.267C-175.523 426.459 -174.874 400.724 -174.225 375.824C-173.994 366.736 -173.808 357.323 -173.808 348.049C-173.901 321.433 -176.496 282.575 -197.72 252.76C-222.884 217.334 -232.662 185.849 -229.372 150.608C-225.525 110.916 -203.652 77.345 -172.279 62.9705C-153.789 54.4849 -133.908 54.6704 -114.723 54.8559C-93.128 55.0414 -70.7915 55.2732 -50.4013 43.0781C-40.3452 37.0501 -31.9574 28.4717 -23.8477 20.1253C-18.3794 14.5146 -12.6794 8.67206 -6.51602 3.66418C30.9741 -26.7077 88.9471 -26.615 128.384 3.84966C132.415 6.9564 136.169 10.0168 139.83 12.9844C161.935 30.8829 177.876 43.8664 208.508 36.4009C215.135 34.778 221.761 32.645 228.805 30.3729C251.374 23.0929 274.73 15.5811 297.9 25.8751C333.259 41.5479 353.834 72.198 353.834 108.644L353.788 108.691ZM267.5 272.142C267.5 270.38 267.547 268.572 267.732 266.81C268.983 251.23 276.212 235.325 289.234 219.606C294.564 213.161 300.449 207.179 306.149 201.429C311.849 195.679 317.688 189.744 322.925 183.391C339.793 162.85 349.895 138.413 351.285 114.533C353.603 76.5567 333.259 44.1909 296.881 28.0544C274.498 18.1778 251.605 25.5505 229.454 32.645C222.364 34.9171 215.691 37.0501 209.018 38.7194C177.274 46.463 160.081 32.5059 138.347 14.8855C134.732 11.9643 130.979 8.90391 126.947 5.79716C88.3447 -24.0647 31.6229 -24.1574 -5.07945 5.56532C-11.1502 10.4805 -16.7575 16.2766 -22.2257 21.8409C-30.4281 30.2801 -38.9086 38.9976 -49.2427 45.1647C-70.2354 57.6844 -92.8963 57.4526 -114.816 57.2671C-133.769 57.0816 -153.372 56.8961 -171.399 65.1498C-201.984 79.1997 -223.347 112.076 -227.147 150.933C-230.391 185.571 -220.752 216.592 -195.913 251.508C-174.318 281.88 -171.677 321.201 -171.584 348.142C-171.584 357.415 -171.769 366.828 -172.001 375.963C-172.603 400.724 -173.252 426.32 -168.34 450.85C-162.316 480.804 -143.733 517.158 -109.718 529.399C-83.489 538.766 -58.5573 531.439 -34.4135 524.298C-11.2892 517.482 12.5766 510.434 37.6473 517.992C52.2448 522.397 65.1277 531.347 77.5935 539.971C80.652 542.104 83.7105 544.237 86.7691 546.277C110.079 561.858 131.767 565.845 147.801 557.545C158.644 551.981 166.94 540.852 172.454 524.53C175.652 515.025 177.598 504.962 179.452 495.271C180.703 488.733 182.001 481.963 183.669 475.333C188.905 454.791 197.803 439.953 210.083 431.235C219.537 424.512 230.798 421.451 241.735 418.484C244.793 417.649 247.805 416.814 250.817 415.933C295.583 402.486 284.647 357.23 275.008 317.352C273.2 309.933 271.532 302.978 270.281 296.44C268.798 288.696 267.361 280.489 267.361 272.189L267.5 272.142Z" fill="#1B1B1B"/>
<path opacity="0.9" d="M339.747 105.769C339.747 108.18 339.654 110.638 339.469 113.142C337.523 137.439 326.401 161.969 308.189 182.186C302.535 188.492 296.233 194.288 290.208 199.945C284.323 205.417 278.206 211.12 272.691 217.195C259.438 231.801 252.162 246.639 251.096 261.246C250.355 270.937 252.394 280.813 254.386 289.299C255.869 295.652 257.816 302.607 259.947 309.933C267.733 337.245 276.584 368.219 264.86 388.807C259.577 398.081 250.355 404.48 237.426 407.819C234.413 408.607 231.355 409.303 228.296 409.998C217.73 412.409 206.748 414.913 197.943 421.127C186.311 429.241 178.433 443.523 174.54 463.555C173.243 470.278 172.362 477.187 171.528 483.865C170.323 493.648 169.072 503.803 166.384 513.494C161.611 530.744 153.594 542.522 142.657 548.503C126.438 557.36 104.704 552.908 81.3942 535.984C78.5211 533.897 75.6942 531.764 72.821 529.585C60.9113 520.589 48.6309 511.315 34.6358 507.003C10.6774 499.584 -11.4738 507.235 -34.8762 515.349C-58.6956 523.603 -83.3029 532.089 -109.81 523.186C-144.473 511.501 -162.361 474.823 -167.551 444.404C-171.583 420.663 -170.239 396.227 -168.942 372.532C-168.386 362.841 -167.829 352.825 -167.69 342.995C-167.227 316.657 -169.22 278.449 -191.603 250.395C-210.695 226.469 -229.927 196.375 -227.749 154.874C-225.803 117.222 -205.459 84.5321 -175.893 71.5487C-158.654 63.9905 -140.349 64.7788 -122.693 65.5207C-101.978 66.4017 -80.5224 67.3291 -61.1517 54.5312C-51.42 48.1322 -43.3566 39.0902 -35.525 30.3728C-30.2421 24.4375 -24.7274 18.3168 -18.7494 12.9843C17.2115 -18.9641 75.7406 -20.077 114.482 10.434C118.421 13.5407 122.175 16.6011 125.743 19.5688C147.431 37.4673 163.094 50.4043 193.957 41.3159C200.77 39.3221 207.582 36.7254 214.811 33.9896C237.333 25.4113 260.643 16.6011 283.952 26.0604C318.894 40.2958 339.794 70.3895 339.794 105.723L339.747 105.769ZM248.594 265.28C248.594 263.889 248.64 262.451 248.733 261.014C249.845 245.897 257.306 230.595 270.93 215.572C276.491 209.405 282.655 203.701 288.586 198.183C294.611 192.573 300.82 186.776 306.428 180.563C324.315 160.717 335.206 136.698 337.106 112.864C340.118 75.3974 319.403 42.9852 283.025 28.1471C260.55 19.0123 237.704 27.6834 215.599 36.0762C208.323 38.8584 201.465 41.4551 194.56 43.4489C162.492 52.8619 146.411 39.6003 124.214 21.2381C120.645 18.3168 116.938 15.2564 112.999 12.1497C75.0918 -17.6658 17.8603 -16.5993 -17.2665 14.6536C-23.1518 19.8933 -28.6201 25.9677 -33.8567 31.8566C-41.781 40.6668 -49.9371 49.8015 -59.9469 56.386C-79.9663 69.5548 -101.793 68.6275 -122.878 67.7465C-140.303 67.0045 -158.33 66.2163 -175.059 73.589C-203.79 86.2014 -223.578 118.15 -225.524 154.921C-227.656 195.818 -208.703 225.263 -189.888 248.865C-166.995 277.568 -165.003 316.286 -165.466 342.995C-165.651 352.871 -166.208 362.887 -166.717 372.625C-168.015 396.134 -169.359 420.478 -165.373 443.941C-160.322 473.71 -142.898 509.599 -109.208 520.914C-83.4419 529.585 -59.2054 521.192 -35.803 513.077C-13.0494 505.194 10.492 497.033 35.1919 504.731C49.5577 509.182 62.0236 518.595 74.0723 527.683C76.8991 529.816 79.7259 531.949 82.5991 534.036C105.121 550.404 126.021 554.763 141.406 546.37C151.787 540.713 159.387 529.399 164.021 512.799C166.662 503.247 167.914 493.231 169.118 483.494C169.953 476.77 170.833 469.768 172.131 462.998C176.162 442.364 184.365 427.618 196.506 419.133C205.728 412.688 216.896 410.137 227.694 407.68C230.752 406.984 233.765 406.289 236.777 405.5C249.243 402.254 257.723 396.412 262.774 387.555C274.035 367.849 265.323 337.338 257.677 310.49C255.591 303.117 253.599 296.162 252.116 289.716C250.401 282.297 248.64 273.812 248.64 265.187L248.594 265.28Z" fill="#1B1B1B"/>
</g>
</g>
</svg>
