<svg width="40" height="40" viewBox="0 0 40 40" fill="none" xmlns="http://www.w3.org/2000/svg">
<g clip-path="url(#clip0_291_2075)">
<path d="M38.5625 12.7344C36.6188 11.2016 35.0078 9.97109 25.7266 3.23438C24.4297 2.28203 21.8516 0 20.0312 0H19.9688C18.1484 0 15.5703 2.28203 14.2656 3.23281C4.99063 9.96875 3.37891 11.2031 1.43594 12.7344C0.527344 13.4375 0 14.5312 0 15.6875V35C0 37.7578 2.23828 40 5 40H35C37.7617 40 40 37.7602 40 34.9992V15.6875C40 14.5312 39.4766 13.4375 38.5625 12.7344ZM36.25 35C36.25 35.6892 35.6892 36.25 35 36.25H5C4.31078 36.25 3.75 35.6892 3.75 35V21.6172L14.3828 30.4766C15.9609 31.7812 17.9531 32.5 20 32.5C22.0469 32.5 24.043 31.7804 25.6227 30.468L36.25 21.6172V35ZM36.25 16.7344L23.2188 27.5234C21.407 29.0297 18.5828 29.0289 16.7758 27.5247L3.75 16.7344L3.75824 15.6812C5.57387 14.2492 7.05902 13.1055 16.4848 6.25938C16.7256 6.08328 17.0062 5.86664 17.3153 5.62703C17.9219 5.15547 19.2734 4.10859 20 3.79844C20.7275 4.10883 22.0797 5.15547 22.6883 5.62734C22.9976 5.86687 23.2784 6.08359 23.5289 6.26688C32.9375 13.1016 34.4297 14.25 36.25 15.6875V16.7344Z" fill="url(#paint0_linear_291_2075)"/>
</g>
<defs>
<linearGradient id="paint0_linear_291_2075" x1="-2.68908" y1="-16.8" x2="36.6925" y2="-10.918" gradientUnits="userSpaceOnUse">
<stop stop-color="#FCB808"/>
<stop offset="1" stop-color="#F9075E"/>
</linearGradient>
<clipPath id="clip0_291_2075">
<rect width="40" height="40" fill="white"/>
</clipPath>
</defs>
</svg>
