<svg width="40" height="40" viewBox="0 0 40 40" fill="none" xmlns="http://www.w3.org/2000/svg">
<path d="M20 0C8.82031 0 0.358047 9.30469 0.001625 20L0 24.1562C0 27.3828 2.55859 30 5.71406 30H7.14297C8.71875 30 10 28.6953 10 27.0781V16.6719C10 15.0547 8.71875 13.75 7.14297 13.75H5.71406C5.45805 13.75 5.21844 13.8058 4.97203 13.8397C7.40625 7.92969 13.2266 3.76562 20 3.76484C26.7766 3.76576 32.5938 7.93359 35.0312 13.7727C34.7812 13.8047 34.5391 13.75 34.2891 13.75H32.8602C31.2812 13.75 30 15.0547 30 16.6719V27.0781C30 28.6953 31.2812 30 32.8594 30H34.2883C34.9816 30 35.6375 29.8546 36.2523 29.6234V31.25C36.2523 32.9734 34.8508 34.375 33.1273 34.375H24.4789C23.8281 33.2578 22.6328 32.5 21.25 32.5H18.75C16.6797 32.5 15 34.1797 15 36.25C15 38.3203 16.6797 40 18.6797 40H21.25C22.6344 40 23.8305 39.2413 24.4797 38.125H33.125C36.9164 38.125 40 35.0414 40 31.25V20C39.6406 9.30469 31.1797 0 20 0ZM5.71406 17.5H6.25V26.25H5.71406C4.63125 26.25 3.75 25.2422 3.75 24.1562V20C3.75 19.8117 3.77182 19.6289 3.77823 19.4421C3.85391 18.3594 4.68047 17.5 5.71406 17.5ZM34.2891 26.25H33.75V17.5H34.2857C35.3193 17.5 36.1459 18.3625 36.2216 19.4422C36.2266 19.6328 36.25 19.8125 36.25 20V24.1594C36.25 25.2422 35.3672 26.25 34.2891 26.25Z" fill="url(#paint0_linear_283_4329)"/>
<defs>
<linearGradient id="paint0_linear_283_4329" x1="-2.68908" y1="-16.8" x2="36.6925" y2="-10.918" gradientUnits="userSpaceOnUse">
<stop stop-color="#FCB808"/>
<stop offset="1" stop-color="#F9075E"/>
</linearGradient>
</defs>
</svg>
