<svg width="920" height="440" viewBox="0 0 920 440" fill="none" xmlns="http://www.w3.org/2000/svg">
<mask id="mask0_573_3867" style="mask-type:alpha" maskUnits="userSpaceOnUse" x="0" y="0" width="920" height="440">
<rect width="920" height="440" rx="10" fill="#161616"/>
</mask>
<g mask="url(#mask0_573_3867)">
<g opacity="0.9">
<path opacity="0.9" d="M-383 392.97C-383 28.4955 -86.4997 -268 278 -268C642.499 -268 939 28.4954 939 392.97C939 757.444 642.499 1053.94 278 1053.94C-86.4996 1053.94 -383 757.444 -383 392.97ZM935.937 392.97C935.937 30.2117 640.784 -264.935 278 -264.935C-84.7845 -264.935 -379.937 30.2118 -379.937 392.97C-379.937 755.728 -84.7844 1050.87 278 1050.87C640.784 1050.87 935.937 755.727 935.937 392.97Z" fill="#1B1B1B"/>
<path opacity="0.9" d="M-358.985 415.221C-358.985 409.581 -358.985 403.942 -358.801 398.119C-358.005 361.34 -354.513 324.255 -348.326 287.783C-344.772 266.697 -340.362 245.978 -335.216 226.302C-309.18 127.061 -261.887 37.9351 -198.36 -31.331C-178.205 -53.2754 -155.723 -74.7908 -131.586 -95.2641C-102.61 -119.783 -72.6537 -141.666 -42.5748 -160.301C-11.6995 -179.425 21.1973 -196.16 55.1356 -210.013C84.0505 -221.843 113.701 -231.222 143.351 -237.964C188.438 -248.262 235.67 -252.982 283.759 -252.063C319.903 -251.45 357.456 -247.711 395.315 -240.968C499.212 -222.518 591.226 -184.758 668.904 -128.794C723.732 -89.1958 771.699 -40.2805 811.457 16.6648C850.235 72.1389 880.13 133.865 900.407 200.005C919.765 263.326 930.118 329.343 931.098 396.096C932.752 503.918 906.411 611.188 854.952 706.444C804.228 800.168 730.287 879.916 641.03 937.168C540.502 1001.71 419.88 1036.84 292.214 1038.86C256.56 1039.41 224.705 1037.94 194.932 1034.32C117.376 1024.82 40.6783 999.507 -26.7695 961.135C-68.304 937.474 -108.307 909.032 -149.107 874.215C-188.803 840.318 -222.129 804.152 -250.922 763.574C-286.208 713.923 -313.162 659.736 -331.111 602.423C-343.486 563.009 -351.879 521.694 -355.983 479.705C-358.005 459.048 -358.985 437.839 -358.985 415.282L-358.985 415.221ZM928.097 405.597C928.097 402.471 928.097 399.283 928.035 396.157C926.994 329.649 916.763 264 897.466 200.925C877.312 135.03 847.539 73.6714 808.945 18.4425C769.371 -38.1963 721.649 -86.8664 667.066 -126.281C589.755 -182 498.171 -219.514 394.763 -237.903C357.027 -244.585 319.658 -248.324 283.637 -248.937C235.854 -249.856 188.806 -245.136 143.963 -234.9C114.497 -228.218 85.0307 -218.84 56.2382 -207.132C22.4837 -193.34 -10.2293 -176.667 -40.982 -157.604C-70.9384 -139.03 -100.711 -117.27 -129.626 -92.8736C-153.701 -72.5227 -176.061 -51.13 -196.155 -29.2468C-259.314 39.7127 -306.423 128.349 -332.275 227.099C-337.36 246.653 -341.771 267.249 -345.324 288.274C-351.45 324.562 -354.942 361.524 -355.738 398.119C-356.351 426.99 -355.432 453.531 -352.92 479.276C-348.816 521.081 -340.484 562.15 -328.171 601.381C-310.344 658.326 -283.512 712.268 -248.41 761.673C-219.74 802.007 -186.598 837.989 -147.085 871.763C-106.469 906.458 -66.5888 934.777 -25.238 958.377C41.9034 996.565 118.173 1021.76 195.299 1031.2C224.95 1034.81 256.682 1036.29 292.214 1035.73C419.268 1033.77 539.338 998.833 639.438 934.593C728.204 877.648 801.839 798.206 852.318 704.973C901.939 613.027 928.097 509.68 928.097 405.597Z" fill="#1B1B1B"/>
<path opacity="0.9" d="M-335.46 441.701C-335.46 429.687 -335.154 416.998 -334.541 403.329C-333.01 367.776 -329.15 331.488 -323.208 295.445C-319.594 273.807 -315.612 254.07 -310.956 235.129C-285.288 132.088 -241.119 47.0685 -179.614 -17.6615C-160.133 -38.1349 -138.508 -58.3629 -113.514 -79.388C-83.3735 -104.704 -55.1325 -125.851 -27.259 -143.995C2.14601 -163.12 33.6338 -180.1 66.2857 -194.504C94.4655 -206.948 123.258 -216.633 151.744 -223.314C195.055 -233.551 241.307 -237.78 289.274 -236.003C324.07 -234.716 359.784 -230.609 398.501 -223.621C506.932 -203.883 595.147 -169.25 668.17 -117.822C721.895 -79.8171 768.759 -31.5148 807.598 25.6144C844.293 79.74 872.841 140.608 892.321 206.626C910.7 268.904 921.053 333.695 923.074 399.222C926.382 504.653 902.736 606.162 852.809 700.805C804.168 792.751 732.554 870.537 645.871 925.766C550.305 986.573 436.115 1019.49 306.427 1023.6C278.308 1024.46 244.983 1024.95 211.106 1021.88C133.979 1014.71 58.077 990.68 -8.39063 952.308C-56.4188 924.479 -98.5661 892.421 -129.931 867.595C-170.792 835.23 -204.363 801.088 -232.543 763.144C-268.686 714.536 -295.58 661.023 -312.365 604.2C-323.882 565.522 -331.172 524.698 -334.112 482.954C-335.031 469.775 -335.46 456.167 -335.46 441.517L-335.46 441.701ZM920.379 418.653C920.379 412.278 920.256 405.842 920.072 399.406C918.051 334.124 907.698 269.578 889.442 207.545C870.023 141.895 841.659 81.2723 805.148 27.392C766.554 -29.4919 719.935 -77.4878 666.515 -115.308C593.861 -166.492 506.074 -200.941 398.072 -220.617C359.478 -227.605 323.947 -231.651 289.274 -232.999C241.552 -234.777 195.545 -230.547 152.54 -220.433C124.177 -213.813 95.6294 -204.189 67.5722 -191.807C35.0429 -177.464 3.73879 -160.546 -25.5437 -141.543C-53.2947 -123.461 -81.4132 -102.436 -111.492 -77.1812C-136.425 -56.2176 -157.927 -36.112 -177.347 -15.7C-238.485 48.6623 -282.47 133.253 -307.954 235.742C-312.61 254.622 -316.592 274.237 -320.145 295.813C-326.087 331.672 -329.885 367.838 -331.478 403.329C-332.826 433.671 -332.642 458.926 -331.049 482.832C-328.17 524.33 -320.88 564.909 -309.424 603.403C-292.7 659.92 -265.991 713.064 -230.092 761.367C-202.035 799.065 -168.648 833.023 -128.032 865.205C-96.7894 889.969 -54.7648 921.966 -6.85914 949.672C59.2409 987.799 134.714 1011.77 211.412 1018.88C245.105 1021.94 278.308 1021.45 306.365 1020.59C435.503 1016.49 549.141 983.754 644.278 923.192C730.533 868.208 801.779 790.851 850.174 699.334C896.793 610.943 920.379 516.545 920.379 418.53L920.379 418.653Z" fill="#1B1B1B"/>
<path opacity="0.9" d="M-312.61 467.078C-312.61 446.115 -311.507 426.009 -310.343 408.478C-308.076 374.335 -303.972 338.844 -298.091 303.108C-294.354 280.06 -290.678 261.242 -286.635 243.956C-262.254 139.383 -219.923 55.9568 -160.745 -4.05331C-142.244 -22.7491 -121.477 -41.6899 -95.3189 -63.573C-63.2796 -90.36 -36.7539 -110.772 -11.821 -127.813C16.5426 -147.244 45.7639 -163.978 77.5581 -179.119C104.941 -192.114 132.815 -202.105 160.321 -208.725C202.039 -218.901 247.372 -222.701 295.033 -219.943C327.807 -218.042 361.745 -213.69 401.871 -206.212C516.918 -184.758 598.884 -154.109 667.619 -106.727C719.506 -70.745 766.615 -21.8296 803.862 34.7478C838.535 87.4636 865.612 147.596 884.358 213.43C901.695 274.604 912.109 338.231 915.172 402.532C920.073 504.224 898.448 602.668 850.849 695.35C804.229 785.518 735.066 861.282 650.833 914.549C561.944 970.697 450.879 1002.33 320.762 1008.64C290.254 1010.11 258.767 1011.64 227.401 1009.74C150.764 1004.96 75.6591 982.16 10.0491 943.788C-30.8728 919.759 -67.9354 892.543 -103.834 866.308L-110.695 861.282C-153.394 830.081 -186.229 798.881 -214.103 763.083C-251.104 715.578 -277.875 662.801 -293.619 606.346C-304.339 568.342 -310.588 528.069 -312.242 486.632C-312.487 480.073 -312.61 473.576 -312.61 467.14L-312.61 467.078ZM912.783 430.545C912.783 421.289 912.538 411.972 912.109 402.593C909.046 338.476 898.693 275.095 881.356 214.165C862.733 148.638 835.778 88.8121 801.289 36.3416C764.226 -19.9293 717.423 -68.5382 665.842 -104.275C597.537 -151.351 515.938 -181.877 401.319 -203.27C361.316 -210.687 327.501 -215.039 294.849 -216.939C247.495 -219.697 202.468 -215.897 161.056 -205.783C133.734 -199.163 106.044 -189.294 78.8445 -176.36C47.1729 -161.281 18.0742 -144.608 -10.1669 -125.299C-34.9774 -108.32 -61.4419 -87.9694 -93.4198 -61.2437C-119.517 -39.4218 -140.223 -20.6035 -158.662 -1.96914C-217.472 57.6119 -259.558 140.547 -283.756 244.569C-287.799 261.793 -291.414 280.55 -295.15 303.537C-300.97 339.212 -305.075 374.581 -307.341 408.662C-308.873 431.526 -310.282 458.681 -309.302 486.51C-307.648 527.701 -301.46 567.728 -290.801 605.488C-275.179 661.575 -248.592 713.984 -211.836 761.183C-184.146 796.736 -151.433 827.752 -108.98 858.83L-102.119 863.856C-66.2813 890.091 -29.2188 917.246 11.5195 941.213C76.7006 979.34 151.377 1002.02 227.524 1006.74C258.705 1008.64 290.132 1007.11 320.578 1005.64C450.144 999.385 560.719 967.878 649.179 912.036C732.984 859.075 801.779 783.679 848.153 694.001C891.158 610.33 912.844 521.878 912.844 430.668L912.783 430.545Z" fill="#1B1B1B"/>
<path opacity="0.9" d="M-290.434 487.122C-290.434 463.094 -288.474 439.556 -286.085 413.627C-283.144 381.323 -278.734 346.69 -272.975 310.709C-270.035 292.258 -266.665 272.459 -262.377 252.66C-238.976 145.206 -199.585 65.6417 -141.939 9.49326C-120.559 -11.3478 -98.1992 -30.35 -77.1869 -47.8199C-50.1711 -70.316 -23.6452 -92.0765 3.55441 -111.63C30.5703 -131.062 58.4437 -148.102 88.8289 -163.733C115.355 -177.341 142.309 -187.578 168.896 -194.198C209.206 -204.373 253.619 -207.683 300.729 -203.944C339.445 -200.879 376.876 -194.321 405.239 -188.926C564.21 -158.584 623.755 -124.993 667.066 -95.8158C717.974 -61.244 764.041 -13.0029 800.124 43.6972C832.776 94.9417 858.444 154.278 876.393 219.988C892.688 279.876 903.103 342.338 907.268 405.658C913.701 503.55 894.097 599.113 848.826 689.71C804.29 778.04 737.516 851.842 655.733 903.148C572.603 955.189 467.725 984.734 335.035 993.5C329.521 993.868 324.069 994.236 318.617 994.603C292.826 996.381 268.445 998.097 243.634 997.423C168.774 995.155 92.3208 973.027 28.4874 935.084C-0.85633 917.553 -27.9946 898.673 -54.2753 880.406C-66.4662 871.947 -79.0246 863.182 -91.4605 854.845C-135.997 824.932 -168.158 796.552 -195.726 762.838C-233.095 717.11 -260.478 663.659 -274.874 608.307C-284.86 570.548 -290.067 530.766 -290.373 490.065C-290.373 489.084 -290.373 488.103 -290.373 487.122L-290.434 487.122ZM905.369 441.946C905.369 429.932 905.002 417.918 904.144 405.842C899.978 342.767 889.625 280.489 873.33 220.785C855.442 155.381 829.896 96.2902 797.428 45.2908C761.53 -11.1028 715.768 -58.9759 665.228 -93.3025C583.139 -148.531 487.634 -170.108 404.565 -185.923C376.324 -191.317 338.955 -197.876 300.423 -200.879C253.558 -204.557 209.573 -201.308 169.57 -191.194C143.167 -184.636 116.457 -174.46 90.1153 -160.975C59.8527 -145.466 32.1018 -128.487 5.26968 -109.117C-21.8074 -89.6247 -48.272 -67.8641 -75.2878 -45.4292C-96.2389 -28.0208 -118.538 -9.07981 -139.856 11.7C-197.073 67.4193 -236.158 146.493 -259.437 253.334C-263.725 273.011 -267.033 292.748 -269.973 311.199C-275.732 347.119 -280.143 381.63 -283.022 413.933C-285.472 440.843 -287.494 465.178 -287.31 490.065C-287.065 530.46 -281.858 569.996 -271.934 607.51C-257.599 662.494 -230.399 715.516 -193.337 760.938C-166.014 794.406 -134.036 822.542 -89.7451 852.332C-77.3093 860.669 -64.6897 869.434 -52.4989 877.954C-26.2794 896.221 0.797783 915.101 30.0803 932.509C93.4848 970.146 169.387 992.151 243.757 994.419C268.445 995.094 292.704 993.377 318.433 991.6C323.885 991.232 329.337 990.864 334.851 990.496C467.051 981.792 571.5 952.369 654.14 900.634C735.494 849.635 801.839 776.262 846.13 688.423C885.582 609.472 905.492 526.72 905.492 442.007L905.369 441.946Z" fill="#1B1B1B"/>
<path opacity="0.9" d="M-268.751 505.696C-268.751 501.65 -268.751 497.604 -268.567 493.559C-267.955 470.756 -265.382 448.444 -262.564 424.844L-261.829 418.776C-258.337 388.801 -253.865 356.927 -247.861 318.309L-247.678 317.145C-244.798 298.756 -241.796 279.692 -238.121 261.426C-208.9 116.825 -158.482 56.1406 -123.135 23.1013C-103.348 4.5895 -82.8256 -12.3899 -61.0782 -30.35L-59.0566 -32.0051C-52.9306 -37.0315 -46.8658 -42.1191 -40.8011 -47.1456C-21.2589 -63.3894 -1.043 -80.2461 18.9279 -95.3866C44.596 -114.94 71.1831 -132.226 100.037 -148.225C125.644 -162.385 151.679 -172.928 177.409 -179.548C216.431 -189.723 259.804 -192.543 306.423 -187.823C341.403 -184.329 376.076 -177.832 408.544 -171.518C500.925 -153.496 588.16 -136.395 666.451 -84.7821C716.317 -51.8655 761.221 -4.36003 796.384 52.7691C827.443 103.217 850.967 160.162 868.426 226.731C883.435 284.289 894.156 347.303 899.363 408.907C907.388 503.489 889.745 596.109 846.801 684.193C804.716 770.5 740.331 842.341 660.631 891.869C560.96 953.718 441.87 970.636 349.305 978.482C340.239 979.218 331.417 980.137 322.657 980.995C301.155 983.141 280.816 985.164 259.865 985.286C185.74 985.47 110.083 964.629 46.8627 926.563C24.4414 913.017 3.49041 898.734 -16.7255 884.942C-35.655 872.07 -53.5432 859.933 -72.2276 848.47C-105.063 828.365 -143.167 802.436 -177.289 762.654C-215.454 718.091 -242.715 665.437 -256.131 610.269C-264.402 576.739 -268.629 541.616 -268.629 505.634L-268.751 505.696ZM898.138 453.164C898.138 438.513 897.525 423.863 896.239 409.152C891.031 347.732 880.311 284.902 865.363 227.528C848.027 161.204 824.564 104.565 793.689 54.3628C758.77 -2.33727 714.173 -49.5976 664.674 -82.2077C586.935 -133.514 499.945 -150.493 407.87 -168.514C375.464 -174.828 340.851 -181.264 306.056 -184.758C259.804 -189.417 216.738 -186.658 178.144 -176.544C152.598 -169.985 126.808 -159.504 101.446 -145.467C72.6533 -129.529 46.2501 -112.305 20.7045 -92.8734C0.794829 -77.7329 -19.3599 -60.9374 -38.902 -44.6936C-44.9668 -39.6059 -51.0315 -34.5795 -57.1576 -29.5531L-59.1792 -27.8982C-80.8654 -9.99936 -101.326 6.91879 -121.113 25.4306C-194.32 93.8998 -221.274 193.324 -235.18 262.161C-238.856 280.366 -241.735 298.51 -244.737 317.758L-244.921 318.922C-250.986 357.478 -255.396 389.353 -258.888 419.266L-259.623 425.335C-262.38 448.873 -265.014 471.063 -265.566 493.804C-266.607 533.647 -262.502 572.694 -253.313 609.717C-240.02 664.394 -212.943 716.62 -175.084 760.815C-141.268 800.291 -103.348 826.036 -70.7573 846.019C-52.0116 857.542 -34.0623 869.679 -15.1328 882.552C5.08312 896.282 26.0342 910.503 48.333 924.05C111.064 961.809 186.108 982.528 259.743 982.283C280.51 982.16 300.787 980.137 322.228 977.992C330.989 977.134 339.871 976.214 348.938 975.479C441.196 967.694 559.796 950.837 658.916 889.356C738.125 840.073 802.143 768.722 843.983 682.906C880.005 609.043 898.138 531.992 898.138 453.225L898.138 453.164Z" fill="#1B1B1B"/>
<path opacity="0.9" d="M-247.493 522.614C-247.493 514.155 -247.248 505.634 -246.696 497.114C-245.532 477.315 -242.653 458.129 -239.651 437.778C-238.977 433.242 -238.304 428.645 -237.63 423.986C-234.138 399.712 -230.278 374.58 -226.542 350.307L-220.906 313.59C-218.761 299.307 -216.495 284.535 -213.861 270.314C-198.913 190.014 -174.225 99.4779 -104.327 36.7707C-88.7669 22.8562 -72.9617 9.98385 -56.1763 -3.68546C-51.0917 -7.7924 -46.0684 -11.8994 -40.9837 -16.1289C-29.3443 -25.6913 -17.7661 -35.5601 -6.55545 -45.0612C6.86063 -56.4625 20.7055 -68.2317 34.244 -79.1426C58.7482 -98.8804 83.9264 -116.411 111.248 -132.778C135.691 -147.367 160.808 -158.216 185.925 -164.959C223.906 -175.134 266.36 -177.464 312.121 -171.824C342.752 -168.024 373.321 -161.894 402.909 -156.01L411.853 -154.232C421.839 -152.209 431.702 -150.309 441.442 -148.409C521.448 -132.839 597.044 -118.066 665.778 -73.8097C714.786 -42.3029 758.587 4.58961 792.526 61.7188C821.502 110.634 843.678 166.721 860.341 233.351C874.186 289.071 884.906 350.858 891.339 412.033C900.957 503.06 885.213 592.676 844.658 678.554C804.717 763.022 742.782 832.84 665.41 880.529C581.729 931.957 484.202 950.837 363.458 963.342C352.247 964.506 341.281 965.977 330.683 967.387C311.938 969.9 294.295 972.23 275.978 972.965C202.894 975.846 128.034 956.292 65.1807 917.92C47.3539 906.948 30.6298 895.669 14.3958 884.758C-8.45435 869.373 -30.0793 854.845 -53.1132 842.034C-94.0964 819.293 -127.79 797.042 -158.971 762.47C-197.81 719.317 -224.949 667.398 -237.507 612.292C-244.123 583.237 -247.431 553.14 -247.493 522.614ZM891.032 463.707C891.032 446.666 890.114 429.564 888.337 412.401C881.905 351.349 871.184 289.745 857.4 234.148C840.86 167.824 818.806 111.983 789.953 63.3124C756.26 6.5511 712.765 -39.9736 664.185 -71.2353C595.941 -115.185 520.652 -129.835 440.891 -145.344C431.089 -147.244 421.226 -149.144 411.302 -151.167L402.358 -152.945C372.83 -158.891 342.323 -164.959 311.754 -168.759C266.36 -174.337 224.335 -172.069 186.783 -162.017C161.911 -155.335 137.039 -144.608 112.841 -130.142C85.6416 -113.898 60.5861 -96.4285 36.2044 -76.7521C22.6659 -65.9023 9.49484 -54.6236 -4.53384 -42.732C-15.7445 -33.1696 -27.3227 -23.3006 -38.9621 -13.7383C-44.0468 -9.56999 -49.1314 -5.40177 -54.216 -1.2949C-70.9401 12.3131 -86.8065 25.1856 -102.244 39.1001C-171.468 101.133 -195.973 191.117 -210.798 270.927C-213.432 285.086 -215.637 299.859 -217.843 314.141L-223.478 350.92C-227.215 375.193 -231.075 400.264 -234.567 424.538C-235.241 429.196 -235.914 433.732 -236.588 438.33C-239.59 458.558 -242.408 477.683 -243.572 497.359C-245.9 536.406 -242.837 574.839 -234.444 611.74C-222.008 666.356 -195.115 717.784 -156.643 760.57C-125.768 794.835 -92.3199 816.902 -51.5817 839.521C-28.4252 852.332 -6.80036 866.921 16.1723 882.368C32.3451 893.279 49.1305 904.557 66.8347 915.468C129.198 953.534 203.445 972.965 275.917 970.084C294.111 969.349 311.693 967.019 330.316 964.506C340.914 963.096 351.941 961.625 363.151 960.461C483.467 947.956 580.687 929.199 663.818 878.077C740.638 830.755 802.266 761.367 841.902 677.451C874.553 608.307 891.032 536.651 891.032 463.891L891.032 463.707Z" fill="#1B1B1B"/>
<path opacity="0.9" d="M-226.662 537.938C-226.662 525.556 -226.049 513.051 -224.885 500.546C-223.17 482.954 -220.107 465.975 -216.86 448.015C-215.696 441.762 -214.594 435.51 -213.491 429.074L-212.878 425.396C-207.732 395.421 -202.403 364.466 -197.808 333.572C-196.767 326.768 -195.848 320.026 -194.868 313.344C-193.275 302.066 -191.621 290.358 -189.722 279.018C-175.448 194.305 -152.966 107.998 -85.6405 50.3172C-73.0821 39.5902 -59.8499 29.047 -47.0465 18.9329C-39.0214 12.6193 -30.9962 6.24434 -22.9711 -0.314496C-7.47219 -12.9418 7.5366 -26.2432 22.1166 -39.0544C31.5507 -47.3908 40.4334 -55.1756 49.5 -62.9604C72.9627 -83.0047 96.7318 -100.781 122.339 -117.392C145.74 -132.533 169.999 -143.689 194.32 -150.432C231.076 -160.607 272.61 -162.446 317.637 -155.826C342.509 -152.148 367.38 -146.938 391.456 -141.85C399.297 -140.195 407.138 -138.54 415.041 -136.946C432.194 -133.452 449.163 -130.265 465.642 -127.261C536.337 -114.205 603.049 -101.823 665.106 -62.9604C713.318 -32.7409 756.016 13.4774 788.73 70.6066C815.684 117.867 836.513 173.218 852.318 239.91C864.999 293.79 875.474 352.697 883.377 415.098C894.465 502.569 880.743 589.244 842.577 672.853C805.392 754.256 744.193 823.951 670.252 869.066C581.914 922.824 473.361 936.248 377.672 948.14C365.114 949.672 352.923 951.756 341.161 953.779C324.437 956.66 308.693 959.357 292.214 960.583C221.091 965.977 145.005 947.22 83.5608 909.155C68.9809 900.021 55.136 890.766 41.7812 881.755C16.3581 864.653 -7.71723 848.532 -33.9367 835.475C-69.529 817.76 -107.082 797.532 -140.652 762.102C-180.288 720.236 -207.304 669.053 -218.882 614.131C-224.089 589.244 -226.723 563.683 -226.723 537.815L-226.662 537.938ZM884.112 473.821C884.112 454.451 882.887 435.081 880.436 415.588C872.534 353.31 862.12 294.465 849.439 240.707C833.695 174.322 812.989 119.215 786.157 72.2616C753.75 15.5615 711.358 -30.2889 663.574 -60.2633C602.069 -98.8807 535.54 -111.14 465.213 -124.196C448.734 -127.261 431.765 -130.388 414.551 -133.881C406.648 -135.475 398.807 -137.13 390.966 -138.785C366.952 -143.873 342.08 -149.083 317.331 -152.761C272.672 -159.32 231.627 -157.542 195.238 -147.428C171.163 -140.747 147.272 -129.775 124.115 -114.757C98.6308 -98.2676 74.9231 -80.5528 51.5828 -60.5698C42.5163 -52.8464 33.6335 -45.0002 24.2607 -36.725C9.68064 -23.8526 -5.38937 -10.6125 -20.8883 2.07613C-28.9134 8.63491 -36.9998 15.0099 -45.0249 21.3848C-57.8283 31.4989 -71.0605 41.9808 -83.5576 52.7078C-150.148 109.776 -172.447 195.469 -186.598 279.631C-188.497 290.909 -190.151 302.556 -191.744 313.835C-192.724 320.577 -193.643 327.32 -194.684 334.124C-199.34 365.018 -204.608 396.034 -209.815 426.009L-210.428 429.687C-211.531 436.062 -212.695 442.375 -213.797 448.628C-217.044 466.526 -220.107 483.383 -221.822 500.853C-225.498 539.286 -223.476 577.229 -215.819 613.64C-204.424 668.011 -177.592 718.643 -138.386 760.141C-105.183 795.203 -67.9362 815.308 -32.5889 832.901C-6.18574 846.018 17.951 862.201 43.4966 879.364C56.8514 888.314 70.6349 897.57 85.2149 906.703C146.108 944.462 221.519 963.035 292.03 957.702C308.325 956.476 324.069 953.779 340.671 950.898C352.494 948.875 364.685 946.791 377.366 945.198C472.81 933.367 580.996 919.943 668.782 866.553C742.172 821.745 803.003 752.54 839.882 671.689C869.348 607.204 884.112 540.88 884.112 473.821Z" fill="#1B1B1B"/>
<path opacity="0.9" d="M-206.205 551.73C-206.205 535.915 -205.163 520.039 -203.019 504.04C-200.875 488.103 -197.567 472.779 -194.014 456.658C-192.421 449.302 -190.767 441.885 -189.235 434.345C-184.151 409.152 -177.657 375.806 -172.634 341.296C-171.347 332.653 -170.245 324.071 -169.142 315.551C-167.978 306.418 -166.753 297.039 -165.344 287.906C-153.398 208.832 -135.02 119.829 -66.7146 63.9867C-56.3615 55.4663 -45.4572 47.1912 -34.9204 39.0999C-24.9962 31.499 -14.7656 23.653 -4.65767 15.5004C13.6592 0.666458 30.9346 -15.2709 47.6587 -30.7178C53.5396 -36.1119 59.2981 -41.5062 65.0566 -46.7164C87.6004 -67.1898 110.022 -85.2724 133.73 -101.884C156.457 -117.821 179.124 -128.916 203.015 -135.781C238.607 -146.018 279.162 -147.367 323.514 -139.705C344.037 -136.149 364.62 -131.491 384.53 -127.016C395.679 -124.503 407.135 -121.867 418.529 -119.476C440.706 -114.818 462.514 -111.14 483.588 -107.585C547.36 -96.7965 607.64 -86.6211 664.613 -51.8041C712.028 -22.8105 753.685 22.6722 785.051 79.8013C810.351 125.958 829.219 179.042 844.412 246.714C855.5 296.487 865.669 352.636 875.532 418.408C888.152 502.385 876.39 586.179 840.614 667.398C805.573 746.962 746.885 814.573 675.211 857.849C598.88 903.761 511.278 916.204 418.468 929.383C409.647 930.609 400.825 931.896 391.942 933.183C378.404 935.145 365.478 937.903 352.919 940.539C337.727 943.727 323.453 946.791 308.383 948.508C238.179 956.538 162.89 939.068 101.935 900.696C89.6834 892.911 77.9827 885.065 66.7107 877.464C39.5724 859.197 13.9656 841.912 -14.7043 829.284C-54.2786 811.815 -89.6871 794.774 -122.216 762.164C-162.648 721.524 -189.542 671.137 -200.079 616.399C-204.122 595.312 -206.143 573.736 -206.143 551.852L-206.205 551.73ZM877.309 483.567C877.309 462.052 875.716 440.475 872.469 418.837C862.606 353.126 852.437 297.039 841.41 247.388C826.279 179.961 807.533 127.184 782.355 81.2725C751.235 24.6337 710.007 -20.4812 663.02 -49.1684C606.476 -83.6788 546.564 -93.7928 483.037 -104.52C461.902 -108.075 440.093 -111.753 417.855 -116.473C406.4 -118.863 394.883 -121.499 383.795 -124.012C363.946 -128.487 343.363 -133.146 322.963 -136.701C279.101 -144.241 239.036 -142.953 203.811 -132.839C180.226 -126.035 157.866 -115.124 135.445 -99.3708C111.86 -82.8205 89.4383 -64.8605 67.017 -44.4484C61.2585 -39.2381 55.5 -33.9053 49.6191 -28.4498C32.8949 -13.0029 15.6194 2.99574 -2.81997 17.891C-12.9279 26.0435 -23.1584 33.9509 -33.1438 41.5518C-43.6194 49.5817 -54.5237 57.9182 -64.8767 66.3772C-132.324 121.545 -150.58 209.874 -162.403 288.396C-163.751 297.468 -164.976 306.908 -166.14 315.98C-167.243 324.501 -168.346 333.143 -169.632 341.786C-174.655 376.297 -181.149 409.704 -186.234 434.958C-187.765 442.559 -189.419 449.976 -191.012 457.332C-194.565 473.453 -197.873 488.655 -200.017 504.47C-205.041 542.229 -204.06 579.681 -197.138 615.724C-186.724 669.85 -160.075 719.746 -120.072 759.896C-87.9719 792.138 -52.8084 809.056 -13.4791 826.403C15.4358 839.153 41.1652 856.5 68.426 874.828C79.6979 882.429 91.3375 890.275 103.59 898.06C163.992 936.064 238.546 953.35 308.077 945.382C322.963 943.665 337.237 940.662 352.307 937.474C364.865 934.838 377.914 932.08 391.514 930.057C400.396 928.77 409.218 927.483 418.039 926.257C510.481 913.139 597.777 900.757 673.618 855.152C744.741 812.244 803 745.123 837.796 666.111C864.138 606.284 877.37 545.11 877.37 483.506L877.309 483.567Z" fill="#1B1B1B"/>
<path opacity="0.9" d="M-186.048 564.112C-186.048 545.355 -184.394 526.475 -181.147 507.473C-178.635 492.823 -175.021 478.847 -171.161 464.075C-169.078 456.106 -166.934 447.831 -164.974 439.433C-157.071 405.474 -151.313 375.806 -147.515 348.897C-146.106 338.905 -144.942 328.791 -143.778 319.045C-142.92 311.506 -142.063 304.027 -141.082 296.61C-129.749 210.549 -114.067 129.023 -47.9053 77.5335C-39.0838 70.6682 -29.8948 63.9254 -21.012 57.3666C-9.67885 49.0302 2.02196 40.3872 13.4164 31.2539C33.8774 14.8262 52.4393 -3.3178 70.3886 -20.8488C73.6967 -24.0976 77.0047 -27.3464 80.3128 -30.5338C102.305 -51.9266 122.827 -69.7029 144.881 -86.4984C166.567 -102.987 188.315 -114.327 211.471 -121.254C245.961 -131.552 285.596 -132.41 329.153 -123.767C346.305 -120.334 363.581 -116.105 380.305 -111.998C393.844 -108.688 407.872 -105.255 421.778 -102.252C447.508 -96.6737 472.747 -92.9346 497.067 -89.318C555.571 -80.6138 610.767 -72.4613 663.941 -40.8932C722.996 -5.83104 760.303 48.9688 781.255 88.7507C804.84 133.743 821.87 184.497 836.389 253.334C847.416 306.111 857.156 361.831 866.529 415.711L867.571 421.534C881.599 502.14 871.859 582.93 838.533 661.759C805.698 739.484 749.399 805.072 680.052 846.448C612.85 886.413 536.826 897.937 456.391 910.136C439.973 912.649 423.004 915.223 406.218 918.043C392.067 920.434 378.712 923.805 365.725 927.115C351.758 930.67 338.587 934.042 324.681 936.187C256.253 946.669 179.861 930.18 120.377 892.053C109.534 885.065 99.181 878.077 89.1956 871.334C61.2609 852.393 34.8576 834.495 4.4724 822.848C-33.8154 808.137 -69.8977 794.222 -103.836 761.919C-145.064 722.566 -171.896 672.915 -181.392 618.36C-184.516 600.584 -186.048 582.501 -186.048 564.235L-186.048 564.112ZM870.695 492.946C870.695 469.346 868.612 445.685 864.508 422.086L863.466 416.263C854.093 362.382 844.353 306.724 833.326 254.008C818.868 185.478 801.961 134.908 778.498 90.2219C757.731 50.7464 720.791 -3.50176 662.348 -38.196C609.725 -69.3964 554.775 -77.549 496.639 -86.1919C472.196 -89.8084 446.956 -93.5475 421.104 -99.1256C407.076 -102.129 393.047 -105.562 379.509 -108.933C362.846 -113.04 345.632 -117.27 328.479 -120.641C285.413 -129.223 246.328 -128.364 212.268 -118.25C189.479 -111.446 167.976 -100.229 146.658 -83.9852C124.727 -67.3123 104.327 -49.5973 82.3956 -28.2659C79.0876 -25.0784 75.7795 -21.8296 72.4715 -18.5809C54.4609 -0.988515 35.8377 17.2169 15.2543 33.7672C3.79851 42.9617 -7.96346 51.6046 -19.2966 59.9411C-28.1794 66.4386 -37.3072 73.1813 -46.1287 80.0466C-111.371 130.862 -126.87 211.713 -138.142 297.101C-139.122 304.518 -139.98 311.935 -140.837 319.474C-141.94 329.22 -143.104 339.335 -144.574 349.387C-148.434 376.419 -154.131 406.149 -162.095 440.23C-164.055 448.628 -166.199 456.964 -168.282 464.933C-172.08 479.644 -175.694 493.559 -178.206 508.086C-184.577 545.232 -184.639 582.072 -178.451 617.747C-169.078 671.689 -142.553 720.788 -101.814 759.651C-68.3049 791.525 -32.4677 805.317 5.51384 819.967C36.2053 831.736 62.7311 849.758 90.8496 868.821C100.835 875.564 111.127 882.552 121.97 889.478C180.841 927.238 256.437 943.604 324.129 933.183C337.913 931.038 351.023 927.728 364.929 924.173C377.977 920.863 391.393 917.43 405.667 915.039C422.514 912.22 439.483 909.645 455.9 907.132C536.09 894.995 611.808 883.471 678.46 843.873C747.255 802.804 803.063 737.767 835.654 660.655C858.933 605.488 870.695 549.339 870.695 493.007L870.695 492.946Z" fill="#1B1B1B"/>
<path opacity="0.9" d="M-166.137 575.268C-166.137 553.998 -163.87 532.482 -159.275 510.967C-156.396 497.359 -152.476 484.425 -148.371 470.756C-145.798 462.297 -143.164 453.531 -140.775 444.582C-132.137 412.217 -126.134 383.407 -122.458 356.498C-120.926 345.464 -119.824 334.308 -118.721 323.581C-118.108 317.451 -117.496 311.444 -116.822 305.376C-108.674 232.799 -98.5051 142.447 -29.097 91.0799C-21.5007 85.4406 -13.5981 79.9238 -6.00178 74.5909C6.37279 65.8867 19.1762 56.8761 31.4895 47.0684C53.6045 29.4148 72.9017 9.30927 91.586 -10.122L95.6293 -14.3516C117.009 -36.6025 136.184 -54.6852 156.032 -71.0516C176.616 -88.0923 197.505 -99.7388 219.927 -106.665C253.375 -117.025 291.969 -117.392 334.729 -107.707C349.247 -104.397 363.889 -100.474 378.04 -96.7353C393.355 -92.6283 409.16 -88.3988 425.027 -84.9048C453.39 -78.6525 480.957 -75.2199 507.667 -71.9098C561.944 -65.1671 613.219 -58.7922 663.268 -29.9825C721.466 3.54719 757.487 57.9793 777.397 97.7C804.903 152.561 818.564 210.487 828.304 259.954C832.96 283.921 837.616 309.053 842.149 333.327C847.724 363.547 853.543 394.808 859.547 424.66C875.046 501.895 867.266 579.743 836.39 656.119C805.76 731.944 751.912 795.509 684.832 835.046C624.858 870.231 557.901 880.651 486.9 891.685C465.152 895.056 442.608 898.55 420.31 902.841C405.791 905.599 392.13 909.706 378.959 913.691C365.972 917.614 353.72 921.292 340.732 923.805C273.285 936.922 197.689 921.782 138.573 883.287C129.016 877.035 119.95 870.844 111.128 864.837C82.5196 845.283 55.5037 826.771 23.5257 816.289L18.87 814.757C-18.0088 802.681 -52.8047 791.219 -85.6403 761.551C-127.052 724.037 -154.497 673.834 -162.89 620.138C-165.218 605.304 -166.382 590.286 -166.382 575.207L-166.137 575.268ZM864.264 502.079C864.264 476.456 861.691 450.895 856.606 425.334C850.603 395.483 844.844 364.221 839.208 333.94C834.736 309.666 830.081 284.596 825.364 260.628C815.684 211.407 802.085 153.664 774.762 99.1712C755.037 59.8182 719.383 5.93782 661.859 -27.2241C612.361 -55.7273 561.392 -62.041 507.422 -68.7837C480.651 -72.0937 452.961 -75.5263 424.475 -81.8399C408.548 -85.3339 392.681 -89.6247 377.366 -93.7316C363.276 -97.5321 348.635 -101.455 334.177 -104.704C291.969 -114.266 253.865 -113.96 220.968 -103.723C198.914 -96.8579 178.331 -85.3952 158.115 -68.661C138.389 -52.2946 119.276 -34.3345 97.9572 -12.1448L93.914 -7.91528C75.1683 11.5773 55.81 31.7441 33.5112 49.5203C21.1365 59.3892 8.27178 68.3999 -4.16408 77.1654C-11.7603 82.4982 -19.6629 88.015 -27.2592 93.6544C-95.6258 144.225 -105.244 230.041 -113.759 305.805C-114.433 311.812 -115.045 317.88 -115.658 323.949C-116.699 334.737 -117.863 345.893 -119.395 356.988C-123.132 384.02 -129.135 412.952 -137.834 445.44C-140.223 454.451 -142.919 463.216 -145.492 471.737C-149.596 485.345 -153.517 498.156 -156.335 511.641C-164.054 548.052 -165.218 584.463 -159.704 619.77C-151.434 672.792 -124.357 722.32 -83.435 759.344C-51.0894 788.583 -16.5999 799.923 19.9726 811.876L24.6285 813.408C56.974 824.074 84.1736 842.647 112.966 862.385C121.726 868.392 130.854 874.583 140.349 880.774C198.853 918.84 273.53 933.858 340.242 920.862C353.107 918.349 365.298 914.671 378.162 910.81C391.395 906.825 405.117 902.657 419.82 899.899C442.118 895.608 464.662 892.114 486.471 888.743C557.104 877.77 623.878 867.411 683.301 832.472C749.829 793.241 803.187 730.228 833.572 655.016C853.972 604.507 864.203 553.262 864.203 502.079L864.264 502.079Z" fill="#1B1B1B"/>
<path opacity="0.9" d="M-146.475 585.321C-146.475 561.783 -143.473 538.061 -137.408 514.461C-134.161 501.711 -129.996 489.697 -125.524 476.947C-122.461 468.182 -119.275 459.11 -116.457 449.792C-107.084 418.776 -100.836 390.763 -97.2212 364.221C-95.6285 352.391 -94.6484 340.56 -93.7295 329.037C-93.3007 324.071 -92.9331 319.168 -92.5043 314.264L-92.1367 310.034C-85.3981 235.987 -77.6792 152.01 -10.2315 104.811C-3.55409 100.152 3.42955 95.4935 10.1069 91.0188C23.2167 82.2533 36.8165 73.1812 49.7424 63.0059C73.2052 44.4327 93.3598 21.9367 111.125 2.01502C132.322 -21.7684 149.658 -39.4833 167.424 -55.482C186.905 -73.013 206.875 -84.9659 228.623 -92.0151C261.03 -102.436 298.705 -102.313 340.607 -91.5861C353.043 -88.3987 365.601 -84.7208 377.731 -81.1655C394.21 -76.323 411.24 -71.358 428.516 -67.435C458.717 -60.5697 488.122 -57.6886 516.486 -54.9303C567.332 -50.0265 615.36 -45.3066 662.837 -18.8262C707.618 6.18318 747.07 50.8076 773.841 106.895C798.713 159.059 810.965 214.533 820.521 266.82L824.013 286.312C832.467 333.389 841.227 382.059 851.764 428.032C868.672 501.956 862.913 576.862 834.55 650.725C806.125 724.711 754.789 786.192 689.914 823.89C635.882 855.213 576.092 864.469 512.749 874.215C487.265 878.138 460.861 882.245 434.826 887.885C420.062 891.072 406.34 895.915 393.107 900.512C380.978 904.741 369.522 908.787 357.209 911.668C291.782 927.237 215.207 913.139 157.255 874.828C148.678 869.189 140.53 863.55 132.628 858.094C102.426 837.192 76.3296 819.17 43.0039 810.037L33.9986 807.585C-1.4712 797.961 -34.9807 788.951 -66.9586 761.551C-109.228 725.385 -136.489 675.918 -143.84 622.344C-145.494 610.146 -146.352 597.825 -146.352 585.505L-146.475 585.321ZM858.074 510.906C858.074 483.383 854.95 455.922 848.701 428.583C838.164 382.61 829.404 333.879 820.95 286.741L817.458 267.249C807.963 215.207 795.772 159.978 771.023 108.121C744.497 52.6466 705.535 8.51246 661.305 -16.2516C614.38 -42.4869 566.658 -47.0842 516.179 -51.988C487.693 -54.7464 458.227 -57.6274 427.842 -64.4927C410.505 -68.4157 393.413 -73.4422 376.873 -78.2846C364.744 -81.8399 352.246 -85.5177 339.811 -88.6438C298.46 -99.2482 261.336 -99.3709 229.542 -89.1342C208.223 -82.2689 188.559 -70.4998 169.445 -53.2753C151.802 -37.338 134.527 -19.6843 113.392 3.97657C95.5652 23.9595 75.288 46.5782 51.6415 65.3352C38.593 75.6331 24.9932 84.7052 11.8222 93.532C5.14483 98.0067 -1.7776 102.604 -8.45497 107.263C-74.8001 153.665 -82.3964 236.845 -89.0737 310.28L-89.4413 314.509C-89.8701 319.413 -90.2989 324.317 -90.6664 329.22C-91.5854 340.744 -92.5655 352.697 -94.2196 364.589C-97.8339 391.315 -104.144 419.511 -113.517 450.651C-116.335 460.029 -119.52 469.162 -122.583 477.928C-126.994 490.555 -131.16 502.508 -134.406 515.197C-143.534 550.933 -145.678 586.792 -140.9 621.793C-133.671 674.631 -106.717 723.362 -65.0595 759.099C-33.5717 786.008 -0.429759 795.019 34.6725 804.52L43.6778 806.972C77.4935 816.228 103.774 834.433 134.221 855.458C142.123 860.914 150.21 866.553 158.786 872.192C216.065 910.074 291.782 924.05 356.351 908.664C368.481 905.783 379.875 901.799 391.943 897.57C405.298 892.911 419.082 888.068 434.029 884.82C460.187 879.18 486.591 875.073 512.136 871.089C575.173 861.343 634.657 852.148 688.199 821.132C752.461 783.74 803.307 722.811 831.487 649.499C849.13 603.526 858.013 557.185 858.013 510.906L858.074 510.906Z" fill="#1B1B1B"/>
<path opacity="0.9" d="M-126.929 595.006C-126.929 569.322 -123.07 543.148 -115.535 517.955C-111.92 505.941 -107.448 494.662 -102.731 482.709C-99.1781 473.759 -95.5024 464.504 -92.2556 454.941C-82.1476 425.089 -75.5928 397.935 -72.1622 371.822C-70.5082 359.379 -69.773 346.874 -68.9766 334.798C-68.7316 330.875 -68.4866 326.952 -68.2416 323.029L-67.5065 312.731C-62.7281 242.056 -57.2759 161.94 8.64031 118.357C14.6438 114.434 20.7085 110.573 26.7733 106.711C40.4344 98.0679 54.5856 89.1799 67.8791 78.7593C90.3004 61.1669 109.107 39.2225 126.505 18.1975C144.638 -3.74701 160.444 -22.0749 178.638 -40.0963C196.955 -58.179 216.129 -70.4385 237.142 -77.4877C268.507 -88.0309 305.263 -87.3566 346.308 -75.5875C357.09 -72.5227 367.933 -69.0286 378.408 -65.6573C395.684 -60.1405 413.633 -54.3786 431.827 -50.1491C463.376 -42.7934 493.945 -40.7093 523.534 -38.7478C571.501 -35.499 616.834 -32.4342 662.166 -7.91521C706.396 15.9907 744.684 59.9409 769.985 115.783C793.448 167.702 804.168 224.34 812.438 273.317C821.076 325.297 830.571 380.281 843.742 431.035C862.059 501.772 858.261 573.735 832.409 644.963C806.251 717.049 757.304 776.507 694.696 812.366C645.565 840.379 591.717 848.532 534.684 857.052C506.626 861.281 477.589 865.634 448.98 872.621C434.094 876.238 420.372 881.755 407.139 887.088C396.235 891.44 384.902 896.037 373.324 899.286C309 917.491 233.16 904.803 175.514 866.063C167.734 860.852 160.26 855.642 153.092 850.616C122.769 829.407 96.6103 811.079 62.1207 803.478C57.9549 802.559 53.7893 801.7 49.6236 800.781C15.1952 793.487 -17.2728 786.621 -48.6382 761.183C-91.7042 726.305 -118.904 677.635 -125.214 624.183C-126.378 614.621 -126.929 604.813 -126.929 595.006ZM852.074 519.426C852.074 490.065 848.337 460.826 840.802 431.771C827.631 380.955 818.074 325.849 809.436 273.807C801.228 225.015 790.568 168.621 767.228 117.009C742.173 61.7185 704.375 18.2587 660.757 -5.27946C615.976 -29.4919 570.95 -32.4955 523.35 -35.7442C493.639 -37.7671 462.947 -39.7898 431.153 -47.2068C412.836 -51.4976 394.887 -57.1983 377.489 -62.7763C367.014 -66.1477 356.171 -69.5804 345.45 -72.7066C305.018 -84.2918 268.874 -84.966 238.122 -74.6068C217.538 -67.6801 198.793 -55.7272 180.782 -37.9509C162.649 -20.0521 146.905 -1.78546 128.833 20.0977C111.374 41.2452 92.4445 63.3123 69.7781 81.0886C56.3621 91.6317 42.1497 100.581 28.4274 109.224C22.3626 113.086 16.2978 116.886 10.2942 120.809C-54.3967 163.534 -59.7264 242.852 -64.5046 312.793L-65.2397 323.152C-65.4848 327.014 -65.7299 330.937 -65.975 334.86C-66.7101 346.997 -67.5065 359.563 -69.1605 372.067C-72.5911 398.364 -79.2071 425.764 -89.3764 455.738C-92.6231 465.362 -96.36 474.679 -99.9131 483.69C-104.63 495.52 -109.041 506.738 -112.655 518.69C-123.008 553.201 -126.316 589.489 -122.273 623.693C-116.025 676.347 -89.2538 724.282 -46.8004 758.67C-15.9863 783.618 16.1753 790.422 50.1749 797.655C54.3406 798.513 58.5063 799.432 62.672 800.352C97.7129 808.075 124.116 826.587 154.746 847.98C161.914 853.006 169.326 858.217 177.106 863.427C234.079 901.676 308.878 914.242 372.405 896.282C383.86 893.033 394.581 888.743 405.914 884.145C419.269 878.812 433.053 873.234 448.123 869.557C476.854 862.569 505.952 858.217 534.071 853.987C590.798 845.467 644.401 837.375 693.042 809.669C755.037 774.117 803.433 715.271 829.407 643.86C844.416 602.484 851.951 560.863 851.951 519.365L852.074 519.426Z" fill="#1B1B1B"/>
<path opacity="0.9" d="M-107.634 603.342C-107.634 576.004 -102.917 548.052 -93.6666 521.388C-89.6847 509.986 -84.7226 498.83 -79.883 488.103C-75.8398 479.092 -71.6741 469.775 -67.9985 460.09C-57.2779 431.771 -50.233 404.677 -47.0475 379.484C-45.3934 366.612 -44.9033 353.617 -44.352 341.112C-44.2295 338.047 -44.1069 334.921 -43.9231 331.856C-43.6781 326.891 -43.4943 321.865 -43.2493 316.838C-40.4313 249.043 -37.1845 172.238 27.5065 132.027C32.9587 128.655 38.4722 125.345 44.0468 122.096C58.0755 113.76 72.5942 105.117 86.0715 94.6353C108.922 76.859 126.871 54.3016 141.88 34.5026C158.788 12.1903 173.061 -6.38281 189.908 -24.5881C207.122 -43.2225 225.378 -55.7272 245.716 -62.8377C276.101 -73.4421 311.877 -72.3388 352.064 -59.4663C361.437 -56.4628 370.932 -53.1527 380.06 -49.9652C397.887 -43.7129 416.326 -37.2767 435.195 -32.7407C467.663 -24.956 499.089 -23.8526 529.474 -22.7492C574.991 -21.1555 617.996 -19.623 661.613 3.1183C705.292 25.9209 742.477 69.1355 766.307 124.916C787.197 173.954 796.325 226.302 804.534 280.121C811.762 327.994 821.074 383.714 835.899 434.284C855.931 502.814 854.155 569.935 830.447 639.446C806.862 708.59 759.201 767.558 699.656 801.149C654.752 826.403 605.866 833.391 554.162 840.747C524.39 845.038 493.515 849.39 463.375 857.604C448.427 861.649 434.888 867.84 421.779 873.847C411.426 878.567 400.766 883.41 389.739 887.088C327.438 907.684 250.678 896.098 194.074 857.542C186.845 852.639 179.984 847.735 173.368 843.015C143.105 821.561 117.008 802.988 81.5383 797.103C76.3924 796.245 71.3079 795.448 66.162 794.713C34.0615 789.809 0.858267 784.721 -30.0783 761.122C-73.9407 727.592 -101.018 679.719 -106.347 626.267C-107.083 618.728 -107.45 611.127 -107.45 603.465L-107.634 603.342ZM846.497 528.008C846.497 497.114 841.964 466.22 832.836 435.081C818.011 384.265 808.577 328.423 801.409 280.489C793.262 226.854 784.195 174.751 763.428 126.019C739.904 70.9131 703.209 28.2501 660.143 5.75404C617.138 -16.6808 574.501 -18.2132 529.291 -19.807C498.783 -20.9103 467.173 -22.0136 434.398 -29.8597C415.346 -34.3957 396.846 -40.8933 378.958 -47.1456C369.83 -50.3331 360.396 -53.6431 351.023 -56.6466C311.51 -69.2739 276.346 -70.4385 246.635 -60.018C226.787 -53.0914 208.899 -40.8319 192.052 -22.5653C175.328 -4.48255 161.115 14.0292 144.208 36.2802C129.076 56.2018 111.005 78.9432 87.848 96.9646C74.1869 107.569 59.6069 116.273 45.517 124.61C40.0036 127.92 34.4902 131.168 29.0381 134.54C-34.3052 173.893 -37.4908 249.84 -40.2475 316.9C-40.4313 321.987 -40.6764 327.014 -40.9214 331.979C-41.0439 335.044 -41.1664 338.108 -41.3502 341.235C-41.9015 353.862 -42.4529 366.857 -44.0456 379.852C-47.2312 405.29 -54.3374 432.629 -65.1192 461.194C-68.7949 470.94 -73.0218 480.318 -77.065 489.39C-82.0884 500.608 -86.8054 511.151 -90.726 522.43C-102.427 556.204 -106.776 591.941 -103.407 625.9C-98.1998 678.431 -71.4902 725.569 -28.3016 758.608C2.02227 781.779 33.3876 786.56 66.5295 791.648C71.6754 792.445 76.8212 793.18 81.9058 794.038C118.049 800.107 144.453 818.802 174.96 840.502C181.577 845.222 188.438 850.064 195.605 854.968C251.413 893.033 327.131 904.496 388.576 884.145C399.48 880.529 409.588 875.932 420.308 871.028C433.541 865.021 447.202 858.768 462.394 854.6C492.779 846.325 523.716 841.911 553.55 837.621C605.009 830.265 653.588 823.338 698.002 798.39C756.873 765.167 804.044 706.812 827.384 638.404C840.126 601.135 846.436 564.541 846.436 528.008L846.497 528.008Z" fill="#1B1B1B"/>
<path opacity="0.9" d="M-88.5189 610.943C-88.5189 582.195 -82.8218 552.711 -71.7949 524.882C-67.5067 513.971 -62.177 503.428 -57.0924 493.252C-52.5592 484.242 -47.9033 474.924 -43.7989 465.239C-32.2819 437.962 -24.9919 411.665 -21.9902 387.085C-20.3974 373.845 -20.0912 360.543 -19.8461 347.61L-19.7236 340.622C-19.6011 334.492 -19.4785 328.24 -19.4172 321.926C-18.5596 256.644 -17.5182 182.658 46.2539 145.574C51.2773 142.631 56.3618 139.812 61.5077 136.992C75.7814 129.023 90.6064 120.809 104.145 110.389C126.138 93.4708 143.29 70.7295 157.197 50.6852L161.485 44.5555C174.411 25.8598 186.602 8.14489 201.12 -9.14093C217.171 -28.2658 234.507 -41.077 254.233 -48.3101C283.638 -59.0371 318.434 -57.382 357.763 -43.4675C365.972 -40.5253 374.303 -37.3991 382.329 -34.2729C400.4 -27.3463 419.146 -20.1745 438.504 -15.3933C471.585 -7.24081 503.563 -7.17954 534.5 -7.17954C577.933 -7.17954 618.916 -7.05693 661.002 14.0907C719.261 43.3908 749.585 101.746 762.511 133.866C782.42 183.517 789.588 235.987 796.51 286.741C802.33 330.14 811.213 386.533 827.937 437.41C849.439 502.815 849.562 567.054 828.366 633.807C806.986 701.111 761.837 757.934 704.497 789.748C663.208 812.55 618.671 818.435 571.44 824.748C540.564 828.855 508.648 833.085 477.527 842.525C462.641 846.999 449.225 853.926 436.299 860.546C426.497 865.572 416.389 870.783 405.791 874.828C344.592 898.121 268.629 887.946 212.331 848.899C205.592 844.241 199.16 839.582 192.911 835.108C162.894 813.47 136.919 794.774 100.592 790.667C94.7109 789.993 88.7687 789.441 82.8265 788.889C51.3386 785.947 18.748 782.944 -11.8822 760.877C-56.541 728.695 -83.5568 681.558 -87.8451 628.229C-88.3352 622.528 -88.5189 616.766 -88.5189 611.066L-88.5189 610.943ZM840.985 535.793C840.985 503.305 835.656 471.001 824.935 438.33C808.15 387.208 799.267 330.63 793.386 287.109C786.464 236.6 779.357 184.313 759.632 134.969C746.889 103.217 716.933 45.5975 659.593 16.7877C618.181 -4.05332 577.504 -4.1146 534.438 -4.17594C503.318 -4.17593 471.217 -4.23721 437.708 -12.5124C418.166 -17.2935 399.359 -24.5267 381.165 -31.4533C373.14 -34.5181 364.869 -37.7056 356.661 -40.5866C318.066 -54.2559 283.944 -55.8496 255.213 -45.4291C236.039 -38.4412 219.07 -25.9365 203.387 -7.17951C188.991 9.98376 176.861 27.6374 163.935 46.2718L159.647 52.4628C145.618 72.6296 128.282 95.6162 105.922 112.841C92.1992 123.445 77.313 131.72 62.9167 139.689C57.8321 142.509 52.7475 145.328 47.7241 148.271C-14.5778 184.497 -15.5579 257.564 -16.4155 322.049C-16.4768 328.362 -16.5992 334.615 -16.7218 340.806L-16.8443 347.794C-17.0893 360.789 -17.3345 374.151 -18.9884 387.576C-21.9902 412.401 -29.4027 439.004 -40.9809 466.527C-45.1466 476.334 -49.8024 485.651 -54.3357 494.723C-59.6653 505.328 -64.6887 515.319 -68.9157 526.108C-81.9641 559.147 -87.4163 594.393 -84.7208 627.984C-80.4939 680.393 -53.9681 726.734 -10.0444 758.363C19.912 779.94 52.0737 782.944 83.1327 785.825C89.0749 786.376 95.0173 786.928 100.96 787.602C138.083 791.832 164.303 810.711 194.688 832.594C200.875 837.069 207.308 841.666 214.046 846.325C269.609 884.82 344.408 894.873 404.689 871.886C415.103 867.902 424.721 862.998 434.89 857.726C447.939 851.045 461.416 844.057 476.608 839.521C507.974 830.081 540.013 825.79 571.011 821.683C617.875 815.431 662.166 809.547 702.966 787.05C759.632 755.605 804.29 699.395 825.364 632.826C835.778 600.032 840.985 567.79 840.985 535.731L840.985 535.793Z" fill="#1B1B1B"/>
<path opacity="0.9" d="M-69.4705 617.931C-69.4705 587.895 -62.7931 557.185 -49.9284 528.376C-45.2727 517.955 -39.6367 507.902 -34.2458 498.217C-29.2837 489.329 -24.0766 480.073 -19.5433 470.388C-7.29124 444.153 0.366293 418.714 3.123 394.747C4.71578 381.2 4.65456 367.592 4.59328 354.414L4.59328 349.448C4.59328 342.461 4.4095 335.227 4.28694 327.933C3.24555 264.858 2.02033 193.324 65.0573 159.181C69.7744 156.607 74.5527 154.155 79.3923 151.642C93.8497 144.164 108.736 136.501 122.275 126.142C144.328 109.347 160.072 86.7278 172.569 66.8674C175.142 62.6992 177.715 58.5923 180.227 54.4853C190.641 37.6899 200.443 21.8752 212.266 6.24432C227.152 -13.4321 243.632 -26.5498 262.683 -33.7828C290.741 -44.4486 325.537 -42.3032 363.334 -27.5305C370.624 -24.7108 377.976 -21.5847 385.143 -18.6424C403.337 -11.0415 422.144 -3.19546 441.748 1.76963C475.196 10.2287 507.48 9.12527 538.723 8.02188C580.319 6.55074 619.587 5.20229 660.325 24.94C702.411 45.2907 738.248 88.2603 758.709 142.754C775.985 188.972 781.682 236.845 787.747 287.538L788.421 293.239C793.015 332.163 801.285 389.782 819.847 440.414C842.759 502.814 844.841 564.173 826.218 628.045C807.105 693.449 764.468 748.188 709.272 778.224C671.168 798.819 630.369 803.785 587.119 808.934C555.692 812.734 523.163 816.596 491.675 827.139C476.85 832.104 463.74 839.644 451.059 846.938C441.748 852.332 432.069 857.849 421.961 862.262C362.844 887.823 285.963 878.874 230.644 840.011C224.273 835.537 218.147 831.062 212.266 826.771C181.33 804.152 156.887 786.254 119.763 783.986C113.208 783.556 106.531 783.373 100.037 783.127C69.0394 782.085 36.9388 781.043 6.49236 760.386C-38.3503 729.983 -65.9175 682.416 -69.1643 629.945C-69.4093 625.9 -69.5319 621.793 -69.5319 617.747L-69.4705 617.931ZM7.65633 362.076C7.65633 372.925 7.47249 384.02 6.18599 395.115C3.36806 419.389 -4.35068 445.195 -16.7253 471.737C-21.3199 481.544 -26.4657 490.8 -31.4891 499.75C-36.88 509.373 -42.4547 519.365 -47.0493 529.663C-61.4455 561.905 -68.0003 596.661 -65.9787 630.007C-62.8544 681.558 -35.7773 728.205 8.33019 758.118C38.0415 778.224 69.652 779.266 100.221 780.308C106.715 780.553 113.453 780.737 120.008 781.166C158.051 783.495 184.025 802.559 214.165 824.564C220.046 828.855 226.111 833.269 232.482 837.805C286.943 876.116 362.661 884.942 420.858 859.749C430.843 855.458 440.4 849.942 449.65 844.609C462.454 837.192 475.747 829.591 490.817 824.564C522.55 813.96 555.263 809.976 586.874 806.175C629.817 801.026 670.31 796.122 707.924 775.772C762.446 746.104 804.471 692.039 823.4 627.371C841.84 564.173 839.818 503.427 817.09 441.64C798.406 390.763 790.075 332.898 785.48 293.79L784.806 288.09C778.741 237.581 773.044 189.891 755.891 144.041C735.737 90.2217 700.451 47.8652 659.038 27.8823C618.974 8.51229 580.074 9.8608 538.846 11.2707C507.419 12.374 474.89 13.4774 441.013 4.957C421.164 -0.0693605 402.235 -7.91537 383.979 -15.5775C376.873 -18.5198 369.522 -21.646 362.232 -24.4657C325.108 -38.9931 291.047 -41.1386 263.725 -30.718C245.224 -23.6688 229.174 -10.919 214.655 8.26714C202.893 23.7754 193.153 39.5901 182.8 56.263C180.288 60.3699 177.715 64.4768 175.081 68.645C162.4 88.7505 146.472 111.615 124.051 128.717C110.329 139.198 95.3199 146.922 80.74 154.461C75.9617 156.913 71.1835 159.427 66.4664 161.94C5.02216 195.224 6.24732 265.777 7.28877 327.933C7.41127 335.289 7.53377 342.461 7.53377 349.51L7.53377 354.475C7.53377 356.988 7.53377 359.563 7.53377 362.137L7.65633 362.076Z" fill="#1B1B1B"/>
<path opacity="0.9" d="M-50.539 624.306C-50.539 593.106 -42.8202 561.292 -28.0564 531.808C-23.0331 521.817 -17.0909 512.254 -11.3324 502.998C-5.88022 494.233 -0.244174 485.1 4.71792 475.537C17.7664 450.344 25.669 425.702 28.2419 402.348C29.7734 388.556 29.3446 374.703 28.9158 361.279L28.7932 358.214C28.5482 350.552 28.1806 342.645 27.7518 334.553C24.75 273.44 21.3195 204.112 83.8664 172.728C88.3384 170.46 92.8716 168.315 97.4049 166.169C111.924 159.243 126.932 152.071 140.287 141.957C162.341 125.284 177.289 101.746 187.825 83.1114C191.011 77.4721 194.074 71.894 197.076 66.3773C205.53 50.869 213.555 36.2802 223.418 21.7527C237.14 1.58593 252.761 -11.8382 271.14 -19.1326C298.217 -29.9209 332.094 -27.2852 369.034 -11.4091C375.527 -8.5895 381.96 -5.64724 388.453 -2.70492C406.586 5.57023 425.271 14.0906 445.058 19.2395C478.69 27.9438 511.035 25.6144 542.401 23.3464C582.342 20.4041 620.079 17.6458 659.714 36.035C701.31 55.3437 736.045 97.5776 754.913 151.887C769.861 195.102 774.333 239.42 779.05 286.373L780.459 300.043C784.318 338.108 791.731 394.441 811.947 443.663C836.328 503.121 840.371 561.599 824.199 622.528C807.352 686.032 767.226 738.687 714.175 767.006C678.95 785.702 641.398 789.625 601.701 793.854C570.09 797.164 537.377 800.597 506.012 812.244C491.371 817.638 478.506 825.913 466.07 833.82C457.187 839.521 447.937 845.406 438.197 850.187C380.367 878.383 304.343 870.905 249.025 831.552C243.021 827.262 237.385 823.032 231.872 818.925C201.18 796.061 176.982 778.04 139.001 777.672C131.895 777.611 124.666 777.795 117.621 777.978C86.9907 778.775 55.2577 779.633 24.9338 760.325C-20.7665 731.27 -48.2111 684.5 -50.3552 632.091C-50.4777 629.516 -50.539 626.88 -50.539 624.306ZM32.3463 380.22C32.3463 387.698 32.1013 395.238 31.2437 402.716C28.6095 426.438 20.5843 451.386 7.4133 476.947C2.38992 486.632 -3.246 495.765 -8.75943 504.592C-14.4566 513.787 -20.3989 523.288 -25.2997 533.218C-41.1049 564.664 -48.7012 598.806 -47.2922 631.968C-45.1481 683.397 -18.1935 729.247 26.5879 757.75C56.1154 776.507 87.3583 775.71 117.56 774.914C124.605 774.73 131.956 774.546 139.062 774.607C178.024 774.975 202.589 793.303 233.709 816.473C239.162 820.58 244.859 824.748 250.801 829.039C305.2 867.779 379.938 875.135 436.849 847.367C446.406 842.708 455.533 836.824 464.355 831.185C476.913 823.155 489.901 814.818 504.848 809.301C536.581 797.594 569.478 794.1 601.272 790.728C640.662 786.56 677.909 782.637 712.643 764.248C764.96 736.357 804.534 684.377 821.136 621.67C837.125 561.415 833.143 503.55 809.006 444.766C788.668 395.176 781.194 338.538 777.334 300.288L775.925 286.619C771.208 239.849 766.798 195.653 751.973 152.807C733.349 99.2327 699.227 57.6729 658.367 38.6707C619.466 20.6493 582.097 23.3465 542.584 26.2274C511.035 28.5567 478.384 30.9474 444.261 22.0592C424.229 16.849 405.361 8.26731 387.167 -0.00783448C380.734 -2.95009 374.302 -5.89242 367.808 -8.65078C331.665 -24.159 298.645 -26.8561 272.303 -16.3742C254.477 -9.26374 239.345 3.73138 225.991 23.4078C216.25 37.8127 208.225 52.3401 199.832 67.787C196.769 73.3651 193.706 78.9432 190.582 84.5826C179.923 103.462 164.791 127.307 142.248 144.348C128.648 154.646 113.455 161.879 98.814 168.867C94.2807 171.012 89.7474 173.219 85.2754 175.425C24.505 205.89 27.8743 274.175 30.8761 334.308C31.3049 342.399 31.6724 350.368 31.9174 358.03L32.04 361.095C32.2238 367.347 32.4075 373.661 32.4076 380.036L32.3463 380.22Z" fill="#1B1B1B"/>
<path opacity="0.9" d="M-31.7316 630.252C-31.7316 598.009 -22.91 565.277 -6.18594 535.302C-0.795012 525.678 5.45352 516.484 11.5796 507.657C17.4605 499.075 23.5866 490.126 28.9163 480.686C42.6999 456.474 50.9087 432.69 53.2979 410.01C54.7681 396.096 53.9717 382.059 53.1753 368.451L53.1753 367.041C52.624 358.95 51.9502 350.613 51.215 341.786C46.2529 282.389 40.6169 215.085 102.796 186.336C107.085 184.375 111.434 182.474 115.783 180.574C130.302 174.199 145.372 167.641 158.543 157.772C180.72 141.221 194.687 116.518 203.263 99.4165C206.571 92.7351 209.757 86.1149 212.881 79.5561C219.865 64.9061 226.42 51.0529 234.751 37.261C247.248 16.5425 262.012 2.87322 279.778 -4.54378C305.936 -15.516 338.833 -12.3286 374.793 4.6508C380.612 7.40922 386.432 10.2901 392.313 13.1711C410.201 22.0592 428.702 31.2538 448.489 36.5254C482.06 45.4748 514.405 41.8582 545.709 38.303C582.527 34.1348 620.569 29.844 659.163 46.9459C700.392 65.2125 733.901 106.772 751.238 160.898C764.164 201.477 767.411 242.73 770.902 286.496C771.454 293.239 771.944 299.981 772.556 306.724C777.457 366.121 787.504 410.623 804.044 446.85C829.957 503.427 835.9 559.024 822.239 616.95C807.904 677.635 769.371 729.553 719.137 755.666C686.424 772.584 650.281 775.772 615.301 778.837C583.813 781.595 551.284 784.476 520.347 797.042C505.89 802.926 493.332 811.815 481.263 820.396C472.748 826.465 463.927 832.717 454.554 837.805C398.745 868.269 321.802 862.14 267.587 822.848C261.767 818.619 256.315 814.45 250.985 810.466C220.784 787.602 196.954 769.519 158.36 771.174C150.825 771.481 143.044 772.155 135.571 772.829C105.186 775.465 73.759 778.162 43.4963 760.141C-3.00038 732.434 -30.3225 686.523 -31.4865 634.114C-31.4865 632.826 -31.4865 631.539 -31.4865 630.252L-31.7316 630.252ZM57.1573 393.154C57.1573 398.854 56.9123 404.616 56.2997 410.378C53.9105 433.487 45.5791 457.638 31.5504 482.219C26.0982 491.781 19.9722 500.73 14.0299 509.373C7.96518 518.2 1.77786 527.272 -3.55179 536.835C-20.7047 567.483 -29.4037 601.197 -28.6685 634.052C-27.5659 685.358 -0.733776 730.412 44.8439 757.566C74.3102 775.097 105.185 772.4 135.142 769.826C142.677 769.152 150.518 768.477 158.053 768.171C197.75 766.516 221.948 784.844 252.639 808.075C257.908 812.06 263.421 816.228 269.18 820.396C322.538 858.952 398.072 865.021 452.9 835.108C462.089 830.081 470.849 823.89 479.303 817.883C491.555 809.179 504.236 800.229 519 794.161C550.365 781.35 583.139 778.53 614.811 775.71C651.077 772.523 685.383 769.519 717.483 752.846C766.921 727.102 804.902 675.98 818.992 616.092C832.53 558.902 826.649 503.857 801.043 447.953C784.318 411.42 774.211 366.55 769.248 306.785C768.697 300.043 768.146 293.3 767.594 286.557C764.164 243.036 760.917 201.844 748.114 161.633C731.083 108.366 698.125 67.4805 657.693 49.5817C619.834 32.7862 583.874 36.8319 545.832 41.184C514.283 44.7392 481.569 48.4784 447.447 39.3451C427.415 34.0122 408.731 24.7563 390.72 15.8069C384.9 12.9259 379.081 10.0449 373.261 7.28654C338.098 -9.32503 306.058 -12.4512 280.697 -1.84675C263.544 5.325 249.331 18.5653 237.14 38.7322C228.87 52.4015 222.377 66.1321 215.454 80.7822C212.33 87.4023 209.206 94.0224 205.836 100.704C197.076 118.112 182.864 143.244 160.197 160.162C146.72 170.215 131.527 176.896 116.825 183.333C112.475 185.233 108.187 187.133 103.899 189.095C43.6799 216.924 49.2547 283.125 54.0943 341.48C54.8294 350.307 55.5033 358.643 55.9934 366.796L55.9934 368.205C56.5447 376.358 57.0347 384.694 57.0347 393.092L57.1573 393.154Z" fill="#1B1B1B"/>
<path opacity="0.9" d="M-12.925 635.768C-12.925 602.607 -3.00088 569.077 15.7448 538.796C21.5033 529.479 28.1807 520.652 34.5518 512.132C40.8616 503.734 47.4165 495.091 53.175 485.835C67.6937 462.603 76.2089 439.678 78.353 417.672C79.762 403.574 78.5368 389.476 77.3115 375.868C76.5764 367.47 75.535 358.766 74.4323 349.51C67.5099 291.645 59.6073 226.118 121.542 200.005C125.707 198.228 129.934 196.573 134.161 194.918C148.68 189.156 163.628 183.21 176.615 173.648C193.339 161.327 206.694 142.876 218.578 115.722C221.825 108.305 224.827 100.765 227.767 93.532C233.219 80.0465 238.794 66.0706 245.9 52.7691C257.233 31.5602 271.078 17.5845 288.17 10.1062C313.471 -0.988664 345.326 2.68913 380.367 20.7718C385.635 23.4689 390.904 26.35 396.172 29.1697C413.815 38.6708 432.009 48.5396 451.674 53.9337C485.061 63.1283 517.284 58.102 548.404 53.2594C583.935 47.7427 620.692 42.0421 658.428 57.9794C698.676 75.02 731.879 116.886 747.378 169.97C758.466 208.219 760.61 246.898 762.938 287.783C763.428 296.304 763.918 304.824 764.47 313.406C768.207 371.822 778.253 415.22 796.019 449.976C823.464 503.734 831.366 556.511 820.094 611.311C808.026 670.156 772.066 719.868 723.915 744.326C693.53 759.65 660.205 761.918 627.92 764.125C596.861 766.209 564.761 768.416 534.559 781.963C520.347 788.338 508.156 797.9 496.333 807.095C488.185 813.47 479.731 820.09 470.726 825.545C416.02 858.707 340.058 854.048 285.903 814.266C280.267 810.098 274.938 805.991 269.853 802.068C240.142 779.204 216.679 761.122 177.534 764.738C169.631 765.474 161.422 766.638 153.52 767.803C123.318 772.216 92.1367 776.752 61.8127 759.896C14.4584 733.599 -12.8026 688.423 -12.8638 636.014L-12.8638 635.707L-12.925 635.768ZM82.0899 404.371C82.0899 408.907 81.9062 413.443 81.4773 417.979C79.2719 440.475 70.6342 463.829 55.8092 487.49C49.9895 496.807 43.3733 505.573 37.0022 514.032C30.6311 522.491 24.015 531.256 18.3178 540.451C-0.121606 570.242 -9.92324 603.22 -9.92324 635.83L-9.92324 636.136C-9.86195 687.381 16.7863 731.576 63.1605 757.321C92.5655 773.626 123.257 769.213 152.907 764.861C160.871 763.696 169.08 762.531 177.105 761.796C217.414 758.057 241.306 776.446 271.568 799.739C276.714 803.662 281.983 807.769 287.619 811.937C340.793 851.045 415.408 855.581 469.072 823.093C477.955 817.699 486.286 811.14 494.434 804.827C506.38 795.509 518.693 785.824 533.273 779.327C564.026 765.535 596.371 763.328 627.675 761.244C661.123 758.976 692.673 756.831 722.506 741.813C769.861 717.784 805.208 668.869 817.092 610.943C828.181 556.817 820.401 504.715 793.262 451.631C775.313 416.446 765.144 372.68 761.407 313.835C760.855 305.253 760.365 296.733 759.875 288.212C757.609 247.45 755.464 208.955 744.438 171.073C729.245 118.848 696.654 77.7784 657.264 61.0442C620.324 45.4134 585.651 50.8075 548.956 56.5082C517.468 61.412 484.938 66.4384 450.939 57.1212C430.968 51.6045 412.59 41.6743 394.824 32.1119C389.556 29.2922 384.349 26.4725 379.08 23.7141C344.897 6.06047 313.899 2.44395 289.518 13.1097C273.039 20.3428 259.684 33.8282 248.718 54.4241C241.673 67.5418 236.344 80.8433 230.708 94.8804C227.767 102.175 224.765 109.714 221.457 117.131C209.328 144.838 195.667 163.595 178.514 176.283C165.22 186.091 150.089 192.098 135.386 197.921C131.16 199.576 126.933 201.231 122.828 203.009C63.0379 228.263 70.7567 292.565 77.5567 349.326C78.6593 358.582 79.7008 367.347 80.4972 375.745C81.3548 385.185 82.1512 394.809 82.1512 404.494L82.0899 404.371Z" fill="#1B1B1B"/>
<path opacity="0.9" d="M5.75932 640.795C5.75932 639.875 5.75932 638.956 5.75932 638.036C6.31065 605.058 17.3375 571.897 37.6147 542.229C43.802 533.218 50.7856 524.698 57.5855 516.545C64.3242 508.393 71.3079 499.995 77.4339 490.984C92.7491 468.733 101.509 446.605 103.47 425.273C104.817 411.175 103.041 396.463 101.571 384.633C100.529 376.051 99.1201 367.102 97.5886 357.54C89.0734 303.904 78.4754 237.152 140.348 213.552C144.453 212.02 148.557 210.549 152.723 209.077C167.119 203.928 182.067 198.657 194.748 189.401C211.043 177.509 223.846 158.691 233.954 131.904C236.956 123.935 239.652 115.844 242.224 107.998C246.574 94.8191 251.107 81.2111 257.111 68.2161C267.096 46.8233 280.39 32.1732 296.685 24.6336C321.067 13.3549 352.003 17.5844 386.125 36.7705C390.965 39.4675 395.743 42.2872 400.583 45.1069C417.797 55.221 435.624 65.7028 455.043 71.2195C488.124 80.5981 520.102 74.2232 550.977 68.0322C585.344 61.1669 620.936 54.0563 657.876 68.8903C697.757 84.9502 729.796 126.081 743.641 178.919C753.136 215.146 754.239 253.15 755.403 289.929C755.709 299.92 756.016 309.973 756.506 320.026C759.079 377.523 769.125 419.818 788.055 453.102C817.521 504.776 827.016 553.323 818.072 605.671C808.332 662.617 774.945 710.245 728.816 732.986C700.575 746.839 669.761 748.249 639.988 749.598C609.603 750.946 578.177 752.356 548.833 766.883C534.804 773.81 522.981 783.985 511.464 793.854C503.684 800.536 495.598 807.462 486.899 813.286C434.153 848.532 357.333 845.344 304.22 805.685C298.707 801.578 293.5 797.471 288.537 793.548C259.377 770.684 236.343 752.663 196.708 758.302C188.499 759.467 180.29 761.183 171.591 762.96C141.574 769.09 110.515 775.465 80.1294 759.712C33.3877 735.561 5.75933 691.243 5.75932 640.795ZM107.023 414.73C107.023 418.347 106.9 421.963 106.533 425.58C104.511 447.463 95.567 470.02 79.9456 492.7C73.6971 501.834 66.6521 510.293 59.9135 518.445C53.1748 526.598 46.1912 535.057 40.1264 543.945C26.2203 564.296 9.49619 597.09 8.82231 638.036C8.82231 638.956 8.82231 639.875 8.82231 640.734C8.82231 690.017 35.8381 733.293 81.5384 756.892C110.943 772.094 141.451 765.841 170.979 759.834C179.31 758.118 187.948 756.34 196.218 755.176C237.14 749.291 260.603 767.68 290.375 791.035C295.337 794.958 300.544 799.003 306.058 803.11C358.129 842.034 433.48 845.222 485.183 810.65C493.699 804.888 501.724 798.023 509.442 791.402C521.082 781.411 533.089 771.113 547.424 764.003C577.319 749.23 609.052 747.82 639.805 746.41C670.619 745 699.779 743.713 727.407 730.105C772.678 707.793 805.453 661.023 815.009 605.058C823.831 553.385 814.458 505.573 785.359 454.512C766.185 420.798 756.016 378.074 753.381 320.087C752.891 310.034 752.585 299.981 752.279 289.99C751.176 253.395 750.012 215.514 740.639 179.655C727.039 127.736 695.674 87.4021 656.712 71.7099C620.63 57.1825 587.059 63.8639 551.59 70.9744C520.347 77.2267 488.063 83.663 454.247 74.1005C434.46 68.5225 416.449 57.918 399.051 47.6813C394.273 44.8617 389.495 42.042 384.655 39.3449C361.499 26.2886 327.683 13.6614 298.033 27.3307C282.411 34.5638 269.608 48.7235 259.99 69.442C253.987 82.2531 249.514 95.7999 245.226 108.918C242.653 116.764 239.958 124.916 236.895 132.946C226.603 160.285 213.432 179.593 196.585 191.792C183.537 201.293 168.406 206.687 153.826 211.897C149.721 213.368 145.617 214.839 141.574 216.372C82.0897 239.113 92.0139 301.759 100.774 357.049C102.306 366.612 103.715 375.622 104.756 384.204C105.859 393.153 107.145 403.819 107.145 414.669L107.023 414.73Z" fill="#1B1B1B"/>
<path opacity="0.9" d="M24.3823 645.392C24.3823 643.614 24.3824 641.837 24.5049 639.998C26.0976 598.622 44.4145 565.889 59.5458 545.723C66.1007 537.018 73.5132 528.866 80.6194 520.958C87.7869 513.051 95.1381 504.837 101.754 496.133C117.804 474.863 126.871 453.593 128.648 432.935C129.75 419.879 128.035 406.823 125.952 393.46C124.604 384.878 122.828 375.684 120.867 365.999C110.453 313.528 97.466 248.246 159.278 227.16C163.321 225.812 167.364 224.524 171.469 223.237C185.742 218.762 200.567 214.104 212.942 205.216C228.992 193.63 240.938 174.996 249.392 148.209C252.026 139.811 254.231 131.291 256.437 123.016C259.806 110.021 263.298 96.5354 268.444 83.7243C277.204 61.8412 289.579 46.8846 305.261 39.2225C328.418 27.9438 359.17 32.7862 391.884 52.8304C396.294 55.5274 400.644 58.3472 405.054 61.1056C421.84 71.8326 439.238 82.9274 458.412 88.5667C491.125 98.1291 522.736 90.3444 553.243 82.8661C586.569 74.6523 620.998 66.1933 657.264 79.9239C696.838 95.0643 727.713 135.459 739.904 187.991C747.868 222.379 747.99 258.299 748.113 292.993C748.113 304.027 748.174 315.49 748.48 326.707C749.889 383.407 759.936 424.538 780.091 456.228C811.211 505.205 822.667 550.933 815.989 600.032C808.699 654.28 777.15 700.866 733.655 721.585C707.375 734.089 678.95 734.641 651.444 735.131C621.916 735.683 591.348 736.296 563.106 751.62C549.445 759.037 537.928 769.826 526.84 780.246C519.305 787.295 511.586 794.59 503.133 800.842C452.409 838.234 374.792 836.579 322.659 796.919C317.268 792.812 312.184 788.767 307.283 784.844C277.51 761.122 256.008 743.958 215.944 751.743C207.428 753.398 198.913 755.605 189.908 757.995C160.013 765.903 129.076 773.994 98.5687 759.405C51.827 736.97 24.4437 694.614 24.4436 645.331L24.3823 645.392ZM132.017 424.415C132.017 427.357 131.894 430.238 131.649 433.181C129.812 454.39 120.561 476.211 104.143 497.972C97.466 506.86 89.9923 515.074 82.8248 523.043C75.7186 530.889 68.4286 538.98 61.935 547.562C47.11 567.361 29.0994 599.542 27.5066 640.121C25.4851 690.262 52.5008 734.028 99.7939 756.708C129.26 770.807 159.645 762.838 189.05 755.114C197.688 752.846 206.632 750.456 215.27 748.801C256.743 740.771 279.838 759.16 309.06 782.514C313.96 786.376 318.984 790.422 324.375 794.529C375.466 833.391 451.49 835.107 501.172 798.452C509.442 792.322 517.161 785.089 524.574 778.101C535.846 767.558 547.424 756.586 561.452 748.985C590.306 733.293 621.243 732.68 651.199 732.128C678.399 731.576 706.517 731.086 732.185 718.826C774.761 698.537 805.636 652.87 812.804 599.603C819.359 551.178 808.087 506.186 777.334 457.883C756.873 425.702 746.704 384.081 745.234 326.768C744.927 315.49 744.927 304.027 744.866 292.993C744.744 258.422 744.621 222.747 736.718 188.665C724.773 137.114 694.571 97.5775 655.977 82.7435C620.63 69.3807 586.63 77.7171 553.795 85.8084C522.858 93.4093 490.88 101.255 457.371 91.5091C437.768 85.8084 420.186 74.591 403.217 63.68C398.867 60.8604 394.456 58.102 390.107 55.4049C358.313 35.9124 328.601 31.1311 306.425 41.9195C291.416 49.2139 279.532 63.6188 271.078 84.7663C265.993 97.4549 262.502 110.818 259.193 123.69C257.049 132.027 254.783 140.608 252.149 149.006C243.45 176.467 231.197 195.592 214.535 207.606C201.792 216.801 186.722 221.521 172.204 226.057C168.161 227.344 164.056 228.631 160.074 229.98C100.774 250.208 112.965 311.383 123.685 365.324C125.646 375.071 127.422 384.204 128.77 392.908C130.424 403.513 131.833 413.872 131.833 424.354L132.017 424.415Z" fill="#1B1B1B"/>
<path opacity="0.9" d="M43.0061 649.867C43.0061 647.292 43.0674 644.657 43.2511 642.021C45.1502 609.84 58.6888 576.862 81.4164 549.217C88.4613 540.696 96.2414 532.789 103.776 525.127C111.25 517.526 119.03 509.68 125.953 501.282C142.738 480.993 152.05 460.581 153.642 440.598C154.684 427.603 152.478 414.546 150.151 402.287C148.496 393.766 146.291 384.51 143.963 374.764C131.589 323.336 116.151 259.403 178.085 240.768C182.067 239.542 186.11 238.439 190.154 237.397C204.305 233.535 218.946 229.612 231.014 221.03C246.636 209.936 257.969 190.933 264.708 164.453C266.913 155.81 268.628 146.922 270.282 138.279C272.733 125.345 275.306 111.982 279.655 99.1713C287.19 76.7977 298.707 61.5346 313.777 53.8111C336.015 42.2872 365.787 47.6814 397.581 68.8903C401.686 71.5874 405.729 74.4071 409.772 77.288C426.068 88.5667 442.853 100.275 461.721 105.914C493.944 115.599 525.126 106.404 555.204 97.5774C587.55 88.015 620.998 78.1462 656.652 90.896C702.842 107.508 728.02 156.607 736.107 197.002C742.723 229.796 741.865 263.816 741.007 296.733C740.701 308.747 740.456 321.19 740.456 333.45C740.579 368.634 744.009 420.002 772.066 459.416C805.331 506.247 818.257 547.868 813.907 594.454C808.823 646.924 779.908 691.304 738.434 710.306C713.992 721.523 687.711 721.278 662.349 721.033C633.802 720.788 604.274 720.481 577.32 736.603C564.026 744.571 552.938 755.911 542.217 766.945C534.989 774.362 527.454 782.085 519.306 788.705C469.746 828.855 393.109 828.732 340.977 788.46C335.647 784.353 330.685 780.308 325.846 776.385C296.624 752.724 275.551 735.561 235.058 745.429C226.297 747.575 217.537 750.394 208.225 753.398C178.392 763.022 147.516 772.952 116.886 759.344C70.1445 738.625 42.9448 698.108 42.9448 649.928L43.0061 649.867ZM157.073 433.794C157.073 436.123 157.012 438.514 156.767 440.843C155.113 461.439 145.556 482.464 128.342 503.244C121.297 511.764 113.517 519.671 105.982 527.272C98.4468 534.873 90.7279 542.719 83.8055 551.117C61.5067 578.271 48.152 610.575 46.3141 642.143C43.2511 692.346 70.1445 735.131 118.234 756.463C147.823 769.519 178.085 759.773 207.368 750.394C216.741 747.391 225.562 744.571 234.384 742.365C276.347 732.128 299.075 750.578 327.806 773.871C332.584 777.733 337.546 781.779 342.876 785.886C393.906 825.361 468.889 825.484 517.407 786.192C525.432 779.695 532.844 772.032 540.073 764.677C550.916 753.521 562.127 741.997 575.788 733.844C603.539 717.294 633.495 717.6 662.472 717.846C687.527 718.091 713.44 718.336 737.271 707.425C777.702 688.852 805.943 645.392 810.967 594.025C815.255 548.236 802.513 507.228 769.677 461.071C741.13 420.921 737.638 368.941 737.516 333.327C737.516 321.068 737.761 308.624 738.067 296.549C738.863 263.816 739.721 229.98 733.227 197.553C725.263 157.955 700.698 109.898 655.733 93.7158C621.059 81.3337 588.101 91.0186 556.185 100.458C525.616 109.469 494.067 118.786 460.925 108.795C441.628 102.972 424.597 91.1413 408.118 79.74C404.075 76.9203 400.032 74.1006 395.989 71.4035C365.175 50.8076 336.505 45.536 315.309 56.5082C300.974 63.8639 290.008 78.5752 282.718 100.152C278.491 112.718 275.918 126.02 273.468 138.831C271.814 147.474 270.098 156.423 267.893 165.188C260.971 192.343 249.209 211.958 232.975 223.482C220.478 232.37 205.591 236.416 191.134 240.339C187.091 241.442 183.109 242.546 179.127 243.71C119.949 261.487 134.407 321.313 147.149 374.029C149.538 383.836 151.743 393.031 153.397 401.674C155.358 411.91 157.257 422.76 157.257 433.732L157.073 433.794Z" fill="#1B1B1B"/>
<path opacity="0.9" d="M61.5656 653.729C61.5656 650.541 61.6881 647.292 61.9332 643.982C64.5061 611.863 79.2086 579.436 103.284 552.711C110.758 544.374 119.089 536.712 127.053 529.234C134.833 522.001 142.919 514.461 150.209 506.431C167.73 487.122 177.348 467.507 178.757 448.199C179.737 435.387 177.041 422.331 174.407 411.114C172.447 402.716 169.874 393.521 167.056 383.836C156.764 347.732 145.063 306.785 160.562 279.569C167.546 267.31 179.737 258.851 196.829 254.438C200.81 253.395 204.854 252.476 208.897 251.557C222.864 248.369 237.383 245.059 249.022 236.845C264.399 226.118 274.813 207.239 279.959 180.758C281.674 171.87 282.838 162.737 283.941 153.91C285.534 140.976 287.188 127.552 290.741 114.741C297.051 91.9381 307.649 76.3685 322.106 68.4612C343.547 56.7534 372.278 62.6379 403.092 85.0115C406.891 87.7698 410.627 90.5895 414.426 93.4705C430.17 105.362 446.404 117.622 464.904 123.322C496.576 133.13 525.858 123.016 556.795 112.289C588.283 101.378 620.812 90.1605 655.853 101.93C701.676 117.377 725.322 165.863 732.183 206.074C737.513 237.458 735.737 269.762 734.021 301.085C733.286 313.896 732.551 327.136 732.367 340.131C731.755 374.948 734.389 425.457 763.978 462.542C789.217 494.171 814.64 533.953 811.761 588.815C809.188 638.588 782.295 681.803 743.21 698.966C720.421 708.958 696.224 707.915 672.883 706.935C645.5 705.77 617.136 704.544 591.53 721.462C578.665 729.921 568.006 741.874 557.653 753.398C550.669 761.244 543.379 769.335 535.476 776.385C487.938 818.619 410.566 820.09 359.353 779.756C354.145 775.649 349.183 771.603 344.466 767.68C315.796 744.02 295.09 726.918 254.291 738.932C245.286 741.568 236.28 745 226.724 748.617C196.951 759.957 166.137 771.604 135.323 759.099C89.1327 740.281 61.5043 700.499 61.5043 653.79L61.5656 653.729ZM182.065 442.866C182.065 444.705 182.004 446.605 181.881 448.505C180.411 468.488 170.548 488.716 152.537 508.576C145.186 516.729 137.038 524.269 129.197 531.563C121.233 538.98 113.024 546.642 105.612 554.856C81.9654 581.091 67.5691 612.843 65.0574 644.35C61.0755 693.878 88.4589 736.725 136.548 756.34C166.26 768.416 196.461 756.953 225.682 745.859C235.3 742.181 244.367 738.748 253.495 736.112C295.887 723.669 317.144 741.2 346.488 765.474C351.205 769.335 356.106 773.381 361.313 777.488C411.424 816.902 487.081 815.492 533.516 774.178C541.296 767.251 548.525 759.221 555.447 751.437C565.923 739.79 576.705 727.715 589.937 719.01C616.401 701.602 645.255 702.828 673.128 703.992C696.162 704.973 719.993 706.015 742.108 696.269C780.089 679.596 806.247 637.362 808.82 588.753C811.638 534.689 786.583 495.765 761.711 464.565C731.448 426.622 728.814 375.439 729.427 340.131C729.672 327.075 730.407 313.835 731.081 300.962C732.796 269.884 734.573 237.703 729.304 206.687C722.627 167.334 699.593 119.89 655.057 104.933C620.996 93.4705 588.957 104.565 558.02 115.292C527.941 125.713 496.821 136.501 464.169 126.326C445.178 120.441 428.699 107.998 412.772 95.9838C409.035 93.1641 405.298 90.3444 401.5 87.5861C371.727 65.9481 344.099 60.1861 323.76 71.2809C310.038 78.7592 299.991 93.7157 293.865 115.66C290.373 128.287 288.719 141.528 287.126 154.4C286.024 163.288 284.86 172.544 283.145 181.494C277.815 208.771 266.972 228.264 250.922 239.481C238.731 248.001 223.967 251.373 209.693 254.621C205.65 255.541 201.668 256.46 197.686 257.502C181.207 261.793 169.996 269.517 163.319 281.224C148.433 307.276 159.95 347.609 170.058 383.101C172.815 392.847 175.449 402.042 177.409 410.562C179.676 420.37 182.004 431.587 182.004 442.988L182.065 442.866Z" fill="#1B1B1B"/>
</g>
</g>
</svg>
