<svg width="30" height="40" viewBox="0 0 30 40" fill="none" xmlns="http://www.w3.org/2000/svg">
<g clip-path="url(#clip0_291_2144)">
<path d="M21.25 15C21.25 18.4531 18.4531 21.25 15 21.25C11.5469 21.25 8.75 18.4531 8.75 15C8.75 11.5469 11.5469 8.75 15 8.75C18.4531 8.75 21.25 11.5469 21.25 15ZM15 12.5C13.6172 12.5 12.5 13.6172 12.5 15C12.5 16.3828 13.6172 17.5 15 17.5C16.3828 17.5 17.5 16.3828 17.5 15C17.5 13.6172 16.3828 12.5 15 12.5ZM30 15C30 21.8281 20.8594 33.9844 16.8516 39C15.8906 40.1953 14.1094 40.1953 13.1484 39C9.07031 33.9844 0 21.8281 0 15C0 6.71562 6.71562 0 15 0C23.2812 0 30 6.71562 30 15ZM15 3.75C8.78906 3.75 3.75 8.78906 3.75 15C3.75 15.9688 4.10078 17.4688 4.94531 19.4688C5.76406 21.4062 6.92656 23.5469 8.26562 25.7109C10.4844 29.3203 13.0625 32.7422 15 35.2891C16.9375 32.7422 19.5156 29.3203 21.7344 25.7109C23.0703 23.5469 24.2344 21.4062 25.0547 19.4688C25.8984 17.4688 26.25 15.9688 26.25 15C26.25 8.78906 21.2109 3.75 15 3.75Z" fill="url(#paint0_linear_291_2144)"/>
</g>
<defs>
<linearGradient id="paint0_linear_291_2144" x1="-2.01681" y1="-16.7565" x2="27.8021" y2="-13.4076" gradientUnits="userSpaceOnUse">
<stop stop-color="#FCB808"/>
<stop offset="1" stop-color="#F9075E"/>
</linearGradient>
<clipPath id="clip0_291_2144">
<rect width="30" height="40" fill="white"/>
</clipPath>
</defs>
</svg>
