<svg width="531" height="530" viewBox="0 0 531 530" fill="none" xmlns="http://www.w3.org/2000/svg">
<path d="M437.363 468.789C435.374 468.789 433.435 467.768 432.331 465.927C430.676 463.15 431.579 459.552 434.354 457.895L515.674 409.335C518.382 407.711 518.65 405.101 518.633 404.047C518.633 402.993 518.299 400.382 515.557 398.826L404.528 335.741C401.719 334.134 400.733 330.57 402.321 327.759C403.909 324.948 407.487 323.96 410.296 325.55L521.325 388.635C526.892 391.798 530.253 397.504 530.319 403.913C530.386 410.322 527.143 416.095 521.659 419.391L440.323 467.952C439.386 468.504 438.35 468.789 437.33 468.789H437.363Z" fill="#1B1B1B"/>
<path opacity="0.2" d="M437.031 464.103C436.128 464.103 435.326 463.652 434.874 462.882C434.523 462.313 434.44 461.627 434.59 460.974C434.757 460.322 435.159 459.769 435.744 459.435L517.063 410.874C519.972 409.134 521.695 406.072 521.661 402.675C521.628 399.278 519.839 396.249 516.896 394.576L405.867 331.49C404.664 330.804 404.246 329.265 404.931 328.06C405.383 327.273 406.218 326.788 407.121 326.788C407.556 326.788 407.974 326.905 408.358 327.123L519.387 390.208C523.901 392.768 526.643 397.42 526.693 402.608C526.744 407.812 524.119 412.497 519.655 415.175L438.335 463.735C437.951 463.97 437.499 464.087 437.048 464.087L437.031 464.103Z" fill="#1B1B1B"/>
<path d="M436.697 462.765C436.212 462.765 435.794 462.53 435.544 462.112C435.36 461.811 435.31 461.443 435.393 461.091C435.477 460.74 435.694 460.456 436.012 460.271L517.332 411.711C520.609 409.753 522.531 406.306 522.498 402.491C522.448 398.675 520.458 395.278 517.131 393.388L406.102 330.302C405.467 329.934 405.233 329.114 405.601 328.478C405.835 328.06 406.286 327.792 406.771 327.792C407.005 327.792 407.222 327.842 407.423 327.96L518.452 391.045C522.598 393.404 525.106 397.671 525.173 402.44C525.223 407.226 522.799 411.527 518.702 413.987L437.383 462.547C437.182 462.681 436.931 462.731 436.697 462.731V462.765Z" fill="#272727"/>
<path d="M471.851 453.796C471.851 457.176 470.68 459.585 468.791 460.74C468.741 460.773 446.789 481.439 446.689 481.49C443.596 483.146 445.569 479.398 440.887 476.804C431.458 471.583 423.801 458.966 423.801 448.591C423.801 443.471 418.852 443.421 421.878 441.714C421.962 441.664 453.226 434.1 453.226 434.1C455.249 432.996 457.941 433.197 460.916 434.92C466.952 438.417 471.851 446.868 471.851 453.796Z" fill="#272727"/>
<path d="M432.662 441.53C422.396 435.589 414.07 440.342 414.07 452.139C414.07 463.936 422.396 478.293 432.662 484.234C442.927 490.174 451.253 485.422 451.253 473.625C451.253 461.828 442.927 447.47 432.662 441.53ZM432.662 477.658C425.556 473.558 419.788 463.601 419.788 455.435C419.788 447.269 425.556 443.99 432.662 448.089C439.767 452.189 445.535 462.146 445.535 470.312C445.535 478.477 439.767 481.757 432.662 477.658Z" fill="#1B1B1B"/>
<path d="M444.265 486.504C451.479 482.284 451.404 468.72 444.097 456.21C436.79 443.7 425.018 436.98 417.804 441.201C410.59 445.422 410.665 458.985 417.972 471.496C425.279 484.006 437.051 490.725 444.265 486.504Z" fill="#1B1B1B"/>
<path d="M440.187 479.527C445.185 476.603 445.138 467.214 440.082 458.558C435.026 449.901 426.876 445.254 421.878 448.179C416.88 451.103 416.927 460.491 421.983 469.148C427.039 477.804 435.189 482.451 440.187 479.527Z" fill="#272727"/>
<g style="mix-blend-mode:multiply" opacity="0.7">
<path d="M424.988 464.639C423.115 463.551 421.594 460.941 421.594 458.782C421.594 456.623 423.115 455.77 424.988 456.841C426.86 457.929 428.382 460.539 428.382 462.698C428.382 464.856 426.86 465.71 424.988 464.639Z" fill="#111111"/>
</g>
<g style="mix-blend-mode:multiply" opacity="0.7">
<path d="M436.605 472.002C434.732 470.914 433.211 468.303 433.211 466.145C433.211 463.986 434.732 463.133 436.605 464.204C438.477 465.291 439.999 467.902 439.999 470.061C439.999 472.219 438.477 473.073 436.605 472.002Z" fill="#111111"/>
</g>
<g style="mix-blend-mode:color-dodge" opacity="0.5">
<g style="mix-blend-mode:color-dodge" opacity="0.5">
<path d="M431.307 442.316C426.108 439.304 421.393 439.053 418.016 441.061C421.376 439.221 425.957 439.555 431.023 442.484C441.288 448.424 449.614 462.781 449.614 474.579C449.614 480.385 447.591 484.485 444.314 486.443C447.758 484.552 449.898 480.385 449.898 474.411C449.898 462.614 441.572 448.257 431.307 442.316Z" fill="#1B1B1B"/>
</g>
<g style="mix-blend-mode:color-dodge" opacity="0.5">
<path d="M422.08 448.039C419.673 449.328 418.168 452.223 418.168 456.389C418.168 464.555 423.936 474.495 431.041 478.611C434.669 480.703 437.946 480.87 440.287 479.448C437.963 480.686 434.803 480.469 431.326 478.444C424.22 474.344 418.452 464.388 418.452 456.222C418.452 452.223 419.84 449.395 422.08 448.039Z" fill="#1B1B1B"/>
</g>
</g>
<g style="mix-blend-mode:multiply" opacity="0.15">
<g style="mix-blend-mode:multiply" opacity="0.09">
<path d="M213.76 344.057L304.075 309.285C309.157 306.34 315.577 304.767 321.98 304.834C324.739 304.867 327.364 305.236 329.788 305.838C332.095 306.407 334.77 307.528 336.643 308.616L403.434 347.772C403.434 347.772 405.373 348.91 405.423 348.96C410.707 352.14 413.114 357.093 412.83 362.431C412.529 367.903 408.416 374.094 402.498 377.524L346.958 431.072C341.976 433.95 335.723 435.539 329.404 435.539C323.903 435.539 318.888 434.351 314.942 432.076L212.038 371.651C206.855 368.656 203.913 363.937 203.93 358.716C203.963 353.01 207.524 347.672 213.777 344.057H213.76Z" fill="#1B1B1B"/>
</g>
<g style="mix-blend-mode:multiply" opacity="0.18">
<path d="M214.148 344.124L304.462 309.352C309.528 306.424 315.948 304.901 322.301 305.018C325.059 305.085 327.651 305.52 330.042 306.139C332.115 306.675 335.124 308.013 336.813 308.984L403.236 347.939C403.353 348.006 405.109 349.044 405.209 349.127C410.392 352.34 412.097 357.26 411.529 362.531C410.994 367.434 406.429 374.245 401.113 377.323L346.593 430.385C341.728 433.197 335.626 434.736 329.456 434.753C324.09 434.753 319.191 433.615 315.346 431.389L212.442 370.362C207.46 367.484 204.685 363 204.735 358.046C204.785 352.658 208.196 347.588 214.181 344.141L214.148 344.124Z" fill="#1B1B1B"/>
</g>
<g style="mix-blend-mode:multiply" opacity="0.27">
<path d="M214.547 344.191L304.862 309.419C309.911 306.507 316.347 305.018 322.617 305.219C325.359 305.302 327.933 305.804 330.274 306.457C332.096 306.959 335.473 308.515 336.961 309.385L403.017 348.123C403.201 348.224 404.823 349.211 404.973 349.328C410.039 352.591 411.075 357.427 410.189 362.648C409.454 366.965 404.405 374.395 399.673 377.123L346.173 429.699C341.425 432.444 335.457 433.95 329.471 433.966C324.255 433.983 319.44 432.862 315.712 430.703L212.808 369.057C208.044 366.296 205.419 362.046 205.486 357.377C205.569 352.307 208.813 347.504 214.53 344.208L214.547 344.191Z" fill="#1B1B1B"/>
</g>
<g style="mix-blend-mode:multiply" opacity="0.36">
<path d="M214.933 344.275L305.247 309.503C310.263 306.608 316.733 305.169 322.919 305.42C325.644 305.537 328.185 306.106 330.509 306.775C332.097 307.244 335.809 309.017 337.113 309.77L402.801 348.291C403.051 348.441 404.539 349.345 404.723 349.512C409.672 352.826 411.16 357.929 408.853 362.749C408.853 366.581 402.399 374.529 398.253 376.922L345.773 428.997C341.142 431.674 335.324 433.13 329.506 433.146C324.423 433.163 319.726 432.092 316.098 430.001L213.194 367.752C208.646 365.125 206.172 361.092 206.272 356.691C206.373 351.939 209.466 347.404 214.933 344.258V344.275Z" fill="#1B1B1B"/>
</g>
<g style="mix-blend-mode:multiply" opacity="0.45">
<path d="M215.332 344.342L305.646 309.569C310.645 306.675 317.115 305.286 323.235 305.62C325.96 305.771 328.467 306.407 330.758 307.11C332.129 307.528 336.158 309.536 337.278 310.189L402.598 348.492C402.916 348.676 404.27 349.512 404.504 349.713C409.336 353.077 410.422 358.214 407.53 362.882C407.53 366.162 400.391 374.713 396.83 376.755L345.37 428.344C340.856 430.954 335.188 432.36 329.537 432.393C324.589 432.427 320.008 431.389 316.48 429.348L213.577 366.48C209.23 363.97 206.923 360.172 207.056 356.038C207.19 351.587 210.116 347.337 215.315 344.342H215.332Z" fill="#1B1B1B"/>
</g>
<g style="mix-blend-mode:multiply" opacity="0.55">
<path d="M215.719 344.409L306.034 309.636C311.016 306.758 317.503 305.42 323.538 305.804C326.247 305.988 328.721 306.691 330.978 307.411C332.115 307.779 336.495 310.021 337.415 310.573L402.367 348.659C402.735 348.876 403.972 349.646 404.256 349.897C408.971 353.311 409.656 358.482 406.196 362.983C406.196 365.727 398.371 374.847 395.412 376.554L344.972 427.658C340.575 430.201 335.041 431.557 329.574 431.607C324.776 431.641 320.295 430.653 316.868 428.662L213.964 365.192C209.835 362.799 207.678 359.235 207.845 355.369C207.995 351.236 210.771 347.253 215.703 344.409H215.719Z" fill="#1B1B1B"/>
</g>
<g style="mix-blend-mode:multiply" opacity="0.64">
<path d="M216.12 344.492L306.434 309.72C311.4 306.859 317.903 305.553 323.855 306.005C326.547 306.223 329.004 306.993 331.228 307.729C332.131 308.03 336.845 310.523 337.598 310.958L402.182 348.826C402.617 349.077 403.737 349.78 404.055 350.065C408.652 353.528 408.953 358.733 404.891 363.066C404.891 365.259 396.381 374.981 394.023 376.336L344.603 426.955C340.34 429.415 334.939 430.754 329.64 430.787C324.975 430.82 320.612 429.867 317.285 427.942L214.381 363.87C210.469 361.611 208.479 358.264 208.646 354.683C208.83 350.868 211.455 347.153 216.12 344.459V344.492Z" fill="#1B1B1B"/>
</g>
<g style="mix-blend-mode:multiply" opacity="0.73">
<path d="M216.5 344.559L306.814 309.787C311.746 306.942 318.266 305.687 324.151 306.206C326.843 306.44 329.251 307.277 331.458 308.047C332.126 308.281 337.175 311.025 337.744 311.36L401.96 349.027C402.462 349.312 403.448 349.947 403.816 350.282C408.313 353.796 408.196 359.034 403.565 363.217C403.565 364.857 394.37 375.165 392.598 376.186L344.214 426.319C340.068 428.712 334.818 430.001 329.685 430.051C325.171 430.101 320.908 429.181 317.681 427.323L214.778 362.631C211.083 360.49 209.244 357.377 209.445 354.064C209.645 350.567 212.12 347.119 216.517 344.576L216.5 344.559Z" fill="#1B1B1B"/>
</g>
<g style="mix-blend-mode:multiply" opacity="0.82">
<path d="M216.907 344.626L307.222 309.854C312.137 307.009 318.674 305.804 324.475 306.39C327.15 306.658 329.524 307.561 331.698 308.365C332.149 308.532 337.516 311.527 337.9 311.745L401.749 349.194C402.318 349.512 403.17 350.081 403.588 350.449C407.968 354.014 407.45 359.285 402.234 363.301C402.234 364.388 392.353 375.282 391.183 375.968L343.819 425.616C339.79 427.942 334.674 429.181 329.725 429.248C325.345 429.298 321.198 428.428 318.072 426.62L215.168 361.326C211.674 359.301 210.002 356.423 210.236 353.378C210.47 350.198 212.778 347.019 216.907 344.626Z" fill="#1B1B1B"/>
</g>
<g style="mix-blend-mode:multiply" opacity="0.91">
<path d="M217.288 344.693L307.603 309.921C312.501 307.093 319.055 305.938 324.79 306.591C327.448 306.892 329.788 307.863 331.945 308.683C332.162 308.766 337.88 312.029 338.064 312.146L401.545 349.378C402.164 349.747 402.899 350.232 403.367 350.65C407.631 354.265 406.711 359.586 400.927 363.418C400.927 363.97 390.377 375.449 389.775 375.784L343.431 424.93C339.519 427.189 334.553 428.394 329.772 428.461C325.542 428.511 321.496 427.691 318.47 425.934L215.566 360.021C212.289 358.13 210.768 355.47 211.019 352.692C211.27 349.83 213.426 346.919 217.305 344.676L217.288 344.693Z" fill="#1B1B1B"/>
</g>
<g style="mix-blend-mode:multiply" opacity="0.15">
<path d="M318.858 425.265L215.954 358.749C209.752 355.168 210.537 348.91 217.693 344.777L308.007 310.004C315.163 305.871 325.98 305.419 332.183 309L401.348 349.563C407.55 353.144 406.765 359.402 399.609 363.535L343.05 424.261C335.894 428.394 325.077 428.846 318.874 425.265H318.858Z" fill="#1B1B1B"/>
</g>
</g>
<path d="M318.857 425.114L215.953 365.292C213.195 363.702 211.807 361.577 211.773 359.335C211.773 359.268 211.773 344.927 211.773 344.86C211.824 342.15 213.83 346.852 217.692 344.626L308.006 309.854C315.162 305.721 325.979 305.269 332.182 308.85L401.347 349.412C403.42 350.6 404.908 345.53 405.46 347.153C405.643 347.688 405.526 361.51 405.543 362.062C405.61 364.84 403.604 367.785 399.625 370.078L343.065 424.11C335.91 428.244 325.093 428.695 318.89 425.114H318.857Z" fill="#1B1B1B"/>
<path d="M318.858 410.774L215.954 350.951C209.752 347.37 210.537 341.112 217.693 336.979L308.007 302.207C315.163 298.074 325.98 297.622 332.183 301.203L401.348 341.765C407.55 345.346 406.765 351.604 399.609 355.737L343.05 409.77C335.894 413.903 325.077 414.355 318.874 410.774H318.858Z" fill="#272727"/>
<path d="M453.293 411.108L200.573 264.958C187.649 257.495 177.184 237.465 177.184 220.212V26.7563C177.184 9.52076 187.649 1.58907 200.573 9.05222L453.293 155.203C466.216 162.666 476.682 182.696 476.682 199.948V393.404C476.682 410.64 466.216 418.572 453.293 411.108Z" fill="#1B1B1B"/>
<path d="M456.303 397.638L207.144 253.562C196.745 246.953 190.309 233.733 190.309 220.212V25.4845C190.309 22.2884 193.786 20.2972 196.561 21.9036C196.879 22.0876 197.13 22.2382 197.297 22.3386L446.723 166.598C459.095 173.743 463.559 186.428 463.559 199.948V394.057C463.559 397.487 459.847 399.646 456.872 397.939C456.637 397.805 456.454 397.705 456.32 397.621L456.303 397.638Z" fill="url(#paint0_linear_308_1908)"/>
<path d="M446.723 166.598L197.297 22.3386C197.147 22.255 196.879 22.1044 196.561 21.9036C193.803 20.2804 190.309 22.2717 190.309 25.4845V220.212C190.309 233.733 196.745 246.953 207.144 253.562L456.303 397.638C456.42 397.705 456.621 397.822 456.855 397.956C459.831 399.663 463.542 397.504 463.542 394.074V199.965C463.542 186.444 459.095 173.76 446.706 166.615L446.723 166.598ZM460.917 394.057C460.917 395.195 459.948 395.914 459.062 395.914C458.744 395.914 458.443 395.831 458.159 395.663L208.465 251.287C199.069 245.313 192.95 233.097 192.95 220.212V25.4845C192.95 24.5475 193.736 23.9618 194.472 23.9618C194.739 23.9618 194.99 24.0287 195.241 24.1793L445.419 168.874C458.242 176.27 460.934 189.858 460.934 199.948V394.057H460.917Z" fill="#424242"/>
<path d="M464.056 148.961L211.337 2.81064C206.221 -0.151195 201.489 -0.686675 197.644 0.802608C197.159 0.986676 186.493 7.19481 186.041 7.44581H186.008C190.004 5.52146 195.069 5.8896 200.57 9.06897L453.29 155.219C466.213 162.683 476.679 182.713 476.679 199.965V393.421C476.679 404.181 472.6 411.309 466.397 413.334C466.899 413.367 467.534 413.167 468.453 412.631C468.754 412.464 479.973 405.737 480.257 405.536C484.704 402.424 487.463 396.015 487.463 387.163V193.707C487.463 176.471 476.98 156.441 464.073 148.961H464.056Z" fill="#1B1B1B"/>
<path d="M463.857 149.095L211.137 2.94449C206.021 -0.0173448 201.29 -0.552825 197.445 0.936458C196.96 1.12053 186.494 7.19479 186.026 7.44579H185.992C189.988 5.52144 195.054 5.88958 200.554 9.06895L453.274 155.219C466.198 162.683 476.663 182.713 476.663 199.965V393.421C476.663 404.181 472.584 411.309 466.381 413.334C466.883 413.367 467.518 413.167 468.438 412.631C468.739 412.464 479.756 405.854 480.041 405.67C484.488 402.558 487.246 396.149 487.246 387.297V193.84C487.246 176.605 476.78 156.575 463.857 149.095Z" fill="#1B1B1B"/>
<path d="M463.672 149.212L210.952 3.06163C205.836 0.0997969 201.105 -0.435683 197.259 1.0536C196.775 1.23767 186.509 7.1948 186.041 7.4458H186.008C190.004 5.52145 195.069 5.88959 200.57 9.06895L453.29 155.219C466.213 162.683 476.679 182.713 476.679 199.965V393.421C476.679 404.181 472.6 411.309 466.397 413.334C466.899 413.367 467.534 413.167 468.453 412.631C468.754 412.464 479.571 405.988 479.856 405.787C484.303 402.675 487.061 396.266 487.061 387.414V193.958C487.061 176.722 476.579 156.692 463.672 149.212Z" fill="#1B1B1B"/>
<path d="M463.471 149.346L210.751 3.19548C205.636 0.233653 200.904 -0.301814 197.059 1.18747C196.574 1.37154 186.509 7.19479 186.041 7.4458H186.008C190.004 5.52144 195.069 5.88958 200.57 9.06895L453.29 155.219C466.213 162.683 476.679 182.713 476.679 199.965V393.421C476.679 404.181 472.6 411.309 466.397 413.334C466.899 413.367 467.534 413.167 468.453 412.631C468.754 412.464 479.371 406.122 479.655 405.921C484.102 402.808 486.861 396.4 486.861 387.547V194.091C486.861 176.856 476.395 156.826 463.471 149.346Z" fill="#1B1B1B"/>
<path d="M463.271 149.48L210.551 3.32937C205.435 0.367534 200.704 -0.167933 196.858 1.32135C196.373 1.50542 186.493 7.1948 186.041 7.44581H186.008C190.004 5.52145 195.069 5.88959 200.57 9.06896L453.29 155.219C466.213 162.683 476.679 182.713 476.679 199.965V393.421C476.679 404.181 472.6 411.309 466.397 413.334C466.899 413.367 467.534 413.167 468.453 412.631C468.754 412.464 479.17 406.256 479.454 406.055C483.902 402.942 486.66 396.533 486.66 387.681V194.225C486.66 176.99 476.178 156.96 463.271 149.48Z" fill="#1B1B1B"/>
<path d="M463.07 149.614L210.35 3.46322C205.234 0.501384 200.503 -0.0340834 196.658 1.4552C196.173 1.63927 186.493 7.19478 186.041 7.44579H186.008C190.004 5.52143 195.069 5.88957 200.57 9.06894L453.29 155.219C466.213 162.683 476.679 182.713 476.679 199.965V393.421C476.679 404.181 472.6 411.309 466.397 413.334C466.899 413.367 467.534 413.167 468.453 412.631C468.754 412.464 478.986 406.389 479.271 406.189C483.718 403.076 486.476 396.667 486.476 387.815V194.359C486.476 177.124 476.01 157.094 463.087 149.614H463.07Z" fill="#1B1B1B"/>
<path d="M454.415 154.651L201.695 8.50001C196.396 5.43778 191.53 5.00271 187.602 6.69279C190.945 6.15732 194.791 6.97726 198.887 9.33669L451.607 155.487C464.53 162.95 474.996 182.98 474.996 200.233V393.689C474.996 403.863 471.335 410.757 465.7 413.2C472.923 412.062 477.805 404.632 477.805 392.852V199.396C477.805 182.16 467.339 162.13 454.415 154.651Z" fill="#272727"/>
<path d="M58.9173 319.041C55.4064 321.065 52.7648 323.375 50.9425 325.784H48V344.325H48.0836C48.4514 348.157 50.9425 351.771 55.724 354.532L186.096 413.401L196.88 408.481V391.58L58.934 319.041H58.9173Z" fill="#1B1B1B"/>
<path d="M196.86 391.764C183.669 399.395 163.707 400.215 152.271 393.622L55.7043 337.816C44.2687 331.206 45.7065 319.677 58.8975 312.046L196.843 391.764H196.86Z" fill="#1B1B1B"/>
<g style="mix-blend-mode:color-dodge">
<path d="M196.859 392.768C183.667 400.399 163.705 401.219 152.27 394.626L55.7026 338.82C49.8844 335.456 47.4101 330.821 48.129 326.069C48.6473 329.733 51.1216 333.18 55.7026 335.841L152.27 391.647C163.705 398.257 183.651 397.42 196.859 389.79V392.785V392.768Z" fill="url(#paint1_linear_308_1908)"/>
</g>
<g style="mix-blend-mode:multiply" opacity="0.3">
<g style="mix-blend-mode:multiply" opacity="0.09">
<path d="M27.2052 85.3236C14.0309 77.7099 3.34766 83.8009 3.34766 98.9447V263.653C3.34766 278.796 14.0309 297.237 27.2052 304.851L230.07 422.019C243.244 429.632 258.742 422.772 258.742 407.645V242.937C258.742 227.793 243.244 210.122 230.07 202.508L27.2052 85.3403V85.3236Z" fill="#1B1B1B"/>
</g>
<g style="mix-blend-mode:multiply" opacity="0.18">
<path d="M26.919 85.7587C13.7614 78.1449 3.07812 84.2359 3.07812 99.363V263.05C3.07812 278.161 13.7447 296.584 26.919 304.198L229.399 421.148C242.557 428.762 257.553 421.985 257.553 406.858V243.171C257.553 228.06 242.557 210.323 229.399 202.709L26.919 85.7587Z" fill="#1B1B1B"/>
</g>
<g style="mix-blend-mode:multiply" opacity="0.27">
<path d="M26.616 86.177C13.4751 78.58 2.80859 84.6543 2.80859 99.7646V262.448C2.80859 277.542 13.4584 295.948 26.616 303.545L228.695 420.262C241.836 427.859 256.348 421.165 256.348 406.072V243.388C256.348 228.295 241.853 210.507 228.695 202.91L26.616 86.1938V86.177Z" fill="#1B1B1B"/>
</g>
<g style="mix-blend-mode:multiply" opacity="0.36">
<path d="M26.3326 86.6121C13.2084 79.0318 2.55859 85.1061 2.55859 100.183V261.862C2.55859 276.939 13.2084 295.312 26.3326 302.909L228.027 419.391C241.151 426.972 255.161 420.379 255.161 405.285V243.606C255.161 228.529 241.151 210.691 228.027 203.094L26.3326 86.6121Z" fill="#969696"/>
</g>
<g style="mix-blend-mode:multiply" opacity="0.45">
<path d="M26.053 87.0304C12.9456 79.4501 2.3125 85.5244 2.3125 100.585V261.243C2.3125 276.303 12.9456 294.66 26.053 302.223L227.363 418.488C240.47 426.068 253.996 419.542 253.996 404.482V243.823C253.996 228.763 240.487 210.875 227.363 203.295L26.053 87.0304Z" fill="#1B1B1B"/>
</g>
<g style="mix-blend-mode:multiply" opacity="0.55">
<path d="M25.7501 87.4655C12.6593 79.9019 2.04297 85.9595 2.04297 101.003V260.657C2.04297 275.701 12.6593 294.024 25.7501 301.587L226.659 417.618C239.749 425.181 252.773 418.739 252.773 403.712V244.058C252.773 229.014 239.749 211.076 226.659 203.496L25.7501 87.4655Z" fill="#1B1B1B"/>
</g>
<g style="mix-blend-mode:multiply" opacity="0.64">
<path d="M25.4627 87.9006C12.3887 80.337 1.78906 86.3946 1.78906 101.421V260.072C1.78906 275.098 12.3887 293.405 25.4627 300.952L225.987 416.764C239.061 424.328 251.6 417.969 251.6 402.942V244.292C251.6 229.265 239.077 211.277 225.987 203.713L25.4627 87.9006Z" fill="#1B1B1B"/>
</g>
<g style="mix-blend-mode:multiply" opacity="0.73">
<path d="M25.1804 88.3189C12.1231 80.7721 1.52344 86.8129 1.52344 101.823V259.469C1.52344 274.479 12.1064 292.752 25.1804 300.299L225.303 415.877C238.361 423.424 250.398 417.149 250.398 402.156V244.509C250.398 229.5 238.361 211.461 225.303 203.914L25.1804 88.3356V88.3189Z" fill="#1B1B1B"/>
</g>
<g style="mix-blend-mode:multiply" opacity="0.82">
<path d="M24.8969 88.754C11.8563 81.2072 1.27344 87.248 1.27344 102.241V258.867C1.27344 273.843 11.8563 292.116 24.8969 299.646L224.635 415.007C237.676 422.554 249.212 416.363 249.212 401.369V244.744C249.212 229.767 237.676 211.662 224.635 204.115L24.8969 88.754Z" fill="#1B1B1B"/>
</g>
<g style="mix-blend-mode:multiply" opacity="0.91">
<path d="M24.5979 89.1723C11.574 81.6422 1.00781 87.6663 1.00781 102.643V258.264C1.00781 273.224 11.574 291.464 24.5979 298.994L223.952 414.12C236.975 421.65 248.027 415.543 248.027 400.583V244.961C248.027 230.002 236.975 211.846 223.952 204.316L24.5979 89.189V89.1723Z" fill="#1B1B1B"/>
</g>
<g style="mix-blend-mode:multiply" opacity="0.3">
<path d="M24.3106 89.6074C11.3034 82.094 0.753906 88.1014 0.753906 103.044V257.662C0.753906 272.605 11.3034 290.811 24.3106 298.341L223.263 413.234C236.27 420.747 246.82 414.74 246.82 399.797V245.179C246.82 230.236 236.27 212.03 223.263 204.5L24.3106 89.6074Z" fill="#1B1B1B"/>
</g>
</g>
<path d="M246.785 243.673C246.785 228.68 236.202 210.407 223.144 202.86L23.6402 87.6496C10.5829 80.1028 0 86.1436 0 101.137V133.064L246.785 275.517V243.673Z" fill="url(#paint2_linear_308_1908)"/>
<path d="M23.6402 309.971L223.144 425.181C236.202 432.728 246.785 426.687 246.785 411.694V275.517L0 133.064V269.158C0 284.151 10.5829 302.424 23.6402 309.971Z" fill="url(#paint3_linear_308_1908)"/>
<path d="M23.6402 309.971L223.144 425.181C236.202 432.728 246.785 426.687 246.785 411.694V275.517L0 133.064V269.158C0 284.151 10.5829 302.424 23.6402 309.971Z" fill="#1B1B1B"/>
<g style="mix-blend-mode:color-dodge">
<path d="M223.144 202.86L23.6402 87.6496C10.5829 80.1028 0 86.1436 0 101.137V103.429C0 88.436 10.5829 82.3952 23.6402 89.9421L223.144 205.152C236.202 212.699 246.785 230.972 246.785 245.965V243.673C246.785 228.68 236.202 210.407 223.144 202.86Z" fill="#1B1B1B"/>
</g>
<path d="M47.5921 323.615C44.0426 325.638 41.372 327.946 39.5296 330.354H36.5547V348.881H36.6392C37.0111 352.71 39.5296 356.322 44.3637 359.081L141.994 414.846C153.555 421.451 173.72 420.615 187.073 412.99V396.102L47.6091 323.615H47.5921Z" fill="#1B1B1B"/>
<path d="M181.161 399.412C167.97 407.042 153.679 404.817 142.244 398.224L45.6765 342.417C34.2409 335.808 32.4852 330.17 45.6763 322.54L181.161 399.412Z" fill="#272727"/>
<path d="M32.7031 203.027L40.3101 207.411L46.1951 237.314L46.3121 237.381V210.875L51.7122 213.988V258.248L45.4929 254.65L38.2203 218.138L38.1033 218.071V250.383L32.7031 247.271V203.01V203.027Z" fill="white"/>
<path d="M58.1318 259.72C56.5603 256.876 55.7578 253.679 55.7578 250.132V226.856C55.7578 223.308 56.5436 221.032 58.1318 219.995C59.7034 218.974 61.9939 219.309 64.9531 221.032C67.9123 222.756 70.2027 225.032 71.7743 227.893C73.3458 230.738 74.1484 233.934 74.1484 237.481V260.758C74.1484 264.305 73.3626 266.581 71.7743 267.619C70.2027 268.639 67.9123 268.305 64.9531 266.581C61.9772 264.857 59.7034 262.582 58.1318 259.72ZM68.0962 257.696V233.532C68.0962 230.621 67.0429 228.562 64.9531 227.358C62.8633 226.153 61.81 227.006 61.81 229.901V254.064C61.81 256.976 62.8633 259.034 64.9531 260.239C67.0429 261.444 68.0962 260.59 68.0962 257.696Z" fill="white"/>
<path d="M82.7583 238.285L76.4219 234.62V228.295L95.1468 239.121V245.447L88.8104 241.782V279.734L82.7583 276.236V238.301V238.285Z" fill="white"/>
<path d="M106.867 245.898L122.884 255.152V261.477L112.919 255.721V268.054L120.744 272.572V278.897L112.919 274.379V293.673L106.867 290.175V245.915V245.898Z" fill="white"/>
<path d="M127.733 299.948C126.162 297.103 125.359 293.907 125.359 290.359V267.083C125.359 263.536 126.145 261.26 127.733 260.222C129.305 259.202 131.595 259.536 134.555 261.26C137.531 262.983 139.804 265.259 141.376 268.121C142.947 270.965 143.75 274.161 143.75 277.709V300.985C143.75 304.533 142.964 306.808 141.376 307.829C139.804 308.85 137.514 308.515 134.555 306.792C131.579 305.068 129.305 302.792 127.733 299.931V299.948ZM137.698 297.923V273.76C137.698 270.848 136.644 268.79 134.555 267.585C132.465 266.38 131.412 267.234 131.412 270.129V294.292C131.412 297.203 132.465 299.262 134.555 300.466C136.644 301.671 137.698 300.818 137.698 297.923Z" fill="white"/>
<path d="M149.932 312.799C148.394 309.988 147.625 306.792 147.625 303.211V269.442L153.677 272.94V307.21C153.677 308.733 153.945 309.971 154.48 310.958C155.015 311.946 155.767 312.715 156.77 313.284C157.757 313.853 158.526 313.954 159.061 313.586C159.596 313.217 159.863 312.28 159.863 310.758V276.487L165.698 279.867V313.636C165.698 317.217 164.929 319.526 163.391 320.547C161.853 321.567 159.612 321.233 156.67 319.543C153.727 317.853 151.487 315.594 149.949 312.782L149.932 312.799Z" fill="white"/>
<path d="M169.961 282.361L177.568 286.745L183.453 316.648L183.57 316.715V290.209L188.97 293.321V337.581L182.751 333.984L175.478 297.471L175.361 297.404V329.717L169.961 326.604V282.344V282.361Z" fill="white"/>
<path d="M193.488 295.948L202.734 301.286C205.743 303.027 208 305.252 209.505 307.98C211.009 310.707 211.762 313.853 211.762 317.434V339.824C211.762 343.405 211.009 345.697 209.505 346.684C208 347.672 205.743 347.287 202.734 345.546L193.488 340.208V295.948ZM202.633 339.171C203.62 339.74 204.389 339.84 204.924 339.472C205.459 339.104 205.726 338.167 205.726 336.644V313.619C205.726 312.096 205.459 310.858 204.924 309.871C204.389 308.883 203.636 308.114 202.633 307.545L199.557 305.771V337.397L202.633 339.171Z" fill="white"/>
<path d="M355.875 474.411C355.875 475.298 355.574 475.934 355.073 476.235C355.073 476.235 342.701 482.661 342.684 482.661C342.166 482.945 342.5 482.31 341.714 481.874C340.126 481.004 338.839 478.879 338.839 477.122C338.839 476.252 338.003 476.252 338.521 475.968L350.993 469.224C351.528 468.939 352.23 468.99 353.016 469.441C354.604 470.362 355.892 472.587 355.892 474.395L355.875 474.411Z" fill="#1B1B1B"/>
<path d="M372.125 488.97C372.125 489.856 371.824 490.492 371.323 490.793C371.323 490.793 358.951 497.219 358.934 497.219C358.416 497.504 358.75 496.868 357.964 496.433C356.376 495.562 355.089 493.437 355.089 491.68C355.089 490.81 354.253 490.81 354.771 490.526L367.243 483.782C367.778 483.498 368.48 483.548 369.266 484C370.854 484.92 372.142 487.146 372.142 488.97H372.125Z" fill="#1B1B1B"/>
<path d="M343.068 468.304C332.802 462.363 324.477 467.116 324.477 478.913C324.477 490.71 332.802 505.067 343.068 511.008C353.333 516.948 361.659 512.196 361.659 500.398C361.659 488.601 353.333 474.244 343.068 468.304ZM343.068 504.431C335.962 500.332 330.194 490.375 330.194 482.209C330.194 474.043 335.962 470.763 343.068 474.863C350.173 478.963 355.941 488.919 355.941 497.085C355.941 505.251 350.173 508.531 343.068 504.431Z" fill="#1B1B1B"/>
<path d="M354.679 513.261C361.893 509.04 361.818 495.477 354.511 482.967C347.204 470.457 335.433 463.737 328.218 467.958C321.004 472.179 321.08 485.743 328.386 498.253C335.693 510.763 347.465 517.482 354.679 513.261Z" fill="#1B1B1B"/>
<path d="M354.67 502.373C354.67 507.46 352.915 511.058 350.073 512.798C349.989 512.848 320.046 519.742 319.996 519.759C318.023 520.813 319.277 518.42 316.284 516.764C310.249 513.434 305.35 505.352 305.35 498.708C305.35 495.429 302.19 495.395 304.13 494.308C304.18 494.274 326.75 472.822 326.75 472.822C329.793 471.182 333.822 471.466 338.286 474.043C347.347 479.281 354.687 491.948 354.687 502.356L354.67 502.373Z" fill="#272727"/>
<path d="M311.353 495.278C305.518 491.898 300.77 494.609 300.77 501.319C300.77 508.029 305.501 516.195 311.353 519.575C317.187 522.955 321.935 520.244 321.935 513.534C321.935 506.824 317.204 498.658 311.353 495.278Z" fill="#1B1B1B"/>
<path d="M270.109 529.983C260.463 529.983 250.816 527.523 242.222 522.621L65.9237 421.968C60.3898 418.806 57.0294 413.116 56.9625 406.741C56.8789 400.365 60.0889 394.592 65.5559 391.296L92.2223 375.182C94.9808 373.508 98.5921 374.395 100.247 377.173C101.919 379.934 101.033 383.548 98.2577 385.205L71.5914 401.319C68.8997 402.942 68.6489 405.553 68.6656 406.607C68.6656 407.645 69 410.255 71.7251 411.811L248.024 512.463C261.566 520.194 278.402 520.244 291.994 512.58L306.656 504.314C309.465 502.724 313.043 503.728 314.631 506.54C316.219 509.351 315.216 512.932 312.407 514.522L297.745 522.788C289.219 527.59 279.672 530 270.126 530L270.109 529.983Z" fill="#1B1B1B"/>
<path opacity="0.2" d="M269.77 525.298C260.541 525.298 251.463 522.905 243.538 518.387L67.2399 417.735C62.7425 415.175 60.0173 410.539 59.9505 405.369C59.8836 400.198 62.4917 395.496 66.9222 392.819L93.5885 376.704C93.9898 376.47 94.4245 376.336 94.8759 376.336C95.762 376.336 96.5645 376.788 97.0326 377.558C97.3837 378.127 97.484 378.813 97.3168 379.449C97.1496 380.101 96.7484 380.653 96.1799 380.988L69.5136 397.102C66.6212 398.843 64.9159 401.905 64.9661 405.285C65.0162 408.665 66.7884 411.677 69.7142 413.351L246.03 514.003C253.219 518.102 261.427 520.278 269.77 520.278C278.113 520.278 286.171 518.153 293.293 514.137L307.956 505.87C308.34 505.653 308.741 505.552 309.176 505.552C310.079 505.552 310.932 506.038 311.366 506.824C312.052 508.029 311.617 509.568 310.413 510.238L295.751 518.504C287.876 522.938 278.899 525.281 269.77 525.281V525.298Z" fill="#1B1B1B"/>
<path d="M269.439 523.959C260.411 523.959 251.55 521.617 243.792 517.199L67.4935 416.547C63.364 414.187 60.8562 409.937 60.806 405.185C60.7392 400.432 63.1466 396.115 67.2093 393.655L93.8756 377.541C94.093 377.407 94.3103 377.34 94.5611 377.34C95.0292 377.34 95.4639 377.574 95.7147 377.993C95.8986 378.311 95.9488 378.662 95.8652 379.013C95.7816 379.365 95.5642 379.649 95.2633 379.833L68.597 395.948C65.3535 397.906 63.4309 401.353 63.481 405.151C63.5312 408.95 65.5207 412.347 68.8143 414.221L245.113 514.873C252.469 519.073 260.879 521.299 269.439 521.299C277.999 521.299 286.224 519.123 293.53 515.007L308.193 506.74C308.393 506.623 308.611 506.573 308.845 506.573C309.33 506.573 309.781 506.841 310.015 507.259C310.383 507.895 310.149 508.715 309.497 509.083L294.834 517.349C287.144 521.683 278.35 523.976 269.422 523.976L269.439 523.959Z" fill="#272727"/>
<g opacity="0.9">
<path d="M274.775 214.439L247.941 198.944V184.269L273.488 129.634L288.819 138.486V207.88L295.456 211.712V226.387L288.819 222.555V241.196L274.758 233.081V214.439H274.775ZM274.775 199.764V159.704L274.524 159.553L260.731 191.632L274.775 199.747V199.764Z" fill="white"/>
<path d="M306.84 246.317C303.179 239.707 301.34 232.277 301.34 224.061V170.062C301.34 161.846 303.179 156.541 306.84 154.165C310.502 151.789 315.785 152.576 322.673 156.575C329.578 160.557 334.844 165.862 338.506 172.472C342.167 179.081 344.006 186.511 344.006 194.727V248.726C344.006 256.943 342.167 262.247 338.506 264.623C334.844 266.999 329.561 266.213 322.673 262.214C315.768 258.231 310.485 252.926 306.84 246.317ZM329.962 241.631V185.591C329.962 178.847 327.538 174.061 322.673 171.267C317.824 168.456 315.384 170.43 315.384 177.191V233.231C315.384 239.975 317.808 244.761 322.673 247.555C327.521 250.366 329.962 248.392 329.962 241.631Z" fill="white"/>
<path d="M376.978 273.492L350.145 257.997V243.321L375.691 188.687L391.022 197.539V266.932L397.659 270.764V285.44L391.022 281.608V300.249L376.961 292.133V273.492H376.978ZM376.978 258.817V218.757L376.727 218.606L362.934 250.684L376.978 258.8V258.817Z" fill="white"/>
</g>
<path d="M49.2203 124.647L26.4327 163.067C24.3763 165.226 26.4661 171.049 30.0272 173.108L75.6023 199.446C79.1634 201.504 81.2533 198.091 79.1969 193.573L56.4093 128.814C54.6538 124.949 50.9757 122.823 49.2203 124.664V124.647Z" fill="#FCB808"/>
<path d="M49.6211 158.265V140.561L55.4225 143.908V161.612L54.6869 169.677L50.3567 167.184L49.6211 158.265ZM49.7214 171.618L55.3222 174.848V181.274L49.7214 178.044V171.618Z" fill="white"/>
<defs>
<linearGradient id="paint0_linear_308_1908" x1="171.939" y1="-137.089" x2="443.784" y2="-107.676" gradientUnits="userSpaceOnUse">
<stop stop-color="#FCB808"/>
<stop offset="1" stop-color="#F9075E"/>
</linearGradient>
<linearGradient id="paint1_linear_308_1908" x1="38.001" y1="295.405" x2="175.106" y2="337.155" gradientUnits="userSpaceOnUse">
<stop stop-color="#FCB808"/>
<stop offset="1" stop-color="#F9075E"/>
</linearGradient>
<linearGradient id="paint2_linear_308_1908" x1="-16.5906" y1="4.12923" x2="222.891" y2="50.3164" gradientUnits="userSpaceOnUse">
<stop stop-color="#FCB808"/>
<stop offset="1" stop-color="#F9075E"/>
</linearGradient>
<linearGradient id="paint3_linear_308_1908" x1="123.392" y1="133.064" x2="123.392" y2="428.432" gradientUnits="userSpaceOnUse">
<stop stop-color="#111111"/>
<stop offset="1" stop-color="#1B1B1B"/>
</linearGradient>
</defs>
</svg>
