<svg width="18" height="18" viewBox="0 0 18 18" fill="none" xmlns="http://www.w3.org/2000/svg">
<g clip-path="url(#clip0_486_3508)">
<path d="M15.8221 5.15812C16.199 4.37108 16.1456 3.41762 15.4986 2.7707L15.2293 2.50139C14.5824 1.85447 13.6033 1.75154 12.8419 2.17793C12.3061 2.47802 11.1721 1.85404 11.0881 1.44986C10.9118 0.601056 10.0927 0 9.18378 0L8.721 0.023508C7.65677 0.07758 6.82164 0.956232 6.82164 2.02183C6.858 2.484 6.066 2.826 5.60596 2.52533C4.8164 1.73578 3.53628 1.73578 2.74673 2.52533L2.52529 2.74676C1.84824 3.42385 1.76958 4.45097 2.23603 5.2416C2.556 5.78398 2.24399 6.74399 1.71832 6.87323C0.761796 7.10842 0 7.812 0 8.84873V9.18342C0 10.1016 0.668808 10.7866 1.50077 11.0817C2.36398 11.388 2.2959 12.6542 2.20741 12.8059C1.75594 13.58 1.86188 14.5898 2.52533 15.2532L2.74676 15.4747C3.40686 16.1348 4.39272 16.2117 5.18245 15.7993C5.74801 15.504 6.80404 16.056 6.89162 16.5073C7.06136 17.3818 7.90996 18 8.84351 18H9.13158C10.0468 18 10.8217 17.3994 11.0836 16.5708C11.2549 16.0289 12.084 15.48 12.9089 15.827C13.6936 16.1571 14.6601 16.0678 15.2733 15.4546L15.4747 15.2532C16.2643 14.4637 16.2643 13.1836 15.4747 12.394C15.12 12.072 15.576 11.184 15.9782 11.1784C17.0949 11.1784 18 10.2731 18 9.15653V8.81039C18 7.88062 17.3828 7.05132 16.5141 6.86041C15.93 6.732 15.633 5.553 15.8221 5.15812Z" fill="#FCB808"/>
<path d="M7.42522 11.7479L5.07906 9.40177C4.79787 9.12057 4.79787 8.6647 5.07906 8.38354C5.36026 8.10235 5.81612 8.10235 6.09728 8.38354L7.93433 10.2206L11.9028 6.25216C12.1839 5.97096 12.6398 5.97096 12.921 6.25216C13.2021 6.53335 13.2022 6.98922 12.921 7.27038L8.44348 11.7479C8.14802 12 7.62005 11.964 7.42522 11.7479Z" fill="#161616"/>
</g>
<defs>
<clipPath id="clip0_486_3508">
<rect width="18" height="18" fill="white"/>
</clipPath>
</defs>
</svg>
